<svg width="54" height="60" viewBox="0 0 54 60" fill="none" xmlns="http://www.w3.org/2000/svg">
<path d="M54 0H0V60H54V0Z" fill="rgba(26, 29, 33, 0.8)"/>
<path d="M7.56438 43.1062C7.56438 43.3784 7.89975 43.4853 9.13018 43.4853C10.4837 43.4853 10.6546 43.3942 10.6546 43.2243C10.6546 43.0432 10.5621 42.952 8.93418 42.8992C6.73901 42.8249 6.15538 42.4503 6.15538 41.6234C6.15538 40.7426 6.93066 40.2836 9.02783 40.2836C11.26 40.2836 11.9623 40.5716 11.9623 41.5008C11.9623 41.5807 11.9623 41.6606 11.9569 41.7517C11.8023 41.7416 11.5279 41.7359 11.2644 41.7359C10.9911 41.7359 10.7167 41.7416 10.562 41.7517V41.6504C10.562 41.3782 10.3759 41.2871 9.00714 41.2871C7.74622 41.2871 7.56111 41.3669 7.56111 41.5278C7.56111 41.6876 7.65911 41.7573 9.39042 41.8484C11.4419 41.9553 12.0712 42.2647 12.0712 43.1613C12.0712 44.095 11.3537 44.5439 9.1476 44.5439C6.89472 44.5439 6.12598 44.1546 6.12598 43.3424C6.12598 43.2468 6.13142 43.1444 6.14667 43.0387C6.32742 43.06 6.60073 43.0758 6.85988 43.0758C7.12339 43.0758 7.37165 43.0702 7.56765 43.06V43.1062H7.56438Z" fill="white"/>
<path d="M18.8455 44.4145C18.8662 43.843 18.8814 43.2884 18.8868 42.6269C18.8868 42.3546 18.9075 42.061 18.9228 41.7786L18.8868 41.7685C18.7573 42.0351 18.6135 42.313 18.4371 42.5481L17.0728 44.4167H16.365L14.8362 42.3141C14.6653 42.079 14.5161 41.8023 14.3865 41.5458L14.3506 41.5559C14.3658 41.8338 14.3865 42.1105 14.392 42.4154C14.3974 43.1624 14.4127 43.7867 14.4432 44.4167H13.0581C13.0886 43.8407 13.0995 43.258 13.0995 42.4098C13.0995 41.5345 13.0897 40.936 13.0733 40.4129H15.1498C15.434 40.8449 15.8576 41.4963 16.3901 42.2916C16.5294 42.4941 16.6797 42.7236 16.8245 42.9587H16.855C16.9944 42.718 17.1283 42.4885 17.2579 42.2916C17.7533 41.5289 18.2183 40.8348 18.4981 40.4129H20.3318C20.3165 40.936 20.3013 41.5334 20.3013 42.4098C20.3013 43.258 20.3067 43.8407 20.3427 44.4167H18.8455V44.4145Z" fill="white"/>
<path d="M26.3138 44.414C26.267 44.297 26.1429 44.0348 25.973 43.7097C25.4362 43.7041 24.8929 43.7041 24.4802 43.7041C24.1034 43.7041 23.5503 43.7041 23.0287 43.7097C22.8534 44.0135 22.714 44.27 22.6465 44.414H20.9468C21.685 43.3576 23.1169 41.1155 23.4523 40.4113H25.6017C25.9534 41.1155 27.3842 43.3306 28.154 44.414H26.3138ZM24.16 41.7927C23.9847 42.0807 23.7833 42.4171 23.5862 42.7535C23.9118 42.7591 24.2374 42.7591 24.4856 42.7591C24.7546 42.7591 25.1052 42.7591 25.4569 42.7535C25.2653 42.4115 25.0638 42.0706 24.8831 41.7815C24.723 41.5306 24.6098 41.3225 24.5216 41.1571L24.16 41.7927Z" fill="white"/>
<path d="M33.154 42.776C34.0577 42.8671 34.4715 43.0167 34.637 43.6242C34.7296 43.9707 34.8123 44.2598 34.8798 44.414H33.5939C33.3619 44.414 33.3206 44.3611 33.191 43.838C33.0777 43.3677 32.9068 43.2822 31.9671 43.2822H30.1182C30.128 43.7356 30.1487 44.126 30.1802 44.414H28.7026C28.7124 43.8323 28.7233 43.2721 28.7233 42.4126C28.7233 41.5644 28.7179 40.9872 28.7026 40.4113H32.5464C33.9467 40.4113 34.6022 40.7904 34.6022 41.6015C34.6022 42.29 34.1677 42.6421 33.1561 42.7546V42.776H33.154ZM32.0945 42.2855C32.9264 42.2855 33.2258 42.1415 33.2258 41.8479C33.2258 41.5441 32.9318 41.4417 32.1097 41.4417C31.7166 41.4417 30.6169 41.4474 30.0953 41.4631C30.0953 41.7354 30.0953 42.0076 30.1008 42.2686C30.4731 42.2855 31.2626 42.2855 32.0945 42.2855Z" fill="white"/>
<path d="M40.6756 40.4113C40.6658 40.5665 40.6658 40.8005 40.6658 41.0086C40.6658 41.2111 40.6658 41.462 40.6756 41.633C39.958 41.6116 39.2448 41.6116 38.6241 41.6116C38.6241 42.9515 38.6296 44.1091 38.6448 44.4196C38.4543 44.4038 38.133 44.4038 37.9164 44.4038C37.6997 44.4038 37.3948 44.4038 37.1879 44.4196C37.2031 44.1102 37.214 42.9571 37.214 41.6116C36.5945 41.6116 35.8813 41.6116 35.1626 41.633C35.168 41.462 35.168 41.2167 35.168 41.0086C35.168 40.8005 35.168 40.571 35.1626 40.4113H40.6756Z" fill="white"/>
<path d="M9.40086 51C6.99336 51 6.00684 50.1135 6.00684 48.8063C6.00684 47.445 7.0968 46.6339 9.40086 46.6339C11.7049 46.6339 12.7949 47.445 12.7949 48.8063C12.7949 50.1146 11.8084 51 9.40086 51ZM11.3434 48.8119C11.3434 48.1549 10.8425 47.7926 9.40086 47.7926C7.95919 47.7926 7.45831 48.156 7.45831 48.8119C7.45831 49.4576 7.95374 49.8424 9.40086 49.8424C10.8534 49.8424 11.3434 49.4576 11.3434 48.8119Z" fill="white"/>
<path d="M18.174 49.1793C19.0777 49.2704 19.4915 49.42 19.657 50.0275C19.7496 50.374 19.8323 50.6631 19.8998 50.8173H18.6139C18.3819 50.8173 18.3406 50.7644 18.211 50.2413C18.0978 49.771 17.9268 49.6855 16.9871 49.6855H15.1382C15.148 50.1389 15.1687 50.5293 15.2003 50.8173H13.7227C13.7325 50.2357 13.7433 49.6754 13.7433 48.8159C13.7433 47.9677 13.7379 47.3906 13.7227 46.8146H17.5664C18.9667 46.8146 19.6222 47.1937 19.6222 48.0048C19.6222 48.6933 19.1877 49.0454 18.1762 49.1579V49.1793H18.174ZM17.1145 48.6888C17.9464 48.6888 18.2458 48.5448 18.2458 48.2512C18.2458 47.9474 17.9518 47.8451 17.1297 47.8451C16.7367 47.8451 15.6369 47.8507 15.1153 47.8664C15.1153 48.1387 15.1153 48.4109 15.1208 48.6719C15.4932 48.6888 16.2837 48.6888 17.1145 48.6888Z" fill="white"/>
<path d="M25.41 50.818C25.3632 50.701 25.2391 50.4389 25.0692 50.1138C24.5324 50.1081 23.989 50.1081 23.5764 50.1081C23.1996 50.1081 22.6465 50.1081 22.1249 50.1138C21.9496 50.4175 21.8102 50.674 21.7427 50.818H20.043C20.7812 49.7616 22.2131 47.5195 22.5485 46.8153H24.6979C25.0496 47.5195 26.4804 49.7346 27.2502 50.818H25.41ZM23.2562 48.1968C23.0809 48.4848 22.8795 48.8212 22.6824 49.1575C23.008 49.1631 23.3335 49.1632 23.5818 49.1632C23.8508 49.1632 24.2014 49.1631 24.5531 49.1575C24.3614 48.8155 24.16 48.4747 23.9792 48.1855C23.8192 47.9347 23.7059 47.7265 23.6177 47.5612L23.2562 48.1968Z" fill="white"/>
<path d="M34.0137 46.8153C33.9984 47.3069 33.993 47.9628 33.993 48.8122C33.993 49.693 33.993 50.2848 34.0028 50.8191H32.5306C32.2258 50.4614 30.6197 49.3297 29.7311 48.6895C29.5145 48.5298 29.2923 48.3689 29.1116 48.199C29.1323 48.5197 29.1377 48.8392 29.1475 49.1654C29.153 49.9923 29.1573 50.5739 29.1736 50.8203H27.8452C27.8452 50.2814 27.8605 49.6728 27.8605 48.8189C27.8605 47.9707 27.8605 47.3621 27.8452 46.8176H29.5297C29.7203 47.0741 31.4929 48.3757 32.2835 48.937C32.4697 49.0653 32.6559 49.1665 32.7952 49.3049C32.7745 49.0113 32.7647 48.7289 32.7647 48.5095C32.7647 47.7682 32.7495 47.1011 32.7288 46.8176H34.0137V46.8153Z" fill="white"/>
<path d="M38.3906 50.9468C36.2161 50.9468 34.9497 50.3011 34.9497 48.7902C34.9497 47.1995 36.2672 46.6876 38.3132 46.6876C40.2656 46.6876 41.4742 47.0184 41.4742 48.2142C41.4742 48.2514 41.4742 48.2941 41.4688 48.3312C41.3142 48.32 41.0398 48.3155 40.7763 48.3155C40.4921 48.3155 40.2231 48.3211 40.0631 48.3312C40.0631 48.3099 40.0685 48.2885 40.0685 48.2671C40.0685 47.8936 39.5774 47.7755 38.3067 47.7755C36.963 47.7755 36.4055 48.059 36.4055 48.8161C36.4055 49.5046 36.9271 49.8725 38.3895 49.8725C39.4794 49.8725 39.9596 49.7015 40.099 49.3392C39.3814 49.3392 38.4145 49.3448 37.7742 49.3606C37.7797 49.2807 37.7797 49.1097 37.7797 49.0298C37.7797 48.8858 37.7797 48.7576 37.7742 48.6563C38.6116 48.6721 39.4685 48.6676 40.0936 48.6676C40.4757 48.6676 40.9668 48.6732 41.4786 48.6563C41.5733 50.0975 41.2216 50.9468 38.3906 50.9468Z" fill="white"/>
<path d="M48.0003 46.8153C47.9948 46.9323 47.9905 47.1191 47.9905 47.2856C47.9905 47.4566 47.9905 47.6489 48.0003 47.7603C46.9255 47.7547 44.983 47.7502 44.0172 47.7502V48.3644C45.1333 48.3644 47.0802 48.3644 47.9436 48.3487C47.9382 48.5568 47.9338 48.9843 47.9382 49.2082C47.091 49.198 45.1224 49.1868 44.0172 49.1868V49.8111C44.983 49.8111 46.993 49.8055 48.0003 49.801C47.9905 49.9293 47.9905 50.1318 47.9905 50.3185C47.9905 50.4895 47.9905 50.6864 48.0003 50.8203H42.5396C42.5602 50.2758 42.5602 49.6728 42.5602 48.8189C42.5602 47.9707 42.5602 47.3564 42.5396 46.8176H48.0003V46.8153Z" fill="white"/>
<path d="M12.625 29.686C12.3256 29.686 12.0436 29.6511 11.7801 29.5791C10.8785 29.3316 10.2513 28.6555 9.96274 27.6216C7.67501 25.8036 6.3161 23.2364 6.13426 20.3868C5.93499 17.2751 7.1284 14.2208 9.49452 11.7863L9.65132 11.6254L9.71012 11.8448C10.6193 15.2558 15.3342 21.1631 20.2188 25.0139L20.3364 25.1061L20.2319 25.2141C17.476 28.0514 14.6612 29.686 12.625 29.686ZM9.52392 12.1339C7.31351 14.4874 6.20177 17.4034 6.39123 20.3688C6.56872 23.1554 7.90477 25.6653 10.1533 27.4371L10.1881 27.4641L10.199 27.5069C10.4593 28.4822 11.0135 29.0931 11.8454 29.3203C12.0915 29.3878 12.3572 29.4205 12.6381 29.4205C14.5719 29.4205 17.2702 27.8534 19.9445 25.1309C15.1654 21.3318 10.5725 15.5921 9.52392 12.1339Z" fill="white"/>
<path d="M11.9849 29.612C9.49031 27.6455 7.07954 24.617 6.61133 22.8598L6.85959 22.7889C7.31583 24.4989 9.68522 27.4644 12.1406 29.4005L11.9849 29.612Z" fill="white"/>
<path d="M15.5981 28.7424C11.3439 25.3889 7.23444 20.2297 6.43848 17.2395L6.68674 17.1686C7.47073 20.1104 11.5388 25.2077 15.7549 28.5309L15.5981 28.7424Z" fill="white"/>
<path d="M10.0229 27.6665C8.69885 27.1028 7.86042 26.087 7.598 24.7257C7.11672 22.2294 8.59214 18.9253 11.5441 15.8867L11.7259 16.0746C8.83496 19.0502 7.38676 22.2643 7.85062 24.6729C8.09453 25.9418 8.88069 26.8913 10.1209 27.419L10.0229 27.6665Z" fill="white"/>
<path d="M9.62714 27.8706C9.55746 27.8706 9.49975 27.8469 9.45728 27.7907C9.36908 27.6714 9.22099 27.4734 10.887 25.4878C11.953 24.2166 13.4948 22.5393 15.3437 20.6369L15.5256 20.8248C11.4085 25.0626 9.81225 27.1404 9.68159 27.5961C9.73603 27.5803 9.83839 27.5376 10.0202 27.4284L10.1498 27.6579C9.95925 27.7716 9.76979 27.8706 9.62714 27.8706Z" fill="white"/>
<path d="M17.5488 30.1545C16.2204 30.1545 14.9039 29.9599 13.6561 29.565C12.9668 29.7191 12.3374 29.7281 11.7908 29.5785C10.8762 29.3276 10.2446 28.6358 9.96259 27.5783L9.86133 27.198L10.1651 27.4376C11.2213 28.2701 12.4126 28.8877 13.6757 29.2939C15.5104 28.8619 17.7981 27.3555 20.0619 25.0257L20.1414 24.9435L20.2307 25.0144C22.2832 26.6321 23.7554 27.441 24.7942 27.8213C25.6947 27.261 26.5374 26.5894 27.2953 25.8087L27.4521 25.6478L27.5109 25.8672C27.8887 27.2858 27.5196 27.8978 27.1429 28.1599C26.6474 28.5053 25.8482 28.4794 24.8214 28.1126C22.6033 29.4626 20.0543 30.1545 17.5488 30.1545ZM14.1439 29.4356C17.5161 30.3716 21.3413 29.8564 24.5067 27.9945C23.3013 27.5063 21.8172 26.5928 20.1621 25.2968C18.0616 27.4399 15.9318 28.8832 14.1439 29.4356ZM10.3372 27.8989C10.6312 28.6481 11.1408 29.1262 11.8561 29.322C12.2427 29.4277 12.6739 29.4491 13.1432 29.3906C12.1469 29.0261 11.2017 28.53 10.3372 27.8989ZM25.1132 27.9293C26.3251 28.3028 26.8521 28.0418 26.9969 27.9405C27.4957 27.5929 27.4619 26.82 27.3149 26.1597C26.6376 26.8335 25.8983 27.4241 25.1132 27.9293Z" fill="white"/>
<path d="M15.1592 31.2272C14.4536 31.2272 13.3299 30.6602 12.0015 29.6129L12.1572 29.4014C14.0475 30.892 15.1385 31.1271 15.4989 30.8762C15.7483 30.7019 15.6949 30.2699 15.6067 29.938L15.855 29.8671C16.0564 30.6209 15.8506 30.9516 15.6437 31.0967C15.5174 31.1845 15.3541 31.2272 15.1592 31.2272Z" fill="white"/>
<path d="M20.9412 31.4898C19.7641 31.4898 17.864 30.5235 15.6035 28.7426L15.7592 28.5311C18.4531 30.654 20.7397 31.6462 21.5825 31.0567C22.054 30.7282 21.9625 29.9464 21.8036 29.3479L22.0518 29.277C22.3807 30.5122 22.0573 31.0466 21.7273 31.2772C21.5226 31.4201 21.258 31.4898 20.9412 31.4898Z" fill="white"/>
<path d="M16.8866 31.4499C16.6209 31.4499 16.3552 31.4375 16.0917 31.4116C13.6167 31.1732 11.4466 29.8265 9.98096 27.6193L10.1933 27.4686C11.6154 29.6094 13.7191 30.9155 16.1168 31.1462C18.95 31.4195 21.9412 30.1685 24.3247 27.7149L24.5065 27.9028C22.2885 30.1854 19.5511 31.4499 16.8866 31.4499Z" fill="white"/>
<path d="M18.9483 31.6525C18.9003 31.6525 18.8524 31.6525 18.8045 31.6514C15.4878 31.6109 12.3606 30.1844 10.001 27.6352L10.1872 27.4518C12.4989 29.9481 15.5608 31.3454 18.8089 31.3859C18.8557 31.3859 18.9025 31.387 18.9504 31.387C21.9721 31.387 24.7999 30.1866 26.9275 27.9963L27.1094 28.1841C24.9305 30.4251 22.0385 31.6525 18.9483 31.6525Z" fill="white"/>
<path d="M17.5548 30.1532C14.8283 30.1532 12.1518 29.3331 10.0133 27.6479L9.97844 27.6209L9.96755 27.5781C9.04092 24.1019 12.0811 17.3689 16.7458 12.5686L16.8253 12.4865L16.9146 12.5573C21.8385 16.4385 26.5936 22.4088 27.5159 25.867L27.5355 25.9413L27.4821 25.9964C24.8231 28.7324 21.1448 30.1532 17.5548 30.1532ZM10.2038 27.4645C15.0417 31.2467 22.6606 30.5279 27.2469 25.8637C26.2952 22.4628 21.6653 16.6635 16.8482 12.8397C12.3065 17.5534 9.34145 24.0783 10.2038 27.4645Z" fill="white"/>
<path d="M15.594 29.9354C15.1378 28.2254 12.7695 25.26 10.313 23.3239L10.4687 23.1124C12.9633 25.0788 15.373 28.1073 15.8423 29.8645L15.594 29.9354Z" fill="white"/>
<path d="M21.8069 29.3464C21.0229 26.4045 16.9549 21.3072 12.7388 17.984L12.8945 17.7725C17.1487 21.1261 21.257 26.2853 22.0541 29.2755L21.8069 29.3464Z" fill="white"/>
<path d="M12.693 28.1499C11.7119 28.1499 10.8125 27.9935 10.0405 27.665L10.1385 27.4198C13.869 29.006 20.6451 26.4433 25.2467 21.7071L25.4285 21.895C21.7046 25.7278 16.5596 28.1499 12.693 28.1499Z" fill="white"/>
<path d="M10.1569 27.6558L10.0273 27.4263C11.7042 26.4172 16.8339 21.7192 21.4627 16.9561L21.6445 17.1439C17.0027 21.9217 11.8501 26.6377 10.1569 27.6558Z" fill="white"/>
<path d="M10.3002 27.888L9.99636 27.6484C7.68904 25.8293 6.31705 23.2497 6.13412 20.3866C5.93704 17.2985 7.11084 14.2667 9.44103 11.8401C9.09586 10.4743 9.45846 9.88033 9.82867 9.62159C10.9393 8.84647 13.582 9.94333 16.8966 12.5567L17.0142 12.6489L16.9096 12.7569C12.3048 17.4976 9.29404 24.1148 10.1978 27.5077L10.3002 27.888ZM10.7368 9.65871C10.2936 9.65871 10.0628 9.78021 9.97349 9.84208C9.41708 10.2302 9.5227 11.1448 9.7089 11.8446L9.7285 11.9188L9.67514 11.9739C7.36346 14.3544 6.19619 17.3356 6.39001 20.3686C6.55987 23.0348 7.79139 25.449 9.86787 27.2051C9.24177 23.6659 12.1796 17.3019 16.6232 12.6759C13.4056 10.1593 11.6351 9.65871 10.7368 9.65871Z" fill="white"/>
<path d="M10.3183 23.3241C8.42803 21.8346 7.33698 21.5983 6.97656 21.8492C6.72721 22.0236 6.78056 22.4556 6.86876 22.7875L6.6205 22.8583C6.41906 22.1046 6.62486 21.7738 6.83174 21.6287C7.41756 21.2204 8.77865 21.775 10.474 23.1126L10.3183 23.3241Z" fill="white"/>
<path d="M12.7356 17.9856C10.0417 15.8628 7.75723 14.8705 6.91226 15.46C6.44078 15.7885 6.53224 16.5704 6.69122 17.1689L6.44295 17.2398C6.11411 16.0045 6.43751 15.4702 6.76853 15.2395C7.73436 14.5657 10.0243 15.5129 12.8924 17.7741L12.7356 17.9856Z" fill="white"/>
<path d="M9.97486 27.6185C6.67556 22.6516 7.79602 14.6946 12.4716 9.8808L12.6535 10.0687C8.06061 14.7959 6.95432 22.601 10.1872 27.4677L9.97486 27.6185Z" fill="white"/>
<path d="M9.9831 27.636C5.23779 22.5128 5.18879 14.4219 9.87204 9.60022L10.0539 9.78809C5.46863 14.5074 5.5198 22.4318 10.1693 27.4515L9.9831 27.636Z" fill="white"/>
<path d="M20.1525 25.2966L20.0633 25.2257C15.1394 21.3445 10.3843 15.3742 9.46198 11.916L9.44238 11.8417L9.49574 11.7866C14.1735 6.97167 22.0102 6.2303 26.9635 10.1351L26.9983 10.1621L27.0092 10.2049C27.9358 13.6811 24.8957 20.4141 20.232 25.2133L20.1525 25.2966ZM9.72985 11.9205C10.6815 15.3213 15.3114 21.1206 20.1297 24.9444C24.6703 20.2308 27.6353 13.7058 26.7718 10.3196C21.9339 6.53742 14.3162 7.25629 9.72985 11.9205Z" fill="white"/>
<path d="M24.0781 20.009C19.8238 16.6554 15.7155 11.4962 14.9185 8.50599L15.1667 8.43512C15.9507 11.377 20.0187 16.4743 24.2349 19.7964L24.0781 20.009Z" fill="white"/>
<path d="M26.4932 14.6701C23.9986 12.7037 21.5878 9.67408 21.1196 7.91798L21.3679 7.84711C21.8241 9.55709 24.1924 12.5226 26.6489 14.4587L26.4932 14.6701Z" fill="white"/>
<path d="M11.7307 16.0762L11.5488 15.8883C16.2168 11.0835 23.1192 8.49602 26.9357 10.1194L26.8377 10.3657C23.1083 8.77839 16.3312 11.34 11.7307 16.0762Z" fill="white"/>
<path d="M15.5124 20.8255L15.3306 20.6376C19.9714 15.8609 25.1239 11.145 26.8171 10.1269L26.9467 10.3564C25.2687 11.3655 20.1401 16.0612 15.5124 20.8255Z" fill="white"/>
<path d="M26.2347 28.4042C24.8779 28.4042 22.6817 27.2859 20.0673 25.2261L19.9497 25.1338L20.0542 25.0258C24.6591 20.2862 27.6698 13.6691 26.765 10.2761L26.6637 9.89587L26.9675 10.1355C29.2748 11.9546 30.6468 14.5342 30.8297 17.3973C31.0268 20.4854 29.853 23.5172 27.5228 25.9427C27.868 27.3084 27.5054 27.9024 27.1352 28.1612C26.9011 28.3243 26.5984 28.4042 26.2347 28.4042ZM20.3417 25.1057C25.1491 28.8631 26.7236 28.1263 26.9925 27.9395C27.549 27.5514 27.4433 26.6368 27.2571 25.9371L27.2375 25.8628L27.2909 25.8077C29.6026 23.4283 30.7688 20.4471 30.5749 17.4142C30.4051 14.7479 29.1736 12.3337 27.0971 10.5776C27.7232 14.1179 24.7854 20.4809 20.3417 25.1057Z" fill="white"/>
<path d="M29.4212 22.7564C28.2441 22.7564 26.344 21.7901 24.0835 20.0092L24.2392 19.7977C26.9331 21.9206 29.2186 22.9128 30.0625 22.3233C30.534 21.9948 30.4425 21.213 30.2835 20.6145L30.5318 20.5436C30.8607 21.7788 30.5373 22.3132 30.2073 22.5438C30.0026 22.6856 29.738 22.7564 29.4212 22.7564Z" fill="white"/>
<path d="M29.667 16.2871C28.9614 16.2871 27.8377 15.7201 26.5093 14.6727L26.665 14.4612C28.5553 15.9507 29.6463 16.187 30.0067 15.9361C30.2561 15.7617 30.2027 15.3297 30.1145 14.9979L30.3628 14.927C30.5642 15.6807 30.3584 16.0115 30.1516 16.1566C30.0242 16.2432 29.8619 16.2871 29.667 16.2871Z" fill="white"/>
<path d="M24.4914 27.9021L24.3096 27.7142C28.9024 22.987 30.0087 15.1818 26.7759 10.3163L26.9882 10.1655C30.2875 15.1323 29.1681 23.0882 24.4914 27.9021Z" fill="white"/>
<path d="M27.0933 28.1831L26.9114 27.9952C31.4956 23.2759 31.4444 15.3526 26.7949 10.3329L26.9811 10.1495C31.7264 15.2727 31.7765 23.3625 27.0933 28.1831Z" fill="white"/>
<path d="M27.3184 26.1575L27.2596 25.9381C26.3504 22.5272 21.6356 16.6199 16.7509 12.769L16.6333 12.6768L16.7378 12.5688C19.8988 9.31533 23.1371 7.64248 25.1886 8.20497C26.0902 8.45247 26.7185 9.12859 27.0059 10.1624C29.2936 11.9804 30.6526 14.5476 30.8344 17.3972C31.0326 20.5078 29.8403 23.5622 27.4752 25.9966L27.3184 26.1575ZM17.0242 12.6498C21.8033 16.4511 26.3972 22.1897 27.4458 25.649C29.6562 23.2967 30.7669 20.3807 30.5774 17.4152C30.3989 14.6286 29.0639 12.1188 26.8154 10.3469L26.7805 10.3199L26.7696 10.2772C26.5094 9.30183 25.9552 8.69097 25.1233 8.46372C23.1807 7.92935 20.0872 9.53246 17.0242 12.6498Z" fill="white"/>
<path d="M30.2805 20.6138C29.4966 17.672 25.4285 12.5747 21.2124 9.25148L21.3681 9.03998C25.6223 12.3936 29.7307 17.5527 30.5277 20.543L30.2805 20.6138Z" fill="white"/>
<path d="M30.1155 14.9944C29.6593 13.2844 27.2899 10.319 24.8345 8.38288L24.9902 8.17139C27.4848 10.1379 29.8956 13.1663 30.3638 14.9236L30.1155 14.9944Z" fill="white"/>
<path d="M25.4284 21.8952L25.2466 21.7073C28.1365 18.7328 29.5847 15.5187 29.1208 13.1101C28.8769 11.8412 28.0918 10.8917 26.8505 10.364L26.9485 10.1177C28.2726 10.6813 29.111 11.6972 29.3734 13.0584C29.8547 15.5536 28.3793 18.8577 25.4284 21.8952Z" fill="white"/>
<path d="M21.6403 17.1455L21.4585 16.9576C25.5744 12.7209 27.1707 10.6431 27.3014 10.1874C27.247 10.2032 27.1446 10.2459 26.9628 10.3551L26.8332 10.1256C27.1174 9.95457 27.3972 9.82069 27.5257 9.99282C27.6139 10.1121 27.762 10.3101 26.096 12.2957C25.03 13.5658 23.4892 15.2431 21.6403 17.1455Z" fill="white"/>
<path d="M16.8317 12.8381L16.7424 12.7673C14.691 11.1495 13.2177 10.3407 12.1789 9.96041C11.2784 10.5207 10.4356 11.1923 9.67669 11.973L9.51989 12.1339L9.46109 11.9145C9.08325 10.4959 9.45238 9.88392 9.82913 9.62179C10.3246 9.27642 11.1238 9.3023 12.1506 9.66904C15.5403 7.60582 19.7118 7.07933 23.3137 8.21781C24.0041 8.06369 24.6335 8.05469 25.179 8.20431C26.0936 8.45518 26.7263 9.14705 27.0083 10.2045L27.1096 10.5848L26.8058 10.3452C25.7496 9.51267 24.5583 8.89505 23.2952 8.48893C21.4605 8.92093 19.1728 10.4273 16.9101 12.756L16.8317 12.8381ZM12.4642 9.78829C13.6696 10.2765 15.1537 11.19 16.8088 12.486C18.9082 10.3429 21.038 8.89955 22.8259 8.34831C19.4548 7.41232 15.6296 7.92756 12.4642 9.78829ZM10.7373 9.65779C10.2941 9.65779 10.0632 9.77929 9.97395 9.84117C9.47525 10.1888 9.509 10.9617 9.656 11.622C10.3333 10.9482 11.0737 10.3587 11.8588 9.85242C11.3873 9.70729 11.0193 9.65779 10.7373 9.65779ZM23.8277 8.39218C24.8229 8.75668 25.7681 9.2528 26.6337 9.88392C26.3397 9.13467 25.8301 8.65656 25.1147 8.46081C24.7282 8.35506 24.2959 8.33368 23.8277 8.39218Z" fill="white"/>
<path d="M21.2156 9.25217C18.5217 7.12932 16.2351 6.13709 15.3923 6.72658C14.9208 7.05507 15.0122 7.83694 15.1712 8.43543L14.923 8.50631C14.5941 7.27107 14.9175 6.7367 15.2474 6.50608C16.2133 5.83221 18.5032 6.77945 21.3713 9.04067L21.2156 9.25217Z" fill="white"/>
<path d="M24.8261 8.38152C22.9358 6.89204 21.8437 6.65579 21.4844 6.90779C21.235 7.08216 21.2884 7.51416 21.3766 7.84603L21.1283 7.9169C20.9269 7.16316 21.1327 6.83242 21.3396 6.68729C21.9243 6.28005 23.2854 6.83354 24.9818 8.17115L24.8261 8.38152Z" fill="white"/>
<path d="M26.7785 10.3148C25.3564 8.17398 23.2527 6.86787 20.855 6.63725C18.0207 6.365 15.0306 7.61486 12.6482 10.0685L12.4663 9.88059C14.9043 7.37187 17.9706 6.09388 20.879 6.37288C23.354 6.61137 25.5241 7.95798 26.9908 10.1652L26.7785 10.3148Z" fill="white"/>
<path d="M26.802 10.3317C24.4892 7.8354 21.4284 6.43816 18.1803 6.39766C15.0998 6.36166 12.223 7.56315 10.0627 9.78725L9.88086 9.59938C12.0564 7.35953 14.9485 6.13104 18.0387 6.13104C18.0866 6.13104 18.1345 6.13104 18.1824 6.13217C21.4991 6.17267 24.6264 7.59915 26.9871 10.1484L26.802 10.3317Z" fill="white"/>
<path d="M18.4418 31.7891C18.2186 31.7891 17.9834 31.779 17.8059 31.7655C17.5075 31.7441 17.0905 31.6991 16.5319 31.6271C16.2031 31.5844 15.7936 31.491 15.5432 31.4246C15.1316 31.3144 14.5806 31.1422 14.1712 30.9949C13.8173 30.8677 13.0464 30.5359 12.3779 30.1399C12.0686 29.9576 11.2476 29.4716 10.4059 28.7269C9.98233 28.3523 9.3399 27.7493 8.65173 26.8414C8.42416 26.5422 8.24885 26.2801 8.24776 26.2778C8.07137 26.0134 8.07137 26.0134 7.80241 25.5713C7.59444 25.2293 7.37558 24.7804 7.28193 24.5892C7.14256 24.3023 6.99556 23.9626 6.90627 23.7196C6.83985 23.5396 6.77125 23.3382 6.70483 23.138C6.60901 22.8725 6.52408 22.6014 6.45112 22.3269C6.35204 21.9286 6.22246 21.4032 6.16911 21.0016C6.11902 20.6281 6.06349 20.2018 6.03735 19.8733C6.02646 19.7428 5.99271 19.2883 6.00142 18.9328L6.00251 18.8765C6.01013 18.5492 6.01993 18.1419 6.0428 17.828C6.06349 17.5535 6.10704 17.1755 6.15386 16.8662C6.33135 15.7097 6.61772 14.8738 6.6297 14.839C6.71463 14.5948 6.87143 14.1392 7.00318 13.8175C7.099 13.5835 7.25471 13.2437 7.42022 12.9096C7.66522 12.4135 8.04197 11.7869 8.35665 11.3481C8.75953 10.7879 9.27457 10.1635 9.66983 9.75965C10.2687 9.14765 10.5028 8.96428 11.2824 8.35679C11.5536 8.14529 11.9369 7.9068 12.2004 7.74705C12.441 7.6008 12.7807 7.41405 13.0649 7.2723C13.3393 7.13506 13.7302 6.96181 14.0602 6.83131C14.2474 6.75706 14.4739 6.68169 14.6939 6.60969C14.7897 6.57819 14.8823 6.54781 14.965 6.51856C15.2732 6.41282 15.6804 6.32282 16.0375 6.24744C16.2314 6.20694 16.4644 6.17094 16.6898 6.13719C16.7856 6.12257 16.8771 6.10907 16.9609 6.09557C17.3039 6.03932 17.7569 6.01795 18.114 6.0067C18.42 5.99545 18.7782 5.99882 19.0254 6.01345C19.3826 6.03482 19.8802 6.0832 20.2907 6.13719C20.8732 6.21369 21.3937 6.35544 21.9436 6.50619C22.3541 6.61869 22.8985 6.81669 23.2981 6.99781C23.6684 7.16656 23.9449 7.29818 24.142 7.4028C24.3914 7.53443 24.7246 7.7268 24.9707 7.88205C25.2265 8.04292 25.5194 8.24092 25.7165 8.38717C26.0105 8.60654 26.1096 8.67966 26.5506 9.05653C26.5985 9.09816 26.85 9.31753 27.18 9.64715C27.4315 9.89914 27.6417 10.1365 27.7429 10.2501C27.8649 10.3885 28.1371 10.7148 28.308 10.9443C28.5846 11.3133 28.6336 11.3898 28.9091 11.8082C29.116 12.1244 29.4818 12.7724 29.68 13.2032C29.8325 13.534 30.0873 14.0886 30.2952 14.7456C30.5217 15.4588 30.6774 16.0866 30.7591 16.6108C30.8418 17.1418 30.9355 17.7414 30.9529 18.602C30.9725 19.5459 30.8908 20.2906 30.8408 20.6506C30.7896 21.0185 30.6948 21.7047 30.4128 22.6688C30.243 23.2505 29.9359 23.9975 29.7083 24.5217C29.6038 24.7624 29.4361 25.0831 29.1955 25.5016C29.0909 25.6849 28.9527 25.8964 28.8198 26.1001C28.7621 26.1901 28.7055 26.2756 28.6554 26.3554C28.4681 26.6513 28.1828 27.0124 27.9781 27.252L27.9411 27.2959C27.695 27.5839 27.3901 27.9417 27.1234 28.1892C27.0635 28.2454 26.9981 28.3062 26.9306 28.3703C26.7477 28.5424 26.5408 28.737 26.3666 28.8833C26.1259 29.0858 25.771 29.376 25.4813 29.5661L25.2821 29.6978C25.0752 29.835 24.84 29.9903 24.6462 30.1039C24.3467 30.2782 23.9547 30.4852 23.6716 30.6191C22.671 31.0916 21.8075 31.3211 21.7127 31.3459C21.1237 31.4977 20.3527 31.6339 19.8704 31.7036C19.608 31.7419 19.2791 31.7554 18.9884 31.7677C18.8926 31.7722 18.8011 31.7756 18.7162 31.7801C18.6323 31.7869 18.5376 31.7891 18.4418 31.7891ZM8.5962 26.3228C8.6648 26.4195 8.75409 26.5444 8.85426 26.676C9.52936 27.5659 10.1587 28.1565 10.5736 28.5244C11.3968 29.2534 12.2025 29.7293 12.5052 29.9081C13.1597 30.2951 13.9099 30.6191 14.2562 30.7429C14.659 30.8869 15.2024 31.0567 15.6085 31.1659C15.9287 31.2514 16.3032 31.329 16.5646 31.3627C17.1177 31.4347 17.5304 31.4797 17.8244 31.5C18.0705 31.518 18.4309 31.5315 18.7053 31.5169C18.7913 31.5124 18.8839 31.5079 18.9797 31.5045C19.2639 31.4921 19.5873 31.4786 19.8366 31.4426C20.3125 31.374 21.0736 31.2401 21.6529 31.0905C21.7454 31.0669 22.5882 30.843 23.5682 30.3795C23.8458 30.2479 24.2302 30.0454 24.5231 29.8744C24.7115 29.7653 24.9423 29.6111 25.147 29.4761L25.3474 29.3434C25.6262 29.1611 25.9724 28.8765 26.2087 28.6796C26.3775 28.539 26.5811 28.3466 26.7618 28.1768C26.8304 28.1127 26.8958 28.0508 26.9568 27.9945C27.2126 27.7572 27.5132 27.4062 27.7538 27.1227L27.7908 27.0788C27.989 26.8459 28.2656 26.496 28.4452 26.2114C28.4953 26.1316 28.553 26.0438 28.6118 25.9538C28.7425 25.7524 28.8775 25.5443 28.9788 25.3677C29.214 24.9582 29.3773 24.6466 29.4775 24.4148C29.7018 23.8973 30.0034 23.1616 30.17 22.5935C30.4466 21.6485 30.5402 20.9757 30.5903 20.6146C30.6393 20.2625 30.7188 19.5335 30.6992 18.6088C30.6818 17.7673 30.5903 17.1767 30.5087 16.6558C30.4292 16.1439 30.2756 15.5308 30.0535 14.83C29.8499 14.1898 29.5994 13.6442 29.4503 13.3191C29.2565 12.8984 28.9004 12.2672 28.7011 11.9635C28.4267 11.5461 28.3788 11.4719 28.1066 11.1085C27.9389 10.8846 27.6743 10.5663 27.5556 10.4313C27.4565 10.3188 27.2497 10.0859 27.0036 9.8384C26.6802 9.5144 26.4352 9.30178 26.3895 9.2624C25.955 8.89116 25.857 8.81803 25.5684 8.60316C25.3768 8.46029 25.0904 8.26679 24.84 8.10929C24.5993 7.95742 24.2727 7.76955 24.0277 7.64018C23.835 7.5378 23.5638 7.40843 23.198 7.24193C22.8092 7.06531 22.2801 6.87293 21.8804 6.76381C21.3393 6.61531 20.8275 6.47582 20.2613 6.40157C19.8551 6.34869 19.3662 6.30032 19.0134 6.27894C18.7728 6.26432 18.4244 6.26207 18.126 6.27219C17.7765 6.28457 17.3333 6.30482 17.0045 6.35882C16.9206 6.37232 16.827 6.38694 16.7312 6.40157C16.509 6.43532 16.2793 6.47019 16.0931 6.50956C15.8405 6.56356 15.3701 6.66256 15.0499 6.77281C14.965 6.80206 14.8725 6.83244 14.7755 6.86506C14.5589 6.93706 14.3346 7.01018 14.1549 7.08218C13.8315 7.21043 13.4482 7.3803 13.1793 7.51418C12.9049 7.65142 12.564 7.83705 12.3332 7.97767C12.0741 8.13517 11.7006 8.36804 11.4403 8.57054C10.6716 9.17015 10.4397 9.35128 9.85385 9.94977C9.4673 10.3458 8.96097 10.9566 8.56571 11.5079C8.25865 11.9354 7.8917 12.5485 7.65215 13.0322C7.48882 13.3618 7.33638 13.6948 7.24273 13.9232C7.11425 14.2382 6.95854 14.6882 6.8747 14.9301C6.86272 14.9638 6.58506 15.7772 6.41084 16.9089C6.3651 17.207 6.32155 17.585 6.30195 17.8494C6.27908 18.1565 6.27037 18.5604 6.26275 18.8844L6.26166 18.9406C6.25622 19.1713 6.26928 19.5121 6.2965 19.8519C6.32482 20.1995 6.38906 20.6799 6.42717 20.9656C6.47835 21.3526 6.60574 21.869 6.69939 22.247C6.70048 22.2526 6.70156 22.2571 6.70374 22.2627C6.76581 22.4709 6.85183 22.7487 6.94329 23.0288C7.55415 24.7287 8.63322 26.2227 10.0978 27.3938C10.1174 27.4095 10.1359 27.4242 10.1555 27.4399L9.99976 27.6514C9.48472 27.2442 9.01651 26.8009 8.5962 26.3228Z" fill="white"/>
</svg>
