<svg width="52" height="52" viewBox="0 0 52 52" fill="none" xmlns="http://www.w3.org/2000/svg">
<circle cx="26" cy="26" r="26" fill="white"/>
<g clip-path="url(#clip0_11267_3424)">
<path fill-rule="evenodd" clip-rule="evenodd" d="M35.5 13.5C35.5 12.6025 34.7911 11.875 33.9167 11.875C33.0422 11.875 32.3333 12.6025 32.3333 13.5V15.125H13.3333C12.4589 15.125 11.75 15.8525 11.75 16.75C11.75 17.6475 12.4589 18.375 13.3333 18.375H32.3333V20C32.3333 20.8975 33.0422 21.625 33.9167 21.625C34.7911 21.625 35.5 20.8975 35.5 20V18.375H38.6667C39.5411 18.375 40.25 17.6475 40.25 16.75C40.25 15.8525 39.5411 15.125 38.6667 15.125H35.5V13.5ZM13.3333 24.875C12.4589 24.875 11.75 25.6025 11.75 26.5C11.75 27.3975 12.4589 28.125 13.3333 28.125H16.5V29.75C16.5 30.6475 17.2089 31.375 18.0833 31.375C18.9578 31.375 19.6667 30.6475 19.6667 29.75V28.125H38.6667C39.5411 28.125 40.25 27.3975 40.25 26.5C40.25 25.6025 39.5411 24.875 38.6667 24.875H19.6667V23.25C19.6667 22.3525 18.9578 21.625 18.0833 21.625C17.2089 21.625 16.5 22.3525 16.5 23.25V24.875H13.3333ZM11.75 36.25C11.75 35.3525 12.4589 34.625 13.3333 34.625H32.3333V33C32.3333 32.1025 33.0422 31.375 33.9167 31.375C34.7911 31.375 35.5 32.1025 35.5 33V34.625H38.6667C39.5411 34.625 40.25 35.3525 40.25 36.25C40.25 37.1475 39.5411 37.875 38.6667 37.875H35.5V39.5C35.5 40.3975 34.7911 41.125 33.9167 41.125C33.0422 41.125 32.3333 40.3975 32.3333 39.5V37.875H13.3333C12.4589 37.875 11.75 37.1475 11.75 36.25Z" fill="#09244B"/>
</g>
<defs>
<clipPath id="clip0_11267_3424">
<rect width="38" height="39" fill="white" transform="translate(7 7)"/>
</clipPath>
</defs>
</svg>
