<svg  viewBox="0 0 1440 810" id="floor--svg" version="1.0" xmlns="http://www.w3.org/2000/svg" preserveAspectRatio="xMidYMid slice"><polygon data-id="26602" data-section="5" data-section_name="5" data-build="1" data-build_name="4" data-floor="16" data-type="flat" class="s3d-svg__build js-s3d-svg__build" points="488.66536458333,333.08333333333,500.99869791667,336.58333333333,500.99869791667,339.75,522.49869791667,347.25,526.66536458333,345.75,552.99869791667,354.75,556.49869791667,352.75,586.16536458333,360.08333333333,615.16536458333,350.58333333333,614.66536458333,373.08333333333,585.49869791667,383.08333333333,577.49869791667,377.75,575.16536458333,380.08333333333,558.99869791667,373.75,552.99869791667,377.08333333333,528.49869791667,368.08333333333,520.66536458333,368.25,512.66536458333,366.25,512.16536458333,359.75,488.99869791667,353.25"></polygon><polygon data-id="26601" data-section="5" data-section_name="5" data-build="1" data-build_name="4" data-floor="15" data-type="flat" class="s3d-svg__build js-s3d-svg__build" points="488.99869791667,353.25,512.16536458333,359.75,512.66536458333,366.25,520.66536458333,368.25,528.49869791667,368.08333333333,552.99869791667,377.08333333333,558.99869791667,373.75,575.16536458333,380.08333333333,577.49869791667,377.75,585.49869791667,383.08333333333,614.66536458333,373.08333333333,615.66536458333,394.75,588.16536458333,406.25,581.49869791667,401.75,576.49869791667,402.75,559.66536458333,396.25,553.49869791667,399.75,529.16536458333,390.08333333333,521.16536458333,391.08333333333,514.49869791667,387.75,513.49869791667,383.25,490.16536458333,375.08333333333"></polygon><polygon data-id="26268" data-section="7" data-section_name="7" data-build="2" data-build_name="5" data-floor="2" data-type="flat" class="s3d-svg__build js-s3d-svg__build" points="669,496,669,496,669,496,669,496,669,496,669,496,669,496,669,496,673.5,492,673.5,492,673.5,492,673.5,492,673.5,492,673.5,492,673.5,492,673.5,492,672,477.5,672,477.5,672,477.5,672,477.5,672,477.5,672,477.5,672,477.5,672,477.5,668,480,668,480,668,480,668,480,668,480,668,480,668,480,668,480"></polygon><polygon data-id="26648" data-section="8" data-section_name="8" data-build="2" data-build_name="5" data-floor="2" data-type="flat" class="s3d-svg__build js-s3d-svg__build" points="700.5,487,700.5,487,700.5,487,700.5,487,700.5,487,700.5,487,700.5,487,700.5,487,707.5,489.5,707.5,489.5,707.5,489.5,707.5,489.5,707.5,489.5,707.5,489.5,707.5,489.5,707.5,489.5,715.5,485.5,715.5,485.5,715.5,485.5,715.5,485.5,715.5,485.5,715.5,485.5,715.5,485.5,715.5,485.5,727,478.5,727,478.5,727,478.5,727,478.5,727,478.5,727,478.5,727,478.5,727,478.5,728,459,728,459,728,459,728,459,728,459,728,459,728,459,728,459,718,462.5,718,462.5,718,462.5,718,462.5,718,462.5,718,462.5,718,462.5,718,462.5,717,465.5,717,465.5,717,465.5,717,465.5,717,465.5,717,465.5,717,465.5,717,465.5,709,466,709,466,709,466,709,466,709,466,709,466,709,466,709,466,704,469.5,704,469.5,704,469.5,704,469.5,704,469.5,704,469.5,704,469.5,704,469.5"></polygon><polygon data-id="26649" data-section="8" data-section_name="8" data-build="2" data-build_name="5" data-floor="3" data-type="flat" class="s3d-svg__build js-s3d-svg__build" points="702.5,451.5,702.5,451.5,702.5,451.5,702.5,451.5,702.5,451.5,702.5,451.5,702.5,451.5,702.5,451.5,707,451.5,707,451.5,707,451.5,707,451.5,707,451.5,707,451.5,707,451.5,707,451.5,713.5,450.5,713.5,450.5,713.5,450.5,713.5,450.5,713.5,450.5,713.5,450.5,713.5,450.5,713.5,450.5,715,446.5,715,446.5,715,446.5,715,446.5,715,446.5,715,446.5,715,446.5,715,446.5,727.5,442,727.5,442,727.5,442,727.5,442,727.5,442,727.5,442,727.5,442,727.5,442,728,459,728,459,728,459,728,459,728,459,728,459,728,459,728,459,718,462.5,718,462.5,718,462.5,718,462.5,718,462.5,718,462.5,718,462.5,718,462.5,718,462.5,718,462.5,718,462.5,718,462.5,718,462.5,718,462.5,718,462.5,718,462.5,718,462.5,718,462.5,718,462.5,718,462.5,718,462.5,718,462.5,718,462.5,718,462.5,718,462.5,718,462.5,718,462.5,718,462.5,718,462.5,718,462.5,718,462.5,718,462.5,717,465.5,717,465.5,717,465.5,717,465.5,717,465.5,717,465.5,717,465.5,717,465.5,709,466,709,466,709,466,709,466,709,466,709,466,709,466,709,466,709,466,709,466,709,466,709,466,709,466,709,466,709,466,709,466,704,469.5,704,469.5,704,469.5,704,469.5,704,469.5,704,469.5,704,469.5,704,469.5"></polygon><polygon data-id="26650" data-section="8" data-section_name="8" data-build="2" data-build_name="5" data-floor="4" data-type="flat" class="s3d-svg__build js-s3d-svg__build" points="701.5,435,701.5,435,701.5,435,701.5,435,701.5,435,701.5,435,701.5,435,701.5,435,707,435,707,435,707,435,707,435,707,435,707,435,707,435,707,435,713,433,713,433,713,433,713,433,713,433,713,433,713,433,713,433,729.5,424,729.5,424,729.5,424,729.5,424,729.5,424,729.5,424,729.5,424,729.5,424,727.5,442,727.5,442,727.5,442,727.5,442,727.5,442,727.5,442,727.5,442,727.5,442,713.5,450.5,713.5,450.5,713.5,450.5,713.5,450.5,713.5,450.5,713.5,450.5,713.5,450.5,713.5,450.5,707,451.5,707,451.5,707,451.5,707,451.5,707,451.5,707,451.5,707,451.5,707,451.5,702.5,451.5,702.5,451.5,702.5,451.5,702.5,451.5,702.5,451.5,702.5,451.5,702.5,451.5,702.5,451.5"></polygon><polygon data-id="26651" data-section="8" data-section_name="8" data-build="2" data-build_name="5" data-floor="5" data-type="flat" class="s3d-svg__build js-s3d-svg__build" points="702,418.5,702,418.5,702,418.5,702,418.5,702,418.5,702,418.5,702,418.5,702,418.5,707.5,417,707.5,417,707.5,417,707.5,417,707.5,417,707.5,417,707.5,417,707.5,417,715,415,715,415,715,415,715,415,715,415,715,415,715,415,715,415,728.5,408.5,728.5,408.5,728.5,408.5,728.5,408.5,728.5,408.5,728.5,408.5,728.5,408.5,728.5,408.5,729.5,424,729.5,424,729.5,424,729.5,424,729.5,424,729.5,424,729.5,424,729.5,424,713,433,713,433,713,433,713,433,713,433,713,433,713,433,713,433,707,435,707,435,707,435,707,435,707,435,707,435,707,435,707,435,701.5,435,701.5,435,701.5,435,701.5,435,701.5,435,701.5,435,701.5,435,701.5,435"></polygon><polygon data-id="26629" data-section="8" data-section_name="8" data-build="2" data-build_name="5" data-floor="6" data-type="flat" class="s3d-svg__build js-s3d-svg__build" points="804,367.5,804,367.5,804,367.5,804,367.5,804,367.5,804,367.5,804,367.5,804,367.5,804.5,352,804.5,352,804.5,352,804.5,352,804.5,352,804.5,352,804.5,352,804.5,352,800.5,352.5,800.5,352.5,800.5,352.5,800.5,352.5,800.5,352.5,800.5,352.5,800.5,352.5,800.5,352.5,800,371,800,371,800,371,800,371,800,371,800,371,800,371,800,371"></polygon><polygon data-id="26652" data-section="8" data-section_name="8" data-build="2" data-build_name="5" data-floor="6" data-type="flat" class="s3d-svg__build js-s3d-svg__build" points="703.5,400,703.5,400,703.5,400,703.5,400,703.5,400,703.5,400,703.5,400,703.5,400,708.5,399.5,708.5,399.5,708.5,399.5,708.5,399.5,708.5,399.5,708.5,399.5,708.5,399.5,708.5,399.5,713.5,398,713.5,398,713.5,398,713.5,398,713.5,398,713.5,398,713.5,398,713.5,398,717,394,717,394,717,394,717,394,717,394,717,394,717,394,717,394,729.5,389,729.5,389,729.5,389,729.5,389,729.5,389,729.5,389,729.5,389,729.5,389,728.5,408.5,728.5,408.5,728.5,408.5,728.5,408.5,728.5,408.5,728.5,408.5,728.5,408.5,728.5,408.5,715,415,715,415,715,415,715,415,715,415,715,415,715,415,715,415,702,418.5,702,418.5,702,418.5,702,418.5,702,418.5,702,418.5,702,418.5,702,418.5,702,418.5,702,418.5,702,418.5,702,418.5,702,418.5,702,418.5,702,418.5,702,418.5"></polygon><polygon data-id="26653" data-section="8" data-section_name="8" data-build="2" data-build_name="5" data-floor="7" data-type="flat" class="s3d-svg__build js-s3d-svg__build" points="729.5,389,729.5,389,729.5,389,729.5,389,729.5,389,729.5,389,729.5,389,729.5,389,717,394,717,394,717,394,717,394,717,394,717,394,717,394,717,394,713.5,398,713.5,398,713.5,398,713.5,398,713.5,398,713.5,398,713.5,398,713.5,398,708.5,399.5,708.5,399.5,708.5,399.5,708.5,399.5,708.5,399.5,708.5,399.5,708.5,399.5,708.5,399.5,703.5,400,703.5,400,703.5,400,703.5,400,703.5,400,703.5,400,703.5,400,703.5,400,703,381.5,703,381.5,703,381.5,703,381.5,703,381.5,703,381.5,703,381.5,703,381.5,708,381.5,708,381.5,708,381.5,708,381.5,708,381.5,708,381.5,708,381.5,708,381.5,714,379,714,379,714,379,714,379,714,379,714,379,714,379,714,379,727.5,371.5,727.5,371.5,727.5,371.5,727.5,371.5,727.5,371.5,727.5,371.5,727.5,371.5,727.5,371.5"></polygon><polygon data-id="26654" data-section="8" data-section_name="8" data-build="2" data-build_name="5" data-floor="8" data-type="flat" class="s3d-svg__build js-s3d-svg__build" points="702,364.5,702,364.5,702,364.5,702,364.5,702,364.5,702,364.5,702,364.5,702,364.5,707,364,707,364,707,364,707,364,707,364,707,364,707,364,707,364,713,364,713,364,713,364,713,364,713,364,713,364,713,364,713,364,716,359.5,716,359.5,716,359.5,716,359.5,716,359.5,716,359.5,716,359.5,716,359.5,728.5,354.5,728.5,354.5,728.5,354.5,728.5,354.5,728.5,354.5,728.5,354.5,728.5,354.5,728.5,354.5,727.5,371.5,727.5,371.5,727.5,371.5,727.5,371.5,727.5,371.5,727.5,371.5,727.5,371.5,727.5,371.5,714,379,714,379,714,379,714,379,714,379,714,379,714,379,714,379,708,381.5,708,381.5,708,381.5,708,381.5,708,381.5,708,381.5,708,381.5,708,381.5,703,381.5,703,381.5,703,381.5,703,381.5,703,381.5,703,381.5,703,381.5,703,381.5"></polygon><polygon data-id="26655" data-section="8" data-section_name="8" data-build="2" data-build_name="5" data-floor="9" data-type="flat" class="s3d-svg__build js-s3d-svg__build" points="702,347,702,347,702,347,702,347,702,347,702,347,702,347,702,347,707.5,348,707.5,348,707.5,348,707.5,348,707.5,348,707.5,348,707.5,348,707.5,348,714,345,714,345,714,345,714,345,714,345,714,345,714,345,714,345,716.5,341,716.5,341,716.5,341,716.5,341,716.5,341,716.5,341,716.5,341,716.5,341,728.5,335.5,728.5,335.5,728.5,335.5,728.5,335.5,728.5,335.5,728.5,335.5,728.5,335.5,728.5,335.5,728.5,354.5,728.5,354.5,728.5,354.5,728.5,354.5,728.5,354.5,728.5,354.5,728.5,354.5,728.5,354.5,716,359.5,716,359.5,716,359.5,716,359.5,716,359.5,716,359.5,716,359.5,716,359.5,713,364,713,364,713,364,713,364,713,364,713,364,713,364,713,364,702,364.5,702,364.5,702,364.5,702,364.5,702,364.5,702,364.5,702,364.5,702,364.5,702,364.5,702,364.5,702,364.5,702,364.5,702,364.5,702,364.5,702,364.5,702,364.5"></polygon><polygon data-id="26903" data-section="8" data-section_name="8" data-build="2" data-build_name="5" data-floor="9" data-type="flat" class="s3d-svg__build js-s3d-svg__build" points="775.5,334.5,775.5,334.5,775.5,334.5,775.5,334.5,775.5,334.5,775.5,334.5,775.5,334.5,775.5,334.5,786,330.5,786,330.5,786,330.5,786,330.5,786,330.5,786,330.5,786,330.5,786,330.5,794,330.5,794,330.5,794,330.5,794,330.5,794,330.5,794,330.5,794,330.5,794,330.5,800,328.5,800,328.5,800,328.5,800,328.5,800,328.5,800,328.5,800,328.5,800,328.5,801.5,309,801.5,309,801.5,309,801.5,309,801.5,309,801.5,309,801.5,309,801.5,309,795,311,795,311,795,311,795,311,795,311,795,311,795,311,795,311,790,312,790,312,790,312,790,312,790,312,790,312,790,312,790,312,785.5,313,785.5,313,785.5,313,785.5,313,785.5,313,785.5,313,785.5,313,785.5,313,776.5,318,776.5,318,776.5,318,776.5,318,776.5,318,776.5,318,776.5,318,776.5,318"></polygon><polygon data-id="26910" data-section="8" data-section_name="8" data-build="2" data-build_name="5" data-floor="9" data-type="flat" class="s3d-svg__build js-s3d-svg__build" points="800.5,318.5,800.5,318.5,800.5,318.5,800.5,318.5,800.5,318.5,800.5,318.5,800.5,318.5,800.5,318.5,805,316.5,805,316.5,805,316.5,805,316.5,805,316.5,805,316.5,805,316.5,805,316.5,805.5,301,805.5,301,805.5,301,805.5,301,805.5,301,805.5,301,805.5,301,805.5,301,802,303,802,303,802,303,802,303,802,303,802,303,802,303,802,303"></polygon><polygon data-id="26656" data-section="8" data-section_name="8" data-build="2" data-build_name="5" data-floor="10" data-type="flat" class="s3d-svg__build js-s3d-svg__build" points="702,328.5,702,328.5,702,328.5,702,328.5,702,328.5,702,328.5,702,328.5,702,328.5,707.5,329,707.5,329,707.5,329,707.5,329,707.5,329,707.5,329,707.5,329,707.5,329,714,326,714,326,714,326,714,326,714,326,714,326,714,326,714,326,716,323.5,716,323.5,716,323.5,716,323.5,716,323.5,716,323.5,716,323.5,716,323.5,728,318.5,728,318.5,728,318.5,728,318.5,728,318.5,728,318.5,728,318.5,728,318.5,728.5,335.5,728.5,335.5,728.5,335.5,728.5,335.5,728.5,335.5,728.5,335.5,728.5,335.5,728.5,335.5,714,345,714,345,714,345,714,345,714,345,714,345,714,345,714,345,707.5,348,707.5,348,707.5,348,707.5,348,707.5,348,707.5,348,707.5,348,707.5,348,702,347,702,347,702,347,702,347,702,347,702,347,702,347,702,347"></polygon><polygon data-id="26904" data-section="8" data-section_name="8" data-build="2" data-build_name="5" data-floor="10" data-type="flat" class="s3d-svg__build js-s3d-svg__build" points="775.5,301.5,775.5,301.5,775.5,301.5,775.5,301.5,775.5,301.5,775.5,301.5,775.5,301.5,775.5,301.5,785,295.5,785,295.5,785,295.5,785,295.5,785,295.5,785,295.5,785,295.5,785,295.5,794,295,794,295,794,295,794,295,794,295,794,295,794,295,794,295,800,293.5,800,293.5,800,293.5,800,293.5,800,293.5,800,293.5,800,293.5,800,293.5,801.5,309,801.5,309,801.5,309,801.5,309,801.5,309,801.5,309,801.5,309,801.5,309,795,311,795,311,795,311,795,311,795,311,795,311,795,311,795,311,795,311,795,311,795,311,795,311,795,311,795,311,795,311,795,311,795,311,795,311,795,311,795,311,795,311,795,311,795,311,795,311,790,312,790,312,790,312,790,312,790,312,790,312,790,312,790,312,785.5,313,785.5,313,785.5,313,785.5,313,785.5,313,785.5,313,785.5,313,785.5,313,776.5,318,776.5,318,776.5,318,776.5,318,776.5,318,776.5,318,776.5,318,776.5,318"></polygon><polygon data-id="26911" data-section="8" data-section_name="8" data-build="2" data-build_name="5" data-floor="10" data-type="flat" class="s3d-svg__build js-s3d-svg__build" points="805.5,301,805.5,301,805.5,301,805.5,301,805.5,301,805.5,301,805.5,301,805.5,301,806,285,806,285,806,285,806,285,806,285,806,285,806,285,806,285,802,285,802,285,802,285,802,285,802,285,802,285,802,285,802,285,801.5,309,801.5,309,801.5,309,801.5,309,801.5,309,801.5,309,801.5,309,801.5,309"></polygon><polygon data-id="26657" data-section="8" data-section_name="8" data-build="2" data-build_name="5" data-floor="11" data-type="flat" class="s3d-svg__build js-s3d-svg__build" points="700.5,309.5,700.5,309.5,700.5,309.5,700.5,309.5,700.5,309.5,700.5,309.5,700.5,309.5,700.5,309.5,707.5,310,707.5,310,707.5,310,707.5,310,707.5,310,707.5,310,707.5,310,707.5,310,714,307,714,307,714,307,714,307,714,307,714,307,714,307,714,307,727,299,727,299,727,299,727,299,727,299,727,299,727,299,727,299,728,318.5,728,318.5,728,318.5,728,318.5,728,318.5,728,318.5,728,318.5,728,318.5,714,326,714,326,714,326,714,326,714,326,714,326,714,326,714,326,707.5,329,707.5,329,707.5,329,707.5,329,707.5,329,707.5,329,707.5,329,707.5,329,702,328.5,702,328.5,702,328.5,702,328.5,702,328.5,702,328.5,702,328.5,702,328.5"></polygon><polygon data-id="26905" data-section="8" data-section_name="8" data-build="2" data-build_name="5" data-floor="11" data-type="flat" class="s3d-svg__build js-s3d-svg__build" points="775.5,301.5,775.5,301.5,775.5,301.5,775.5,301.5,775.5,301.5,775.5,301.5,775.5,301.5,775.5,301.5,775,283.5,775,283.5,775,283.5,775,283.5,775,283.5,775,283.5,775,283.5,775,283.5,784,278.5,784,278.5,784,278.5,784,278.5,784,278.5,784,278.5,784,278.5,784,278.5,789,279.5,789,279.5,789,279.5,789,279.5,789,279.5,789,279.5,789,279.5,789,279.5,794,276,794,276,794,276,794,276,794,276,794,276,794,276,794,276,800.5,275.5,800.5,275.5,800.5,275.5,800.5,275.5,800.5,275.5,800.5,275.5,800.5,275.5,800.5,275.5,800,293.5,800,293.5,800,293.5,800,293.5,800,293.5,800,293.5,800,293.5,800,293.5,794,295,794,295,794,295,794,295,794,295,794,295,794,295,794,295,785,295.5,785,295.5,785,295.5,785,295.5,785,295.5,785,295.5,785,295.5,785,295.5"></polygon><polygon data-id="26912" data-section="8" data-section_name="8" data-build="2" data-build_name="5" data-floor="11" data-type="flat" class="s3d-svg__build js-s3d-svg__build" points="806,285,806,285,806,285,806,285,806,285,806,285,806,285,806,285,806,285,806,285,806,285,806,285,806,285,806,285,806,285,806,285,802,285,802,285,802,285,802,285,802,285,802,285,802,285,802,285,800.5,275.5,800.5,275.5,800.5,275.5,800.5,275.5,800.5,275.5,800.5,275.5,800.5,275.5,800.5,275.5,806,268.5,806,268.5,806,268.5,806,268.5,806,268.5,806,268.5,806,268.5,806,268.5"></polygon><polygon data-id="26658" data-section="8" data-section_name="8" data-build="2" data-build_name="5" data-floor="12" data-type="flat" class="s3d-svg__build js-s3d-svg__build" points="700.5,291,700.5,291,700.5,291,700.5,291,700.5,291,700.5,291,700.5,291,700.5,291,707.5,290.5,707.5,290.5,707.5,290.5,707.5,290.5,707.5,290.5,707.5,290.5,707.5,290.5,707.5,290.5,716,288,716,288,716,288,716,288,716,288,716,288,716,288,716,288,729.5,280.5,729.5,280.5,729.5,280.5,729.5,280.5,729.5,280.5,729.5,280.5,729.5,280.5,729.5,280.5,727,299,727,299,727,299,727,299,727,299,727,299,727,299,727,299,714,307,714,307,714,307,714,307,714,307,714,307,714,307,714,307,707.5,310,707.5,310,707.5,310,707.5,310,707.5,310,707.5,310,707.5,310,707.5,310,700.5,309.5,700.5,309.5,700.5,309.5,700.5,309.5,700.5,309.5,700.5,309.5,700.5,309.5,700.5,309.5"></polygon><polygon data-id="26906" data-section="8" data-section_name="8" data-build="2" data-build_name="5" data-floor="12" data-type="flat" class="s3d-svg__build js-s3d-svg__build" points="775.5,264.5,775.5,264.5,775.5,264.5,775.5,264.5,775.5,264.5,775.5,264.5,775.5,264.5,775.5,264.5,789,259.5,789,259.5,789,259.5,789,259.5,789,259.5,789,259.5,789,259.5,789,259.5,796,259.5,796,259.5,796,259.5,796,259.5,796,259.5,796,259.5,796,259.5,796,259.5,801.5,256.5,801.5,256.5,801.5,256.5,801.5,256.5,801.5,256.5,801.5,256.5,801.5,256.5,801.5,256.5,800.5,275.5,800.5,275.5,800.5,275.5,800.5,275.5,800.5,275.5,800.5,275.5,800.5,275.5,800.5,275.5,800.5,275.5,800.5,275.5,800.5,275.5,800.5,275.5,800.5,275.5,800.5,275.5,800.5,275.5,800.5,275.5,789,279.5,789,279.5,789,279.5,789,279.5,789,279.5,789,279.5,789,279.5,789,279.5,784,278.5,784,278.5,784,278.5,784,278.5,784,278.5,784,278.5,784,278.5,784,278.5,775,283.5,775,283.5,775,283.5,775,283.5,775,283.5,775,283.5,775,283.5,775,283.5"></polygon><polygon data-id="26913" data-section="8" data-section_name="8" data-build="2" data-build_name="5" data-floor="12" data-type="flat" class="s3d-svg__build js-s3d-svg__build" points="806,268.5,806,268.5,806,268.5,806,268.5,806,268.5,806,268.5,806,268.5,806,268.5,800.5,275.5,800.5,275.5,800.5,275.5,800.5,275.5,800.5,275.5,800.5,275.5,800.5,275.5,800.5,275.5,801.5,256.5,801.5,256.5,801.5,256.5,801.5,256.5,801.5,256.5,801.5,256.5,801.5,256.5,801.5,256.5,801.5,256.5,801.5,256.5,801.5,256.5,801.5,256.5,801.5,256.5,801.5,256.5,801.5,256.5,801.5,256.5,801.5,256.5,801.5,256.5,801.5,256.5,801.5,256.5,801.5,256.5,801.5,256.5,801.5,256.5,801.5,256.5,801.5,256.5,801.5,256.5,801.5,256.5,801.5,256.5,801.5,256.5,801.5,256.5,801.5,256.5,801.5,256.5,808.5,254,808.5,254,808.5,254,808.5,254,808.5,254,808.5,254,808.5,254,808.5,254"></polygon><polygon data-id="26659" data-section="8" data-section_name="8" data-build="2" data-build_name="5" data-floor="13" data-type="flat" class="s3d-svg__build js-s3d-svg__build" points="700.5,273,700.5,273,700.5,273,700.5,273,700.5,273,700.5,273,700.5,273,700.5,273,708,271.5,708,271.5,708,271.5,708,271.5,708,271.5,708,271.5,708,271.5,708,271.5,713,270,713,270,713,270,713,270,713,270,713,270,713,270,713,270,729,262,729,262,729,262,729,262,729,262,729,262,729,262,729,262,729.5,280.5,729.5,280.5,729.5,280.5,729.5,280.5,729.5,280.5,729.5,280.5,729.5,280.5,729.5,280.5,716,288,716,288,716,288,716,288,716,288,716,288,716,288,716,288,707.5,290.5,707.5,290.5,707.5,290.5,707.5,290.5,707.5,290.5,707.5,290.5,707.5,290.5,707.5,290.5,700.5,291,700.5,291,700.5,291,700.5,291,700.5,291,700.5,291,700.5,291,700.5,291"></polygon><polygon data-id="26907" data-section="8" data-section_name="8" data-build="2" data-build_name="5" data-floor="13" data-type="flat" class="s3d-svg__build js-s3d-svg__build" points="775.5,246,775.5,246,775.5,246,775.5,246,775.5,246,775.5,246,775.5,246,775.5,246,790,240.5,790,240.5,790,240.5,790,240.5,790,240.5,790,240.5,790,240.5,790,240.5,796,240.5,796,240.5,796,240.5,796,240.5,796,240.5,796,240.5,796,240.5,796,240.5,801,240,801,240,801,240,801,240,801,240,801,240,801,240,801,240,801.5,256.5,801.5,256.5,801.5,256.5,801.5,256.5,801.5,256.5,801.5,256.5,801.5,256.5,801.5,256.5,801.5,256.5,801.5,256.5,801.5,256.5,801.5,256.5,801.5,256.5,801.5,256.5,801.5,256.5,801.5,256.5,796,259.5,796,259.5,796,259.5,796,259.5,796,259.5,796,259.5,796,259.5,796,259.5,789,259.5,789,259.5,789,259.5,789,259.5,789,259.5,789,259.5,789,259.5,789,259.5,775.5,264.5,775.5,264.5,775.5,264.5,775.5,264.5,775.5,264.5,775.5,264.5,775.5,264.5,775.5,264.5"></polygon><polygon data-id="26914" data-section="8" data-section_name="8" data-build="2" data-build_name="5" data-floor="13" data-type="flat" class="s3d-svg__build js-s3d-svg__build" points="801.5,256.5,801.5,256.5,801.5,256.5,801.5,256.5,801.5,256.5,801.5,256.5,801.5,256.5,801.5,256.5,808.5,254,808.5,254,808.5,254,808.5,254,808.5,254,808.5,254,808.5,254,808.5,254,807.5,233,807.5,233,807.5,233,807.5,233,807.5,233,807.5,233,807.5,233,807.5,233,801,240,801,240,801,240,801,240,801,240,801,240,801,240,801,240"></polygon><polygon data-id="26660" data-section="8" data-section_name="8" data-build="2" data-build_name="5" data-floor="14" data-type="flat" class="s3d-svg__build js-s3d-svg__build" points="700.5,253.5,700.5,253.5,700.5,253.5,700.5,253.5,700.5,253.5,700.5,253.5,700.5,253.5,700.5,253.5,707,253,707,253,707,253,707,253,707,253,707,253,707,253,707,253,713.5,250,713.5,250,713.5,250,713.5,250,713.5,250,713.5,250,713.5,250,713.5,250,729.5,245,729.5,245,729.5,245,729.5,245,729.5,245,729.5,245,729.5,245,729.5,245,729,262,729,262,729,262,729,262,729,262,729,262,729,262,729,262,713,270,713,270,713,270,713,270,713,270,713,270,713,270,713,270,708,271.5,708,271.5,708,271.5,708,271.5,708,271.5,708,271.5,708,271.5,708,271.5,700.5,273,700.5,273,700.5,273,700.5,273,700.5,273,700.5,273,700.5,273,700.5,273"></polygon><polygon data-id="26908" data-section="8" data-section_name="8" data-build="2" data-build_name="5" data-floor="14" data-type="flat" class="s3d-svg__build js-s3d-svg__build" points="776.5,228.5,776.5,228.5,776.5,228.5,776.5,228.5,776.5,228.5,776.5,228.5,776.5,228.5,776.5,228.5,790,223.5,790,223.5,790,223.5,790,223.5,790,223.5,790,223.5,790,223.5,790,223.5,796,223,796,223,796,223,796,223,796,223,796,223,796,223,796,223,802,223,802,223,802,223,802,223,802,223,802,223,802,223,802,223,801,240,801,240,801,240,801,240,801,240,801,240,801,240,801,240,801,240,801,240,801,240,801,240,801,240,801,240,801,240,801,240,790,240.5,790,240.5,790,240.5,790,240.5,790,240.5,790,240.5,790,240.5,790,240.5,775.5,246,775.5,246,775.5,246,775.5,246,775.5,246,775.5,246,775.5,246,775.5,246"></polygon><polygon data-id="26915" data-section="8" data-section_name="8" data-build="2" data-build_name="5" data-floor="14" data-type="flat" class="s3d-svg__build js-s3d-svg__build" points="807.5,233,807.5,233,807.5,233,807.5,233,807.5,233,807.5,233,807.5,233,807.5,233,807,214.5,807,214.5,807,214.5,807,214.5,807,214.5,807,214.5,807,214.5,807,214.5,802,223,802,223,802,223,802,223,802,223,802,223,802,223,802,223,801,240,801,240,801,240,801,240,801,240,801,240,801,240,801,240"></polygon><polygon data-id="26661" data-section="8" data-section_name="8" data-build="2" data-build_name="5" data-floor="15" data-type="flat" class="s3d-svg__build js-s3d-svg__build" points="700,236,700,236,700,236,700,236,700,236,700,236,700,236,700,236,706.5,235,706.5,235,706.5,235,706.5,235,706.5,235,706.5,235,706.5,235,706.5,235,713.5,234,713.5,234,713.5,234,713.5,234,713.5,234,713.5,234,713.5,234,713.5,234,728,224.5,728,224.5,728,224.5,728,224.5,728,224.5,728,224.5,728,224.5,728,224.5,729.5,245,729.5,245,729.5,245,729.5,245,729.5,245,729.5,245,729.5,245,729.5,245,713.5,250,713.5,250,713.5,250,713.5,250,713.5,250,713.5,250,713.5,250,713.5,250,707,253,707,253,707,253,707,253,707,253,707,253,707,253,707,253,700.5,253.5,700.5,253.5,700.5,253.5,700.5,253.5,700.5,253.5,700.5,253.5,700.5,253.5,700.5,253.5"></polygon><polygon data-id="26909" data-section="8" data-section_name="8" data-build="2" data-build_name="5" data-floor="15" data-type="flat" class="s3d-svg__build js-s3d-svg__build" points="776,211.5,776,211.5,776,211.5,776,211.5,776,211.5,776,211.5,776,211.5,776,211.5,791,208,791,208,791,208,791,208,791,208,791,208,791,208,791,208,795,205.5,795,205.5,795,205.5,795,205.5,795,205.5,795,205.5,795,205.5,795,205.5,803,205,803,205,803,205,803,205,803,205,803,205,803,205,803,205,802,223,802,223,802,223,802,223,802,223,802,223,802,223,802,223,802,223,802,223,802,223,802,223,802,223,802,223,802,223,802,223,790,223.5,790,223.5,790,223.5,790,223.5,790,223.5,790,223.5,790,223.5,790,223.5,776.5,228.5,776.5,228.5,776.5,228.5,776.5,228.5,776.5,228.5,776.5,228.5,776.5,228.5,776.5,228.5"></polygon><polygon data-id="26916" data-section="8" data-section_name="8" data-build="2" data-build_name="5" data-floor="15" data-type="flat" class="s3d-svg__build js-s3d-svg__build" points="803,205,803,205,803,205,803,205,803,205,803,205,803,205,803,205,807,198.5,807,198.5,807,198.5,807,198.5,807,198.5,807,198.5,807,198.5,807,198.5,807,214.5,807,214.5,807,214.5,807,214.5,807,214.5,807,214.5,807,214.5,807,214.5,802,223,802,223,802,223,802,223,802,223,802,223,802,223,802,223"></polygon><polygon data-id="26927" data-section="8" data-section_name="8" data-build="2" data-build_name="5" data-floor="16" data-type="flat" class="s3d-svg__build js-s3d-svg__build" points="700,236,700,236,700,236,700,236,700,236,700,236,700,236,700,236,700.5,216,700.5,216,700.5,216,700.5,216,700.5,216,700.5,216,700.5,216,700.5,216,704.5,216.5,704.5,216.5,704.5,216.5,704.5,216.5,704.5,216.5,704.5,216.5,704.5,216.5,704.5,216.5,722,211.5,722,211.5,722,211.5,722,211.5,722,211.5,722,211.5,722,211.5,722,211.5,729,206,729,206,729,206,729,206,729,206,729,206,729,206,729,206,728,224.5,728,224.5,728,224.5,728,224.5,728,224.5,728,224.5,728,224.5,728,224.5,713.5,234,713.5,234,713.5,234,713.5,234,713.5,234,713.5,234,713.5,234,713.5,234,706.5,235,706.5,235,706.5,235,706.5,235,706.5,235,706.5,235,706.5,235,706.5,235"></polygon><polygon data-id="26926" data-section="8" data-section_name="8" data-build="2" data-build_name="5" data-floor="16" data-type="flat" class="s3d-svg__build js-s3d-svg__build" points="776,211.5,776,211.5,776,211.5,776,211.5,776,211.5,776,211.5,776,211.5,776,211.5,777.5,191.5,777.5,191.5,777.5,191.5,777.5,191.5,777.5,191.5,777.5,191.5,777.5,191.5,777.5,191.5,790.5,189,790.5,189,790.5,189,790.5,189,790.5,189,790.5,189,790.5,189,790.5,189,795,187.5,795,187.5,795,187.5,795,187.5,795,187.5,795,187.5,795,187.5,795,187.5,803,185,803,185,803,185,803,185,803,185,803,185,803,185,803,185,803,205,803,205,803,205,803,205,803,205,803,205,803,205,803,205,791,208,791,208,791,208,791,208,791,208,791,208,791,208,791,208,791,208,791,208,791,208,791,208,791,208,791,208,791,208,791,208"></polygon><polygon data-id="27000" data-section="9" data-section_name="9" data-build="2" data-build_name="5" data-floor="2" data-type="flat" class="s3d-svg__build js-s3d-svg__build" points="827.5,413,827.5,413,827.5,413,827.5,413,827.5,413,827.5,413,827.5,413,827.5,413,834,412,834,412,834,412,834,412,834,412,834,412,834,412,834,412,840,409,840,409,840,409,840,409,840,409,840,409,840,409,840,409,849,402.5,849,402.5,849,402.5,849,402.5,849,402.5,849,402.5,849,402.5,849,402.5,849,420,849,420,849,420,849,420,849,420,849,420,849,420,849,420,841.5,424.5,841.5,424.5,841.5,424.5,841.5,424.5,841.5,424.5,841.5,424.5,841.5,424.5,841.5,424.5,839.5,426,839.5,426,839.5,426,839.5,426,839.5,426,839.5,426,839.5,426,839.5,426,834,428.5,834,428.5,834,428.5,834,428.5,834,428.5,834,428.5,834,428.5,834,428.5,827.5,429.5,827.5,429.5,827.5,429.5,827.5,429.5,827.5,429.5,827.5,429.5,827.5,429.5,827.5,429.5"></polygon><polygon data-id="27001" data-section="9" data-section_name="9" data-build="2" data-build_name="5" data-floor="3" data-type="flat" class="s3d-svg__build js-s3d-svg__build" points="827.5,397.5,827.5,397.5,827.5,397.5,827.5,397.5,827.5,397.5,827.5,397.5,827.5,397.5,827.5,397.5,834.5,395.5,834.5,395.5,834.5,395.5,834.5,395.5,834.5,395.5,834.5,395.5,834.5,395.5,834.5,395.5,840.5,394.5,840.5,394.5,840.5,394.5,840.5,394.5,840.5,394.5,840.5,394.5,840.5,394.5,840.5,394.5,842.5,390,842.5,390,842.5,390,842.5,390,842.5,390,842.5,390,842.5,390,842.5,390,850.5,386,850.5,386,850.5,386,850.5,386,850.5,386,850.5,386,850.5,386,850.5,386,849,402.5,849,402.5,849,402.5,849,402.5,849,402.5,849,402.5,849,402.5,849,402.5,840,409,840,409,840,409,840,409,840,409,840,409,840,409,840,409,834,412,834,412,834,412,834,412,834,412,834,412,834,412,834,412,827.5,413,827.5,413,827.5,413,827.5,413,827.5,413,827.5,413,827.5,413,827.5,413"></polygon><polygon data-id="27002" data-section="9" data-section_name="9" data-build="2" data-build_name="5" data-floor="4" data-type="flat" class="s3d-svg__build js-s3d-svg__build" points="828,379,828,379,828,379,828,379,828,379,828,379,828,379,828,379,834.5,379,834.5,379,834.5,379,834.5,379,834.5,379,834.5,379,834.5,379,834.5,379,839.5,377,839.5,377,839.5,377,839.5,377,839.5,377,839.5,377,839.5,377,839.5,377,850,370,850,370,850,370,850,370,850,370,850,370,850,370,850,370,850.5,386,850.5,386,850.5,386,850.5,386,850.5,386,850.5,386,850.5,386,850.5,386,840.5,394.5,840.5,394.5,840.5,394.5,840.5,394.5,840.5,394.5,840.5,394.5,840.5,394.5,840.5,394.5,834.5,395.5,834.5,395.5,834.5,395.5,834.5,395.5,834.5,395.5,834.5,395.5,834.5,395.5,834.5,395.5,827.5,397.5,827.5,397.5,827.5,397.5,827.5,397.5,827.5,397.5,827.5,397.5,827.5,397.5,827.5,397.5"></polygon><polygon data-id="27003" data-section="9" data-section_name="9" data-build="2" data-build_name="5" data-floor="5" data-type="flat" class="s3d-svg__build js-s3d-svg__build" points="828,364,828,364,828,364,828,364,828,364,828,364,828,364,828,364,834.5,363,834.5,363,834.5,363,834.5,363,834.5,363,834.5,363,834.5,363,834.5,363,840.5,360.5,840.5,360.5,840.5,360.5,840.5,360.5,840.5,360.5,840.5,360.5,840.5,360.5,840.5,360.5,850.5,353.5,850.5,353.5,850.5,353.5,850.5,353.5,850.5,353.5,850.5,353.5,850.5,353.5,850.5,353.5,850,370,850,370,850,370,850,370,850,370,850,370,850,370,850,370,839.5,377,839.5,377,839.5,377,839.5,377,839.5,377,839.5,377,839.5,377,839.5,377,834.5,379,834.5,379,834.5,379,834.5,379,834.5,379,834.5,379,834.5,379,834.5,379,828,379,828,379,828,379,828,379,828,379,828,379,828,379,828,379"></polygon><polygon data-id="27004" data-section="9" data-section_name="9" data-build="2" data-build_name="5" data-floor="6" data-type="flat" class="s3d-svg__build js-s3d-svg__build" points="828.5,348,828.5,348,828.5,348,828.5,348,828.5,348,828.5,348,828.5,348,828.5,348,835,346,835,346,835,346,835,346,835,346,835,346,835,346,835,346,840.5,346,840.5,346,840.5,346,840.5,346,840.5,346,840.5,346,840.5,346,840.5,346,842.5,341,842.5,341,842.5,341,842.5,341,842.5,341,842.5,341,842.5,341,842.5,341,851.5,337.5,851.5,337.5,851.5,337.5,851.5,337.5,851.5,337.5,851.5,337.5,851.5,337.5,851.5,337.5,850.5,353.5,850.5,353.5,850.5,353.5,850.5,353.5,850.5,353.5,850.5,353.5,850.5,353.5,850.5,353.5,840.5,360.5,840.5,360.5,840.5,360.5,840.5,360.5,840.5,360.5,840.5,360.5,840.5,360.5,840.5,360.5,834.5,363,834.5,363,834.5,363,834.5,363,834.5,363,834.5,363,834.5,363,834.5,363,828,364,828,364,828,364,828,364,828,364,828,364,828,364,828,364"></polygon><polygon data-id="27005" data-section="9" data-section_name="9" data-build="2" data-build_name="5" data-floor="7" data-type="flat" class="s3d-svg__build js-s3d-svg__build" points="830,331,830,331,830,331,830,331,830,331,830,331,830,331,830,331,836,330,836,330,836,330,836,330,836,330,836,330,836,330,836,330,842,327.5,842,327.5,842,327.5,842,327.5,842,327.5,842,327.5,842,327.5,842,327.5,852.5,320.5,852.5,320.5,852.5,320.5,852.5,320.5,852.5,320.5,852.5,320.5,852.5,320.5,852.5,320.5,851.5,337.5,851.5,337.5,851.5,337.5,851.5,337.5,851.5,337.5,851.5,337.5,851.5,337.5,851.5,337.5,842.5,341,842.5,341,842.5,341,842.5,341,842.5,341,842.5,341,842.5,341,842.5,341,840.5,346,840.5,346,840.5,346,840.5,346,840.5,346,840.5,346,840.5,346,840.5,346,835,346,835,346,835,346,835,346,835,346,835,346,835,346,835,346,828.5,348,828.5,348,828.5,348,828.5,348,828.5,348,828.5,348,828.5,348,828.5,348"></polygon><polygon data-id="27006" data-section="9" data-section_name="9" data-build="2" data-build_name="5" data-floor="8" data-type="flat" class="s3d-svg__build js-s3d-svg__build" points="830,314.5,830,314.5,830,314.5,830,314.5,830,314.5,830,314.5,830,314.5,830,314.5,836,312,836,312,836,312,836,312,836,312,836,312,836,312,836,312,842.5,311.5,842.5,311.5,842.5,311.5,842.5,311.5,842.5,311.5,842.5,311.5,842.5,311.5,842.5,311.5,843.5,308,843.5,308,843.5,308,843.5,308,843.5,308,843.5,308,843.5,308,843.5,308,854,303.5,854,303.5,854,303.5,854,303.5,854,303.5,854,303.5,854,303.5,854,303.5,852.5,320.5,852.5,320.5,852.5,320.5,852.5,320.5,852.5,320.5,852.5,320.5,852.5,320.5,852.5,320.5,842,327.5,842,327.5,842,327.5,842,327.5,842,327.5,842,327.5,842,327.5,842,327.5,836,330,836,330,836,330,836,330,836,330,836,330,836,330,836,330,830,331,830,331,830,331,830,331,830,331,830,331,830,331,830,331"></polygon><polygon data-id="27007" data-section="9" data-section_name="9" data-build="2" data-build_name="5" data-floor="9" data-type="flat" class="s3d-svg__build js-s3d-svg__build" points="831.5,295.5,831.5,295.5,831.5,295.5,831.5,295.5,831.5,295.5,831.5,295.5,831.5,295.5,831.5,295.5,837,295,837,295,837,295,837,295,837,295,837,295,837,295,837,295,843,293,843,293,843,293,843,293,843,293,843,293,843,293,843,293,844.5,289.5,844.5,289.5,844.5,289.5,844.5,289.5,844.5,289.5,844.5,289.5,844.5,289.5,844.5,289.5,854,287.5,854,287.5,854,287.5,854,287.5,854,287.5,854,287.5,854,287.5,854,287.5,854,303.5,854,303.5,854,303.5,854,303.5,854,303.5,854,303.5,854,303.5,854,303.5,843.5,308,843.5,308,843.5,308,843.5,308,843.5,308,843.5,308,843.5,308,843.5,308,842.5,311.5,842.5,311.5,842.5,311.5,842.5,311.5,842.5,311.5,842.5,311.5,842.5,311.5,842.5,311.5,836,312,836,312,836,312,836,312,836,312,836,312,836,312,836,312,830,314.5,830,314.5,830,314.5,830,314.5,830,314.5,830,314.5,830,314.5,830,314.5"></polygon><polygon data-id="27008" data-section="9" data-section_name="9" data-build="2" data-build_name="5" data-floor="10" data-type="flat" class="s3d-svg__build js-s3d-svg__build" points="831.5,280,831.5,280,831.5,280,831.5,280,831.5,280,831.5,280,831.5,280,831.5,280,837,279,837,279,837,279,837,279,837,279,837,279,837,279,837,279,842,277.5,842,277.5,842,277.5,842,277.5,842,277.5,842,277.5,842,277.5,842,277.5,843.5,273.5,843.5,273.5,843.5,273.5,843.5,273.5,843.5,273.5,843.5,273.5,843.5,273.5,843.5,273.5,854.5,269.5,854.5,269.5,854.5,269.5,854.5,269.5,854.5,269.5,854.5,269.5,854.5,269.5,854.5,269.5,854,287.5,854,287.5,854,287.5,854,287.5,854,287.5,854,287.5,854,287.5,854,287.5,844.5,289.5,844.5,289.5,844.5,289.5,844.5,289.5,844.5,289.5,844.5,289.5,844.5,289.5,844.5,289.5,843,293,843,293,843,293,843,293,843,293,843,293,843,293,843,293,837,295,837,295,837,295,837,295,837,295,837,295,837,295,837,295,831.5,295.5,831.5,295.5,831.5,295.5,831.5,295.5,831.5,295.5,831.5,295.5,831.5,295.5,831.5,295.5"></polygon><polygon data-id="27009" data-section="9" data-section_name="9" data-build="2" data-build_name="5" data-floor="11" data-type="flat" class="s3d-svg__build js-s3d-svg__build" points="831.5,280,831.5,280,831.5,280,831.5,280,831.5,280,831.5,280,831.5,280,831.5,280,832,262,832,262,832,262,832,262,832,262,832,262,832,262,832,262,838,261.5,838,261.5,838,261.5,838,261.5,838,261.5,838,261.5,838,261.5,838,261.5,843,261,843,261,843,261,843,261,843,261,843,261,843,261,843,261,844.5,256,844.5,256,844.5,256,844.5,256,844.5,256,844.5,256,844.5,256,844.5,256,856,252.5,856,252.5,856,252.5,856,252.5,856,252.5,856,252.5,856,252.5,856,252.5,854.5,269.5,854.5,269.5,854.5,269.5,854.5,269.5,854.5,269.5,854.5,269.5,854.5,269.5,854.5,269.5,842,277.5,842,277.5,842,277.5,842,277.5,842,277.5,842,277.5,842,277.5,842,277.5,837,279,837,279,837,279,837,279,837,279,837,279,837,279,837,279"></polygon><polygon data-id="27010" data-section="9" data-section_name="9" data-build="2" data-build_name="5" data-floor="12" data-type="flat" class="s3d-svg__build js-s3d-svg__build" points="832,244,832,244,832,244,832,244,832,244,832,244,832,244,832,244,837,243,837,243,837,243,837,243,837,243,837,243,837,243,837,243,844.5,243,844.5,243,844.5,243,844.5,243,844.5,243,844.5,243,844.5,243,844.5,243,847,239.5,847,239.5,847,239.5,847,239.5,847,239.5,847,239.5,847,239.5,847,239.5,856,236,856,236,856,236,856,236,856,236,856,236,856,236,856,236,856,252.5,856,252.5,856,252.5,856,252.5,856,252.5,856,252.5,856,252.5,856,252.5,844.5,256,844.5,256,844.5,256,844.5,256,844.5,256,844.5,256,844.5,256,844.5,256,843,261,843,261,843,261,843,261,843,261,843,261,843,261,843,261,838,261.5,838,261.5,838,261.5,838,261.5,838,261.5,838,261.5,838,261.5,838,261.5,832,262,832,262,832,262,832,262,832,262,832,262,832,262,832,262"></polygon><polygon data-id="27011" data-section="9" data-section_name="9" data-build="2" data-build_name="5" data-floor="13" data-type="flat" class="s3d-svg__build js-s3d-svg__build" points="832.5,227.5,832.5,227.5,832.5,227.5,832.5,227.5,832.5,227.5,832.5,227.5,832.5,227.5,832.5,227.5,838.5,226,838.5,226,838.5,226,838.5,226,838.5,226,838.5,226,838.5,226,838.5,226,845,225,845,225,845,225,845,225,845,225,845,225,845,225,845,225,856.5,218.5,856.5,218.5,856.5,218.5,856.5,218.5,856.5,218.5,856.5,218.5,856.5,218.5,856.5,218.5,856,236,856,236,856,236,856,236,856,236,856,236,856,236,856,236,847,239.5,847,239.5,847,239.5,847,239.5,847,239.5,847,239.5,847,239.5,847,239.5,844.5,243,844.5,243,844.5,243,844.5,243,844.5,243,844.5,243,844.5,243,844.5,243,837,243,837,243,837,243,837,243,837,243,837,243,837,243,837,243,832,244,832,244,832,244,832,244,832,244,832,244,832,244,832,244"></polygon><polygon data-id="27012" data-section="9" data-section_name="9" data-build="2" data-build_name="5" data-floor="14" data-type="flat" class="s3d-svg__build js-s3d-svg__build" points="833.5,208,833.5,208,833.5,208,833.5,208,833.5,208,833.5,208,833.5,208,833.5,208,838.5,208,838.5,208,838.5,208,838.5,208,838.5,208,838.5,208,838.5,208,838.5,208,844.5,207,844.5,207,844.5,207,844.5,207,844.5,207,844.5,207,844.5,207,844.5,207,847,204.5,847,204.5,847,204.5,847,204.5,847,204.5,847,204.5,847,204.5,847,204.5,857.5,201,857.5,201,857.5,201,857.5,201,857.5,201,857.5,201,857.5,201,857.5,201,856.5,218.5,856.5,218.5,856.5,218.5,856.5,218.5,856.5,218.5,856.5,218.5,856.5,218.5,856.5,218.5,845,225,845,225,845,225,845,225,845,225,845,225,845,225,845,225,838.5,226,838.5,226,838.5,226,838.5,226,838.5,226,838.5,226,838.5,226,838.5,226,832.5,227.5,832.5,227.5,832.5,227.5,832.5,227.5,832.5,227.5,832.5,227.5,832.5,227.5,832.5,227.5"></polygon><polygon data-id="27013" data-section="9" data-section_name="9" data-build="2" data-build_name="5" data-floor="15" data-type="flat" class="s3d-svg__build js-s3d-svg__build" points="834,191,834,191,834,191,834,191,834,191,834,191,834,191,834,191,839,190.5,839,190.5,839,190.5,839,190.5,839,190.5,839,190.5,839,190.5,839,190.5,845,190,845,190,845,190,845,190,845,190,845,190,845,190,845,190,848,186.5,848,186.5,848,186.5,848,186.5,848,186.5,848,186.5,848,186.5,848,186.5,857.5,182.5,857.5,182.5,857.5,182.5,857.5,182.5,857.5,182.5,857.5,182.5,857.5,182.5,857.5,182.5,857.5,201,857.5,201,857.5,201,857.5,201,857.5,201,857.5,201,857.5,201,857.5,201,847,204.5,847,204.5,847,204.5,847,204.5,847,204.5,847,204.5,847,204.5,847,204.5,844.5,207,844.5,207,844.5,207,844.5,207,844.5,207,844.5,207,844.5,207,844.5,207,838.5,208,838.5,208,838.5,208,838.5,208,838.5,208,838.5,208,838.5,208,838.5,208,833.5,208,833.5,208,833.5,208,833.5,208,833.5,208,833.5,208,833.5,208,833.5,208"></polygon><polygon data-id="27029" data-section="9" data-section_name="9" data-build="2" data-build_name="5" data-floor="16" data-type="flat" class="s3d-svg__build js-s3d-svg__build" points="833,175.5,833,175.5,833,175.5,833,175.5,833,175.5,833,175.5,833,175.5,833,175.5,837,175.5,837,175.5,837,175.5,837,175.5,837,175.5,837,175.5,837,175.5,837,175.5,853.5,169,853.5,169,853.5,169,853.5,169,853.5,169,853.5,169,853.5,169,853.5,169,855.5,167,855.5,167,855.5,167,855.5,167,855.5,167,855.5,167,855.5,167,855.5,167,862.5,164.5,862.5,164.5,862.5,164.5,862.5,164.5,862.5,164.5,862.5,164.5,862.5,164.5,862.5,164.5,857.5,182.5,857.5,182.5,857.5,182.5,857.5,182.5,857.5,182.5,857.5,182.5,857.5,182.5,857.5,182.5,848,186.5,848,186.5,848,186.5,848,186.5,848,186.5,848,186.5,848,186.5,848,186.5,845,190,845,190,845,190,845,190,845,190,845,190,845,190,845,190,839,190.5,839,190.5,839,190.5,839,190.5,839,190.5,839,190.5,839,190.5,839,190.5,834,191,834,191,834,191,834,191,834,191,834,191,834,191,834,191,824.5,191.5,824.5,191.5,824.5,191.5,824.5,191.5,824.5,191.5,824.5,191.5,824.5,191.5,824.5,191.5,815,193.5,815,193.5,815,193.5,815,193.5,815,193.5,815,193.5,815,193.5,815,193.5,814,177,814,177,814,177,814,177,814,177,814,177,814,177,814,177,824,174.5,824,174.5,824,174.5,824,174.5,824,174.5,824,174.5,824,174.5,824,174.5"></polygon><polygon data-id="27028" data-section="9" data-section_name="9" data-build="2" data-build_name="5" data-floor="16" data-type="flat" class="s3d-svg__build js-s3d-svg__build" points="916.5,150.5,916.5,150.5,916.5,150.5,916.5,150.5,916.5,150.5,916.5,150.5,916.5,150.5,916.5,150.5,928.5,146.5,928.5,146.5,928.5,146.5,928.5,146.5,928.5,146.5,928.5,146.5,928.5,146.5,928.5,146.5,927.5,157.5,927.5,157.5,927.5,157.5,927.5,157.5,927.5,157.5,927.5,157.5,927.5,157.5,927.5,157.5,923.5,159,923.5,159,923.5,159,923.5,159,923.5,159,923.5,159,923.5,159,923.5,159,922.5,166,922.5,166,922.5,166,922.5,166,922.5,166,922.5,166,922.5,166,922.5,166,918.5,167,918.5,167,918.5,167,918.5,167,918.5,167,918.5,167,918.5,167,918.5,167,913,165.5,913,165.5,913,165.5,913,165.5,913,165.5,913,165.5,913,165.5,913,165.5,900.5,169,900.5,169,900.5,169,900.5,169,900.5,169,900.5,169,900.5,169,900.5,169,900,151.5,900,151.5,900,151.5,900,151.5,900,151.5,900,151.5,900,151.5,900,151.5,912,151,912,151,912,151,912,151,912,151,912,151,912,151,912,151"></polygon><polygon data-id="27030" data-section="10" data-section_name="10" data-build="2" data-build_name="5" data-floor="2" data-type="flat" class="s3d-svg__build js-s3d-svg__build" points="1055.5,402,1077.6666666667,390.66666666667,1076.6666666667,409.33333333333,1055.3333333333,417.66666666667,1033.3333333333,412,1019,407,1022,393,1022,393,1022,393,1023.5,396,1023.5,396,1030.5,397,1037,395.5"></polygon><polygon data-id="27044" data-section="10" data-section_name="10" data-build="2" data-build_name="5" data-floor="2" data-type="flat" class="s3d-svg__build js-s3d-svg__build" points="1019,407,989,396.66666666667,989.5,381.5,1022,393"></polygon><polygon data-id="27058" data-section="10" data-section_name="10" data-build="2" data-build_name="5" data-floor="2" data-type="flat" class="s3d-svg__build js-s3d-svg__build" points="954,389.5,954,389.5,954,389.5,954,389.5,954,389.5,954,389.5,954,389.5,954,389.5,955,373,955,373,955,373,955,373,955,373,955,373,955,373,955,373,962.5,375.5,962.5,375.5,962.5,375.5,962.5,375.5,962.5,375.5,962.5,375.5,962.5,375.5,962.5,375.5,968,376,968,376,968,376,968,376,968,376,968,376,968,376,968,376,981,380,981,380,981,380,981,380,981,380,981,380,981,380,981,380,980.5,397.5,980.5,397.5,980.5,397.5,980.5,397.5,980.5,397.5,980.5,397.5,980.5,397.5,980.5,397.5,967.5,392.5,967.5,392.5,967.5,392.5,967.5,392.5,967.5,392.5,967.5,392.5,967.5,392.5,967.5,392.5"></polygon><polygon data-id="27072" data-section="10" data-section_name="10" data-build="2" data-build_name="5" data-floor="2" data-type="flat" class="s3d-svg__build js-s3d-svg__build" points="955,373,955,373,955,373,955,373,955,373,955,373,955,373,955,373,954,389.5,954,389.5,954,389.5,954,389.5,954,389.5,954,389.5,954,389.5,954,389.5,933.5,384.5,933.5,384.5,933.5,384.5,933.5,384.5,933.5,384.5,933.5,384.5,933.5,384.5,933.5,384.5,917,383,917,383,917,383,917,383,917,383,917,383,917,383,917,383,917,366,917,366,917,366,917,366,917,366,917,366,917,366,917,366,933,366.5,933,366.5,933,366.5,933,366.5,933,366.5,933,366.5,933,366.5,933,366.5"></polygon><polygon data-id="27031" data-section="10" data-section_name="10" data-build="2" data-build_name="5" data-floor="3" data-type="flat" class="s3d-svg__build js-s3d-svg__build" points="1056.5,384.5,1078.6666666667,375,1077.6666666667,390.66666666667,1055.5,402,1037,395.5,1030.5,397,1023.5,396,1022,393,1023,376.5,1031,379,1039,380"></polygon><polygon data-id="27045" data-section="10" data-section_name="10" data-build="2" data-build_name="5" data-floor="3" data-type="flat" class="s3d-svg__build js-s3d-svg__build" points="1023,376.5,1023,376.5,1023,376.5,1023,376.5,1023,376.5,1023,376.5,1023,376.5,1023,376.5,1022,393,1022,393,1022,393,1022,393,1022,393,1022,393,1022,393,1022,393,989.5,381.5,989.5,381.5,989.5,381.5,989.5,381.5,989.5,381.5,989.5,381.5,989.5,381.5,989.5,381.5,990,365.5,990,365.5,990,365.5,990,365.5,990,365.5,990,365.5,990,365.5,990,365.5"></polygon><polygon data-id="27059" data-section="10" data-section_name="10" data-build="2" data-build_name="5" data-floor="3" data-type="flat" class="s3d-svg__build js-s3d-svg__build" points="955,373,955,373,955,373,955,373,955,373,955,373,955,373,955,373,955.5,357.5,955.5,357.5,955.5,357.5,955.5,357.5,955.5,357.5,955.5,357.5,955.5,357.5,955.5,357.5,962.5,358.5,962.5,358.5,962.5,358.5,962.5,358.5,962.5,358.5,962.5,358.5,962.5,358.5,962.5,358.5,968.5,360.5,968.5,360.5,968.5,360.5,968.5,360.5,968.5,360.5,968.5,360.5,968.5,360.5,968.5,360.5,981,364,981,364,981,364,981,364,981,364,981,364,981,364,981,364,981,380,981,380,981,380,981,380,981,380,981,380,981,380,981,380,968,376,968,376,968,376,968,376,968,376,968,376,968,376,968,376,962.5,375.5,962.5,375.5,962.5,375.5,962.5,375.5,962.5,375.5,962.5,375.5,962.5,375.5,962.5,375.5"></polygon><polygon data-id="27073" data-section="10" data-section_name="10" data-build="2" data-build_name="5" data-floor="3" data-type="flat" class="s3d-svg__build js-s3d-svg__build" points="955.5,357.5,955.5,357.5,955.5,357.5,955.5,357.5,955.5,357.5,955.5,357.5,955.5,357.5,955.5,357.5,938,351,938,351,938,351,938,351,938,351,938,351,938,351,938,351,934,350.5,934,350.5,934,350.5,934,350.5,934,350.5,934,350.5,934,350.5,934,350.5,915.5,352,915.5,352,915.5,352,915.5,352,915.5,352,915.5,352,915.5,352,915.5,352,917,366,917,366,917,366,917,366,917,366,917,366,917,366,917,366,933,366.5,933,366.5,933,366.5,933,366.5,933,366.5,933,366.5,933,366.5,933,366.5,955,373,955,373,955,373,955,373,955,373,955,373,955,373,955,373"></polygon><polygon data-id="27032" data-section="10" data-section_name="10" data-build="2" data-build_name="5" data-floor="4" data-type="flat" class="s3d-svg__build js-s3d-svg__build" points="1059,369,1080,359,1078.6666666667,375,1056.5,384.5,1039,380,1031,379,1023,376.5,1024,360,1032.5,363.5,1039,363.5"></polygon><polygon data-id="27046" data-section="10" data-section_name="10" data-build="2" data-build_name="5" data-floor="4" data-type="flat" class="s3d-svg__build js-s3d-svg__build" points="1024,360,1024,360,1024,360,1024,360,1024,360,1024,360,1024,360,1024,360,1023,376.5,1023,376.5,1023,376.5,1023,376.5,1023,376.5,1023,376.5,1023,376.5,1023,376.5,990,365.5,990,365.5,990,365.5,990,365.5,990,365.5,990,365.5,990,365.5,990,365.5,992.5,351,992.5,351,992.5,351,992.5,351,992.5,351,992.5,351,992.5,351,992.5,351"></polygon><polygon data-id="27060" data-section="10" data-section_name="10" data-build="2" data-build_name="5" data-floor="4" data-type="flat" class="s3d-svg__build js-s3d-svg__build" points="955.5,341,955.5,341,955.5,341,955.5,341,955.5,341,955.5,341,955.5,341,955.5,341,963.5,343,963.5,343,963.5,343,963.5,343,963.5,343,963.5,343,963.5,343,963.5,343,970.5,344.5,970.5,344.5,970.5,344.5,970.5,344.5,970.5,344.5,970.5,344.5,970.5,344.5,970.5,344.5,984,349,984,349,984,349,984,349,984,349,984,349,984,349,984,349,981,364,981,364,981,364,981,364,981,364,981,364,981,364,981,364,968.5,360.5,968.5,360.5,968.5,360.5,968.5,360.5,968.5,360.5,968.5,360.5,968.5,360.5,968.5,360.5,962.5,358.5,962.5,358.5,962.5,358.5,962.5,358.5,962.5,358.5,962.5,358.5,962.5,358.5,962.5,358.5,955.5,357.5,955.5,357.5,955.5,357.5,955.5,357.5,955.5,357.5,955.5,357.5,955.5,357.5,955.5,357.5"></polygon><polygon data-id="27074" data-section="10" data-section_name="10" data-build="2" data-build_name="5" data-floor="4" data-type="flat" class="s3d-svg__build js-s3d-svg__build" points="955.5,341,955.5,341,955.5,341,955.5,341,955.5,341,955.5,341,955.5,341,955.5,341,940,336.5,940,336.5,940,336.5,940,336.5,940,336.5,940,336.5,940,336.5,940,336.5,935,334.5,935,334.5,935,334.5,935,334.5,935,334.5,935,334.5,935,334.5,935,334.5,916,336,916,336,916,336,916,336,916,336,916,336,916,336,916,336,915.5,352,915.5,352,915.5,352,915.5,352,915.5,352,915.5,352,915.5,352,915.5,352,934,350.5,934,350.5,934,350.5,934,350.5,934,350.5,934,350.5,934,350.5,934,350.5,938,351,938,351,938,351,938,351,938,351,938,351,938,351,938,351,955.5,357.5,955.5,357.5,955.5,357.5,955.5,357.5,955.5,357.5,955.5,357.5,955.5,357.5,955.5,357.5"></polygon><polygon data-id="27033" data-section="10" data-section_name="10" data-build="2" data-build_name="5" data-floor="5" data-type="flat" class="s3d-svg__build js-s3d-svg__build" points="1059.5,352.5,1080.3333333333,342.66666666667,1080,359,1059,369,1039,363.5,1032.5,363.5,1024,360,1026,343,1033,346.5,1040,348"></polygon><polygon data-id="27047" data-section="10" data-section_name="10" data-build="2" data-build_name="5" data-floor="5" data-type="flat" class="s3d-svg__build js-s3d-svg__build" points="1026,343,1026,343,1026,343,1026,343,1026,343,1026,343,1026,343,1026,343,1024,360,1024,360,1024,360,1024,360,1024,360,1024,360,1024,360,1024,360,992.5,351,992.5,351,992.5,351,992.5,351,992.5,351,992.5,351,992.5,351,992.5,351,994,335.5,994,335.5,994,335.5,994,335.5,994,335.5,994,335.5,994,335.5,994,335.5"></polygon><polygon data-id="27061" data-section="10" data-section_name="10" data-build="2" data-build_name="5" data-floor="5" data-type="flat" class="s3d-svg__build js-s3d-svg__build" points="985.5,332,985.5,332,985.5,332,985.5,332,985.5,332,985.5,332,985.5,332,985.5,332,984,349,984,349,984,349,984,349,984,349,984,349,984,349,984,349,970.5,344.5,970.5,344.5,970.5,344.5,970.5,344.5,970.5,344.5,970.5,344.5,970.5,344.5,970.5,344.5,963.5,343,963.5,343,963.5,343,963.5,343,963.5,343,963.5,343,963.5,343,963.5,343,955.5,341,955.5,341,955.5,341,955.5,341,955.5,341,955.5,341,955.5,341,955.5,341,956.5,325,956.5,325,956.5,325,956.5,325,956.5,325,956.5,325,956.5,325,956.5,325,965,328,965,328,965,328,965,328,965,328,965,328,965,328,965,328,970.5,329,970.5,329,970.5,329,970.5,329,970.5,329,970.5,329,970.5,329,970.5,329"></polygon><polygon data-id="27075" data-section="10" data-section_name="10" data-build="2" data-build_name="5" data-floor="5" data-type="flat" class="s3d-svg__build js-s3d-svg__build" points="956.5,325,956.5,325,956.5,325,956.5,325,956.5,325,956.5,325,956.5,325,956.5,325,955.5,341,955.5,341,955.5,341,955.5,341,955.5,341,955.5,341,955.5,341,955.5,341,940,336.5,940,336.5,940,336.5,940,336.5,940,336.5,940,336.5,940,336.5,940,336.5,940,336.5,940,336.5,940,336.5,940,336.5,940,336.5,940,336.5,940,336.5,940,336.5,935,334.5,935,334.5,935,334.5,935,334.5,935,334.5,935,334.5,935,334.5,935,334.5,916,336,916,336,916,336,916,336,916,336,916,336,916,336,916,336,916,322.5,916,322.5,916,322.5,916,322.5,916,322.5,916,322.5,916,322.5,916,322.5,920.5,319,920.5,319,920.5,319,920.5,319,920.5,319,920.5,319,920.5,319,920.5,319,939,320,939,320,939,320,939,320,939,320,939,320,939,320,939,320"></polygon><polygon data-id="27034" data-section="10" data-section_name="10" data-build="2" data-build_name="5" data-floor="6" data-type="flat" class="s3d-svg__build js-s3d-svg__build" points="1061,336.5,1081.6666666667,326.66666666667,1080.3333333333,342.66666666667,1059.5,352.5,1040,348,1040,348,1033,346.5,1026,343,1027,328,1036,330.5,1042,332"></polygon><polygon data-id="27048" data-section="10" data-section_name="10" data-build="2" data-build_name="5" data-floor="6" data-type="flat" class="s3d-svg__build js-s3d-svg__build" points="1027,328,1027,328,1027,328,1027,328,1027,328,1027,328,1027,328,1027,328,1026,343,1026,343,1026,343,1026,343,1026,343,1026,343,1026,343,1026,343,994,335.5,994,335.5,994,335.5,994,335.5,994,335.5,994,335.5,994,335.5,994,335.5,995.5,319,995.5,319,995.5,319,995.5,319,995.5,319,995.5,319,995.5,319,995.5,319"></polygon><polygon data-id="27062" data-section="10" data-section_name="10" data-build="2" data-build_name="5" data-floor="6" data-type="flat" class="s3d-svg__build js-s3d-svg__build" points="986,317,986,317,986,317,986,317,986,317,986,317,986,317,986,317,985.5,332,985.5,332,985.5,332,985.5,332,985.5,332,985.5,332,985.5,332,985.5,332,970.5,329,970.5,329,970.5,329,970.5,329,970.5,329,970.5,329,970.5,329,970.5,329,965,328,965,328,965,328,965,328,965,328,965,328,965,328,965,328,956.5,325,956.5,325,956.5,325,956.5,325,956.5,325,956.5,325,956.5,325,956.5,325,957.5,309.5,957.5,309.5,957.5,309.5,957.5,309.5,957.5,309.5,957.5,309.5,957.5,309.5,957.5,309.5,964.5,311,964.5,311,964.5,311,964.5,311,964.5,311,964.5,311,964.5,311,964.5,311,972,312,972,312,972,312,972,312,972,312,972,312,972,312,972,312"></polygon><polygon data-id="27076" data-section="10" data-section_name="10" data-build="2" data-build_name="5" data-floor="6" data-type="flat" class="s3d-svg__build js-s3d-svg__build" points="957.5,309.5,957.5,309.5,957.5,309.5,957.5,309.5,957.5,309.5,957.5,309.5,957.5,309.5,957.5,309.5,956.5,325,956.5,325,956.5,325,956.5,325,956.5,325,956.5,325,956.5,325,956.5,325,939,320,939,320,939,320,939,320,939,320,939,320,939,320,939,320,920.5,319,920.5,319,920.5,319,920.5,319,920.5,319,920.5,319,920.5,319,920.5,319,916,322.5,916,322.5,916,322.5,916,322.5,916,322.5,916,322.5,916,322.5,916,322.5,917,307,917,307,917,307,917,307,917,307,917,307,917,307,917,307,921,304.5,921,304.5,921,304.5,921,304.5,921,304.5,921,304.5,921,304.5,921,304.5,938.5,305,938.5,305,938.5,305,938.5,305,938.5,305,938.5,305,938.5,305,938.5,305"></polygon><polygon data-id="27035" data-section="10" data-section_name="10" data-build="2" data-build_name="5" data-floor="7" data-type="flat" class="s3d-svg__build js-s3d-svg__build" points="1061.5,320.5,1083.3333333333,310.33333333333,1081.6666666667,326.66666666667,1061,336.5,1042,332,1036,330.5,1027,328,1028,312.5,1036.5,313.5,1044.5,315.5"></polygon><polygon data-id="27049" data-section="10" data-section_name="10" data-build="2" data-build_name="5" data-floor="7" data-type="flat" class="s3d-svg__build js-s3d-svg__build" points="1028,312.5,1028,312.5,1028,312.5,1028,312.5,996,303.5,996,303.5,996,303.5,996,303.5,995.5,319,995.5,319,995.5,319,995.5,319,1027,328,1027,328,1027,328,1027,328"></polygon><polygon data-id="27063" data-section="10" data-section_name="10" data-build="2" data-build_name="5" data-floor="7" data-type="flat" class="s3d-svg__build js-s3d-svg__build" points="986,317,986,317,986,317,986,317,986,299,986,299,986,299,986,299,974,298,974,298,974,298,974,298,967.5,295.5,967.5,295.5,967.5,295.5,967.5,295.5,960,294,960,294,960,294,960,294,957.5,309.5,957.5,309.5,957.5,309.5,957.5,309.5,964.5,311,964.5,311,964.5,311,964.5,311,972,312,972,312,972,312,972,312"></polygon><polygon data-id="27077" data-section="10" data-section_name="10" data-build="2" data-build_name="5" data-floor="7" data-type="flat" class="s3d-svg__build js-s3d-svg__build" points="960,294,960,294,960,294,960,294,939.5,287,939.5,287,939.5,287,939.5,287,920.5,287.5,920.5,287.5,920.5,287.5,920.5,287.5,917,293,917,293,917,293,917,293,917,307,917,307,917,307,917,307,917,307,917,307,917,307,917,307,938.5,305,938.5,305,938.5,305,938.5,305,957.5,309.5,957.5,309.5,957.5,309.5,957.5,309.5"></polygon><polygon data-id="27036" data-section="10" data-section_name="10" data-build="2" data-build_name="5" data-floor="8" data-type="flat" class="s3d-svg__build js-s3d-svg__build" points="1063.6666666667,303.66666666667,1084.3333333333,294,1083.3333333333,310.33333333333,1061.5,320.5,1044.5,315.5,1036.5,313.5,1028,312.5,1028.5,293,1037.3333333333,296.33333333333,1042.6666666667,295.66666666667"></polygon><polygon data-id="27050" data-section="10" data-section_name="10" data-build="2" data-build_name="5" data-floor="8" data-type="flat" class="s3d-svg__build js-s3d-svg__build" points="1028.5,293,1028.5,293,1028.5,293,1028.5,293,1028,312.5,1028,312.5,1028,312.5,1028,312.5,996,303.5,996,303.5,996,303.5,996,303.5,996.5,287,996.5,287,996.5,287,996.5,287"></polygon><polygon data-id="27064" data-section="10" data-section_name="10" data-build="2" data-build_name="5" data-floor="8" data-type="flat" class="s3d-svg__build js-s3d-svg__build" points="986,284.5,986,284.5,986,284.5,986,284.5,986,299,986,299,986,299,986,299,974,298,974,298,974,298,974,298,974,298,974,298,974,298,974,298,960,294,960,294,960,294,960,294,961,278.5,961,278.5,961,278.5,961,278.5,968.5,280.5,968.5,280.5,968.5,280.5,968.5,280.5,973,280.5,973,280.5,973,280.5,973,280.5"></polygon><polygon data-id="27078" data-section="10" data-section_name="10" data-build="2" data-build_name="5" data-floor="8" data-type="flat" class="s3d-svg__build js-s3d-svg__build" points="961,278.5,961,278.5,961,278.5,961,278.5,960,294,960,294,960,294,960,294,939.5,287,939.5,287,939.5,287,939.5,287,920.5,287.5,920.5,287.5,920.5,287.5,920.5,287.5,917,293,917,293,917,293,917,293,917,276.5,917,276.5,917,276.5,917,276.5,923,272,923,272,923,272,923,272,940,272,940,272,940,272,940,272"></polygon><polygon data-id="27037" data-section="10" data-section_name="10" data-build="2" data-build_name="5" data-floor="9" data-type="flat" class="s3d-svg__build js-s3d-svg__build" points="1062,286,1086.3333333333,277,1084.3333333333,294,1063.6666666667,303.66666666667,1042.6666666667,295.66666666667,1037.3333333333,296.33333333333,1028.5,293,1030,278,1038.5,281,1045,282"></polygon><polygon data-id="27051" data-section="10" data-section_name="10" data-build="2" data-build_name="5" data-floor="9" data-type="flat" class="s3d-svg__build js-s3d-svg__build" points="1030,278,1030,278,1030,278,1030,278,1028.5,293,1028.5,293,1028.5,293,1028.5,293,996.5,287,996.5,287,996.5,287,996.5,287,997.5,269,997.5,269,997.5,269,997.5,269"></polygon><polygon data-id="27065" data-section="10" data-section_name="10" data-build="2" data-build_name="5" data-floor="9" data-type="flat" class="s3d-svg__build js-s3d-svg__build" points="986,284.5,986,284.5,986,284.5,986,284.5,986.5,267,986.5,267,986.5,267,986.5,267,974,265,974,265,974,265,974,265,969,264,969,264,969,264,969,264,961.5,262,961.5,262,961.5,262,961.5,262,961,278.5,961,278.5,961,278.5,961,278.5,968.5,280.5,968.5,280.5,968.5,280.5,968.5,280.5,968.5,280.5,968.5,280.5,968.5,280.5,968.5,280.5"></polygon><polygon data-id="27079" data-section="10" data-section_name="10" data-build="2" data-build_name="5" data-floor="9" data-type="flat" class="s3d-svg__build js-s3d-svg__build" points="961.5,262,961.5,262,961.5,262,961.5,262,961,278.5,961,278.5,961,278.5,961,278.5,940,272,940,272,940,272,940,272,923,272,923,272,923,272,923,272,917,276.5,917,276.5,917,276.5,917,276.5,917.5,261.5,917.5,261.5,917.5,261.5,917.5,261.5,923,255,923,255,923,255,923,255,939,256.5,939,256.5,939,256.5,939,256.5"></polygon><polygon data-id="27038" data-section="10" data-section_name="10" data-build="2" data-build_name="5" data-floor="10" data-type="flat" class="s3d-svg__build js-s3d-svg__build" points="1063,270,1087.3333333333,260.66666666667,1086.3333333333,277,1062,286,1045,282,1038.5,281,1030,278,1031.5,262.5,1039,264,1046,266"></polygon><polygon data-id="27052" data-section="10" data-section_name="10" data-build="2" data-build_name="5" data-floor="10" data-type="flat" class="s3d-svg__build js-s3d-svg__build" points="1031.5,262.5,1031.5,262.5,1031.5,262.5,1031.5,262.5,1030,278,1030,278,1030,278,1030,278,997.5,269,997.5,269,997.5,269,997.5,269,998,254,998,254,998,254,998,254"></polygon><polygon data-id="27066" data-section="10" data-section_name="10" data-build="2" data-build_name="5" data-floor="10" data-type="flat" class="s3d-svg__build js-s3d-svg__build" points="986.5,267,986.5,267,986.5,267,986.5,267,987,250.5,987,250.5,987,250.5,987,250.5,975,249,975,249,975,249,975,249,968.5,246,968.5,246,968.5,246,968.5,246,962.5,244,962.5,244,962.5,244,962.5,244,961.5,262,961.5,262,961.5,262,961.5,262,974,265,974,265,974,265,974,265,974,265,974,265,974,265,974,265,969,264,969,264,969,264,969,264"></polygon><polygon data-id="27080" data-section="10" data-section_name="10" data-build="2" data-build_name="5" data-floor="10" data-type="flat" class="s3d-svg__build js-s3d-svg__build" points="962.5,244,962.5,244,962.5,244,962.5,244,961.5,262,961.5,262,961.5,262,961.5,262,939,256.5,939,256.5,939,256.5,939,256.5,923,255,923,255,923,255,923,255,917.5,261.5,917.5,261.5,917.5,261.5,917.5,261.5,918,243.5,918,243.5,918,243.5,918,243.5,924.5,239,924.5,239,924.5,239,924.5,239,940,240,940,240,940,240,940,240"></polygon><polygon data-id="27039" data-section="10" data-section_name="10" data-build="2" data-build_name="5" data-floor="11" data-type="flat" class="s3d-svg__build js-s3d-svg__build" points="1064.5,252,1089.6666666667,243.33333333333,1087.3333333333,260.66666666667,1063,270,1046,266,1039,264,1031.5,262.5,1032.5,244,1040.5,248.5,1047,249"></polygon><polygon data-id="27053" data-section="10" data-section_name="10" data-build="2" data-build_name="5" data-floor="11" data-type="flat" class="s3d-svg__build js-s3d-svg__build" points="1032.5,244,1032.5,244,1032.5,244,1032.5,244,1031.5,262.5,1031.5,262.5,1031.5,262.5,1031.5,262.5,998,254,998,254,998,254,998,254,999.5,236,999.5,236,999.5,236,999.5,236"></polygon><polygon data-id="27067" data-section="10" data-section_name="10" data-build="2" data-build_name="5" data-floor="11" data-type="flat" class="s3d-svg__build js-s3d-svg__build" points="989.5,234,989.5,234,989.5,234,989.5,234,987,250.5,987,250.5,987,250.5,987,250.5,975,249,975,249,975,249,975,249,975,249,975,249,975,249,975,249,962.5,244,962.5,244,962.5,244,962.5,244,962,229.5,962,229.5,962,229.5,962,229.5,969.5,230,969.5,230,969.5,230,969.5,230,975.5,232,975.5,232,975.5,232,975.5,232"></polygon><polygon data-id="27081" data-section="10" data-section_name="10" data-build="2" data-build_name="5" data-floor="11" data-type="flat" class="s3d-svg__build js-s3d-svg__build" points="962,229.5,962,229.5,962,229.5,962,229.5,962.5,244,962.5,244,962.5,244,962.5,244,940,240,940,240,940,240,940,240,924.5,239,924.5,239,924.5,239,924.5,239,918,243.5,918,243.5,918,243.5,918,243.5,919,226,919,226,919,226,919,226,924,224,924,224,924,224,924,224,943,224.5,943,224.5,943,224.5,943,224.5"></polygon><polygon data-id="27040" data-section="10" data-section_name="10" data-build="2" data-build_name="5" data-floor="12" data-type="flat" class="s3d-svg__build js-s3d-svg__build" points="1068,235.5,1090,229.66666666667,1089.6666666667,243.33333333333,1064.5,252,1047,249,1040.5,248.5,1032.5,244,1032.5,229,1041.5,231,1050.5,232.5"></polygon><polygon data-id="27054" data-section="10" data-section_name="10" data-build="2" data-build_name="5" data-floor="12" data-type="flat" class="s3d-svg__build js-s3d-svg__build" points="1032.5,229,1032.5,229,1032.5,229,1032.5,229,1032.5,244,1032.5,244,1032.5,244,1032.5,244,999.5,236,999.5,236,999.5,236,999.5,236,999,220.5,999,220.5,999,220.5,999,220.5"></polygon><polygon data-id="27068" data-section="10" data-section_name="10" data-build="2" data-build_name="5" data-floor="12" data-type="flat" class="s3d-svg__build js-s3d-svg__build" points="989.5,234,989.5,234,989.5,234,989.5,234,989.5,217.5,989.5,217.5,989.5,217.5,989.5,217.5,976,215,976,215,976,215,976,215,970.5,213.5,970.5,213.5,970.5,213.5,970.5,213.5,963,211.5,963,211.5,963,211.5,963,211.5,962,229.5,962,229.5,962,229.5,962,229.5,969.5,230,969.5,230,969.5,230,969.5,230,975.5,232,975.5,232,975.5,232,975.5,232"></polygon><polygon data-id="27082" data-section="10" data-section_name="10" data-build="2" data-build_name="5" data-floor="12" data-type="flat" class="s3d-svg__build js-s3d-svg__build" points="963,211.5,963,211.5,963,211.5,963,211.5,962,229.5,962,229.5,962,229.5,962,229.5,943,224.5,943,224.5,943,224.5,943,224.5,924,224,924,224,924,224,924,224,919,226,919,226,919,226,919,226,921.5,211.5,921.5,211.5,921.5,211.5,921.5,211.5,921.5,207.5,921.5,207.5,921.5,207.5,921.5,207.5,940.5,207.5,940.5,207.5,940.5,207.5,940.5,207.5"></polygon><polygon data-id="27041" data-section="10" data-section_name="10" data-build="2" data-build_name="5" data-floor="13" data-type="flat" class="s3d-svg__build js-s3d-svg__build" points="1070.5,217.5,1091,209,1090,229.66666666667,1068,235.5,1050.5,232.5,1041.5,231,1032.5,229,1034,210.5,1043.5,213,1051.5,215"></polygon><polygon data-id="27055" data-section="10" data-section_name="10" data-build="2" data-build_name="5" data-floor="13" data-type="flat" class="s3d-svg__build js-s3d-svg__build" points="1032.5,229,1032.5,229,1032.5,229,1032.5,229,1034,210.5,1034,210.5,1034,210.5,1034,210.5,998.5,202,998.5,202,998.5,202,998.5,202,999,220.5,999,220.5,999,220.5,999,220.5"></polygon><polygon data-id="27069" data-section="10" data-section_name="10" data-build="2" data-build_name="5" data-floor="13" data-type="flat" class="s3d-svg__build js-s3d-svg__build" points="989.5,217.5,989.5,217.5,989.5,217.5,989.5,217.5,990,200.5,990,200.5,990,200.5,990,200.5,979.5,198.5,979.5,198.5,979.5,198.5,979.5,198.5,973,199.5,973,199.5,973,199.5,973,199.5,964,196,964,196,964,196,964,196,963,211.5,963,211.5,963,211.5,963,211.5,970.5,213.5,970.5,213.5,970.5,213.5,970.5,213.5,976,215,976,215,976,215,976,215"></polygon><polygon data-id="27083" data-section="10" data-section_name="10" data-build="2" data-build_name="5" data-floor="13" data-type="flat" class="s3d-svg__build js-s3d-svg__build" points="964,196,964,196,964,196,964,196,963,211.5,963,211.5,963,211.5,963,211.5,940.5,207.5,940.5,207.5,940.5,207.5,940.5,207.5,921.5,211.5,921.5,211.5,921.5,211.5,921.5,211.5,920.5,192.5,920.5,192.5,920.5,192.5,920.5,192.5,944.5,192,944.5,192,944.5,192,944.5,192"></polygon><polygon data-id="27042" data-section="10" data-section_name="10" data-build="2" data-build_name="5" data-floor="14" data-type="flat" class="s3d-svg__build js-s3d-svg__build" points="1070,199,1092.3333333333,192.33333333333,1091,209,1070.5,217.5,1051.5,215,1043.5,213,1034,210.5,1037,194.5,1052,198.5"></polygon><polygon data-id="27056" data-section="10" data-section_name="10" data-build="2" data-build_name="5" data-floor="14" data-type="flat" class="s3d-svg__build js-s3d-svg__build" points="1037,194.5,1037,194.5,1037,194.5,1037,194.5,1034,210.5,1034,210.5,1034,210.5,1034,210.5,998.5,202,998.5,202,998.5,202,998.5,202,998,185,998,185,998,185,998,185"></polygon><polygon data-id="27070" data-section="10" data-section_name="10" data-build="2" data-build_name="5" data-floor="14" data-type="flat" class="s3d-svg__build js-s3d-svg__build" points="989.5,184,989.5,184,989.5,184,989.5,184,990,200.5,990,200.5,990,200.5,990,200.5,979.5,198.5,979.5,198.5,979.5,198.5,979.5,198.5,973,199.5,973,199.5,973,199.5,973,199.5,964,196,964,196,964,196,964,196,964.5,179.5,964.5,179.5,964.5,179.5,964.5,179.5,977.5,182,977.5,182,977.5,182,977.5,182"></polygon><polygon data-id="27084" data-section="10" data-section_name="10" data-build="2" data-build_name="5" data-floor="14" data-type="flat" class="s3d-svg__build js-s3d-svg__build" points="964.5,179.5,964.5,179.5,964.5,179.5,964.5,179.5,964,196,964,196,964,196,964,196,944.5,192,944.5,192,944.5,192,944.5,192,920.5,192.5,920.5,192.5,920.5,192.5,920.5,192.5,921,174.5,921,174.5,921,174.5,921,174.5,944.5,174.5,944.5,174.5,944.5,174.5,944.5,174.5"></polygon><polygon data-id="27043" data-section="10" data-section_name="10" data-build="2" data-build_name="5" data-floor="15" data-type="flat" class="s3d-svg__build js-s3d-svg__build" points="1071,182.5,1093.3333333333,177,1092.3333333333,192.33333333333,1070,199,1052,198.5,1052,198.5,1052,198.5,1049,195,1037,194.5,1035.5,175,1051.5,179.5"></polygon><polygon data-id="27057" data-section="10" data-section_name="10" data-build="2" data-build_name="5" data-floor="15" data-type="flat" class="s3d-svg__build js-s3d-svg__build" points="1035.5,175,1035.5,175,1035.5,175,1035.5,175,1037,194.5,1037,194.5,1037,194.5,1037,194.5,998,185,998,185,998,185,998,185,999,167.5,999,167.5,999,167.5,999,167.5"></polygon><polygon data-id="27085" data-section="10" data-section_name="10" data-build="2" data-build_name="5" data-floor="15" data-type="flat" class="s3d-svg__build js-s3d-svg__build" points="966.5,161,966.5,161,966.5,161,966.5,161,964.5,179.5,964.5,179.5,964.5,179.5,964.5,179.5,944.5,174.5,944.5,174.5,944.5,174.5,944.5,174.5,921,174.5,921,174.5,921,174.5,921,174.5,923.5,159,923.5,159,923.5,159,923.5,159,927.5,157.5,927.5,157.5,927.5,157.5,927.5,157.5,942.5,158,942.5,158,942.5,158,942.5,158"></polygon><polygon data-id="27071" data-section="10" data-section_name="10" data-build="2" data-build_name="5" data-floor="15" data-type="flat" class="s3d-svg__build js-s3d-svg__build" points="989.5,184,989.5,184,989.5,184,989.5,184,991,166,991,166,991,166,991,166,980,165,980,165,980,165,980,165,966.5,161,966.5,161,966.5,161,966.5,161,964.5,179.5,964.5,179.5,964.5,179.5,964.5,179.5,977.5,182,977.5,182,977.5,182,977.5,182"></polygon><polygon data-id="27128" data-section="10" data-section_name="10" data-build="2" data-build_name="5" data-floor="16" data-type="flat" class="s3d-svg__build js-s3d-svg__build" points="1074,163.5,1096,158.66666666667,1093.3333333333,177,1071,182.5,1051.5,179.5,1035.5,175,1023,172,1020,156,1032,158.5,1051,163"></polygon><polygon data-id="27129" data-section="10" data-section_name="10" data-build="2" data-build_name="5" data-floor="16" data-type="flat" class="s3d-svg__build js-s3d-svg__build" points="1020,156,1020,156,1020,156,1020,156,1023,172,1023,172,1023,172,1023,172,999,167.5,999,167.5,999,167.5,999,167.5,991,166,991,166,991,166,991,166,980,165,980,165,980,165,980,165,966.5,161,966.5,161,966.5,161,966.5,161,965.5,145,965.5,145,965.5,145,965.5,145"></polygon><polygon data-id="27131" data-section="10" data-section_name="10" data-build="2" data-build_name="5" data-floor="16" data-type="flat" class="s3d-svg__build js-s3d-svg__build" points="965.5,145,965.5,145,966.5,161,966.5,161,942.5,158,942.5,158,927.5,157.5,927.5,157.5,928.5,146.5,928.5,146.5,929,140.5,929,140.5,946,140,946,140"></polygon><polygon data-id="27114" data-section="10" data-section_name="10" data-build="2" data-build_name="5" data-floor="2" data-type="flat" class="s3d-svg__build js-s3d-svg__build" points="1076.6666666667,409.33333333333,1083.6666666667,407.33333333333,1093.6666666667,404.33333333333,1094.3333333333,389,1089.3333333333,390,1084.3333333333,392,1077.6666666667,390.66666666667"></polygon><polygon data-id="27115" data-section="10" data-section_name="10" data-build="2" data-build_name="5" data-floor="3" data-type="flat" class="s3d-svg__build js-s3d-svg__build" points="1094.3333333333,389,1095.3333333333,371.33333333333,1090.3333333333,372.66666666667,1084.6666666667,375.33333333333,1078.6666666667,375,1077.6666666667,390.66666666667,1084.3333333333,392,1089.3333333333,390"></polygon><polygon data-id="27116" data-section="10" data-section_name="10" data-build="2" data-build_name="5" data-floor="4" data-type="flat" class="s3d-svg__build js-s3d-svg__build" points="1095.3333333333,371.33333333333,1097.3333333333,357,1093.3333333333,357.33333333333,1087.3333333333,358.66666666667,1080,359,1078.6666666667,375,1084.6666666667,375.33333333333,1090.3333333333,372.66666666667"></polygon><polygon data-id="27117" data-section="10" data-section_name="10" data-build="2" data-build_name="5" data-floor="5" data-type="flat" class="s3d-svg__build js-s3d-svg__build" points="1097.3333333333,357,1099,339.66666666667,1095.3333333333,340,1089.3333333333,342,1080.3333333333,342.66666666667,1080,359,1087.3333333333,358.66666666667,1097.3333333333,357,1097.3333333333,357,1097.3333333333,357,1097.3333333333,357"></polygon><polygon data-id="27118" data-section="10" data-section_name="10" data-build="2" data-build_name="5" data-floor="6" data-type="flat" class="s3d-svg__build js-s3d-svg__build" points="1099,339.66666666667,1100.3333333333,324,1096.6666666667,324.66666666667,1089.6666666667,326.66666666667,1081.6666666667,326.66666666667,1080.3333333333,342.66666666667,1089.3333333333,342,1099,339.66666666667,1099,339.66666666667"></polygon><polygon data-id="27119" data-section="10" data-section_name="10" data-build="2" data-build_name="5" data-floor="7" data-type="flat" class="s3d-svg__build js-s3d-svg__build" points="1100.3333333333,324,1101,308,1096.3333333333,309,1090,312,1083.3333333333,310.33333333333,1081.6666666667,326.66666666667,1089.6666666667,326.66666666667,1100.3333333333,324,1100.3333333333,324,1100.3333333333,324,1100.3333333333,324,1100.3333333333,324,1100.3333333333,324,1100.3333333333,324,1100.3333333333,324,1096.6666666667,324.66666666667"></polygon><polygon data-id="27120" data-section="10" data-section_name="10" data-build="2" data-build_name="5" data-floor="8" data-type="flat" class="s3d-svg__build js-s3d-svg__build" points="1101,308,1102.6666666667,291.33333333333,1098.3333333333,292.66666666667,1091,294.66666666667,1084.3333333333,294,1083.3333333333,310.33333333333,1090,312,1101,308,1101,308,1101,308,1101,308,1096.3333333333,309"></polygon><polygon data-id="27121" data-section="10" data-section_name="10" data-build="2" data-build_name="5" data-floor="9" data-type="flat" class="s3d-svg__build js-s3d-svg__build" points="1102.6666666667,291.33333333333,1104.3333333333,274.33333333333,1099,276,1092.3333333333,279,1086.3333333333,277,1084.3333333333,294,1091,294.66666666667,1098.3333333333,292.66666666667"></polygon><polygon data-id="27122" data-section="10" data-section_name="10" data-build="2" data-build_name="5" data-floor="10" data-type="flat" class="s3d-svg__build js-s3d-svg__build" points="1105.6666666667,257.66666666667,1101.6666666667,259.66666666667,1093.6666666667,261.33333333333,1087.3333333333,260.66666666667,1086.3333333333,277,1092.3333333333,279,1099,276,1104.3333333333,274.33333333333"></polygon><polygon data-id="27123" data-section="10" data-section_name="10" data-build="2" data-build_name="5" data-floor="11" data-type="flat" class="s3d-svg__build js-s3d-svg__build" points="1107.6666666667,241,1105.6666666667,257.66666666667,1105.6666666667,257.66666666667,1105.6666666667,257.66666666667,1101.6666666667,259.66666666667,1093.6666666667,261.33333333333,1093.6666666667,261.33333333333,1087.3333333333,260.66666666667,1089.6666666667,243.33333333333,1095.6666666667,245.33333333333"></polygon><polygon data-id="27124" data-section="10" data-section_name="10" data-build="2" data-build_name="5" data-floor="12" data-type="flat" class="s3d-svg__build js-s3d-svg__build" points="1108.6666666667,223.66666666667,1107.6666666667,241,1095.6666666667,245.33333333333,1089.6666666667,243.33333333333,1090,229.66666666667,1099.3333333333,228"></polygon><polygon data-id="27125" data-section="10" data-section_name="10" data-build="2" data-build_name="5" data-floor="13" data-type="flat" class="s3d-svg__build js-s3d-svg__build" points="1091,209,1097.6666666667,211,1105.3333333333,208.66666666667,1110.3333333333,206.66666666667,1108.6666666667,223.66666666667,1099.3333333333,228,1090,229.66666666667"></polygon><polygon data-id="27126" data-section="10" data-section_name="10" data-build="2" data-build_name="5" data-floor="14" data-type="flat" class="s3d-svg__build js-s3d-svg__build" points="1111.6666666667,190.66666666667,1110.3333333333,206.66666666667,1105.3333333333,208.66666666667,1097.6666666667,211,1091,209,1092.3333333333,192.33333333333,1102,193"></polygon><polygon data-id="27127" data-section="10" data-section_name="10" data-build="2" data-build_name="5" data-floor="15" data-type="flat" class="s3d-svg__build js-s3d-svg__build" points="1113,174.33333333333,1103.3333333333,177.33333333333,1093.3333333333,177,1092.3333333333,192.33333333333,1102,193,1111.6666666667,190.66666666667"></polygon></svg>