<svg viewBox="0 0 1440 810" id="floor--svg" version="1.0" xmlns="http://www.w3.org/2000/svg"
     preserveAspectRatio="xMidYMid slice">
    <polygon data-id="27127" data-section="10" data-section_name="10" data-build="2"
             data-build_name="5" data-floor="15" data-type="flat"
             class="s3d-svg__build js-s3d-svg__build"
             points="948.66666666667,363.5,948.66666666667,363.5,948.66666666667,363.5,948.66666666667,363.5,970,353.83333333333,970,353.83333333333,970,353.83333333333,970,353.83333333333,974.66666666667,354.83333333333,974.66666666667,354.83333333333,974.66666666667,354.83333333333,974.66666666667,354.83333333333,993,347.16666666667,993,347.16666666667,993,347.16666666667,993,347.16666666667,1000.3333333333,346.33333333333,1000.3333333333,346.33333333333,1000.3333333333,346.33333333333,1000.3333333333,346.33333333333,1007.3333333333,343.66666666667,1007.3333333333,343.66666666667,1007.3333333333,343.66666666667,1007.3333333333,343.66666666667,1006.6666666667,365.33333333333,1006.6666666667,365.33333333333,1006.6666666667,365.33333333333,1006.6666666667,365.33333333333,999.66666666667,369,999.66666666667,369,999.66666666667,369,999.66666666667,369,991.33333333333,370.33333333333,991.33333333333,370.33333333333,991.33333333333,370.33333333333,991.33333333333,370.33333333333,973.33333333333,378.5,973.33333333333,378.5,973.33333333333,378.5,973.33333333333,378.5,969,376.33333333333,969,376.33333333333,969,376.33333333333,969,376.33333333333,950.66666666667,385.5,950.66666666667,385.5,950.66666666667,385.5,950.66666666667,385.5,938,383,938,383,938,383,938,383,914.5,375.72220865885,914.5,375.72220865885,914.5,375.72220865885,914.5,375.72220865885,905.66666666667,379.22220865885,905.66666666667,379.22220865885,905.66666666667,379.22220865885,905.66666666667,379.22220865885,900.66666666667,377.72220865885,900.66666666667,377.72220865885,900.66666666667,377.72220865885,900.66666666667,377.72220865885,891.66666666667,377.88887532552,891.66666666667,377.88887532552,891.66666666667,377.88887532552,891.66666666667,377.88887532552,885.33333333333,375.55554199219,885.33333333333,375.55554199219,885.33333333333,375.55554199219,885.33333333333,375.55554199219,878,370.38887532552,878,370.38887532552,878,370.38887532552,878,370.38887532552,878.66666666667,366.55554199219,878.66666666667,366.55554199219,878.66666666667,366.55554199219,878.66666666667,366.55554199219,878.33333333333,345.16666666667,878.33333333333,345.16666666667,878.33333333333,345.16666666667,878.33333333333,345.16666666667,884,347.16666666667,884,347.16666666667,884,347.16666666667,884,347.16666666667,885,351.5,885,351.5,885,351.5,885,351.5,894.66666666667,355.83333333333,894.66666666667,355.83333333333,894.66666666667,355.83333333333,894.66666666667,355.83333333333,906.66666666667,357.16666666667,906.66666666667,357.16666666667,906.66666666667,357.16666666667,906.66666666667,357.16666666667,915,353.83333333333,915,353.83333333333,915,353.83333333333,915,353.83333333333,941.66666666667,359.16666666667,941.66666666667,359.16666666667,941.66666666667,359.16666666667,941.66666666667,359.16666666667"></polygon>
    <polygon data-id="27114" data-section="10" data-section_name="10" data-build="2"
             data-build_name="5" data-floor="2" data-type="flat"
             class="s3d-svg__build js-s3d-svg__build"
             points="936,641,936,641,936,641,936,641,954,630.33333333333,954,630.33333333333,954,630.33333333333,954,630.33333333333,958.33333333333,632,958.33333333333,632,958.33333333333,632,958.33333333333,632,976.66666666667,620.66666666667,976.66666666667,620.66666666667,976.66666666667,620.66666666667,976.66666666667,620.66666666667,982.66666666667,621,982.66666666667,621,982.66666666667,621,982.66666666667,621,988.66666666667,617.66666666667,988.66666666667,617.66666666667,988.66666666667,617.66666666667,988.66666666667,617.66666666667,988.33333333333,637.33333333333,988.33333333333,637.33333333333,988.33333333333,637.33333333333,988.33333333333,637.33333333333,982.66666666667,641,982.66666666667,641,982.66666666667,641,982.66666666667,641,973.66666666667,640,973.66666666667,640,973.66666666667,640,973.66666666667,640,957,654.33333333333,957,654.33333333333,957,654.33333333333,957,654.33333333333,952.33333333333,650,952.33333333333,650,952.33333333333,650,952.33333333333,650,934.66666666667,661,934.66666666667,661,934.66666666667,661,934.66666666667,661,902.66666666667,651.33333333333,902.66666666667,651.33333333333,902.66666666667,651.33333333333,902.66666666667,651.33333333333,894.33333333333,654.33333333333,894.33333333333,654.33333333333,894.33333333333,654.33333333333,894.33333333333,654.33333333333,881.66666666667,652,881.66666666667,652,881.66666666667,652,881.66666666667,652,874,648.66666666667,874,648.66666666667,874,648.66666666667,874,648.66666666667,867.66666666667,639,867.66666666667,639,867.66666666667,639,867.66666666667,639,869.33333333333,617,869.33333333333,617,869.33333333333,617,869.33333333333,617,874,624,874,624,874,624,874,624,884,628.33333333333,884,628.33333333333,884,628.33333333333,884,628.33333333333,891,628.66666666667,891,628.66666666667,891,628.66666666667,891,628.66666666667,895.33333333333,633.66666666667,895.33333333333,633.66666666667,895.33333333333,633.66666666667,895.33333333333,633.66666666667,902.33333333333,630,902.33333333333,630,902.33333333333,630,902.33333333333,630"></polygon>
    <polygon data-id="27115" data-section="10" data-section_name="10" data-build="2"
             data-build_name="5" data-floor="3" data-type="flat"
             class="s3d-svg__build js-s3d-svg__build"
             points="936,621,936,621,936,621,936,621,955.33333333333,610,955.33333333333,610,955.33333333333,610,955.33333333333,610,959,612,959,612,959,612,959,612,977,601.66666666667,977,601.66666666667,977,601.66666666667,977,601.66666666667,984.33333333333,600,984.33333333333,600,984.33333333333,600,984.33333333333,600,991.33333333333,597.33333333333,991.33333333333,597.33333333333,991.33333333333,597.33333333333,991.33333333333,597.33333333333,988.66666666667,617.66666666667,988.66666666667,617.66666666667,988.66666666667,617.66666666667,988.66666666667,617.66666666667,982.66666666667,621,982.66666666667,621,982.66666666667,621,982.66666666667,621,976.66666666667,620.66666666667,976.66666666667,620.66666666667,976.66666666667,620.66666666667,976.66666666667,620.66666666667,958.33333333333,632,958.33333333333,632,958.33333333333,632,958.33333333333,632,954,630.33333333333,954,630.33333333333,954,630.33333333333,954,630.33333333333,936,641,936,641,936,641,936,641,902.33333333333,630,902.33333333333,630,902.33333333333,630,902.33333333333,630,895.33333333333,633.66666666667,895.33333333333,633.66666666667,895.33333333333,633.66666666667,895.33333333333,633.66666666667,891,628.66666666667,891,628.66666666667,891,628.66666666667,891,628.66666666667,884,628.33333333333,884,628.33333333333,884,628.33333333333,884,628.33333333333,874,624,874,624,874,624,874,624,869.33333333333,617,869.33333333333,617,869.33333333333,617,869.33333333333,617,870.66666666667,597,870.66666666667,597,870.66666666667,597,870.66666666667,597,875.66666666667,604.33333333333,875.66666666667,604.33333333333,875.66666666667,604.33333333333,875.66666666667,604.33333333333,892.33333333333,610,892.33333333333,610,892.33333333333,610,892.33333333333,610,895.66666666667,613,895.66666666667,613,895.66666666667,613,895.66666666667,613,904,607,904,607,904,607,904,607"></polygon>
    <polygon data-id="27116" data-section="10" data-section_name="10" data-build="2"
             data-build_name="5" data-floor="4" data-type="flat"
             class="s3d-svg__build js-s3d-svg__build"
             points="937.33333333333,599.66666666667,937.33333333333,599.66666666667,937.33333333333,599.66666666667,937.33333333333,599.66666666667,956,589.66666666667,956,589.66666666667,956,589.66666666667,956,589.66666666667,959.66666666667,591.66666666667,959.66666666667,591.66666666667,959.66666666667,591.66666666667,959.66666666667,591.66666666667,977,581.33333333333,977,581.33333333333,977,581.33333333333,977,581.33333333333,985,580.66666666667,985,580.66666666667,985,580.66666666667,985,580.66666666667,992,577,992,577,992,577,992,577,991.33333333333,597.33333333333,991.33333333333,597.33333333333,991.33333333333,597.33333333333,991.33333333333,597.33333333333,984.33333333333,600,984.33333333333,600,984.33333333333,600,984.33333333333,600,977,601.66666666667,977,601.66666666667,977,601.66666666667,977,601.66666666667,959,612,959,612,959,612,959,612,955.33333333333,610,955.33333333333,610,955.33333333333,610,955.33333333333,610,936,621,936,621,936,621,936,621,904,607,904,607,904,607,904,607,895.66666666667,613,895.66666666667,613,895.66666666667,613,895.66666666667,613,892.33333333333,610,892.33333333333,610,892.33333333333,610,892.33333333333,610,875.66666666667,604.33333333333,875.66666666667,604.33333333333,875.66666666667,604.33333333333,875.66666666667,604.33333333333,870.66666666667,597,870.66666666667,597,870.66666666667,597,870.66666666667,597,871.33333333333,577.33333333333,871.33333333333,577.33333333333,871.33333333333,577.33333333333,871.33333333333,577.33333333333,877,587,877,587,877,587,877,587,886,590,886,590,886,590,886,590,896.33333333333,593.33333333333,896.33333333333,593.33333333333,896.33333333333,593.33333333333,896.33333333333,593.33333333333,904.66666666667,588.66666666667,904.66666666667,588.66666666667,904.66666666667,588.66666666667,904.66666666667,588.66666666667"></polygon>
    <polygon data-id="27117" data-section="10" data-section_name="10" data-build="2"
             data-build_name="5" data-floor="5" data-type="flat"
             class="s3d-svg__build js-s3d-svg__build"
             points="939,579.33333333333,939,579.33333333333,939,579.33333333333,939,579.33333333333,957,569.66666666667,957,569.66666666667,957,569.66666666667,957,569.66666666667,961.66666666667,571,961.66666666667,571,961.66666666667,571,961.66666666667,571,979.66666666667,561.33333333333,979.66666666667,561.33333333333,979.66666666667,561.33333333333,979.66666666667,561.33333333333,986,561.66666666667,986,561.66666666667,986,561.66666666667,986,561.66666666667,993.33333333333,557.33333333333,993.33333333333,557.33333333333,993.33333333333,557.33333333333,993.33333333333,557.33333333333,992,577,992,577,992,577,992,577,985,580.66666666667,985,580.66666666667,985,580.66666666667,985,580.66666666667,977,581.33333333333,977,581.33333333333,977,581.33333333333,977,581.33333333333,959.66666666667,591.66666666667,959.66666666667,591.66666666667,959.66666666667,591.66666666667,959.66666666667,591.66666666667,956,589.66666666667,956,589.66666666667,956,589.66666666667,956,589.66666666667,937.33333333333,599.66666666667,937.33333333333,599.66666666667,937.33333333333,599.66666666667,937.33333333333,599.66666666667,904.66666666667,588.66666666667,904.66666666667,588.66666666667,904.66666666667,588.66666666667,904.66666666667,588.66666666667,896.33333333333,593.33333333333,896.33333333333,593.33333333333,896.33333333333,593.33333333333,896.33333333333,593.33333333333,886,590,886,590,886,590,886,590,877,587,877,587,877,587,877,587,871.33333333333,577.33333333333,871.33333333333,577.33333333333,871.33333333333,577.33333333333,871.33333333333,577.33333333333,871.66666666667,557.33333333333,871.66666666667,557.33333333333,871.66666666667,557.33333333333,871.66666666667,557.33333333333,878.33333333333,564.66666666667,878.33333333333,564.66666666667,878.33333333333,564.66666666667,878.33333333333,564.66666666667,886.33333333333,568,886.33333333333,568,886.33333333333,568,886.33333333333,568,896,571.66666666667,896,571.66666666667,896,571.66666666667,896,571.66666666667,906,567.66666666667,906,567.66666666667,906,567.66666666667,906,567.66666666667"></polygon>
    <polygon data-id="27118" data-section="10" data-section_name="10" data-build="2"
             data-build_name="5" data-floor="6" data-type="flat"
             class="s3d-svg__build js-s3d-svg__build"
             points="939.66666666667,558.66666666667,939.66666666667,558.66666666667,939.66666666667,558.66666666667,939.66666666667,558.66666666667,958,549,958,549,958,549,958,549,963,551,963,551,963,551,963,551,980,540.33333333333,980,540.33333333333,980,540.33333333333,980,540.33333333333,988.33333333333,538,988.33333333333,538,988.33333333333,538,988.33333333333,538,995,535,995,535,995,535,995,535,993.33333333333,557.33333333333,993.33333333333,557.33333333333,993.33333333333,557.33333333333,993.33333333333,557.33333333333,986,561.66666666667,986,561.66666666667,986,561.66666666667,986,561.66666666667,979.66666666667,561.33333333333,979.66666666667,561.33333333333,979.66666666667,561.33333333333,979.66666666667,561.33333333333,961.66666666667,571,961.66666666667,571,961.66666666667,571,961.66666666667,571,957,569.66666666667,957,569.66666666667,957,569.66666666667,957,569.66666666667,939,579.33333333333,939,579.33333333333,939,579.33333333333,939,579.33333333333,906,567.66666666667,906,567.66666666667,906,567.66666666667,906,567.66666666667,896,571.66666666667,896,571.66666666667,896,571.66666666667,896,571.66666666667,886.33333333333,568,886.33333333333,568,886.33333333333,568,886.33333333333,568,878.33333333333,564.66666666667,878.33333333333,564.66666666667,878.33333333333,564.66666666667,878.33333333333,564.66666666667,871.66666666667,557.33333333333,871.66666666667,557.33333333333,871.66666666667,557.33333333333,871.66666666667,557.33333333333,872,536.66666666667,872,536.66666666667,872,536.66666666667,872,536.66666666667,878.66666666667,544.33333333333,878.66666666667,544.33333333333,878.66666666667,544.33333333333,878.66666666667,544.33333333333,886.33333333333,546.66666666667,886.33333333333,546.66666666667,886.33333333333,546.66666666667,886.33333333333,546.66666666667,897.33333333333,550.33333333333,897.33333333333,550.33333333333,897.33333333333,550.33333333333,897.33333333333,550.33333333333,906.66666666667,546.66666666667,906.66666666667,546.66666666667,906.66666666667,546.66666666667,906.66666666667,546.66666666667"></polygon>
    <polygon data-id="27119" data-section="10" data-section_name="10" data-build="2"
             data-build_name="5" data-floor="7" data-type="flat"
             class="s3d-svg__build js-s3d-svg__build"
             points="940,538,940,538,940,538,940,538,959.66666666667,528.33333333333,959.66666666667,528.33333333333,959.66666666667,528.33333333333,959.66666666667,528.33333333333,964,529.66666666667,964,529.66666666667,964,529.66666666667,964,529.66666666667,982.66666666667,519,982.66666666667,519,982.66666666667,519,982.66666666667,519,989.66666666667,518.33333333333,989.66666666667,518.33333333333,989.66666666667,518.33333333333,989.66666666667,518.33333333333,996.66666666667,515.66666666667,996.66666666667,515.66666666667,996.66666666667,515.66666666667,996.66666666667,515.66666666667,995,535,995,535,995,535,995,535,988.33333333333,538,988.33333333333,538,988.33333333333,538,988.33333333333,538,980,540.33333333333,980,540.33333333333,980,540.33333333333,980,540.33333333333,963,551,963,551,963,551,963,551,958,549,958,549,958,549,958,549,939.66666666667,558.66666666667,939.66666666667,558.66666666667,939.66666666667,558.66666666667,939.66666666667,558.66666666667,906.66666666667,546.66666666667,906.66666666667,546.66666666667,906.66666666667,546.66666666667,906.66666666667,546.66666666667,897.33333333333,550.33333333333,897.33333333333,550.33333333333,897.33333333333,550.33333333333,897.33333333333,550.33333333333,886.33333333333,546.66666666667,886.33333333333,546.66666666667,886.33333333333,546.66666666667,886.33333333333,546.66666666667,878.66666666667,544.33333333333,878.66666666667,544.33333333333,878.66666666667,544.33333333333,878.66666666667,544.33333333333,872,536.66666666667,872,536.66666666667,872,536.66666666667,872,536.66666666667,873,516.33333333333,873,516.33333333333,873,516.33333333333,873,516.33333333333,879.33333333333,523,879.33333333333,523,879.33333333333,523,879.33333333333,523,887.33333333333,526.66666666667,887.33333333333,526.66666666667,887.33333333333,526.66666666667,887.33333333333,526.66666666667,895.33333333333,529.33333333333,895.33333333333,529.33333333333,895.33333333333,529.33333333333,895.33333333333,529.33333333333,907.33333333333,527,907.33333333333,527,907.33333333333,527,907.33333333333,527"></polygon>
    <polygon data-id="27120" data-section="10" data-section_name="10" data-build="2"
             data-build_name="5" data-floor="8" data-type="flat"
             class="s3d-svg__build js-s3d-svg__build"
             points="941.66666666667,516.66666666667,941.66666666667,516.66666666667,941.66666666667,516.66666666667,941.66666666667,516.66666666667,960.66666666667,507.33333333333,960.66666666667,507.33333333333,960.66666666667,507.33333333333,960.66666666667,507.33333333333,965,509.33333333333,965,509.33333333333,965,509.33333333333,965,509.33333333333,983.66666666667,498.66666666667,983.66666666667,498.66666666667,983.66666666667,498.66666666667,983.66666666667,498.66666666667,990.66666666667,498,990.66666666667,498,990.66666666667,498,990.66666666667,498,997.33333333333,495.33333333333,997.33333333333,495.33333333333,997.33333333333,495.33333333333,997.33333333333,495.33333333333,996.66666666667,515.66666666667,996.66666666667,515.66666666667,996.66666666667,515.66666666667,996.66666666667,515.66666666667,989.66666666667,518.33333333333,989.66666666667,518.33333333333,989.66666666667,518.33333333333,989.66666666667,518.33333333333,982.66666666667,519,982.66666666667,519,982.66666666667,519,982.66666666667,519,964,529.66666666667,964,529.66666666667,964,529.66666666667,964,529.66666666667,959.66666666667,528.33333333333,959.66666666667,528.33333333333,959.66666666667,528.33333333333,959.66666666667,528.33333333333,940,538,940,538,940,538,940,538,907.33333333333,527,907.33333333333,527,907.33333333333,527,907.33333333333,527,895.33333333333,529.33333333333,895.33333333333,529.33333333333,895.33333333333,529.33333333333,895.33333333333,529.33333333333,887.33333333333,526.66666666667,887.33333333333,526.66666666667,887.33333333333,526.66666666667,887.33333333333,526.66666666667,879.33333333333,523,879.33333333333,523,879.33333333333,523,879.33333333333,523,873,516.33333333333,873,516.33333333333,873,516.33333333333,873,516.33333333333,873.33333333333,495.33333333333,873.33333333333,495.33333333333,873.33333333333,495.33333333333,873.33333333333,495.33333333333,880.66666666667,501.66666666667,880.66666666667,501.66666666667,880.66666666667,501.66666666667,880.66666666667,501.66666666667,890,505,890,505,890,505,890,505,897,507,897,507,897,507,897,507,908.66666666667,506,908.66666666667,506,908.66666666667,506,908.66666666667,506"></polygon>
    <polygon data-id="27121" data-section="10" data-section_name="10" data-build="2"
             data-build_name="5" data-floor="9" data-type="flat"
             class="s3d-svg__build js-s3d-svg__build"
             points="943.33333333333,495,943.33333333333,495,943.33333333333,495,943.33333333333,495,962,486.33333333333,962,486.33333333333,962,486.33333333333,962,486.33333333333,966,487.33333333333,966,487.33333333333,966,487.33333333333,966,487.33333333333,984.33333333333,478.33333333333,984.33333333333,478.33333333333,984.33333333333,478.33333333333,984.33333333333,478.33333333333,992,476.33333333333,992,476.33333333333,992,476.33333333333,992,476.33333333333,999.33333333333,474.33333333333,999.33333333333,474.33333333333,999.33333333333,474.33333333333,999.33333333333,474.33333333333,997.33333333333,495.33333333333,997.33333333333,495.33333333333,997.33333333333,495.33333333333,997.33333333333,495.33333333333,990.66666666667,498,990.66666666667,498,990.66666666667,498,990.66666666667,498,983.66666666667,498.66666666667,983.66666666667,498.66666666667,983.66666666667,498.66666666667,983.66666666667,498.66666666667,965,509.33333333333,965,509.33333333333,965,509.33333333333,965,509.33333333333,960.66666666667,507.33333333333,960.66666666667,507.33333333333,960.66666666667,507.33333333333,960.66666666667,507.33333333333,941.66666666667,516.66666666667,941.66666666667,516.66666666667,941.66666666667,516.66666666667,941.66666666667,516.66666666667,908.66666666667,506,908.66666666667,506,908.66666666667,506,908.66666666667,506,897,507,897,507,897,507,897,507,890,505,890,505,890,505,890,505,880.66666666667,501.66666666667,880.66666666667,501.66666666667,880.66666666667,501.66666666667,880.66666666667,501.66666666667,873.33333333333,495.33333333333,873.33333333333,495.33333333333,873.33333333333,495.33333333333,873.33333333333,495.33333333333,874.33333333333,475,874.33333333333,475,874.33333333333,475,874.33333333333,475,882,480.33333333333,882,480.33333333333,882,480.33333333333,882,480.33333333333,890,483.33333333333,890,483.33333333333,890,483.33333333333,890,483.33333333333,898,486.33333333333,898,486.33333333333,898,486.33333333333,898,486.33333333333,909,484.66666666667,909,484.66666666667,909,484.66666666667,909,484.66666666667"></polygon>
    <polygon data-id="27122" data-section="10" data-section_name="10" data-build="2"
             data-build_name="5" data-floor="10" data-type="flat"
             class="s3d-svg__build js-s3d-svg__build"
             points="944,474.66666666667,944,474.66666666667,944,474.66666666667,944,474.66666666667,963,465.33333333333,963,465.33333333333,963,465.33333333333,963,465.33333333333,967.66666666667,466.66666666667,967.66666666667,466.66666666667,967.66666666667,466.66666666667,967.66666666667,466.66666666667,985.66666666667,458,985.66666666667,458,985.66666666667,458,985.66666666667,458,993.66666666667,456,993.66666666667,456,993.66666666667,456,993.66666666667,456,1000.6666666667,453.66666666667,1000.6666666667,453.66666666667,1000.6666666667,453.66666666667,1000.6666666667,453.66666666667,999.33333333333,474.33333333333,999.33333333333,474.33333333333,999.33333333333,474.33333333333,999.33333333333,474.33333333333,992,476.33333333333,992,476.33333333333,992,476.33333333333,992,476.33333333333,984.33333333333,478.33333333333,984.33333333333,478.33333333333,984.33333333333,478.33333333333,984.33333333333,478.33333333333,966,487.33333333333,966,487.33333333333,966,487.33333333333,966,487.33333333333,962,486.33333333333,962,486.33333333333,962,486.33333333333,962,486.33333333333,943.33333333333,495,943.33333333333,495,943.33333333333,495,943.33333333333,495,909,484.66666666667,909,484.66666666667,909,484.66666666667,909,484.66666666667,898,486.33333333333,898,486.33333333333,898,486.33333333333,898,486.33333333333,890,483.33333333333,890,483.33333333333,890,483.33333333333,890,483.33333333333,882,480.33333333333,882,480.33333333333,882,480.33333333333,882,480.33333333333,874.33333333333,475,874.33333333333,475,874.33333333333,475,874.33333333333,475,875,453.33333333333,875,453.33333333333,875,453.33333333333,875,453.33333333333,881.33333333333,459.66666666667,881.33333333333,459.66666666667,881.33333333333,459.66666666667,881.33333333333,459.66666666667,888.66666666667,461.66666666667,888.66666666667,461.66666666667,888.66666666667,461.66666666667,888.66666666667,461.66666666667,898,462.66666666667,898,462.66666666667,898,462.66666666667,898,462.66666666667,910.33333333333,463.33333333333,910.33333333333,463.33333333333,910.33333333333,463.33333333333,910.33333333333,463.33333333333"></polygon>
    <polygon data-id="27123" data-section="10" data-section_name="10" data-build="2"
             data-build_name="5" data-floor="11" data-type="flat"
             class="s3d-svg__build js-s3d-svg__build"
             points="944,452,944,452,944,452,944,452,964,443.33333333333,964,443.33333333333,964,443.33333333333,964,443.33333333333,969.66666666667,445,969.66666666667,445,969.66666666667,445,969.66666666667,445,985.66666666667,437,985.66666666667,437,985.66666666667,437,985.66666666667,437,994.66666666667,433.66666666667,994.66666666667,433.66666666667,994.66666666667,433.66666666667,994.66666666667,433.66666666667,1001.6666666667,430.66666666667,1001.6666666667,430.66666666667,1001.6666666667,430.66666666667,1001.6666666667,430.66666666667,1000.6666666667,453.66666666667,1000.6666666667,453.66666666667,1000.6666666667,453.66666666667,1000.6666666667,453.66666666667,993.66666666667,456,993.66666666667,456,993.66666666667,456,993.66666666667,456,985.66666666667,458,985.66666666667,458,985.66666666667,458,985.66666666667,458,967.66666666667,466.66666666667,967.66666666667,466.66666666667,967.66666666667,466.66666666667,967.66666666667,466.66666666667,963,465.33333333333,963,465.33333333333,963,465.33333333333,963,465.33333333333,944,474.66666666667,944,474.66666666667,944,474.66666666667,944,474.66666666667,910.33333333333,463.33333333333,910.33333333333,463.33333333333,910.33333333333,463.33333333333,910.33333333333,463.33333333333,898,462.66666666667,898,462.66666666667,898,462.66666666667,898,462.66666666667,888.66666666667,461.66666666667,888.66666666667,461.66666666667,888.66666666667,461.66666666667,888.66666666667,461.66666666667,881.33333333333,459.66666666667,881.33333333333,459.66666666667,881.33333333333,459.66666666667,881.33333333333,459.66666666667,875,453.33333333333,875,453.33333333333,875,453.33333333333,875,453.33333333333,875.66666666667,432.33333333333,875.66666666667,432.33333333333,875.66666666667,432.33333333333,875.66666666667,432.33333333333,882.33333333333,437.66666666667,882.33333333333,437.66666666667,882.33333333333,437.66666666667,882.33333333333,437.66666666667,891.33333333333,440,891.33333333333,440,891.33333333333,440,891.33333333333,440,911.33333333333,442.33333333333,911.33333333333,442.33333333333,911.33333333333,442.33333333333,911.33333333333,442.33333333333"></polygon>
    <polygon data-id="27124" data-section="10" data-section_name="10" data-build="2"
             data-build_name="5" data-floor="12" data-type="flat"
             class="s3d-svg__build js-s3d-svg__build"
             points="946.66666666667,429.66666666667,946.66666666667,429.66666666667,946.66666666667,429.66666666667,946.66666666667,429.66666666667,964.66666666667,422.33333333333,964.66666666667,422.33333333333,964.66666666667,422.33333333333,964.66666666667,422.33333333333,971,424.66666666667,971,424.66666666667,971,424.66666666667,971,424.66666666667,988.66666666667,415.33333333333,988.66666666667,415.33333333333,988.66666666667,415.33333333333,988.66666666667,415.33333333333,996.66666666667,413,996.66666666667,413,996.66666666667,413,996.66666666667,413,1003,411,1003,411,1003,411,1003,411,1001.6666666667,430.66666666667,1001.6666666667,430.66666666667,1001.6666666667,430.66666666667,1001.6666666667,430.66666666667,994.66666666667,433.66666666667,994.66666666667,433.66666666667,994.66666666667,433.66666666667,994.66666666667,433.66666666667,985.66666666667,437,985.66666666667,437,985.66666666667,437,985.66666666667,437,969.66666666667,445,969.66666666667,445,969.66666666667,445,969.66666666667,445,964,443.33333333333,964,443.33333333333,964,443.33333333333,964,443.33333333333,944,452,944,452,944,452,944,452,911.33333333333,442.33333333333,911.33333333333,442.33333333333,911.33333333333,442.33333333333,911.33333333333,442.33333333333,891.33333333333,440,891.33333333333,440,891.33333333333,440,891.33333333333,440,882.33333333333,437.66666666667,882.33333333333,437.66666666667,882.33333333333,437.66666666667,882.33333333333,437.66666666667,875.66666666667,432.33333333333,875.66666666667,432.33333333333,875.66666666667,432.33333333333,875.66666666667,432.33333333333,876,410.66666666667,876,410.66666666667,876,410.66666666667,876,410.66666666667,883.66666666667,414.66666666667,883.66666666667,414.66666666667,883.66666666667,414.66666666667,883.66666666667,414.66666666667,891.66666666667,418.33333333333,891.66666666667,418.33333333333,891.66666666667,418.33333333333,891.66666666667,418.33333333333,903.66666666667,419.66666666667,903.66666666667,419.66666666667,903.66666666667,419.66666666667,903.66666666667,419.66666666667,913.33333333333,419.33333333333,913.33333333333,419.33333333333,913.33333333333,419.33333333333,913.33333333333,419.33333333333"></polygon>
    <polygon data-id="27125" data-section="10" data-section_name="10" data-build="2"
             data-build_name="5" data-floor="13" data-type="flat"
             class="s3d-svg__build js-s3d-svg__build"
             points="947,406.66666666667,947,406.66666666667,947,406.66666666667,947,406.66666666667,966.66666666667,399.66666666667,966.66666666667,399.66666666667,966.66666666667,399.66666666667,966.66666666667,399.66666666667,971.33333333333,400.33333333333,971.33333333333,400.33333333333,971.33333333333,400.33333333333,971.33333333333,400.33333333333,989.66666666667,391.66666666667,989.66666666667,391.66666666667,989.66666666667,391.66666666667,989.66666666667,391.66666666667,998.66666666667,391,998.66666666667,391,998.66666666667,391,998.66666666667,391,1004.3333333333,389,1004.3333333333,389,1004.3333333333,389,1004.3333333333,389,1003,411,1003,411,1003,411,1003,411,996.66666666667,413,996.66666666667,413,996.66666666667,413,996.66666666667,413,988.66666666667,415.33333333333,988.66666666667,415.33333333333,988.66666666667,415.33333333333,988.66666666667,415.33333333333,971,424.66666666667,971,424.66666666667,971,424.66666666667,971,424.66666666667,964.66666666667,422.33333333333,964.66666666667,422.33333333333,964.66666666667,422.33333333333,964.66666666667,422.33333333333,946.66666666667,429.66666666667,946.66666666667,429.66666666667,946.66666666667,429.66666666667,946.66666666667,429.66666666667,913.33333333333,419.33333333333,913.33333333333,419.33333333333,913.33333333333,419.33333333333,913.33333333333,419.33333333333,903.66666666667,419.66666666667,903.66666666667,419.66666666667,903.66666666667,419.66666666667,903.66666666667,419.66666666667,891.66666666667,418.33333333333,891.66666666667,418.33333333333,891.66666666667,418.33333333333,891.66666666667,418.33333333333,883.66666666667,414.66666666667,883.66666666667,414.66666666667,883.66666666667,414.66666666667,883.66666666667,414.66666666667,876,410.66666666667,876,410.66666666667,876,410.66666666667,876,410.66666666667,877.66666666667,389,877.66666666667,389,877.66666666667,389,877.66666666667,389,877.66666666667,389,877.66666666667,389,877.66666666667,389,877.66666666667,389,883.33333333333,396,883.33333333333,396,883.33333333333,396,883.33333333333,396,891.33333333333,397.33333333333,891.33333333333,397.33333333333,891.33333333333,397.33333333333,891.33333333333,397.33333333333,900.66666666667,399.33333333333,900.66666666667,399.33333333333,900.66666666667,399.33333333333,900.66666666667,399.33333333333,913.33333333333,398,913.33333333333,398,913.33333333333,398,913.33333333333,398"></polygon>
    <polygon data-id="27126" data-section="10" data-section_name="10" data-build="2"
             data-build_name="5" data-floor="14" data-type="flat"
             class="s3d-svg__build js-s3d-svg__build"
             points="950.66666666667,385.5,950.66666666667,385.5,950.66666666667,385.5,950.66666666667,385.5,969,376.33333333333,969,376.33333333333,969,376.33333333333,969,376.33333333333,969,376.33333333333,969,376.33333333333,969,376.33333333333,969,376.33333333333,969,376.33333333333,969,376.33333333333,969,376.33333333333,969,376.33333333333,973.33333333333,378.5,973.33333333333,378.5,973.33333333333,378.5,973.33333333333,378.5,991.33333333333,370.33333333333,991.33333333333,370.33333333333,991.33333333333,370.33333333333,991.33333333333,370.33333333333,999.66666666667,369,999.66666666667,369,999.66666666667,369,999.66666666667,369,1006.6666666667,365.33333333333,1006.6666666667,365.33333333333,1006.6666666667,365.33333333333,1006.6666666667,365.33333333333,1004.3333333333,389,1004.3333333333,389,1004.3333333333,389,1004.3333333333,389,998.66666666667,391,998.66666666667,391,998.66666666667,391,998.66666666667,391,989.66666666667,391.66666666667,989.66666666667,391.66666666667,989.66666666667,391.66666666667,989.66666666667,391.66666666667,971.33333333333,400.33333333333,971.33333333333,400.33333333333,971.33333333333,400.33333333333,971.33333333333,400.33333333333,966.66666666667,399.66666666667,966.66666666667,399.66666666667,966.66666666667,399.66666666667,966.66666666667,399.66666666667,947,406.66666666667,947,406.66666666667,947,406.66666666667,947,406.66666666667,913.33333333333,398,913.33333333333,398,913.33333333333,398,913.33333333333,398,900.66666666667,399.33333333333,900.66666666667,399.33333333333,900.66666666667,399.33333333333,900.66666666667,399.33333333333,891.33333333333,397.33333333333,891.33333333333,397.33333333333,891.33333333333,397.33333333333,891.33333333333,397.33333333333,883.33333333333,396,883.33333333333,396,883.33333333333,396,883.33333333333,396,877.66666666667,389,877.66666666667,389,877.66666666667,389,877.66666666667,389,878.66666666667,366.55554199219,878.66666666667,366.55554199219,878.66666666667,366.55554199219,878.66666666667,366.55554199219,878,370.38887532552,878,370.38887532552,878,370.38887532552,878,370.38887532552,882.5,372.55554199219,882.5,372.55554199219,882.5,372.55554199219,882.5,372.55554199219,885.33333333333,375.55554199219,885.33333333333,375.55554199219,885.33333333333,375.55554199219,885.33333333333,375.55554199219,891.66666666667,377.88887532552,891.66666666667,377.88887532552,891.66666666667,377.88887532552,891.66666666667,377.88887532552,900.66666666667,377.72220865885,900.66666666667,377.72220865885,900.66666666667,377.72220865885,900.66666666667,377.72220865885,900.66666666667,377.72220865885,900.66666666667,377.72220865885,900.66666666667,377.72220865885,900.66666666667,377.72220865885,900.66666666667,377.72220865885,900.66666666667,377.72220865885,900.66666666667,377.72220865885,900.66666666667,377.72220865885,905.66666666667,379.22220865885,905.66666666667,379.22220865885,905.66666666667,379.22220865885,905.66666666667,379.22220865885,914.5,375.72220865885,914.5,375.72220865885,914.5,375.72220865885,914.5,375.72220865885"></polygon>
    <polygon data-id="27000" data-section="9" data-section_name="9" data-build="2"
             data-build_name="5" data-floor="2" data-type="flat"
             class="s3d-svg__build js-s3d-svg__build"
             points="823,505.5,823,505.5,823,505.5,823,505.5,823,505.5,823,505.5,823,505.5,823,505.5,823,505.5,823,505.5,823,505.5,823,505.5,823,505.5,823,505.5,823,505.5,823,505.5,823,491.5,823,491.5,823,491.5,823,491.5,823,491.5,823,491.5,823,491.5,823,491.5,823,491.5,823,491.5,823,491.5,823,491.5,823,491.5,823,491.5,823,491.5,823,491.5,787,474.5,787,474.5,787,474.5,787,474.5,787,474.5,787,474.5,787,474.5,787,474.5,787,474.5,787,474.5,787,474.5,787,474.5,787,474.5,787,474.5,787,474.5,787,474.5,786,486,786,486,786,486,786,486,786,486,786,486,786,486,786,486,786,486,786,486,786,486,786,486,786,486,786,486,786,486,786,486,795,495,795,495,795,495,795,495,795,495,795,495,795,495,795,495,795,495,795,495,795,495,795,495,795,495,795,495,795,495,795,495"></polygon>
    <polygon data-id="27001" data-section="9" data-section_name="9" data-build="2"
             data-build_name="5" data-floor="3" data-type="flat"
             class="s3d-svg__build js-s3d-svg__build"
             points="823,491.5,823,491.5,823,491.5,823,491.5,823,491.5,823,491.5,823,491.5,823,491.5,823,491.5,823,491.5,823,491.5,823,491.5,823,491.5,823,491.5,823,491.5,823,491.5,825,473.5,825,473.5,825,473.5,825,473.5,825,473.5,825,473.5,825,473.5,825,473.5,825,473.5,825,473.5,825,473.5,825,473.5,825,473.5,825,473.5,825,473.5,825,473.5,788.5,458,788.5,458,788.5,458,788.5,458,788.5,458,788.5,458,788.5,458,788.5,458,788.5,458,788.5,458,788.5,458,788.5,458,788.5,458,788.5,458,788.5,458,788.5,458,787,474.5,787,474.5,787,474.5,787,474.5,787,474.5,787,474.5,787,474.5,787,474.5,787,474.5,787,474.5,787,474.5,787,474.5,787,474.5,787,474.5,787,474.5,787,474.5"></polygon>
    <polygon data-id="27002" data-section="9" data-section_name="9" data-build="2"
             data-build_name="5" data-floor="4" data-type="flat"
             class="s3d-svg__build js-s3d-svg__build"
             points="787,439.5,787,439.5,787,439.5,787,439.5,787,439.5,787,439.5,787,439.5,787,439.5,787,439.5,787,439.5,787,439.5,787,439.5,787,439.5,787,439.5,787,439.5,787,439.5,788.5,458,788.5,458,788.5,458,788.5,458,788.5,458,788.5,458,788.5,458,788.5,458,788.5,458,788.5,458,788.5,458,788.5,458,788.5,458,788.5,458,788.5,458,788.5,458,825,473.5,825,473.5,825,473.5,825,473.5,825,473.5,825,473.5,825,473.5,825,473.5,825,473.5,825,473.5,825,473.5,825,473.5,825,473.5,825,473.5,825,473.5,825,473.5,825.5,457,825.5,457,825.5,457,825.5,457,825.5,457,825.5,457,825.5,457,825.5,457,825.5,457,825.5,457,825.5,457,825.5,457,825.5,457,825.5,457,825.5,457,825.5,457,793.5,444,793.5,444,793.5,444,793.5,444,793.5,444,793.5,444,793.5,444,793.5,444,793.5,444,793.5,444,793.5,444,793.5,444,793.5,444,793.5,444,793.5,444,793.5,444"></polygon>
    <polygon data-id="27003" data-section="9" data-section_name="9" data-build="2"
             data-build_name="5" data-floor="5" data-type="flat"
             class="s3d-svg__build js-s3d-svg__build"
             points="793.5,427,793.5,427,793.5,427,793.5,427,793.5,427,793.5,427,793.5,427,793.5,427,793.5,427,793.5,427,793.5,427,793.5,427,793.5,427,793.5,427,793.5,427,793.5,427,788.5,420.5,788.5,420.5,788.5,420.5,788.5,420.5,788.5,420.5,788.5,420.5,788.5,420.5,788.5,420.5,788.5,420.5,788.5,420.5,788.5,420.5,788.5,420.5,788.5,420.5,788.5,420.5,788.5,420.5,788.5,420.5,787,439.5,787,439.5,787,439.5,787,439.5,787,439.5,787,439.5,787,439.5,787,439.5,787,439.5,787,439.5,787,439.5,787,439.5,787,439.5,787,439.5,787,439.5,787,439.5,793.5,444,793.5,444,793.5,444,793.5,444,793.5,444,793.5,444,793.5,444,793.5,444,793.5,444,793.5,444,793.5,444,793.5,444,793.5,444,793.5,444,793.5,444,793.5,444,825.5,457,825.5,457,825.5,457,825.5,457,825.5,457,825.5,457,825.5,457,825.5,457,825.5,457,825.5,457,825.5,457,825.5,457,825.5,457,825.5,457,825.5,457,825.5,457,827,437,827,437,827,437,827,437,827,437,827,437,827,437,827,437,827,437,827,437,827,437,827,437,827,437,827,437,827,437,827,437"></polygon>
    <polygon data-id="27004" data-section="9" data-section_name="9" data-build="2"
             data-build_name="5" data-floor="6" data-type="flat"
             class="s3d-svg__build js-s3d-svg__build"
             points="787.5,403.5,787.5,403.5,787.5,403.5,787.5,403.5,787.5,403.5,787.5,403.5,787.5,403.5,787.5,403.5,787.5,403.5,787.5,403.5,787.5,403.5,787.5,403.5,787.5,403.5,787.5,403.5,787.5,403.5,787.5,403.5,794,408.5,794,408.5,794,408.5,794,408.5,794,408.5,794,408.5,794,408.5,794,408.5,794,408.5,794,408.5,794,408.5,794,408.5,794,408.5,794,408.5,794,408.5,794,408.5,827.5,420.5,827.5,420.5,827.5,420.5,827.5,420.5,827.5,420.5,827.5,420.5,827.5,420.5,827.5,420.5,827.5,420.5,827.5,420.5,827.5,420.5,827.5,420.5,827.5,420.5,827.5,420.5,827.5,420.5,827.5,420.5,827,437,827,437,827,437,827,437,827,437,827,437,827,437,827,437,827,437,827,437,827,437,827,437,827,437,827,437,827,437,827,437,793.5,427,793.5,427,793.5,427,793.5,427,793.5,427,793.5,427,793.5,427,793.5,427,793.5,427,793.5,427,793.5,427,793.5,427,793.5,427,793.5,427,793.5,427,793.5,427,788.5,420.5,788.5,420.5,788.5,420.5,788.5,420.5,788.5,420.5,788.5,420.5,788.5,420.5,788.5,420.5,788.5,420.5,788.5,420.5,788.5,420.5,788.5,420.5,788.5,420.5,788.5,420.5,788.5,420.5,788.5,420.5"></polygon>
    <polygon data-id="27005" data-section="9" data-section_name="9" data-build="2"
             data-build_name="5" data-floor="7" data-type="flat"
             class="s3d-svg__build js-s3d-svg__build"
             points="793,391.5,793,391.5,793,391.5,793,391.5,793,391.5,793,391.5,793,391.5,793,391.5,793,391.5,793,391.5,793,391.5,793,391.5,793,391.5,793,391.5,793,391.5,793,391.5,829.5,400.5,829.5,400.5,829.5,400.5,829.5,400.5,829.5,400.5,829.5,400.5,829.5,400.5,829.5,400.5,829.5,400.5,829.5,400.5,829.5,400.5,829.5,400.5,829.5,400.5,829.5,400.5,829.5,400.5,829.5,400.5,827.5,420.5,827.5,420.5,827.5,420.5,827.5,420.5,827.5,420.5,827.5,420.5,827.5,420.5,827.5,420.5,827.5,420.5,827.5,420.5,827.5,420.5,827.5,420.5,827.5,420.5,827.5,420.5,827.5,420.5,827.5,420.5,794,408.5,794,408.5,794,408.5,794,408.5,794,408.5,794,408.5,794,408.5,794,408.5,794,408.5,794,408.5,794,408.5,794,408.5,794,408.5,794,408.5,794,408.5,794,408.5,787.5,403.5,787.5,403.5,787.5,403.5,787.5,403.5,787.5,403.5,787.5,403.5,787.5,403.5,787.5,403.5,787.5,403.5,787.5,403.5,787.5,403.5,787.5,403.5,787.5,403.5,787.5,403.5,787.5,403.5,787.5,403.5,789,383.5,789,383.5,789,383.5,789,383.5,789,383.5,789,383.5,789,383.5,789,383.5,789,383.5,789,383.5,789,383.5,789,383.5,789,383.5,789,383.5,789,383.5,789,383.5"></polygon>
    <polygon data-id="27006" data-section="9" data-section_name="9" data-build="2"
             data-build_name="5" data-floor="8" data-type="flat"
             class="s3d-svg__build js-s3d-svg__build"
             points="795,374,795,374,795,374,795,374,795,374,795,374,795,374,795,374,795,374,795,374,795,374,795,374,795,374,795,374,795,374,795,374,828.5,382,828.5,382,828.5,382,828.5,382,828.5,382,828.5,382,828.5,382,828.5,382,828.5,382,828.5,382,828.5,382,828.5,382,828.5,382,828.5,382,828.5,382,828.5,382,829.5,400.5,829.5,400.5,829.5,400.5,829.5,400.5,829.5,400.5,829.5,400.5,829.5,400.5,829.5,400.5,829.5,400.5,829.5,400.5,829.5,400.5,829.5,400.5,829.5,400.5,829.5,400.5,829.5,400.5,829.5,400.5,793,391.5,793,391.5,793,391.5,793,391.5,793,391.5,793,391.5,793,391.5,793,391.5,793,391.5,793,391.5,793,391.5,793,391.5,793,391.5,793,391.5,793,391.5,793,391.5,789,383.5,789,383.5,789,383.5,789,383.5,789,383.5,789,383.5,789,383.5,789,383.5,789,383.5,789,383.5,789,383.5,789,383.5,789,383.5,789,383.5,789,383.5,789,383.5,789,366,789,366,789,366,789,366,789,366,789,366,789,366,789,366,789,366,789,366,789,366,789,366,789,366,789,366,789,366,789,366"></polygon>
    <polygon data-id="27007" data-section="9" data-section_name="9" data-build="2"
             data-build_name="5" data-floor="9" data-type="flat"
             class="s3d-svg__build js-s3d-svg__build"
             points="796,355,796,355,796,355,796,355,796,355,796,355,796,355,796,355,796,355,796,355,796,355,796,355,796,355,796,355,796,355,796,355,814,361,814,361,814,361,814,361,814,361,814,361,814,361,814,361,814,361,814,361,814,361,814,361,814,361,814,361,814,361,814,361,830,364.5,830,364.5,830,364.5,830,364.5,830,364.5,830,364.5,830,364.5,830,364.5,830,364.5,830,364.5,830,364.5,830,364.5,830,364.5,830,364.5,830,364.5,830,364.5,828.5,382,828.5,382,828.5,382,828.5,382,828.5,382,828.5,382,828.5,382,828.5,382,828.5,382,828.5,382,828.5,382,828.5,382,828.5,382,828.5,382,828.5,382,828.5,382,812,379,812,379,812,379,812,379,812,379,812,379,812,379,812,379,812,379,812,379,812,379,812,379,812,379,812,379,812,379,812,379,795,374,795,374,795,374,795,374,795,374,795,374,795,374,795,374,795,374,795,374,795,374,795,374,795,374,795,374,795,374,795,374,789,366,789,366,789,366,789,366,789,366,789,366,789,366,789,366,789,366,789,366,789,366,789,366,789,366,789,366,789,366,789,366,790,347.5,790,347.5,790,347.5,790,347.5,790,347.5,790,347.5,790,347.5,790,347.5,790,347.5,790,347.5,790,347.5,790,347.5,790,347.5,790,347.5,790,347.5,790,347.5"></polygon>
    <polygon data-id="27008" data-section="9" data-section_name="9" data-build="2"
             data-build_name="5" data-floor="10" data-type="flat"
             class="s3d-svg__build js-s3d-svg__build"
             points="795.5,336.5,795.5,336.5,795.5,336.5,795.5,336.5,795.5,336.5,795.5,336.5,795.5,336.5,795.5,336.5,795.5,336.5,795.5,336.5,795.5,336.5,795.5,336.5,795.5,336.5,795.5,336.5,795.5,336.5,795.5,336.5,830,346,830,346,830,346,830,346,830,346,830,346,830,346,830,346,830,346,830,346,830,346,830,346,830,346,830,346,830,346,830,346,830,364.5,830,364.5,830,364.5,830,364.5,830,364.5,830,364.5,830,364.5,830,364.5,830,364.5,830,364.5,830,364.5,830,364.5,830,364.5,830,364.5,830,364.5,830,364.5,814,361,814,361,814,361,814,361,814,361,814,361,814,361,814,361,814,361,814,361,814,361,814,361,814,361,814,361,814,361,814,361,796,355,796,355,796,355,796,355,796,355,796,355,796,355,796,355,796,355,796,355,796,355,796,355,796,355,796,355,796,355,796,355,790,347.5,790,347.5,790,347.5,790,347.5,790,347.5,790,347.5,790,347.5,790,347.5,790,347.5,790,347.5,790,347.5,790,347.5,790,347.5,790,347.5,790,347.5,790,347.5,788.5,330,788.5,330,788.5,330,788.5,330,788.5,330,788.5,330,788.5,330,788.5,330,788.5,330,788.5,330,788.5,330,788.5,330,788.5,330,788.5,330,788.5,330,788.5,330"></polygon>
    <polygon data-id="27009" data-section="9" data-section_name="9" data-build="2"
             data-build_name="5" data-floor="11" data-type="flat"
             class="s3d-svg__build js-s3d-svg__build"
             points="795,318,795,318,795,318,795,318,795,318,795,318,795,318,795,318,795,318,795,318,795,318,795,318,795,318,795,318,795,318,795,318,830.5,328,830.5,328,830.5,328,830.5,328,830.5,328,830.5,328,830.5,328,830.5,328,830.5,328,830.5,328,830.5,328,830.5,328,830.5,328,830.5,328,830.5,328,830.5,328,830,346,830,346,830,346,830,346,830,346,830,346,830,346,830,346,830,346,830,346,830,346,830,346,830,346,830,346,830,346,830,346,795.5,336.5,795.5,336.5,795.5,336.5,795.5,336.5,795.5,336.5,795.5,336.5,795.5,336.5,795.5,336.5,795.5,336.5,795.5,336.5,795.5,336.5,795.5,336.5,795.5,336.5,795.5,336.5,795.5,336.5,795.5,336.5,788.5,330,788.5,330,788.5,330,788.5,330,788.5,330,788.5,330,788.5,330,788.5,330,788.5,330,788.5,330,788.5,330,788.5,330,788.5,330,788.5,330,788.5,330,788.5,330,790,311.5,790,311.5,790,311.5,790,311.5,790,311.5,790,311.5,790,311.5,790,311.5,790,311.5,790,311.5,790,311.5,790,311.5,790,311.5,790,311.5,790,311.5,790,311.5"></polygon>
    <polygon data-id="27010" data-section="9" data-section_name="9" data-build="2"
             data-build_name="5" data-floor="12" data-type="flat"
             class="s3d-svg__build js-s3d-svg__build"
             points="797,298,797,298,797,298,797,298,797,298,797,298,797,298,797,298,797,298,797,298,797,298,797,298,797,298,797,298,797,298,797,298,829,308,829,308,829,308,829,308,829,308,829,308,829,308,829,308,829,308,829,308,829,308,829,308,829,308,829,308,829,308,829,308,830.5,328,830.5,328,830.5,328,830.5,328,830.5,328,830.5,328,830.5,328,830.5,328,830.5,328,830.5,328,830.5,328,830.5,328,830.5,328,830.5,328,830.5,328,830.5,328,795,318,795,318,795,318,795,318,795,318,795,318,795,318,795,318,795,318,795,318,795,318,795,318,795,318,795,318,795,318,795,318,790,311.5,790,311.5,790,311.5,790,311.5,790,311.5,790,311.5,790,311.5,790,311.5,790,311.5,790,311.5,790,311.5,790,311.5,790,311.5,790,311.5,790,311.5,790,311.5,790,294,790,294,790,294,790,294,790,294,790,294,790,294,790,294,790,294,790,294,790,294,790,294,790,294,790,294,790,294,790,294"></polygon>
    <polygon data-id="27011" data-section="9" data-section_name="9" data-build="2"
             data-build_name="5" data-floor="13" data-type="flat"
             class="s3d-svg__build js-s3d-svg__build"
             points="829,308,829,308,829,308,829,308,829,308,829,308,829,308,829,308,829,308,829,308,829,308,829,308,829,308,829,308,829,308,829,308,830,289,830,289,830,289,830,289,830,289,830,289,830,289,830,289,830,289,830,289,830,289,830,289,830,289,830,289,830,289,830,289,798.5,280,798.5,280,798.5,280,798.5,280,798.5,280,798.5,280,798.5,280,798.5,280,798.5,280,798.5,280,798.5,280,798.5,280,798.5,280,798.5,280,798.5,280,798.5,280,790.5,274,790.5,274,790.5,274,790.5,274,790.5,274,790.5,274,790.5,274,790.5,274,790.5,274,790.5,274,790.5,274,790.5,274,790.5,274,790.5,274,790.5,274,790.5,274,790,294,790,294,790,294,790,294,790,294,790,294,790,294,790,294,790,294,790,294,790,294,790,294,790,294,790,294,790,294,790,294,797,298,797,298,797,298,797,298,797,298,797,298,797,298,797,298,797,298,797,298,797,298,797,298,797,298,797,298,797,298,797,298"></polygon>
    <polygon data-id="27012" data-section="9" data-section_name="9" data-build="2"
             data-build_name="5" data-floor="14" data-type="flat"
             class="s3d-svg__build js-s3d-svg__build"
             points="830,289,830,289,830,289,830,289,830,289,830,289,830,289,830,289,830,289,830,289,830,289,830,289,830,289,830,289,830,289,830,289,831.5,269.5,831.5,269.5,831.5,269.5,831.5,269.5,831.5,269.5,831.5,269.5,831.5,269.5,831.5,269.5,831.5,269.5,831.5,269.5,831.5,269.5,831.5,269.5,831.5,269.5,831.5,269.5,831.5,269.5,831.5,269.5,797,260.5,797,260.5,797,260.5,797,260.5,797,260.5,797,260.5,797,260.5,797,260.5,797,260.5,797,260.5,797,260.5,797,260.5,797,260.5,797,260.5,797,260.5,797,260.5,789,254.5,789,254.5,789,254.5,789,254.5,789,254.5,789,254.5,789,254.5,789,254.5,789,254.5,789,254.5,789,254.5,789,254.5,789,254.5,789,254.5,789,254.5,789,254.5,790.5,274,790.5,274,790.5,274,790.5,274,790.5,274,790.5,274,790.5,274,790.5,274,790.5,274,790.5,274,790.5,274,790.5,274,790.5,274,790.5,274,790.5,274,790.5,274,798.5,280,798.5,280,798.5,280,798.5,280,798.5,280,798.5,280,798.5,280,798.5,280,798.5,280,798.5,280,798.5,280,798.5,280,798.5,280,798.5,280,798.5,280,798.5,280"></polygon>
    <polygon data-id="27013" data-section="9" data-section_name="9" data-build="2"
             data-build_name="5" data-floor="15" data-type="flat"
             class="s3d-svg__build js-s3d-svg__build"
             points="831.5,269.5,831.5,269.5,831.5,269.5,831.5,269.5,831.5,269.5,831.5,269.5,831.5,269.5,831.5,269.5,831.5,269.5,831.5,269.5,831.5,269.5,831.5,269.5,831.5,269.5,831.5,269.5,831.5,269.5,831.5,269.5,830.5,250.5,830.5,250.5,830.5,250.5,830.5,250.5,830.5,250.5,830.5,250.5,830.5,250.5,830.5,250.5,830.5,250.5,830.5,250.5,830.5,250.5,830.5,250.5,830.5,250.5,830.5,250.5,830.5,250.5,830.5,250.5,798,241.5,798,241.5,798,241.5,798,241.5,798,241.5,798,241.5,798,241.5,798,241.5,798,241.5,798,241.5,798,241.5,798,241.5,798,241.5,798,241.5,798,241.5,798,241.5,789,237.5,789,237.5,789,237.5,789,237.5,789,237.5,789,237.5,789,237.5,789,237.5,789,237.5,789,237.5,789,237.5,789,237.5,789,237.5,789,237.5,789,237.5,789,237.5,789,254.5,789,254.5,789,254.5,789,254.5,789,254.5,789,254.5,789,254.5,789,254.5,789,254.5,789,254.5,789,254.5,789,254.5,789,254.5,789,254.5,789,254.5,789,254.5,797,260.5,797,260.5,797,260.5,797,260.5,797,260.5,797,260.5,797,260.5,797,260.5,797,260.5,797,260.5,797,260.5,797,260.5,797,260.5,797,260.5,797,260.5,797,260.5"></polygon>
    <polygon data-id="26648" data-section="8" data-section_name="8" data-build="2"
             data-build_name="5" data-floor="2" data-type="flat"
             class="s3d-svg__build js-s3d-svg__build"
             points="675.5,435.5,675.5,435.5,675.5,435.5,675.5,435.5,675.5,435.5,675.5,435.5,675.5,435.5,675.5,435.5,675.5,435.5,675.5,435.5,675.5,435.5,675.5,435.5,675.5,435.5,675.5,435.5,675.5,435.5,675.5,435.5,675,449,675,449,675,449,675,449,675,449,675,449,675,449,675,449,675,449,675,449,675,449,675,449,675,449,675,449,675,449,675,449,662,447,662,447,662,447,662,447,662,447,662,447,662,447,662,447,662,447,662,447,662,447,662,447,662,447,662,447,662,447,662,447,649.5,440,649.5,440,649.5,440,649.5,440,649.5,440,649.5,440,649.5,440,649.5,440,649.5,440,649.5,440,649.5,440,649.5,440,649.5,440,649.5,440,649.5,440,649.5,440,644.5,432,644.5,432,644.5,432,644.5,432,644.5,432,644.5,432,644.5,432,644.5,432,644.5,432,644.5,432,644.5,432,644.5,432,644.5,432,644.5,432,644.5,432,644.5,432,642.5,419,642.5,419,642.5,419,642.5,419,642.5,419,642.5,419,642.5,419,642.5,419,642.5,419,642.5,419,642.5,419,642.5,419,642.5,419,642.5,419,642.5,419,642.5,419,660,430.5,660,430.5,660,430.5,660,430.5,660,430.5,660,430.5,660,430.5,660,430.5,660,430.5,660,430.5,660,430.5,660,430.5,660,430.5,660,430.5,660,430.5,660,430.5"></polygon>
    <polygon data-id="26649" data-section="8" data-section_name="8" data-build="2"
             data-build_name="5" data-floor="3" data-type="flat"
             class="s3d-svg__build js-s3d-svg__build"
             points="675.5,435.5,675.5,435.5,675.5,435.5,675.5,435.5,675.5,435.5,675.5,435.5,675.5,435.5,675.5,435.5,675.5,435.5,675.5,435.5,675.5,435.5,675.5,435.5,675.5,435.5,675.5,435.5,675.5,435.5,675.5,435.5,676,419,676,419,676,419,676,419,676,419,676,419,676,419,676,419,676,419,676,419,676,419,676,419,676,419,676,419,676,419,676,419,663.5,415.5,663.5,415.5,663.5,415.5,663.5,415.5,663.5,415.5,663.5,415.5,663.5,415.5,663.5,415.5,663.5,415.5,663.5,415.5,663.5,415.5,663.5,415.5,663.5,415.5,663.5,415.5,663.5,415.5,663.5,415.5,649.5,410,649.5,410,649.5,410,649.5,410,649.5,410,649.5,410,649.5,410,649.5,410,649.5,410,649.5,410,649.5,410,649.5,410,649.5,410,649.5,410,649.5,410,649.5,410,644.5,404,644.5,404,644.5,404,644.5,404,644.5,404,644.5,404,644.5,404,644.5,404,644.5,404,644.5,404,644.5,404,644.5,404,644.5,404,644.5,404,644.5,404,644.5,404,642.5,419,642.5,419,642.5,419,642.5,419,642.5,419,642.5,419,642.5,419,642.5,419,642.5,419,642.5,419,642.5,419,642.5,419,642.5,419,642.5,419,642.5,419,642.5,419,660,430.5,660,430.5,660,430.5,660,430.5,660,430.5,660,430.5,660,430.5,660,430.5,660,430.5,660,430.5,660,430.5,660,430.5,660,430.5,660,430.5,660,430.5,660,430.5"></polygon>
    <polygon data-id="26650" data-section="8" data-section_name="8" data-build="2"
             data-build_name="5" data-floor="4" data-type="flat"
             class="s3d-svg__build js-s3d-svg__build"
             points="675,402,675,402,675,402,675,402,675,402,675,402,675,402,675,402,675,402,675,402,675,402,675,402,675,402,675,402,675,402,675,402,676,419,676,419,676,419,676,419,676,419,676,419,676,419,676,419,676,419,676,419,676,419,676,419,676,419,676,419,676,419,676,419,663.5,415.5,663.5,415.5,663.5,415.5,663.5,415.5,663.5,415.5,663.5,415.5,663.5,415.5,663.5,415.5,663.5,415.5,663.5,415.5,663.5,415.5,663.5,415.5,663.5,415.5,663.5,415.5,663.5,415.5,663.5,415.5,649.5,410,649.5,410,649.5,410,649.5,410,649.5,410,649.5,410,649.5,410,649.5,410,649.5,410,649.5,410,649.5,410,649.5,410,649.5,410,649.5,410,649.5,410,649.5,410,644.5,404,644.5,404,644.5,404,644.5,404,644.5,404,644.5,404,644.5,404,644.5,404,644.5,404,644.5,404,644.5,404,644.5,404,644.5,404,644.5,404,644.5,404,644.5,404,643,387,643,387,643,387,643,387,643,387,643,387,643,387,643,387,643,387,643,387,643,387,643,387,643,387,643,387,643,387,643,387,661,397,661,397,661,397,661,397,661,397,661,397,661,397,661,397,661,397,661,397,661,397,661,397,661,397,661,397,661,397,661,397"></polygon>
    <polygon data-id="26652" data-section="8" data-section_name="8" data-build="2"
             data-build_name="5" data-floor="6" data-type="flat"
             class="s3d-svg__build js-s3d-svg__build"
             points="675,383,675,383,675,383,675,383,675,383,675,383,675,383,675,383,675,383,675,383,675,383,675,383,675,383,675,383,675,383,675,383,676.5,368.5,676.5,368.5,676.5,368.5,676.5,368.5,676.5,368.5,676.5,368.5,676.5,368.5,676.5,368.5,676.5,368.5,676.5,368.5,676.5,368.5,676.5,368.5,676.5,368.5,676.5,368.5,676.5,368.5,676.5,368.5,661,364.5,661,364.5,661,364.5,661,364.5,661,364.5,661,364.5,661,364.5,661,364.5,661,364.5,661,364.5,661,364.5,661,364.5,661,364.5,661,364.5,661,364.5,661,364.5,647.5,359.5,647.5,359.5,647.5,359.5,647.5,359.5,647.5,359.5,647.5,359.5,647.5,359.5,647.5,359.5,647.5,359.5,647.5,359.5,647.5,359.5,647.5,359.5,647.5,359.5,647.5,359.5,647.5,359.5,647.5,359.5,641.5,352,641.5,352,641.5,352,641.5,352,641.5,352,641.5,352,641.5,352,641.5,352,641.5,352,641.5,352,641.5,352,641.5,352,641.5,352,641.5,352,641.5,352,641.5,352,642.5,367.5,642.5,367.5,642.5,367.5,642.5,367.5,642.5,367.5,642.5,367.5,642.5,367.5,642.5,367.5,642.5,367.5,642.5,367.5,642.5,367.5,642.5,367.5,642.5,367.5,642.5,367.5,642.5,367.5,642.5,367.5,654.5,378.5,654.5,378.5,654.5,378.5,654.5,378.5,654.5,378.5,654.5,378.5,654.5,378.5,654.5,378.5,654.5,378.5,654.5,378.5,654.5,378.5,654.5,378.5,654.5,378.5,654.5,378.5,654.5,378.5,654.5,378.5"></polygon>
    <polygon data-id="26651" data-section="8" data-section_name="8" data-build="2"
             data-build_name="5" data-floor="5" data-type="flat"
             class="s3d-svg__build js-s3d-svg__build"
             points="675,402,675,402,675,402,675,402,675,402,675,402,675,402,675,402,675,402,675,402,675,402,675,402,675,402,675,402,675,402,675,402,675,383,675,383,675,383,675,383,675,383,675,383,675,383,675,383,675,383,675,383,675,383,675,383,675,383,675,383,675,383,675,383,654.5,378.5,654.5,378.5,654.5,378.5,654.5,378.5,654.5,378.5,654.5,378.5,654.5,378.5,654.5,378.5,654.5,378.5,654.5,378.5,654.5,378.5,654.5,378.5,654.5,378.5,654.5,378.5,654.5,378.5,654.5,378.5,642.5,367.5,642.5,367.5,642.5,367.5,642.5,367.5,642.5,367.5,642.5,367.5,642.5,367.5,642.5,367.5,642.5,367.5,642.5,367.5,642.5,367.5,642.5,367.5,642.5,367.5,642.5,367.5,642.5,367.5,642.5,367.5,643,387,643,387,643,387,643,387,643,387,643,387,643,387,643,387,643,387,643,387,643,387,643,387,643,387,643,387,643,387,643,387,661,397,661,397,661,397,661,397,661,397,661,397,661,397,661,397,661,397,661,397,661,397,661,397,661,397,661,397,661,397,661,397"></polygon>
    <polygon data-id="26653" data-section="8" data-section_name="8" data-build="2"
             data-build_name="5" data-floor="7" data-type="flat"
             class="s3d-svg__build js-s3d-svg__build"
             points="676.5,368.5,676.5,368.5,676.5,368.5,676.5,368.5,676.5,368.5,676.5,368.5,676.5,368.5,676.5,368.5,676.5,368.5,676.5,368.5,676.5,368.5,676.5,368.5,676.5,368.5,676.5,368.5,676.5,368.5,676.5,368.5,676.5,349.5,676.5,349.5,676.5,349.5,676.5,349.5,676.5,349.5,676.5,349.5,676.5,349.5,676.5,349.5,676.5,349.5,676.5,349.5,676.5,349.5,676.5,349.5,676.5,349.5,676.5,349.5,676.5,349.5,676.5,349.5,661.5,347.5,661.5,347.5,661.5,347.5,661.5,347.5,661.5,347.5,661.5,347.5,661.5,347.5,661.5,347.5,661.5,347.5,661.5,347.5,661.5,347.5,661.5,347.5,661.5,347.5,661.5,347.5,661.5,347.5,661.5,347.5,649.5,343.5,649.5,343.5,649.5,343.5,649.5,343.5,649.5,343.5,649.5,343.5,649.5,343.5,649.5,343.5,649.5,343.5,649.5,343.5,649.5,343.5,649.5,343.5,649.5,343.5,649.5,343.5,649.5,343.5,649.5,343.5,642.5,336,642.5,336,642.5,336,642.5,336,642.5,336,642.5,336,642.5,336,642.5,336,642.5,336,642.5,336,642.5,336,642.5,336,642.5,336,642.5,336,642.5,336,642.5,336,641.5,352,641.5,352,641.5,352,641.5,352,641.5,352,641.5,352,641.5,352,641.5,352,641.5,352,641.5,352,641.5,352,641.5,352,641.5,352,641.5,352,641.5,352,641.5,352,647.5,359.5,647.5,359.5,647.5,359.5,647.5,359.5,647.5,359.5,647.5,359.5,647.5,359.5,647.5,359.5,647.5,359.5,647.5,359.5,647.5,359.5,647.5,359.5,647.5,359.5,647.5,359.5,647.5,359.5,647.5,359.5,661,364.5,661,364.5,661,364.5,661,364.5,661,364.5,661,364.5,661,364.5,661,364.5,661,364.5,661,364.5,661,364.5,661,364.5,661,364.5,661,364.5,661,364.5,661,364.5"></polygon>
    <polygon data-id="26654" data-section="8" data-section_name="8" data-build="2"
             data-build_name="5" data-floor="8" data-type="flat"
             class="s3d-svg__build js-s3d-svg__build"
             points="676.5,349.5,676.5,349.5,676.5,349.5,676.5,349.5,676.5,349.5,676.5,349.5,676.5,349.5,676.5,349.5,676.5,349.5,676.5,349.5,676.5,349.5,676.5,349.5,676.5,349.5,676.5,349.5,676.5,349.5,676.5,349.5,675,333,675,333,675,333,675,333,675,333,675,333,675,333,675,333,675,333,675,333,675,333,675,333,675,333,675,333,675,333,675,333,662,330,662,330,662,330,662,330,662,330,662,330,662,330,662,330,662,330,662,330,662,330,662,330,662,330,662,330,662,330,662,330,646.5,325,646.5,325,646.5,325,646.5,325,646.5,325,646.5,325,646.5,325,646.5,325,646.5,325,646.5,325,646.5,325,646.5,325,646.5,325,646.5,325,646.5,325,646.5,325,642.5,318.5,642.5,318.5,642.5,318.5,642.5,318.5,642.5,318.5,642.5,318.5,642.5,318.5,642.5,318.5,642.5,318.5,642.5,318.5,642.5,318.5,642.5,318.5,642.5,318.5,642.5,318.5,642.5,318.5,642.5,318.5,642.5,336,642.5,336,642.5,336,642.5,336,642.5,336,642.5,336,642.5,336,642.5,336,642.5,336,642.5,336,642.5,336,642.5,336,642.5,336,642.5,336,642.5,336,642.5,336,649.5,343.5,649.5,343.5,649.5,343.5,649.5,343.5,649.5,343.5,649.5,343.5,649.5,343.5,649.5,343.5,649.5,343.5,649.5,343.5,649.5,343.5,649.5,343.5,649.5,343.5,649.5,343.5,649.5,343.5,649.5,343.5,661.5,347.5,661.5,347.5,661.5,347.5,661.5,347.5,661.5,347.5,661.5,347.5,661.5,347.5,661.5,347.5,661.5,347.5,661.5,347.5,661.5,347.5,661.5,347.5,661.5,347.5,661.5,347.5,661.5,347.5,661.5,347.5"></polygon>
    <polygon data-id="26655" data-section="8" data-section_name="8" data-build="2"
             data-build_name="5" data-floor="9" data-type="flat"
             class="s3d-svg__build js-s3d-svg__build"
             points="675,333,675,333,675,333,675,333,675,333,675,333,675,333,675,333,675,333,675,333,675,333,675,333,675,333,675,333,675,333,675,333,675,316.5,675,316.5,675,316.5,675,316.5,675,316.5,675,316.5,675,316.5,675,316.5,675,316.5,675,316.5,675,316.5,675,316.5,675,316.5,675,316.5,675,316.5,675,316.5,660.5,311,660.5,311,660.5,311,660.5,311,660.5,311,660.5,311,660.5,311,660.5,311,660.5,311,660.5,311,660.5,311,660.5,311,660.5,311,660.5,311,660.5,311,660.5,311,646.5,307,646.5,307,646.5,307,646.5,307,646.5,307,646.5,307,646.5,307,646.5,307,646.5,307,646.5,307,646.5,307,646.5,307,646.5,307,646.5,307,646.5,307,646.5,307,642,301.5,642,301.5,642,301.5,642,301.5,642,301.5,642,301.5,642,301.5,642,301.5,642,301.5,642,301.5,642,301.5,642,301.5,642,301.5,642,301.5,642,301.5,642,301.5,642.5,318.5,642.5,318.5,642.5,318.5,642.5,318.5,642.5,318.5,642.5,318.5,642.5,318.5,642.5,318.5,642.5,318.5,642.5,318.5,642.5,318.5,642.5,318.5,642.5,318.5,642.5,318.5,642.5,318.5,642.5,318.5,646.5,325,646.5,325,646.5,325,646.5,325,646.5,325,646.5,325,646.5,325,646.5,325,646.5,325,646.5,325,646.5,325,646.5,325,646.5,325,646.5,325,646.5,325,646.5,325,662,330,662,330,662,330,662,330,662,330,662,330,662,330,662,330,662,330,662,330,662,330,662,330,662,330,662,330,662,330,662,330"></polygon>
    <polygon data-id="26903" data-section="8" data-section_name="8" data-build="2"
             data-build_name="5" data-floor="9" data-type="flat"
             class="s3d-svg__build js-s3d-svg__build"
             points="730,333.5,730,333.5,730,333.5,730,333.5,730,333.5,730,333.5,730,333.5,730,333.5,730,333.5,730,333.5,730,333.5,730,333.5,730,333.5,730,333.5,730,333.5,730,333.5,729,350,729,350,729,350,729,350,729,350,729,350,729,350,729,350,729,350,729,350,729,350,729,350,729,350,729,350,729,350,729,350,760,360.5,760,360.5,760,360.5,760,360.5,760,360.5,760,360.5,760,360.5,760,360.5,760,360.5,760,360.5,760,360.5,760,360.5,760,360.5,760,360.5,760,360.5,760,360.5,768,358,768,358,768,358,768,358,768,358,768,358,768,358,768,358,768,358,768,358,768,358,768,358,768,358,768,358,768,358,768,358,779,361.5,779,361.5,779,361.5,779,361.5,779,361.5,779,361.5,779,361.5,779,361.5,779,361.5,779,361.5,779,361.5,779,361.5,779,361.5,779,361.5,779,361.5,779,361.5,777.5,345,777.5,345,777.5,345,777.5,345,777.5,345,777.5,345,777.5,345,777.5,345,777.5,345,777.5,345,777.5,345,777.5,345,777.5,345,777.5,345,777.5,345,777.5,345,768.5,341,768.5,341,768.5,341,768.5,341,768.5,341,768.5,341,768.5,341,768.5,341,768.5,341,768.5,341,768.5,341,768.5,341,768.5,341,768.5,341,768.5,341,768.5,341,760.5,343.5,760.5,343.5,760.5,343.5,760.5,343.5,760.5,343.5,760.5,343.5,760.5,343.5,760.5,343.5,760.5,343.5,760.5,343.5,760.5,343.5,760.5,343.5,760.5,343.5,760.5,343.5,760.5,343.5,760.5,343.5"></polygon>
    <polygon data-id="26656" data-section="8" data-section_name="8" data-build="2"
             data-build_name="5" data-floor="10" data-type="flat"
             class="s3d-svg__build js-s3d-svg__build"
             points="675,316.5,675,316.5,675,316.5,675,316.5,675,316.5,675,316.5,675,316.5,675,316.5,675,316.5,675,316.5,675,316.5,675,316.5,675,316.5,675,316.5,675,316.5,675,316.5,674,297.5,674,297.5,674,297.5,674,297.5,674,297.5,674,297.5,674,297.5,674,297.5,674,297.5,674,297.5,674,297.5,674,297.5,674,297.5,674,297.5,674,297.5,674,297.5,661,295.5,661,295.5,661,295.5,661,295.5,661,295.5,661,295.5,661,295.5,661,295.5,661,295.5,661,295.5,661,295.5,661,295.5,661,295.5,661,295.5,661,295.5,661,295.5,647,292,647,292,647,292,647,292,647,292,647,292,647,292,647,292,647,292,647,292,647,292,647,292,647,292,647,292,647,292,647,292,641,284,641,284,641,284,641,284,641,284,641,284,641,284,641,284,641,284,641,284,641,284,641,284,641,284,641,284,641,284,641,284,642,301.5,642,301.5,642,301.5,642,301.5,642,301.5,642,301.5,642,301.5,642,301.5,642,301.5,642,301.5,642,301.5,642,301.5,642,301.5,642,301.5,642,301.5,642,301.5,646.5,307,646.5,307,646.5,307,646.5,307,646.5,307,646.5,307,646.5,307,646.5,307,646.5,307,646.5,307,646.5,307,646.5,307,646.5,307,646.5,307,646.5,307,646.5,307,660.5,311,660.5,311,660.5,311,660.5,311,660.5,311,660.5,311,660.5,311,660.5,311,660.5,311,660.5,311,660.5,311,660.5,311,660.5,311,660.5,311,660.5,311,660.5,311"></polygon>
    <polygon data-id="26904" data-section="8" data-section_name="8" data-build="2"
             data-build_name="5" data-floor="10" data-type="flat"
             class="s3d-svg__build js-s3d-svg__build"
             points="729.5,316.5,729.5,316.5,729.5,316.5,729.5,316.5,729.5,316.5,729.5,316.5,729.5,316.5,729.5,316.5,729.5,316.5,729.5,316.5,729.5,316.5,729.5,316.5,729.5,316.5,729.5,316.5,729.5,316.5,729.5,316.5,730,333.5,730,333.5,730,333.5,730,333.5,730,333.5,730,333.5,730,333.5,730,333.5,730,333.5,730,333.5,730,333.5,730,333.5,730,333.5,730,333.5,730,333.5,730,333.5,760.5,343.5,760.5,343.5,760.5,343.5,760.5,343.5,760.5,343.5,760.5,343.5,760.5,343.5,760.5,343.5,760.5,343.5,760.5,343.5,760.5,343.5,760.5,343.5,760.5,343.5,760.5,343.5,760.5,343.5,760.5,343.5,768.5,341,768.5,341,768.5,341,768.5,341,768.5,341,768.5,341,768.5,341,768.5,341,768.5,341,768.5,341,768.5,341,768.5,341,768.5,341,768.5,341,768.5,341,768.5,341,777.5,345,777.5,345,777.5,345,777.5,345,777.5,345,777.5,345,777.5,345,777.5,345,777.5,345,777.5,345,777.5,345,777.5,345,777.5,345,777.5,345,777.5,345,777.5,345,779,326.5,779,326.5,779,326.5,779,326.5,779,326.5,779,326.5,779,326.5,779,326.5,779,326.5,779,326.5,779,326.5,779,326.5,779,326.5,779,326.5,779,326.5,779,326.5,768,323.5,768,323.5,768,323.5,768,323.5,768,323.5,768,323.5,768,323.5,768,323.5,768,323.5,768,323.5,768,323.5,768,323.5,768,323.5,768,323.5,768,323.5,768,323.5,760,325,760,325,760,325,760,325,760,325,760,325,760,325,760,325,760,325,760,325,760,325,760,325,760,325,760,325,760,325,760,325"></polygon>
    <polygon data-id="26657" data-section="8" data-section_name="8" data-build="2"
             data-build_name="5" data-floor="11" data-type="flat"
             class="s3d-svg__build js-s3d-svg__build"
             points="674,297.5,674,297.5,674,297.5,674,297.5,674,297.5,674,297.5,674,297.5,674,297.5,674,297.5,674,297.5,674,297.5,674,297.5,674,297.5,674,297.5,674,297.5,674,297.5,674,280.5,674,280.5,674,280.5,674,280.5,674,280.5,674,280.5,674,280.5,674,280.5,674,280.5,674,280.5,674,280.5,674,280.5,674,280.5,674,280.5,674,280.5,674,280.5,660.5,275,660.5,275,660.5,275,660.5,275,660.5,275,660.5,275,660.5,275,660.5,275,660.5,275,660.5,275,660.5,275,660.5,275,660.5,275,660.5,275,660.5,275,660.5,275,645,272,645,272,645,272,645,272,645,272,645,272,645,272,645,272,645,272,645,272,645,272,645,272,645,272,645,272,645,272,645,272,641,269.5,641,269.5,641,269.5,641,269.5,641,269.5,641,269.5,641,269.5,641,269.5,641,269.5,641,269.5,641,269.5,641,269.5,641,269.5,641,269.5,641,269.5,641,269.5,641,284,641,284,641,284,641,284,641,284,641,284,641,284,641,284,641,284,641,284,641,284,641,284,641,284,641,284,641,284,641,284,647,292,647,292,647,292,647,292,647,292,647,292,647,292,647,292,647,292,647,292,647,292,647,292,647,292,647,292,647,292,647,292,661,295.5,661,295.5,661,295.5,661,295.5,661,295.5,661,295.5,661,295.5,661,295.5,661,295.5,661,295.5,661,295.5,661,295.5,661,295.5,661,295.5,661,295.5,661,295.5"></polygon>
    <polygon data-id="26905" data-section="8" data-section_name="8" data-build="2"
             data-build_name="5" data-floor="11" data-type="flat"
             class="s3d-svg__build js-s3d-svg__build"
             points="729.5,316.5,729.5,316.5,729.5,316.5,729.5,316.5,729.5,316.5,729.5,316.5,729.5,316.5,729.5,316.5,729.5,316.5,729.5,316.5,729.5,316.5,729.5,316.5,729.5,316.5,729.5,316.5,729.5,316.5,729.5,316.5,728.5,297.5,728.5,297.5,728.5,297.5,728.5,297.5,728.5,297.5,728.5,297.5,728.5,297.5,728.5,297.5,728.5,297.5,728.5,297.5,728.5,297.5,728.5,297.5,728.5,297.5,728.5,297.5,728.5,297.5,728.5,297.5,762,306,762,306,762,306,762,306,762,306,762,306,762,306,762,306,762,306,762,306,762,306,762,306,762,306,762,306,762,306,762,306,768.5,306,768.5,306,768.5,306,768.5,306,768.5,306,768.5,306,768.5,306,768.5,306,768.5,306,768.5,306,768.5,306,768.5,306,768.5,306,768.5,306,768.5,306,768.5,306,779,308,779,308,779,308,779,308,779,308,779,308,779,308,779,308,779,308,779,308,779,308,779,308,779,308,779,308,779,308,779,308,779,326.5,779,326.5,779,326.5,779,326.5,779,326.5,779,326.5,779,326.5,779,326.5,779,326.5,779,326.5,779,326.5,779,326.5,779,326.5,779,326.5,779,326.5,779,326.5,768,323.5,768,323.5,768,323.5,768,323.5,768,323.5,768,323.5,768,323.5,768,323.5,768,323.5,768,323.5,768,323.5,768,323.5,768,323.5,768,323.5,768,323.5,768,323.5,760,325,760,325,760,325,760,325,760,325,760,325,760,325,760,325,760,325,760,325,760,325,760,325,760,325,760,325,760,325,760,325"></polygon>
    <polygon data-id="26658" data-section="8" data-section_name="8" data-build="2"
             data-build_name="5" data-floor="12" data-type="flat"
             class="s3d-svg__build js-s3d-svg__build"
             points="674.5,263,674.5,263,674.5,263,674.5,263,674.5,263,674.5,263,674.5,263,674.5,263,674.5,263,674.5,263,674.5,263,674.5,263,674.5,263,674.5,263,674.5,263,674.5,263,662,260.5,662,260.5,662,260.5,662,260.5,662,260.5,662,260.5,662,260.5,662,260.5,662,260.5,662,260.5,662,260.5,662,260.5,662,260.5,662,260.5,662,260.5,662,260.5,645.5,256,645.5,256,645.5,256,645.5,256,645.5,256,645.5,256,645.5,256,645.5,256,645.5,256,645.5,256,645.5,256,645.5,256,645.5,256,645.5,256,645.5,256,645.5,256,641.5,251,641.5,251,641.5,251,641.5,251,641.5,251,641.5,251,641.5,251,641.5,251,641.5,251,641.5,251,641.5,251,641.5,251,641.5,251,641.5,251,641.5,251,641.5,251,641,269.5,641,269.5,641,269.5,641,269.5,641,269.5,641,269.5,641,269.5,641,269.5,641,269.5,641,269.5,641,269.5,641,269.5,641,269.5,641,269.5,641,269.5,641,269.5,645,272,645,272,645,272,645,272,645,272,645,272,645,272,645,272,645,272,645,272,645,272,645,272,645,272,645,272,645,272,645,272,660.5,275,660.5,275,660.5,275,660.5,275,660.5,275,660.5,275,660.5,275,660.5,275,660.5,275,660.5,275,660.5,275,660.5,275,660.5,275,660.5,275,660.5,275,660.5,275,674,280.5,674,280.5,674,280.5,674,280.5,674,280.5,674,280.5,674,280.5,674,280.5,674,280.5,674,280.5,674,280.5,674,280.5,674,280.5,674,280.5,674,280.5,674,280.5"></polygon>
    <polygon data-id="26906" data-section="8" data-section_name="8" data-build="2"
             data-build_name="5" data-floor="12" data-type="flat"
             class="s3d-svg__build js-s3d-svg__build"
             points="758.5,288,758.5,288,758.5,288,758.5,288,758.5,288,758.5,288,758.5,288,758.5,288,758.5,288,758.5,288,758.5,288,758.5,288,758.5,288,758.5,288,758.5,288,758.5,288,768,288,768,288,768,288,768,288,768,288,768,288,768,288,768,288,768,288,768,288,768,288,768,288,768,288,768,288,768,288,768,288,778.5,291.5,778.5,291.5,778.5,291.5,778.5,291.5,778.5,291.5,778.5,291.5,778.5,291.5,778.5,291.5,778.5,291.5,778.5,291.5,778.5,291.5,778.5,291.5,778.5,291.5,778.5,291.5,778.5,291.5,778.5,291.5,779,308,779,308,779,308,779,308,779,308,779,308,779,308,779,308,779,308,779,308,779,308,779,308,779,308,779,308,779,308,779,308,768.5,306,768.5,306,768.5,306,768.5,306,768.5,306,768.5,306,768.5,306,768.5,306,768.5,306,768.5,306,768.5,306,768.5,306,768.5,306,768.5,306,768.5,306,768.5,306,762,306,762,306,762,306,762,306,762,306,762,306,762,306,762,306,762,306,762,306,762,306,762,306,762,306,762,306,762,306,762,306,728.5,297.5,728.5,297.5,728.5,297.5,728.5,297.5,728.5,297.5,728.5,297.5,728.5,297.5,728.5,297.5,728.5,297.5,728.5,297.5,728.5,297.5,728.5,297.5,728.5,297.5,728.5,297.5,728.5,297.5,728.5,297.5,728,278.5,728,278.5,728,278.5,728,278.5,728,278.5,728,278.5,728,278.5,728,278.5,728,278.5,728,278.5,728,278.5,728,278.5,728,278.5,728,278.5,728,278.5,728,278.5"></polygon>
    <polygon data-id="26659" data-section="8" data-section_name="8" data-build="2"
             data-build_name="5" data-floor="13" data-type="flat"
             class="s3d-svg__build js-s3d-svg__build"
             points="674.5,263,674.5,263,674.5,263,674.5,263,674.5,263,674.5,263,674.5,263,674.5,263,674.5,263,674.5,263,674.5,263,674.5,263,674.5,263,674.5,263,674.5,263,674.5,263,673.5,244,673.5,244,673.5,244,673.5,244,673.5,244,673.5,244,673.5,244,673.5,244,673.5,244,673.5,244,673.5,244,673.5,244,673.5,244,673.5,244,673.5,244,673.5,244,660,241,660,241,660,241,660,241,660,241,660,241,660,241,660,241,660,241,660,241,660,241,660,241,660,241,660,241,660,241,660,241,646,237.5,646,237.5,646,237.5,646,237.5,646,237.5,646,237.5,646,237.5,646,237.5,646,237.5,646,237.5,646,237.5,646,237.5,646,237.5,646,237.5,646,237.5,646,237.5,639.5,232.5,639.5,232.5,639.5,232.5,639.5,232.5,639.5,232.5,639.5,232.5,639.5,232.5,639.5,232.5,639.5,232.5,639.5,232.5,639.5,232.5,639.5,232.5,639.5,232.5,639.5,232.5,639.5,232.5,639.5,232.5,641.5,251,641.5,251,641.5,251,641.5,251,641.5,251,641.5,251,641.5,251,641.5,251,641.5,251,641.5,251,641.5,251,641.5,251,641.5,251,641.5,251,641.5,251,641.5,251,645.5,256,645.5,256,645.5,256,645.5,256,645.5,256,645.5,256,645.5,256,645.5,256,645.5,256,645.5,256,645.5,256,645.5,256,645.5,256,645.5,256,645.5,256,645.5,256,662,260.5,662,260.5,662,260.5,662,260.5,662,260.5,662,260.5,662,260.5,662,260.5,662,260.5,662,260.5,662,260.5,662,260.5,662,260.5,662,260.5,662,260.5,662,260.5"></polygon>
    <polygon data-id="26907" data-section="8" data-section_name="8" data-build="2"
             data-build_name="5" data-floor="13" data-type="flat"
             class="s3d-svg__build js-s3d-svg__build"
             points="758.5,271,758.5,271,758.5,271,758.5,271,758.5,271,758.5,271,758.5,271,758.5,271,758.5,271,758.5,271,758.5,271,758.5,271,758.5,271,758.5,271,758.5,271,758.5,271,768,270,768,270,768,270,768,270,768,270,768,270,768,270,768,270,768,270,768,270,768,270,768,270,768,270,768,270,768,270,768,270,779.5,272.5,779.5,272.5,779.5,272.5,779.5,272.5,779.5,272.5,779.5,272.5,779.5,272.5,779.5,272.5,779.5,272.5,779.5,272.5,779.5,272.5,779.5,272.5,779.5,272.5,779.5,272.5,779.5,272.5,779.5,272.5,778.5,291.5,778.5,291.5,778.5,291.5,778.5,291.5,778.5,291.5,778.5,291.5,778.5,291.5,778.5,291.5,778.5,291.5,778.5,291.5,778.5,291.5,778.5,291.5,778.5,291.5,778.5,291.5,778.5,291.5,778.5,291.5,768,288,768,288,768,288,768,288,768,288,768,288,768,288,768,288,768,288,768,288,768,288,768,288,768,288,768,288,768,288,768,288,758.5,288,758.5,288,758.5,288,758.5,288,758.5,288,758.5,288,758.5,288,758.5,288,758.5,288,758.5,288,758.5,288,758.5,288,758.5,288,758.5,288,758.5,288,758.5,288,728,278.5,728,278.5,728,278.5,728,278.5,728,278.5,728,278.5,728,278.5,728,278.5,728,278.5,728,278.5,728,278.5,728,278.5,728,278.5,728,278.5,728,278.5,728,278.5,729.5,260.5,729.5,260.5,729.5,260.5,729.5,260.5,729.5,260.5,729.5,260.5,729.5,260.5,729.5,260.5,729.5,260.5,729.5,260.5,729.5,260.5,729.5,260.5,729.5,260.5,729.5,260.5,729.5,260.5,729.5,260.5"></polygon>
    <polygon data-id="26660" data-section="8" data-section_name="8" data-build="2"
             data-build_name="5" data-floor="14" data-type="flat"
             class="s3d-svg__build js-s3d-svg__build"
             points="673.5,244,673.5,244,673.5,244,673.5,244,673.5,244,673.5,244,673.5,244,673.5,244,673.5,244,673.5,244,673.5,244,673.5,244,673.5,244,673.5,244,673.5,244,673.5,244,674.5,227.5,674.5,227.5,674.5,227.5,674.5,227.5,674.5,227.5,674.5,227.5,674.5,227.5,674.5,227.5,674.5,227.5,674.5,227.5,674.5,227.5,674.5,227.5,674.5,227.5,674.5,227.5,674.5,227.5,674.5,227.5,659.5,223.5,659.5,223.5,659.5,223.5,659.5,223.5,659.5,223.5,659.5,223.5,659.5,223.5,659.5,223.5,659.5,223.5,659.5,223.5,659.5,223.5,659.5,223.5,659.5,223.5,659.5,223.5,659.5,223.5,659.5,223.5,646.5,221.5,646.5,221.5,646.5,221.5,646.5,221.5,646.5,221.5,646.5,221.5,646.5,221.5,646.5,221.5,646.5,221.5,646.5,221.5,646.5,221.5,646.5,221.5,646.5,221.5,646.5,221.5,646.5,221.5,646.5,221.5,638.5,215,638.5,215,638.5,215,638.5,215,638.5,215,638.5,215,638.5,215,638.5,215,638.5,215,638.5,215,638.5,215,638.5,215,638.5,215,638.5,215,638.5,215,638.5,215,639.5,232.5,639.5,232.5,639.5,232.5,639.5,232.5,639.5,232.5,639.5,232.5,639.5,232.5,639.5,232.5,639.5,232.5,639.5,232.5,639.5,232.5,639.5,232.5,639.5,232.5,639.5,232.5,639.5,232.5,639.5,232.5,646,237.5,646,237.5,646,237.5,646,237.5,646,237.5,646,237.5,646,237.5,646,237.5,646,237.5,646,237.5,646,237.5,646,237.5,646,237.5,646,237.5,646,237.5,646,237.5,660,241,660,241,660,241,660,241,660,241,660,241,660,241,660,241,660,241,660,241,660,241,660,241,660,241,660,241,660,241,660,241"></polygon>
    <polygon data-id="26908" data-section="8" data-section_name="8" data-build="2"
             data-build_name="5" data-floor="14" data-type="flat"
             class="s3d-svg__build js-s3d-svg__build"
             points="760.5,252,760.5,252,760.5,252,760.5,252,760.5,252,760.5,252,760.5,252,760.5,252,760.5,252,760.5,252,760.5,252,760.5,252,760.5,252,760.5,252,760.5,252,760.5,252,769.5,251.5,769.5,251.5,769.5,251.5,769.5,251.5,769.5,251.5,769.5,251.5,769.5,251.5,769.5,251.5,769.5,251.5,769.5,251.5,769.5,251.5,769.5,251.5,769.5,251.5,769.5,251.5,769.5,251.5,769.5,251.5,780.5,253.5,780.5,253.5,780.5,253.5,780.5,253.5,780.5,253.5,780.5,253.5,780.5,253.5,780.5,253.5,780.5,253.5,780.5,253.5,780.5,253.5,780.5,253.5,780.5,253.5,780.5,253.5,780.5,253.5,780.5,253.5,779.5,272.5,779.5,272.5,779.5,272.5,779.5,272.5,779.5,272.5,779.5,272.5,779.5,272.5,779.5,272.5,779.5,272.5,779.5,272.5,779.5,272.5,779.5,272.5,779.5,272.5,779.5,272.5,779.5,272.5,779.5,272.5,768,270,768,270,768,270,768,270,768,270,768,270,768,270,768,270,768,270,768,270,768,270,768,270,768,270,768,270,768,270,768,270,758.5,271,758.5,271,758.5,271,758.5,271,758.5,271,758.5,271,758.5,271,758.5,271,758.5,271,758.5,271,758.5,271,758.5,271,758.5,271,758.5,271,758.5,271,758.5,271,729.5,260.5,729.5,260.5,729.5,260.5,729.5,260.5,729.5,260.5,729.5,260.5,729.5,260.5,729.5,260.5,729.5,260.5,729.5,260.5,729.5,260.5,729.5,260.5,729.5,260.5,729.5,260.5,729.5,260.5,729.5,260.5,728,243,728,243,728,243,728,243,728,243,728,243,728,243,728,243,728,243,728,243,728,243,728,243,728,243,728,243,728,243,728,243"></polygon>
    <polygon data-id="26661" data-section="8" data-section_name="8" data-build="2"
             data-build_name="5" data-floor="15" data-type="flat"
             class="s3d-svg__build js-s3d-svg__build"
             points="673.5,209,673.5,209,673.5,209,673.5,209,673.5,209,673.5,209,673.5,209,673.5,209,673.5,209,673.5,209,673.5,209,673.5,209,673.5,209,673.5,209,673.5,209,673.5,209,674.5,227.5,674.5,227.5,674.5,227.5,674.5,227.5,674.5,227.5,674.5,227.5,674.5,227.5,674.5,227.5,674.5,227.5,674.5,227.5,674.5,227.5,674.5,227.5,674.5,227.5,674.5,227.5,674.5,227.5,674.5,227.5,659.5,223.5,659.5,223.5,659.5,223.5,659.5,223.5,659.5,223.5,659.5,223.5,659.5,223.5,659.5,223.5,659.5,223.5,659.5,223.5,659.5,223.5,659.5,223.5,659.5,223.5,659.5,223.5,659.5,223.5,659.5,223.5,646.5,221.5,646.5,221.5,646.5,221.5,646.5,221.5,646.5,221.5,646.5,221.5,646.5,221.5,646.5,221.5,646.5,221.5,646.5,221.5,646.5,221.5,646.5,221.5,646.5,221.5,646.5,221.5,646.5,221.5,646.5,221.5,638.5,215,638.5,215,638.5,215,638.5,215,638.5,215,638.5,215,638.5,215,638.5,215,638.5,215,638.5,215,638.5,215,638.5,215,638.5,215,638.5,215,638.5,215,638.5,215,639,199.5,639,199.5,639,199.5,639,199.5,639,199.5,639,199.5,639,199.5,639,199.5,639,199.5,639,199.5,639,199.5,639,199.5,639,199.5,639,199.5,639,199.5,639,199.5,647.5,205,647.5,205,647.5,205,647.5,205,647.5,205,647.5,205,647.5,205,647.5,205,647.5,205,647.5,205,647.5,205,647.5,205,647.5,205,647.5,205,647.5,205,647.5,205,659.5,206,659.5,206,659.5,206,659.5,206,659.5,206,659.5,206,659.5,206,659.5,206,659.5,206,659.5,206,659.5,206,659.5,206,659.5,206,659.5,206,659.5,206,659.5,206"></polygon>
    <polygon data-id="26909" data-section="8" data-section_name="8" data-build="2"
             data-build_name="5" data-floor="15" data-type="flat"
             class="s3d-svg__build js-s3d-svg__build"
             points="759.5,234.5,759.5,234.5,759.5,234.5,759.5,234.5,759.5,234.5,759.5,234.5,759.5,234.5,759.5,234.5,759.5,234.5,759.5,234.5,759.5,234.5,759.5,234.5,759.5,234.5,759.5,234.5,759.5,234.5,759.5,234.5,771,233,771,233,771,233,771,233,771,233,771,233,771,233,771,233,771,233,771,233,771,233,771,233,771,233,771,233,771,233,771,233,780,234.5,780,234.5,780,234.5,780,234.5,780,234.5,780,234.5,780,234.5,780,234.5,780,234.5,780,234.5,780,234.5,780,234.5,780,234.5,780,234.5,780,234.5,780,234.5,780.5,253.5,780.5,253.5,780.5,253.5,780.5,253.5,780.5,253.5,780.5,253.5,780.5,253.5,780.5,253.5,780.5,253.5,780.5,253.5,780.5,253.5,780.5,253.5,780.5,253.5,780.5,253.5,780.5,253.5,780.5,253.5,769.5,251.5,769.5,251.5,769.5,251.5,769.5,251.5,769.5,251.5,769.5,251.5,769.5,251.5,769.5,251.5,769.5,251.5,769.5,251.5,769.5,251.5,769.5,251.5,769.5,251.5,769.5,251.5,769.5,251.5,769.5,251.5,760.5,252,760.5,252,760.5,252,760.5,252,760.5,252,760.5,252,760.5,252,760.5,252,760.5,252,760.5,252,760.5,252,760.5,252,760.5,252,760.5,252,760.5,252,760.5,252,728,243,728,243,728,243,728,243,728,243,728,243,728,243,728,243,728,243,728,243,728,243,728,243,728,243,728,243,728,243,728,243,728.5,226,728.5,226,728.5,226,728.5,226,728.5,226,728.5,226,728.5,226,728.5,226,728.5,226,728.5,226,728.5,226,728.5,226,728.5,226,728.5,226,728.5,226,728.5,226"></polygon>
    <polygon data-id="26268" data-section="7" data-section_name="7" data-build="2"
             data-build_name="5" data-floor="2" data-type="flat"
             class="s3d-svg__build js-s3d-svg__build"
             points="627,426,627,426,627.5,413.5,627.5,413.5,642.5,419,642.5,419,644.5,432,644.5,432"></polygon>
    <polygon data-id="26269" data-section="7" data-section_name="7" data-build="2"
             data-build_name="5" data-floor="13" data-type="flat"
             class="s3d-svg__build js-s3d-svg__build"
             points="539,222.5,539,222.5,539,222.5,539,222.5,539,222.5,539,222.5,539,222.5,539,222.5,539,222.5,539,222.5,539,222.5,539,222.5,539,222.5,539,222.5,539,222.5,539,222.5,539.5,205.5,539.5,205.5,539.5,205.5,539.5,205.5,539.5,205.5,539.5,205.5,539.5,205.5,539.5,205.5,539.5,205.5,539.5,205.5,539.5,205.5,539.5,205.5,539.5,205.5,539.5,205.5,539.5,205.5,539.5,205.5,528,204,528,204,528,204,528,204,528,204,528,204,528,204,528,204,528,204,528,204,528,204,528,204,528,204,528,204,528,204,528,204,515.5,200.5,515.5,200.5,515.5,200.5,515.5,200.5,515.5,200.5,515.5,200.5,515.5,200.5,515.5,200.5,515.5,200.5,515.5,200.5,515.5,200.5,515.5,200.5,515.5,200.5,515.5,200.5,515.5,200.5,515.5,200.5,515,217,515,217,515,217,515,217,515,217,515,217,515,217,515,217,515,217,515,217,515,217,515,217,515,217,515,217,515,217,515,217,527.5,219.5,527.5,219.5,527.5,219.5,527.5,219.5,527.5,219.5,527.5,219.5,527.5,219.5,527.5,219.5,527.5,219.5,527.5,219.5,527.5,219.5,527.5,219.5,527.5,219.5,527.5,219.5,527.5,219.5,527.5,219.5"></polygon>
    <polygon data-id="26270" data-section="7" data-section_name="7" data-build="2"
             data-build_name="5" data-floor="15" data-type="flat"
             class="s3d-svg__build js-s3d-svg__build"
             points="538.5,189.5,538.5,189.5,538.5,189.5,538.5,189.5,538.5,189.5,538.5,189.5,538.5,189.5,538.5,189.5,538.5,189.5,538.5,189.5,538.5,189.5,538.5,189.5,538.5,189.5,538.5,189.5,538.5,189.5,538.5,189.5,537.5,170.5,537.5,170.5,537.5,170.5,537.5,170.5,537.5,170.5,537.5,170.5,537.5,170.5,537.5,170.5,537.5,170.5,537.5,170.5,537.5,170.5,537.5,170.5,537.5,170.5,537.5,170.5,537.5,170.5,537.5,170.5,526,169,526,169,526,169,526,169,526,169,526,169,526,169,526,169,526,169,526,169,526,169,526,169,526,169,526,169,526,169,526,169,513,167,513,167,513,167,513,167,513,167,513,167,513,167,513,167,513,167,513,167,513,167,513,167,513,167,513,167,513,167,513,167,514,184,514,184,514,184,514,184,514,184,514,184,514,184,514,184,514,184,514,184,514,184,514,184,514,184,514,184,514,184,514,184,523.5,185.5,523.5,185.5,523.5,185.5,523.5,185.5,523.5,185.5,523.5,185.5,523.5,185.5,523.5,185.5,523.5,185.5,523.5,185.5,523.5,185.5,523.5,185.5,523.5,185.5,523.5,185.5,523.5,185.5,523.5,185.5"></polygon>
    <polygon data-id="27030" data-section="10" data-section_name="10" data-build="2"
             data-build_name="5" data-floor="2" data-type="flat"
             class="s3d-svg__build js-s3d-svg__build"
             points="867.66666666667,639,867.66666666667,639,867.66666666667,639,867.66666666667,639,842.33333333333,628.66666666667,842.33333333333,628.66666666667,842.33333333333,628.66666666667,842.33333333333,628.66666666667,842.66666666667,606,842.66666666667,606,842.66666666667,606,842.66666666667,606,869.33333333333,617,869.33333333333,617,869.33333333333,617,869.33333333333,617"></polygon>
    <polygon data-id="27031" data-section="10" data-section_name="10" data-build="2"
             data-build_name="5" data-floor="3" data-type="flat"
             class="s3d-svg__build js-s3d-svg__build"
             points="869.33333333333,617,869.33333333333,617,869.33333333333,617,869.33333333333,617,870.66666666667,597,870.66666666667,597,870.66666666667,597,870.66666666667,597,843,585.66666666667,843,585.66666666667,843,585.66666666667,843,585.66666666667,842.66666666667,606,842.66666666667,606,842.66666666667,606,842.66666666667,606"></polygon>
    <polygon data-id="27032" data-section="10" data-section_name="10" data-build="2"
             data-build_name="5" data-floor="4" data-type="flat"
             class="s3d-svg__build js-s3d-svg__build"
             points="870.66666666667,597,870.66666666667,597,870.66666666667,597,870.66666666667,597,871.33333333333,577.33333333333,871.33333333333,577.33333333333,871.33333333333,577.33333333333,871.33333333333,577.33333333333,844,567,844,567,844,567,844,567,843,585.66666666667,843,585.66666666667,843,585.66666666667,843,585.66666666667"></polygon>
    <polygon data-id="27033" data-section="10" data-section_name="10" data-build="2"
             data-build_name="5" data-floor="5" data-type="flat"
             class="s3d-svg__build js-s3d-svg__build"
             points="871.33333333333,577.33333333333,871.33333333333,577.33333333333,871.33333333333,577.33333333333,871.33333333333,577.33333333333,871.66666666667,557.33333333333,871.66666666667,557.33333333333,871.66666666667,557.33333333333,871.66666666667,557.33333333333,844.66666666667,547,844.66666666667,547,844.66666666667,547,844.66666666667,547,844,567,844,567,844,567,844,567"></polygon>
    <polygon data-id="27034" data-section="10" data-section_name="10" data-build="2"
             data-build_name="5" data-floor="6" data-type="flat"
             class="s3d-svg__build js-s3d-svg__build"
             points="871.66666666667,557.33333333333,871.66666666667,557.33333333333,871.66666666667,557.33333333333,871.66666666667,557.33333333333,872,536.66666666667,872,536.66666666667,872,536.66666666667,872,536.66666666667,846,526.66666666667,846,526.66666666667,846,526.66666666667,846,526.66666666667,844.66666666667,547,844.66666666667,547,844.66666666667,547,844.66666666667,547"></polygon>
    <polygon data-id="27035" data-section="10" data-section_name="10" data-build="2"
             data-build_name="5" data-floor="7" data-type="flat"
             class="s3d-svg__build js-s3d-svg__build"
             points="872,536.66666666667,872,536.66666666667,872,536.66666666667,872,536.66666666667,873,516.33333333333,873,516.33333333333,873,516.33333333333,873,516.33333333333,846,505.66666666667,846,505.66666666667,846,505.66666666667,846,505.66666666667,846,526.66666666667,846,526.66666666667,846,526.66666666667,846,526.66666666667"></polygon>
    <polygon data-id="27036" data-section="10" data-section_name="10" data-build="2"
             data-build_name="5" data-floor="8" data-type="flat"
             class="s3d-svg__build js-s3d-svg__build"
             points="873,516.33333333333,873,516.33333333333,873,516.33333333333,873,516.33333333333,873.33333333333,495.33333333333,873.33333333333,495.33333333333,873.33333333333,495.33333333333,873.33333333333,495.33333333333,846.33333333333,486,846.33333333333,486,846.33333333333,486,846.33333333333,486,846,505.66666666667,846,505.66666666667,846,505.66666666667,846,505.66666666667"></polygon>
    <polygon data-id="27037" data-section="10" data-section_name="10" data-build="2"
             data-build_name="5" data-floor="9" data-type="flat"
             class="s3d-svg__build js-s3d-svg__build"
             points="873.33333333333,495.33333333333,873.33333333333,495.33333333333,873.33333333333,495.33333333333,873.33333333333,495.33333333333,874.33333333333,475,874.33333333333,475,874.33333333333,475,874.33333333333,475,847.33333333333,464.66666666667,847.33333333333,464.66666666667,847.33333333333,464.66666666667,847.33333333333,464.66666666667,846.33333333333,486,846.33333333333,486,846.33333333333,486,846.33333333333,486"></polygon>
    <polygon data-id="27038" data-section="10" data-section_name="10" data-build="2"
             data-build_name="5" data-floor="10" data-type="flat"
             class="s3d-svg__build js-s3d-svg__build"
             points="874.33333333333,475,874.33333333333,475,874.33333333333,475,874.33333333333,475,875,453.33333333333,875,453.33333333333,875,453.33333333333,875,453.33333333333,848,444.33333333333,848,444.33333333333,848,444.33333333333,848,444.33333333333,847.33333333333,464.66666666667,847.33333333333,464.66666666667,847.33333333333,464.66666666667,847.33333333333,464.66666666667"></polygon>
    <polygon data-id="27039" data-section="10" data-section_name="10" data-build="2"
             data-build_name="5" data-floor="11" data-type="flat"
             class="s3d-svg__build js-s3d-svg__build"
             points="875,453.33333333333,875,453.33333333333,875,453.33333333333,875,453.33333333333,875.66666666667,432.33333333333,875.66666666667,432.33333333333,875.66666666667,432.33333333333,875.66666666667,432.33333333333,848.66666666667,423.33333333333,848.66666666667,423.33333333333,848.66666666667,423.33333333333,848.66666666667,423.33333333333,848,444.33333333333,848,444.33333333333,848,444.33333333333,848,444.33333333333"></polygon>
    <polygon data-id="27040" data-section="10" data-section_name="10" data-build="2"
             data-build_name="5" data-floor="12" data-type="flat"
             class="s3d-svg__build js-s3d-svg__build"
             points="875.66666666667,432.33333333333,875.66666666667,432.33333333333,875.66666666667,432.33333333333,875.66666666667,432.33333333333,876,410.66666666667,876,410.66666666667,876,410.66666666667,876,410.66666666667,848.66666666667,402,848.66666666667,402,848.66666666667,402,848.66666666667,402,848.66666666667,423.33333333333,848.66666666667,423.33333333333,848.66666666667,423.33333333333,848.66666666667,423.33333333333"></polygon>
    <polygon data-id="27041" data-section="10" data-section_name="10" data-build="2"
             data-build_name="5" data-floor="13" data-type="flat"
             class="s3d-svg__build js-s3d-svg__build"
             points="876,410.66666666667,876,410.66666666667,876,410.66666666667,876,410.66666666667,877.66666666667,389,877.66666666667,389,877.66666666667,389,877.66666666667,389,849,380.66666666667,849,380.66666666667,849,380.66666666667,849,380.66666666667,848.66666666667,402,848.66666666667,402,848.66666666667,402,848.66666666667,402"></polygon>
    <polygon data-id="27042" data-section="10" data-section_name="10" data-build="2"
             data-build_name="5" data-floor="14" data-type="flat"
             class="s3d-svg__build js-s3d-svg__build"
             points="877.66666666667,389,877.66666666667,389,877.66666666667,389,877.66666666667,389,878.66666666667,366.55554199219,878.66666666667,366.55554199219,878.66666666667,366.55554199219,878.66666666667,366.55554199219,849.83333333333,357.72220865885,849.83333333333,357.72220865885,849.83333333333,357.72220865885,849.83333333333,357.72220865885,849,380.66666666667,849,380.66666666667,849,380.66666666667,849,380.66666666667"></polygon>
    <polygon data-id="27043" data-section="10" data-section_name="10" data-build="2"
             data-build_name="5" data-floor="15" data-type="flat"
             class="s3d-svg__build js-s3d-svg__build"
             points="878.33333333333,345.16666666667,878.33333333333,345.16666666667,878.33333333333,345.16666666667,878.33333333333,345.16666666667,878.66666666667,366.55554199219,878.66666666667,366.55554199219,878.66666666667,366.55554199219,878.66666666667,366.55554199219,849.83333333333,357.72220865885,849.83333333333,357.72220865885,849.83333333333,357.72220865885,849.83333333333,357.72220865885,850,336.88887532552,850,336.88887532552,850,336.88887532552,850,336.88887532552"></polygon>
</svg>