<svg  viewBox="0 0 1440 810" id="floor--svg" version="1.0" xmlns="http://www.w3.org/2000/svg" preserveAspectRatio="xMidYMid slice"><polygon data-id="26675" data-section="8" data-section_name="8" data-build="2" data-build_name="5" data-floor="15" data-type="flat" class="s3d-svg__build js-s3d-svg__build" points="840,267.5,840,267.5,840,267.5,840,267.5,840,267.5,840,267.5,840,267.5,840,267.5,866.5,259,866.5,259,866.5,259,866.5,259,866.5,259,866.5,259,866.5,259,866.5,259,868.5,238,868.5,238,868.5,238,868.5,238,868.5,238,868.5,238,868.5,238,868.5,238,840,247,840,247,840,247,840,247,840,247,840,247,840,247,840,247"></polygon><polygon data-id="27131" data-section="10" data-section_name="10" data-build="2" data-build_name="5" data-floor="16" data-type="flat" class="s3d-svg__build js-s3d-svg__build" points="485.33333333333,332,504,326,512.66666666667,328,539,318.66666666667,539.33333333333,341,495.33333333333,358,490.33333333333,366,482.33333333333,369,469.33333333333,372.33333333333,463.33333333333,369.33333333333,460.33333333333,345,444.66666666667,337.33333333333,468.33333333333,328.33333333333"></polygon><polygon data-id="27127" data-section="10" data-section_name="10" data-build="2" data-build_name="5" data-floor="15" data-type="flat" class="s3d-svg__build js-s3d-svg__build" points="295.66536458333,340.08333333333,295.66536458333,340.08333333333,295.66536458333,340.08333333333,295.66536458333,340.08333333333,295.66536458333,340.08333333333,295.66536458333,340.08333333333,295.66536458333,340.08333333333,295.66536458333,340.08333333333,295.66536458333,340.08333333333,295.66536458333,340.08333333333,295.66536458333,340.08333333333,295.66536458333,340.08333333333,295.66536458333,340.08333333333,295.66536458333,340.08333333333,295.66536458333,340.08333333333,295.66536458333,340.08333333333,297.66536458333,361.83333333333,297.66536458333,361.83333333333,297.66536458333,361.83333333333,297.66536458333,361.83333333333,297.66536458333,361.83333333333,297.66536458333,361.83333333333,297.66536458333,361.83333333333,297.66536458333,361.83333333333,297.66536458333,361.83333333333,297.66536458333,361.83333333333,297.66536458333,361.83333333333,297.66536458333,361.83333333333,297.66536458333,361.83333333333,297.66536458333,361.83333333333,297.66536458333,361.83333333333,297.66536458333,361.83333333333,263.16536458333,350.16666666667,263.16536458333,350.16666666667,263.16536458333,350.16666666667,263.16536458333,350.16666666667,263.16536458333,350.16666666667,263.16536458333,350.16666666667,263.16536458333,350.16666666667,263.16536458333,350.16666666667,263.16536458333,350.16666666667,263.16536458333,350.16666666667,263.16536458333,350.16666666667,263.16536458333,350.16666666667,263.16536458333,350.16666666667,263.16536458333,350.16666666667,263.16536458333,350.16666666667,263.16536458333,350.16666666667,260.49869791667,328.08333333333,260.49869791667,328.08333333333,260.49869791667,328.08333333333,260.49869791667,328.08333333333,260.49869791667,328.08333333333,260.49869791667,328.08333333333,260.49869791667,328.08333333333,260.49869791667,328.08333333333,260.49869791667,328.08333333333,260.49869791667,328.08333333333,260.49869791667,328.08333333333,260.49869791667,328.08333333333,260.49869791667,328.08333333333,260.49869791667,328.08333333333,260.49869791667,328.08333333333,260.49869791667,328.08333333333"></polygon><polygon data-id="27113" data-section="10" data-section_name="10" data-build="2" data-build_name="5" data-floor="15" data-type="flat" class="s3d-svg__build js-s3d-svg__build" points="428.33333333333,383.66666666667,463.33333333333,369.33333333333,465.66666666667,392.33333333333,443.33333333333,401,432,397.66666666667,423.33333333333,401,400,394,393.66666666667,395.33333333333,372.66666666667,388.66666666667,363.33333333333,386.33333333333,356.33333333333,383.66666666667,354.33333333333,360.33333333333,361.66666666667,363.66666666667,370,365"></polygon><polygon data-id="26268" data-section="7" data-section_name="7" data-build="2" data-build_name="5" data-floor="2" data-type="flat" class="s3d-svg__build js-s3d-svg__build" points="863,482,863,482,863,482,863,482,863,482,863,482,863,482,863,482,863,465.5,863,465.5,863,465.5,863,465.5,863,465.5,863,465.5,863,465.5,863,465.5,874.5,460,874.5,460,874.5,460,874.5,460,874.5,460,874.5,460,874.5,460,874.5,460,875,477.5,875,477.5,875,477.5,875,477.5,875,477.5,875,477.5,875,477.5,875,477.5"></polygon><polygon data-id="26271" data-section="7" data-section_name="7" data-build="2" data-build_name="5" data-floor="6" data-type="flat" class="s3d-svg__build js-s3d-svg__build" points="948.5,358.5,948.5,358.5,948.5,358.5,948.5,358.5,948.5,358.5,948.5,358.5,948.5,358.5,948.5,358.5,948.5,358.5,948.5,358.5,948.5,358.5,948.5,358.5,948.5,358.5,948.5,358.5,948.5,358.5,948.5,358.5,948,376,948,376,948,376,948,376,948,376,948,376,948,376,948,376,948,376,948,376,948,376,948,376,948,376,948,376,948,376,948,376,968,364,968,364,968,364,968,364,968,364,968,364,968,364,968,364,968,364,968,364,968,364,968,364,968,364,968,364,968,364,968,364,971,345.5,971,345.5,971,345.5,971,345.5,971,345.5,971,345.5,971,345.5,971,345.5,971,345.5,971,345.5,971,345.5,971,345.5,971,345.5,971,345.5,971,345.5,971,345.5"></polygon><polygon data-id="26637" data-section="8" data-section_name="8" data-build="2" data-build_name="5" data-floor="2" data-type="flat" class="s3d-svg__build js-s3d-svg__build" points="789,538,789,538,789,538,789,538,789,538,789,538,789,538,789,538,789.5,520,789.5,520,789.5,520,789.5,520,789.5,520,789.5,520,789.5,520,789.5,520,760.5,534,760.5,534,760.5,534,760.5,534,760.5,534,760.5,534,760.5,534,760.5,534,761,555,761,555,761,555,761,555,761,555,761,555,761,555,761,555"></polygon><polygon data-id="26662" data-section="8" data-section_name="8" data-build="2" data-build_name="5" data-floor="2" data-type="flat" class="s3d-svg__build js-s3d-svg__build" points="862.5,491,862.5,491,862.5,491,862.5,491,862.5,491,862.5,491,862.5,491,862.5,491,861.5,476,861.5,476,861.5,476,861.5,476,861.5,476,861.5,476,861.5,476,861.5,476,834.5,492.5,834.5,492.5,834.5,492.5,834.5,492.5,834.5,492.5,834.5,492.5,834.5,492.5,834.5,492.5,834,509,834,509,834,509,834,509,834,509,834,509,834,509,834,509"></polygon><polygon data-id="26663" data-section="8" data-section_name="8" data-build="2" data-build_name="5" data-floor="3" data-type="flat" class="s3d-svg__build js-s3d-svg__build" points="861.5,476,861.5,476,861.5,476,861.5,476,861.5,476,861.5,476,861.5,476,861.5,476,834.5,492.5,834.5,492.5,834.5,492.5,834.5,492.5,834.5,492.5,834.5,492.5,834.5,492.5,834.5,492.5,833.5,474,833.5,474,833.5,474,833.5,474,833.5,474,833.5,474,833.5,474,833.5,474,861,458.5,861,458.5,861,458.5,861,458.5,861,458.5,861,458.5,861,458.5,861,458.5"></polygon><polygon data-id="26664" data-section="8" data-section_name="8" data-build="2" data-build_name="5" data-floor="4" data-type="flat" class="s3d-svg__build js-s3d-svg__build" points="833.5,474,833.5,474,833.5,474,833.5,474,833.5,474,833.5,474,833.5,474,833.5,474,861,458.5,861,458.5,861,458.5,861,458.5,861,458.5,861,458.5,861,458.5,861,458.5,861,443,861,443,861,443,861,443,861,443,861,443,861,443,861,443,835.5,454.5,835.5,454.5,835.5,454.5,835.5,454.5,835.5,454.5,835.5,454.5,835.5,454.5,835.5,454.5"></polygon><polygon data-id="26665" data-section="8" data-section_name="8" data-build="2" data-build_name="5" data-floor="5" data-type="flat" class="s3d-svg__build js-s3d-svg__build" points="835.5,454.5,835.5,454.5,835.5,454.5,835.5,454.5,835.5,454.5,835.5,454.5,835.5,454.5,835.5,454.5,861,443,861,443,861,443,861,443,861,443,861,443,861,443,861,443,861.5,424,861.5,424,861.5,424,861.5,424,861.5,424,861.5,424,861.5,424,861.5,424,835,437,835,437,835,437,835,437,835,437,835,437,835,437,835,437"></polygon><polygon data-id="26629" data-section="8" data-section_name="8" data-build="2" data-build_name="5" data-floor="6" data-type="flat" class="s3d-svg__build js-s3d-svg__build" points="754,476.5,754,476.5,754,476.5,754,476.5,754,476.5,754,476.5,754,476.5,754,476.5,754,476.5,754,476.5,754,476.5,754,476.5,754,476.5,754,476.5,754,476.5,754,476.5,754,476.5,754,476.5,754,476.5,754,476.5,754,476.5,754,476.5,754,476.5,754,476.5,754,476.5,754,476.5,754,476.5,754,476.5,754,476.5,754,476.5,754,476.5,754,476.5,740,482.5,740,482.5,740,482.5,740,482.5,740,482.5,740,482.5,740,482.5,740,482.5,740,482.5,740,482.5,740,482.5,740,482.5,740,482.5,740,482.5,740,482.5,740,482.5,740,482.5,740,482.5,740,482.5,740,482.5,740,482.5,740,482.5,740,482.5,740,482.5,740,482.5,740,482.5,740,482.5,740,482.5,740,482.5,740,482.5,740,482.5,740,482.5,738.5,463,738.5,463,738.5,463,738.5,463,738.5,463,738.5,463,738.5,463,738.5,463,738.5,463,738.5,463,738.5,463,738.5,463,738.5,463,738.5,463,738.5,463,738.5,463,738.5,463,738.5,463,738.5,463,738.5,463,738.5,463,738.5,463,738.5,463,738.5,463,738.5,463,738.5,463,738.5,463,738.5,463,738.5,463,738.5,463,738.5,463,738.5,463,754,456,754,456,754,456,754,456,754,456,754,456,754,456,754,456,754,456,754,456,754,456,754,456,754,456,754,456,754,456,754,456,754,456,754,456,754,456,754,456,754,456,754,456,754,456,754,456,754,456,754,456,754,456,754,456,754,456,754,456,754,456,754,456"></polygon><polygon data-id="26666" data-section="8" data-section_name="8" data-build="2" data-build_name="5" data-floor="6" data-type="flat" class="s3d-svg__build js-s3d-svg__build" points="835,437,835,437,835,437,835,437,835,437,835,437,835,437,835,437,861.5,424,861.5,424,861.5,424,861.5,424,861.5,424,861.5,424,861.5,424,861.5,424,862.5,408,862.5,408,862.5,408,862.5,408,862.5,408,862.5,408,862.5,408,862.5,408,835,418.5,835,418.5,835,418.5,835,418.5,835,418.5,835,418.5,835,418.5,835,418.5"></polygon><polygon data-id="26638" data-section="8" data-section_name="8" data-build="2" data-build_name="5" data-floor="7" data-type="flat" class="s3d-svg__build js-s3d-svg__build" points="791.5,446.5,791.5,446.5,791.5,446.5,791.5,446.5,791.5,446.5,791.5,446.5,791.5,446.5,791.5,446.5,762,458.5,762,458.5,762,458.5,762,458.5,762,458.5,762,458.5,762,458.5,762,458.5,761.5,440,761.5,440,761.5,440,761.5,440,761.5,440,761.5,440,761.5,440,761.5,440,791,425,791,425,791,425,791,425,791,425,791,425,791,425,791,425"></polygon><polygon data-id="26668" data-section="8" data-section_name="8" data-build="2" data-build_name="5" data-floor="8" data-type="flat" class="s3d-svg__build js-s3d-svg__build" points="864.5,389.5,864.5,389.5,864.5,389.5,864.5,389.5,864.5,389.5,864.5,389.5,864.5,389.5,864.5,389.5,836,401,836,401,836,401,836,401,836,401,836,401,836,401,836,401,835,381.5,835,381.5,835,381.5,835,381.5,835,381.5,835,381.5,835,381.5,835,381.5,865.5,370.5,865.5,370.5,865.5,370.5,865.5,370.5,865.5,370.5,865.5,370.5,865.5,370.5,865.5,370.5"></polygon><polygon data-id="26669" data-section="8" data-section_name="8" data-build="2" data-build_name="5" data-floor="9" data-type="flat" class="s3d-svg__build js-s3d-svg__build" points="839,362.5,839,362.5,839,362.5,839,362.5,839,362.5,839,362.5,839,362.5,839,362.5,867.5,351,867.5,351,867.5,351,867.5,351,867.5,351,867.5,351,867.5,351,867.5,351,865.5,370.5,865.5,370.5,865.5,370.5,865.5,370.5,865.5,370.5,865.5,370.5,865.5,370.5,865.5,370.5,835,381.5,835,381.5,835,381.5,835,381.5,835,381.5,835,381.5,835,381.5,835,381.5"></polygon><polygon data-id="26889" data-section="8" data-section_name="8" data-build="2" data-build_name="5" data-floor="9" data-type="flat" class="s3d-svg__build js-s3d-svg__build" points="814.5,394,814.5,394,814.5,394,814.5,394,814,375,814,375,814,375,814,375,839,362.5,839,362.5,839,362.5,839,362.5,835,381.5,835,381.5,835,381.5,835,381.5"></polygon><polygon data-id="26670" data-section="8" data-section_name="8" data-build="2" data-build_name="5" data-floor="10" data-type="flat" class="s3d-svg__build js-s3d-svg__build" points="839,362.5,839,362.5,839,362.5,839,362.5,839,362.5,839,362.5,839,362.5,839,362.5,867.5,351,867.5,351,867.5,351,867.5,351,867.5,351,867.5,351,867.5,351,867.5,351,869,331,869,331,869,331,869,331,869,331,869,331,869,331,869,331,838,342.5,838,342.5,838,342.5,838,342.5,838,342.5,838,342.5,838,342.5,838,342.5"></polygon><polygon data-id="26890" data-section="8" data-section_name="8" data-build="2" data-build_name="5" data-floor="10" data-type="flat" class="s3d-svg__build js-s3d-svg__build" points="814,375,814,375,814,375,814,375,814.5,355.5,814.5,355.5,814.5,355.5,814.5,355.5,838,342.5,838,342.5,838,342.5,838,342.5,839,362.5,839,362.5,839,362.5,839,362.5"></polygon><polygon data-id="26897" data-section="8" data-section_name="8" data-build="2" data-build_name="5" data-floor="10" data-type="flat" class="s3d-svg__build js-s3d-svg__build" points="814,375,814,375,814,375,814,375,814.5,355.5,814.5,355.5,814.5,355.5,814.5,355.5,794.5,366,794.5,366,794.5,366,794.5,366,793,381,793,381,793,381,793,381"></polygon><polygon data-id="26911" data-section="8" data-section_name="8" data-build="2" data-build_name="5" data-floor="10" data-type="flat" class="s3d-svg__build js-s3d-svg__build" points="742,403,742,403,742,403,742,403,752.5,398,752.5,398,752.5,398,752.5,398,763.5,398.5,763.5,398.5,763.5,398.5,763.5,398.5,765.5,377.5,765.5,377.5,765.5,377.5,765.5,377.5,753.5,379,753.5,379,753.5,379,753.5,379,739.5,384.5,739.5,384.5,739.5,384.5,739.5,384.5"></polygon><polygon data-id="26918" data-section="8" data-section_name="8" data-build="2" data-build_name="5" data-floor="10" data-type="flat" class="s3d-svg__build js-s3d-svg__build" points="765.5,377.5,765.5,377.5,765.5,377.5,765.5,377.5,765.5,377.5,765.5,377.5,765.5,377.5,765.5,377.5,765.5,377.5,765.5,377.5,765.5,377.5,765.5,377.5,765.5,377.5,765.5,377.5,765.5,377.5,765.5,377.5,765.5,377.5,765.5,377.5,765.5,377.5,765.5,377.5,765.5,377.5,765.5,377.5,765.5,377.5,765.5,377.5,765.5,377.5,765.5,377.5,765.5,377.5,765.5,377.5,765.5,377.5,765.5,377.5,765.5,377.5,765.5,377.5,763.5,398.5,763.5,398.5,763.5,398.5,763.5,398.5,763.5,398.5,763.5,398.5,763.5,398.5,763.5,398.5,763.5,398.5,763.5,398.5,763.5,398.5,763.5,398.5,763.5,398.5,763.5,398.5,763.5,398.5,763.5,398.5,763.5,398.5,763.5,398.5,763.5,398.5,763.5,398.5,763.5,398.5,763.5,398.5,763.5,398.5,763.5,398.5,763.5,398.5,763.5,398.5,763.5,398.5,763.5,398.5,763.5,398.5,763.5,398.5,763.5,398.5,763.5,398.5,792,389,792,389,792,389,792,389,792,389,792,389,792,389,792,389,792,389,792,389,792,389,792,389,792,389,792,389,792,389,792,389,792,389,792,389,792,389,792,389,792,389,792,389,792,389,792,389,792,389,792,389,792,389,792,389,792,389,792,389,792,389,792,389,794.5,366,794.5,366,794.5,366,794.5,366,794.5,366,794.5,366,794.5,366,794.5,366,794.5,366,794.5,366,794.5,366,794.5,366,794.5,366,794.5,366,794.5,366,794.5,366,794.5,366,794.5,366,794.5,366,794.5,366,794.5,366,794.5,366,794.5,366,794.5,366,794.5,366,794.5,366,794.5,366,794.5,366,794.5,366,794.5,366,794.5,366,794.5,366"></polygon><polygon data-id="26910" data-section="8" data-section_name="8" data-build="2" data-build_name="5" data-floor="9" data-type="flat" class="s3d-svg__build js-s3d-svg__build" points="760.5,420.5,760.5,420.5,760.5,420.5,760.5,420.5,763.5,398.5,763.5,398.5,763.5,398.5,763.5,398.5,752.5,398,752.5,398,752.5,398,752.5,398,742,403,742,403,742,403,742,403,742,424,742,424,742,424,742,424,754,419.5,754,419.5,754,419.5,754,419.5"></polygon><polygon data-id="26917" data-section="8" data-section_name="8" data-build="2" data-build_name="5" data-floor="9" data-type="flat" class="s3d-svg__build js-s3d-svg__build" points="760.5,420.5,760.5,420.5,760.5,420.5,760.5,420.5,760.5,420.5,760.5,420.5,760.5,420.5,760.5,420.5,763.5,398.5,763.5,398.5,763.5,398.5,763.5,398.5,763.5,398.5,763.5,398.5,763.5,398.5,763.5,398.5,792,389,792,389,792,389,792,389,792,389,792,389,792,389,792,389,791,409,791,409,791,409,791,409,791,409,791,409,791,409,791,409"></polygon><polygon data-id="26896" data-section="8" data-section_name="8" data-build="2" data-build_name="5" data-floor="9" data-type="flat" class="s3d-svg__build js-s3d-svg__build" points="814.5,394,814.5,394,814.5,394,814.5,394,814,375,814,375,814,375,814,375,793,381,793,381,793,381,793,381,793,402.5,793,402.5,793,402.5,793,402.5"></polygon><polygon data-id="26671" data-section="8" data-section_name="8" data-build="2" data-build_name="5" data-floor="11" data-type="flat" class="s3d-svg__build js-s3d-svg__build" points="838,342.5,838,342.5,838,342.5,838,342.5,838,342.5,838,342.5,838,342.5,838,342.5,869,331,869,331,869,331,869,331,869,331,869,331,869,331,869,331,869,312.5,869,312.5,869,312.5,869,312.5,869,312.5,869,312.5,869,312.5,869,312.5,836,327,836,327,836,327,836,327,836,327,836,327,836,327,836,327"></polygon><polygon data-id="26891" data-section="8" data-section_name="8" data-build="2" data-build_name="5" data-floor="11" data-type="flat" class="s3d-svg__build js-s3d-svg__build" points="814.5,355.5,814.5,355.5,814.5,355.5,814.5,355.5,814.5,336.5,814.5,336.5,814.5,336.5,814.5,336.5,836,327,836,327,836,327,836,327,838,342.5,838,342.5,838,342.5,838,342.5"></polygon><polygon data-id="26898" data-section="8" data-section_name="8" data-build="2" data-build_name="5" data-floor="11" data-type="flat" class="s3d-svg__build js-s3d-svg__build" points="814.5,355.5,814.5,355.5,814.5,355.5,814.5,355.5,814.5,336.5,814.5,336.5,814.5,336.5,814.5,336.5,795,344.5,795,344.5,795,344.5,795,344.5,794.5,366,794.5,366,794.5,366,794.5,366"></polygon><polygon data-id="26912" data-section="8" data-section_name="8" data-build="2" data-build_name="5" data-floor="11" data-type="flat" class="s3d-svg__build js-s3d-svg__build" points="739.5,384.5,739.5,384.5,739.5,384.5,739.5,384.5,765.5,377.5,765.5,377.5,765.5,377.5,765.5,377.5,762,361,762,361,762,361,762,361,754.5,360,754.5,360,754.5,360,754.5,360,740,366,740,366,740,366,740,366"></polygon><polygon data-id="26919" data-section="8" data-section_name="8" data-build="2" data-build_name="5" data-floor="11" data-type="flat" class="s3d-svg__build js-s3d-svg__build" points="762,361,762,361,762,361,762,361,762,361,762,361,762,361,762,361,762,361,762,361,762,361,762,361,762,361,762,361,762,361,762,361,762,361,762,361,762,361,762,361,762,361,762,361,762,361,762,361,762,361,762,361,762,361,762,361,762,361,762,361,762,361,762,361,765.5,377.5,765.5,377.5,765.5,377.5,765.5,377.5,765.5,377.5,765.5,377.5,765.5,377.5,765.5,377.5,765.5,377.5,765.5,377.5,765.5,377.5,765.5,377.5,765.5,377.5,765.5,377.5,765.5,377.5,765.5,377.5,765.5,377.5,765.5,377.5,765.5,377.5,765.5,377.5,765.5,377.5,765.5,377.5,765.5,377.5,765.5,377.5,765.5,377.5,765.5,377.5,765.5,377.5,765.5,377.5,765.5,377.5,765.5,377.5,765.5,377.5,765.5,377.5,794.5,366,794.5,366,794.5,366,794.5,366,794.5,366,794.5,366,794.5,366,794.5,366,794.5,366,794.5,366,794.5,366,794.5,366,794.5,366,794.5,366,794.5,366,794.5,366,794.5,366,794.5,366,794.5,366,794.5,366,794.5,366,794.5,366,794.5,366,794.5,366,794.5,366,794.5,366,794.5,366,794.5,366,794.5,366,794.5,366,794.5,366,794.5,366,795,344.5,795,344.5,795,344.5,795,344.5,795,344.5,795,344.5,795,344.5,795,344.5,795,344.5,795,344.5,795,344.5,795,344.5,795,344.5,795,344.5,795,344.5,795,344.5,795,344.5,795,344.5,795,344.5,795,344.5,795,344.5,795,344.5,795,344.5,795,344.5,795,344.5,795,344.5,795,344.5,795,344.5,795,344.5,795,344.5,795,344.5,795,344.5"></polygon><polygon data-id="26672" data-section="8" data-section_name="8" data-build="2" data-build_name="5" data-floor="12" data-type="flat" class="s3d-svg__build js-s3d-svg__build" points="836,327,836,327,836,327,836,327,836,327,836,327,836,327,836,327,869,312.5,869,312.5,869,312.5,869,312.5,869,312.5,869,312.5,869,312.5,869,312.5,870,295.5,870,295.5,870,295.5,870,295.5,870,295.5,870,295.5,870,295.5,870,295.5,839,305,839,305,839,305,839,305,839,305,839,305,839,305,839,305"></polygon><polygon data-id="26892" data-section="8" data-section_name="8" data-build="2" data-build_name="5" data-floor="12" data-type="flat" class="s3d-svg__build js-s3d-svg__build" points="814.5,336.5,814.5,336.5,814.5,336.5,814.5,336.5,813,317,813,317,813,317,813,317,839,305,839,305,839,305,839,305,836,327,836,327,836,327,836,327"></polygon><polygon data-id="26899" data-section="8" data-section_name="8" data-build="2" data-build_name="5" data-floor="12" data-type="flat" class="s3d-svg__build js-s3d-svg__build" points="814.5,336.5,814.5,336.5,814.5,336.5,814.5,336.5,813,317,813,317,813,317,813,317,794,329.5,794,329.5,794,329.5,794,329.5,795,344.5,795,344.5,795,344.5,795,344.5"></polygon><polygon data-id="26913" data-section="8" data-section_name="8" data-build="2" data-build_name="5" data-floor="12" data-type="flat" class="s3d-svg__build js-s3d-svg__build" points="740,366,740,366,740,366,740,366,754.5,360,754.5,360,754.5,360,754.5,360,762,361,762,361,762,361,762,361,761.5,341,761.5,341,761.5,341,761.5,341,752,341.5,752,341.5,752,341.5,752,341.5,739,347,739,347,739,347,739,347"></polygon><polygon data-id="26920" data-section="8" data-section_name="8" data-build="2" data-build_name="5" data-floor="12" data-type="flat" class="s3d-svg__build js-s3d-svg__build" points="762,361,762,361,762,361,762,361,761.5,341,761.5,341,761.5,341,761.5,341,794,329.5,794,329.5,794,329.5,794,329.5,795,344.5,795,344.5,795,344.5,795,344.5"></polygon><polygon data-id="26673" data-section="8" data-section_name="8" data-build="2" data-build_name="5" data-floor="13" data-type="flat" class="s3d-svg__build js-s3d-svg__build" points="839,305,839,305,839,305,839,305,839,305,839,305,839,305,839,305,870,295.5,870,295.5,870,295.5,870,295.5,870,295.5,870,295.5,870,295.5,870,295.5,868,277,868,277,868,277,868,277,868,277,868,277,868,277,868,277,839.5,287,839.5,287,839.5,287,839.5,287,839.5,287,839.5,287,839.5,287,839.5,287"></polygon><polygon data-id="26893" data-section="8" data-section_name="8" data-build="2" data-build_name="5" data-floor="13" data-type="flat" class="s3d-svg__build js-s3d-svg__build" points="813,317,813,317,813,317,813,317,812.5,298,812.5,298,812.5,298,812.5,298,839.5,287,839.5,287,839.5,287,839.5,287,839,305,839,305,839,305,839,305"></polygon><polygon data-id="26900" data-section="8" data-section_name="8" data-build="2" data-build_name="5" data-floor="13" data-type="flat" class="s3d-svg__build js-s3d-svg__build" points="813,317,813,317,813,317,813,317,812.5,298,812.5,298,812.5,298,812.5,298,794,305.5,794,305.5,794,305.5,794,305.5,794,329.5,794,329.5,794,329.5,794,329.5"></polygon><polygon data-id="26914" data-section="8" data-section_name="8" data-build="2" data-build_name="5" data-floor="13" data-type="flat" class="s3d-svg__build js-s3d-svg__build" points="739,347,739,347,739,347,739,347,752,341.5,752,341.5,752,341.5,752,341.5,761.5,341,761.5,341,761.5,341,761.5,341,762.5,321,762.5,321,762.5,321,762.5,321,751,318.5,751,318.5,751,318.5,751,318.5,738,324,738,324,738,324,738,324,738,324,738,324,738,324,738,324"></polygon><polygon data-id="26921" data-section="8" data-section_name="8" data-build="2" data-build_name="5" data-floor="13" data-type="flat" class="s3d-svg__build js-s3d-svg__build" points="762.5,321,762.5,321,762.5,321,762.5,321,761.5,341,761.5,341,761.5,341,761.5,341,794,329.5,794,329.5,794,329.5,794,329.5,794,305.5,794,305.5,794,305.5,794,305.5"></polygon><polygon data-id="26667" data-section="8" data-section_name="8" data-build="2" data-build_name="5" data-floor="7" data-type="flat" class="s3d-svg__build js-s3d-svg__build" points="835,418.5,835,418.5,835,418.5,835,418.5,835,418.5,835,418.5,835,418.5,835,418.5,862.5,408,862.5,408,862.5,408,862.5,408,862.5,408,862.5,408,862.5,408,862.5,408,864.5,389.5,864.5,389.5,864.5,389.5,864.5,389.5,864.5,389.5,864.5,389.5,864.5,389.5,864.5,389.5,836,401,836,401,836,401,836,401,836,401,836,401,836,401,836,401"></polygon><polygon data-id="26674" data-section="8" data-section_name="8" data-build="2" data-build_name="5" data-floor="14" data-type="flat" class="s3d-svg__build js-s3d-svg__build" points="839.5,287,839.5,287,839.5,287,839.5,287,839.5,287,839.5,287,839.5,287,839.5,287,868,277,868,277,868,277,868,277,868,277,868,277,868,277,868,277,866.5,259,866.5,259,866.5,259,866.5,259,866.5,259,866.5,259,866.5,259,866.5,259,840,267.5,840,267.5,840,267.5,840,267.5,840,267.5,840,267.5,840,267.5,840,267.5"></polygon><polygon data-id="26894" data-section="8" data-section_name="8" data-build="2" data-build_name="5" data-floor="14" data-type="flat" class="s3d-svg__build js-s3d-svg__build" points="839.5,287,839.5,287,839.5,287,839.5,287,840,267.5,840,267.5,840,267.5,840,267.5,813,279.5,813,279.5,813,279.5,813,279.5,812.5,298,812.5,298,812.5,298,812.5,298"></polygon><polygon data-id="26901" data-section="8" data-section_name="8" data-build="2" data-build_name="5" data-floor="14" data-type="flat" class="s3d-svg__build js-s3d-svg__build" points="794,305.5,794,305.5,794,305.5,794,305.5,812.5,298,812.5,298,812.5,298,812.5,298,813,279.5,813,279.5,813,279.5,813,279.5,793.5,286,793.5,286,793.5,286,793.5,286"></polygon><polygon data-id="26915" data-section="8" data-section_name="8" data-build="2" data-build_name="5" data-floor="14" data-type="flat" class="s3d-svg__build js-s3d-svg__build" points="738,324,738,324,738,324,738,324,751,318.5,751,318.5,751,318.5,751,318.5,762.5,321,762.5,321,762.5,321,762.5,321,762.5,300.5,762.5,300.5,762.5,300.5,762.5,300.5,750,303.5,750,303.5,750,303.5,750,303.5,736.5,307,736.5,307,736.5,307,736.5,307"></polygon><polygon data-id="26922" data-section="8" data-section_name="8" data-build="2" data-build_name="5" data-floor="14" data-type="flat" class="s3d-svg__build js-s3d-svg__build" points="762.5,300.5,762.5,300.5,762.5,300.5,762.5,300.5,762.5,300.5,762.5,300.5,762.5,300.5,762.5,300.5,762.5,300.5,762.5,300.5,762.5,300.5,762.5,300.5,762.5,300.5,762.5,300.5,762.5,300.5,762.5,300.5,762.5,300.5,762.5,300.5,762.5,300.5,762.5,300.5,762.5,300.5,762.5,300.5,762.5,300.5,762.5,300.5,762.5,300.5,762.5,300.5,762.5,300.5,762.5,300.5,762.5,300.5,762.5,300.5,762.5,300.5,762.5,300.5,762.5,321,762.5,321,762.5,321,762.5,321,762.5,321,762.5,321,762.5,321,762.5,321,762.5,321,762.5,321,762.5,321,762.5,321,762.5,321,762.5,321,762.5,321,762.5,321,762.5,321,762.5,321,762.5,321,762.5,321,762.5,321,762.5,321,762.5,321,762.5,321,762.5,321,762.5,321,762.5,321,762.5,321,762.5,321,762.5,321,762.5,321,762.5,321,794,305.5,794,305.5,794,305.5,794,305.5,794,305.5,794,305.5,794,305.5,794,305.5,794,305.5,794,305.5,794,305.5,794,305.5,794,305.5,794,305.5,794,305.5,794,305.5,794,305.5,794,305.5,794,305.5,794,305.5,794,305.5,794,305.5,794,305.5,794,305.5,794,305.5,794,305.5,794,305.5,794,305.5,794,305.5,794,305.5,794,305.5,794,305.5,793.5,286,793.5,286,793.5,286,793.5,286,793.5,286,793.5,286,793.5,286,793.5,286,793.5,286,793.5,286,793.5,286,793.5,286,793.5,286,793.5,286,793.5,286,793.5,286,793.5,286,793.5,286,793.5,286,793.5,286,793.5,286,793.5,286,793.5,286,793.5,286,793.5,286,793.5,286,793.5,286,793.5,286,793.5,286,793.5,286,793.5,286,793.5,286"></polygon><polygon data-id="26895" data-section="8" data-section_name="8" data-build="2" data-build_name="5" data-floor="15" data-type="flat" class="s3d-svg__build js-s3d-svg__build" points="840,247,840,247,840,247,840,247,813.5,261,813.5,261,813.5,261,813.5,261,813,279.5,813,279.5,813,279.5,813,279.5,840,267.5,840,267.5,840,267.5,840,267.5"></polygon><polygon data-id="26902" data-section="8" data-section_name="8" data-build="2" data-build_name="5" data-floor="15" data-type="flat" class="s3d-svg__build js-s3d-svg__build" points="793.5,286,793.5,286,793.5,286,793.5,286,813,279.5,813,279.5,813,279.5,813,279.5,813.5,261,813.5,261,813.5,261,813.5,261,793.5,268,793.5,268,793.5,268,793.5,268"></polygon><polygon data-id="26916" data-section="8" data-section_name="8" data-build="2" data-build_name="5" data-floor="15" data-type="flat" class="s3d-svg__build js-s3d-svg__build" points="736.5,307,736.5,307,736.5,307,736.5,307,737,286.5,737,286.5,737,286.5,737,286.5,754.5,280,754.5,280,754.5,280,754.5,280,761.5,280.5,761.5,280.5,761.5,280.5,761.5,280.5,762.5,300.5,762.5,300.5,762.5,300.5,762.5,300.5,750,303.5,750,303.5,750,303.5,750,303.5"></polygon><polygon data-id="26923" data-section="8" data-section_name="8" data-build="2" data-build_name="5" data-floor="15" data-type="flat" class="s3d-svg__build js-s3d-svg__build" points="762.5,300.5,762.5,300.5,762.5,300.5,762.5,300.5,761.5,280.5,761.5,280.5,761.5,280.5,761.5,280.5,793.5,268,793.5,268,793.5,268,793.5,268,793.5,286,793.5,286,793.5,286,793.5,286"></polygon><polygon data-id="26928" data-section="9" data-section_name="9" data-build="2" data-build_name="5" data-floor="2" data-type="flat" class="s3d-svg__build js-s3d-svg__build" points="700.5,589.5,700.5,589.5,676.66666666667,602.66666666667,676.66666666667,602.66666666667,674.66666666667,585.66666666667,674.66666666667,585.66666666667,700,574.5,700,574.5"></polygon><polygon data-id="26942" data-section="9" data-section_name="9" data-build="2" data-build_name="5" data-floor="2" data-type="flat" class="s3d-svg__build js-s3d-svg__build" points="649,623.5,676.66666666667,602.66666666667,674.66666666667,585.66666666667,649,601"></polygon><polygon data-id="26984" data-section="9" data-section_name="9" data-build="2" data-build_name="5" data-floor="2" data-type="flat" class="s3d-svg__build js-s3d-svg__build" points="649,623.5,614.66666666667,639.66666666667,611.66666666667,620.66666666667,649,601"></polygon><polygon data-id="27014" data-section="9" data-section_name="9" data-build="2" data-build_name="5" data-floor="2" data-type="flat" class="s3d-svg__build js-s3d-svg__build" points="700.5,589.5,700,574.5,729.5,553,729.5,570"></polygon><polygon data-id="26929" data-section="9" data-section_name="9" data-build="2" data-build_name="5" data-floor="3" data-type="flat" class="s3d-svg__build js-s3d-svg__build" points="674.66666666667,585.66666666667,674.66666666667,585.66666666667,673.66666666667,566,673.66666666667,566,700,552,700,552,700,574.5,700,574.5"></polygon><polygon data-id="26943" data-section="9" data-section_name="9" data-build="2" data-build_name="5" data-floor="3" data-type="flat" class="s3d-svg__build js-s3d-svg__build" points="649,601,674.66666666667,585.66666666667,673.66666666667,566,648.5,582.5"></polygon><polygon data-id="26985" data-section="9" data-section_name="9" data-build="2" data-build_name="5" data-floor="3" data-type="flat" class="s3d-svg__build js-s3d-svg__build" points="611.66666666667,620.66666666667,610.33333333333,600.33333333333,648.5,582.5,649,601,618,618.5"></polygon><polygon data-id="27015" data-section="9" data-section_name="9" data-build="2" data-build_name="5" data-floor="3" data-type="flat" class="s3d-svg__build js-s3d-svg__build" points="700,574.5,729.5,553,729.5,533.5,700,552"></polygon><polygon data-id="26930" data-section="9" data-section_name="9" data-build="2" data-build_name="5" data-floor="4" data-type="flat" class="s3d-svg__build js-s3d-svg__build" points="673.66666666667,566,674,546.33333333333,698,532,700,552"></polygon><polygon data-id="26944" data-section="9" data-section_name="9" data-build="2" data-build_name="5" data-floor="4" data-type="flat" class="s3d-svg__build js-s3d-svg__build" points="648.5,582.5,673.66666666667,566,674,546.33333333333,650,563"></polygon><polygon data-id="26986" data-section="9" data-section_name="9" data-build="2" data-build_name="5" data-floor="4" data-type="flat" class="s3d-svg__build js-s3d-svg__build" points="610.33333333333,600.33333333333,610,580,650,563,648.5,582.5,617,598.5"></polygon><polygon data-id="27016" data-section="9" data-section_name="9" data-build="2" data-build_name="5" data-floor="4" data-type="flat" class="s3d-svg__build js-s3d-svg__build" points="700,552,729.5,533.5,730.5,514.5,698,532"></polygon><polygon data-id="26931" data-section="9" data-section_name="9" data-build="2" data-build_name="5" data-floor="5" data-type="flat" class="s3d-svg__build js-s3d-svg__build" points="698,532,674,546.33333333333,674.33333333333,526.66666666667,699,513"></polygon><polygon data-id="26945" data-section="9" data-section_name="9" data-build="2" data-build_name="5" data-floor="5" data-type="flat" class="s3d-svg__build js-s3d-svg__build" points="650,563,674,546.33333333333,674.33333333333,526.66666666667,649,541"></polygon><polygon data-id="26987" data-section="9" data-section_name="9" data-build="2" data-build_name="5" data-floor="5" data-type="flat" class="s3d-svg__build js-s3d-svg__build" points="610,580,610,559.33333333333,649,541,650,563,616,577.5"></polygon><polygon data-id="27017" data-section="9" data-section_name="9" data-build="2" data-build_name="5" data-floor="5" data-type="flat" class="s3d-svg__build js-s3d-svg__build" points="699,513,699,513,699,513,699,513,699,513,699,513,699,513,699,513,699,513,699,513,699,513,699,513,699,513,699,513,699,513,699,513,698,532,698,532,698,532,698,532,698,532,698,532,698,532,698,532,698,532,698,532,698,532,698,532,698,532,698,532,698,532,698,532,730.5,514.5,730.5,514.5,730.5,514.5,730.5,514.5,730.5,514.5,730.5,514.5,730.5,514.5,730.5,514.5,730.5,514.5,730.5,514.5,730.5,514.5,730.5,514.5,730.5,514.5,730.5,514.5,730.5,514.5,730.5,514.5,728.5,497.5,728.5,497.5,728.5,497.5,728.5,497.5,728.5,497.5,728.5,497.5,728.5,497.5,728.5,497.5,728.5,497.5,728.5,497.5,728.5,497.5,728.5,497.5,728.5,497.5,728.5,497.5,728.5,497.5,728.5,497.5"></polygon><polygon data-id="26932" data-section="9" data-section_name="9" data-build="2" data-build_name="5" data-floor="6" data-type="flat" class="s3d-svg__build js-s3d-svg__build" points="674.33333333333,526.66666666667,674.33333333333,507.66666666667,698,495,699,513"></polygon><polygon data-id="26946" data-section="9" data-section_name="9" data-build="2" data-build_name="5" data-floor="6" data-type="flat" class="s3d-svg__build js-s3d-svg__build" points="649,541,674.33333333333,526.66666666667,674.33333333333,507.66666666667,648.5,519.5"></polygon><polygon data-id="26988" data-section="9" data-section_name="9" data-build="2" data-build_name="5" data-floor="6" data-type="flat" class="s3d-svg__build js-s3d-svg__build" points="610,559.33333333333,610,539.66666666667,648.5,519.5,649,541,619,556.5"></polygon><polygon data-id="26933" data-section="9" data-section_name="9" data-build="2" data-build_name="5" data-floor="7" data-type="flat" class="s3d-svg__build js-s3d-svg__build" points="674.33333333333,507.66666666667,673,486.66666666667,698.5,473.5,698,495"></polygon><polygon data-id="27018" data-section="9" data-section_name="9" data-build="2" data-build_name="5" data-floor="6" data-type="flat" class="s3d-svg__build js-s3d-svg__build" points="698,495,698,495,698,495,698,495,698,495,698,495,698,495,698,495,698,495,698,495,698,495,698,495,698,495,698,495,698,495,698,495,699,513,699,513,699,513,699,513,699,513,699,513,699,513,699,513,699,513,699,513,699,513,699,513,699,513,699,513,699,513,699,513,728.5,497.5,728.5,497.5,728.5,497.5,728.5,497.5,728.5,497.5,728.5,497.5,728.5,497.5,728.5,497.5,728.5,497.5,728.5,497.5,728.5,497.5,728.5,497.5,728.5,497.5,728.5,497.5,728.5,497.5,728.5,497.5,728.5,477.5,728.5,477.5,728.5,477.5,728.5,477.5,728.5,477.5,728.5,477.5,728.5,477.5,728.5,477.5,728.5,477.5,728.5,477.5,728.5,477.5,728.5,477.5,728.5,477.5,728.5,477.5,728.5,477.5,728.5,477.5"></polygon><polygon data-id="26947" data-section="9" data-section_name="9" data-build="2" data-build_name="5" data-floor="7" data-type="flat" class="s3d-svg__build js-s3d-svg__build" points="648.5,519.5,674.33333333333,507.66666666667,673,486.66666666667,647.5,500"></polygon><polygon data-id="26989" data-section="9" data-section_name="9" data-build="2" data-build_name="5" data-floor="7" data-type="flat" class="s3d-svg__build js-s3d-svg__build" points="610,539.66666666667,610.66666666667,519,647.5,500,648.5,519.5"></polygon><polygon data-id="27019" data-section="9" data-section_name="9" data-build="2" data-build_name="5" data-floor="7" data-type="flat" class="s3d-svg__build js-s3d-svg__build" points="698,495,728.5,477.5,728.5,458,698.5,473.5"></polygon><polygon data-id="26934" data-section="9" data-section_name="9" data-build="2" data-build_name="5" data-floor="8" data-type="flat" class="s3d-svg__build js-s3d-svg__build" points="698.5,473.5,673,486.66666666667,674.33333333333,466.33333333333,700,452.5"></polygon><polygon data-id="26948" data-section="9" data-section_name="9" data-build="2" data-build_name="5" data-floor="8" data-type="flat" class="s3d-svg__build js-s3d-svg__build" points="647.5,500,673,486.66666666667,674.33333333333,466.33333333333,647.5,481.5"></polygon><polygon data-id="26990" data-section="9" data-section_name="9" data-build="2" data-build_name="5" data-floor="8" data-type="flat" class="s3d-svg__build js-s3d-svg__build" points="610.66666666667,519,612.5,498,647.5,481.5,647.5,500"></polygon><polygon data-id="27020" data-section="9" data-section_name="9" data-build="2" data-build_name="5" data-floor="8" data-type="flat" class="s3d-svg__build js-s3d-svg__build" points="700,452.5,700,452.5,700,452.5,700,452.5,700,452.5,700,452.5,700,452.5,700,452.5,700,452.5,700,452.5,700,452.5,700,452.5,700,452.5,700,452.5,700,452.5,700,452.5,698.5,473.5,698.5,473.5,698.5,473.5,698.5,473.5,698.5,473.5,698.5,473.5,698.5,473.5,698.5,473.5,698.5,473.5,698.5,473.5,698.5,473.5,698.5,473.5,698.5,473.5,698.5,473.5,698.5,473.5,698.5,473.5,728.5,458,728.5,458,728.5,458,728.5,458,728.5,458,728.5,458,728.5,458,728.5,458,728.5,458,728.5,458,728.5,458,728.5,458,728.5,458,728.5,458,728.5,458,728.5,458,728.5,437,728.5,437,728.5,437,728.5,437,728.5,437,728.5,437,728.5,437,728.5,437,728.5,437,728.5,437,728.5,437,728.5,437,728.5,437,728.5,437,728.5,437,728.5,437"></polygon><polygon data-id="26935" data-section="9" data-section_name="9" data-build="2" data-build_name="5" data-floor="9" data-type="flat" class="s3d-svg__build js-s3d-svg__build" points="700,452.5,674.33333333333,466.33333333333,674,445.66666666667,699.5,433.5"></polygon><polygon data-id="26949" data-section="9" data-section_name="9" data-build="2" data-build_name="5" data-floor="9" data-type="flat" class="s3d-svg__build js-s3d-svg__build" points="647.5,481.5,674.33333333333,466.33333333333,674,445.66666666667,648.5,458.5"></polygon><polygon data-id="26991" data-section="9" data-section_name="9" data-build="2" data-build_name="5" data-floor="9" data-type="flat" class="s3d-svg__build js-s3d-svg__build" points="647.5,481.5,647.5,481.5,647.5,481.5,647.5,481.5,647.5,481.5,647.5,481.5,647.5,481.5,647.5,481.5,647.5,481.5,647.5,481.5,647.5,481.5,647.5,481.5,647.5,481.5,647.5,481.5,647.5,481.5,647.5,481.5,612.5,498,612.5,498,612.5,498,612.5,498,612.5,498,612.5,498,612.5,498,612.5,498,612.5,498,612.5,498,612.5,498,612.5,498,612.5,498,612.5,498,612.5,498,612.5,498,612,475.5,612,475.5,612,475.5,612,475.5,612,475.5,612,475.5,612,475.5,612,475.5,612,475.5,612,475.5,612,475.5,612,475.5,612,475.5,612,475.5,612,475.5,612,475.5,648.5,458.5,648.5,458.5,648.5,458.5,648.5,458.5,648.5,458.5,648.5,458.5,648.5,458.5,648.5,458.5,648.5,458.5,648.5,458.5,648.5,458.5,648.5,458.5,648.5,458.5,648.5,458.5,648.5,458.5,648.5,458.5"></polygon><polygon data-id="27021" data-section="9" data-section_name="9" data-build="2" data-build_name="5" data-floor="9" data-type="flat" class="s3d-svg__build js-s3d-svg__build" points="699.5,433.5,699.5,433.5,699.5,433.5,699.5,433.5,699.5,433.5,699.5,433.5,699.5,433.5,699.5,433.5,699.5,433.5,699.5,433.5,699.5,433.5,699.5,433.5,699.5,433.5,699.5,433.5,699.5,433.5,699.5,433.5,728.5,418,728.5,418,728.5,418,728.5,418,728.5,418,728.5,418,728.5,418,728.5,418,728.5,418,728.5,418,728.5,418,728.5,418,728.5,418,728.5,418,728.5,418,728.5,418,728.5,437,728.5,437,728.5,437,728.5,437,728.5,437,728.5,437,728.5,437,728.5,437,728.5,437,728.5,437,728.5,437,728.5,437,728.5,437,728.5,437,728.5,437,728.5,437,700,452.5,700,452.5,700,452.5,700,452.5,700,452.5,700,452.5,700,452.5,700,452.5,700,452.5,700,452.5,700,452.5,700,452.5,700,452.5,700,452.5,700,452.5,700,452.5"></polygon><polygon data-id="26936" data-section="9" data-section_name="9" data-build="2" data-build_name="5" data-floor="10" data-type="flat" class="s3d-svg__build js-s3d-svg__build" points="699.5,433.5,698.5,413,673.66666666667,423.33333333333,674,445.66666666667"></polygon><polygon data-id="26950" data-section="9" data-section_name="9" data-build="2" data-build_name="5" data-floor="10" data-type="flat" class="s3d-svg__build js-s3d-svg__build" points="648.5,458.5,674,445.66666666667,673.66666666667,423.33333333333,646.5,439"></polygon><polygon data-id="26992" data-section="9" data-section_name="9" data-build="2" data-build_name="5" data-floor="10" data-type="flat" class="s3d-svg__build js-s3d-svg__build" points="610.5,455,610.5,455,610.5,455,610.5,455,610.5,455,610.5,455,610.5,455,610.5,455,610.5,455,610.5,455,610.5,455,610.5,455,610.5,455,610.5,455,610.5,455,610.5,455,646.5,439,646.5,439,646.5,439,646.5,439,646.5,439,646.5,439,646.5,439,646.5,439,646.5,439,646.5,439,646.5,439,646.5,439,646.5,439,646.5,439,646.5,439,646.5,439,648.5,458.5,648.5,458.5,648.5,458.5,648.5,458.5,648.5,458.5,648.5,458.5,648.5,458.5,648.5,458.5,648.5,458.5,648.5,458.5,648.5,458.5,648.5,458.5,648.5,458.5,648.5,458.5,648.5,458.5,648.5,458.5,612,475.5,612,475.5,612,475.5,612,475.5,612,475.5,612,475.5,612,475.5,612,475.5,612,475.5,612,475.5,612,475.5,612,475.5,612,475.5,612,475.5,612,475.5,612,475.5"></polygon><polygon data-id="27022" data-section="9" data-section_name="9" data-build="2" data-build_name="5" data-floor="10" data-type="flat" class="s3d-svg__build js-s3d-svg__build" points="698.5,413,698.5,413,698.5,413,698.5,413,698.5,413,698.5,413,698.5,413,698.5,413,698.5,413,698.5,413,698.5,413,698.5,413,698.5,413,698.5,413,698.5,413,698.5,413,729.5,397,729.5,397,729.5,397,729.5,397,729.5,397,729.5,397,729.5,397,729.5,397,729.5,397,729.5,397,729.5,397,729.5,397,729.5,397,729.5,397,729.5,397,729.5,397,728.5,418,728.5,418,728.5,418,728.5,418,728.5,418,728.5,418,728.5,418,728.5,418,728.5,418,728.5,418,728.5,418,728.5,418,728.5,418,728.5,418,728.5,418,728.5,418,699.5,433.5,699.5,433.5,699.5,433.5,699.5,433.5,699.5,433.5,699.5,433.5,699.5,433.5,699.5,433.5,699.5,433.5,699.5,433.5,699.5,433.5,699.5,433.5,699.5,433.5,699.5,433.5,699.5,433.5,699.5,433.5"></polygon><polygon data-id="26937" data-section="9" data-section_name="9" data-build="2" data-build_name="5" data-floor="11" data-type="flat" class="s3d-svg__build js-s3d-svg__build" points="698.5,413,673.66666666667,423.33333333333,672.33333333333,404,699.5,392"></polygon><polygon data-id="26951" data-section="9" data-section_name="9" data-build="2" data-build_name="5" data-floor="11" data-type="flat" class="s3d-svg__build js-s3d-svg__build" points="646.5,439,673.66666666667,423.33333333333,672.33333333333,404,647,416.5"></polygon><polygon data-id="26993" data-section="9" data-section_name="9" data-build="2" data-build_name="5" data-floor="11" data-type="flat" class="s3d-svg__build js-s3d-svg__build" points="647,416.5,647,416.5,647,416.5,647,416.5,647,416.5,647,416.5,647,416.5,647,416.5,647,416.5,647,416.5,647,416.5,647,416.5,647,416.5,647,416.5,647,416.5,647,416.5,646.5,439,646.5,439,646.5,439,646.5,439,646.5,439,646.5,439,646.5,439,646.5,439,646.5,439,646.5,439,646.5,439,646.5,439,646.5,439,646.5,439,646.5,439,646.5,439,610.5,455,610.5,455,610.5,455,610.5,455,610.5,455,610.5,455,610.5,455,610.5,455,610.5,455,610.5,455,610.5,455,610.5,455,610.5,455,610.5,455,610.5,455,610.5,455,610,433,610,433,610,433,610,433,610,433,610,433,610,433,610,433,610,433,610,433,610,433,610,433,610,433,610,433,610,433,610,433"></polygon><polygon data-id="27023" data-section="9" data-section_name="9" data-build="2" data-build_name="5" data-floor="11" data-type="flat" class="s3d-svg__build js-s3d-svg__build" points="699.5,392,699.5,392,699.5,392,699.5,392,699.5,392,699.5,392,699.5,392,699.5,392,699.5,392,699.5,392,699.5,392,699.5,392,699.5,392,699.5,392,699.5,392,699.5,392,729.5,377.5,729.5,377.5,729.5,377.5,729.5,377.5,729.5,377.5,729.5,377.5,729.5,377.5,729.5,377.5,729.5,377.5,729.5,377.5,729.5,377.5,729.5,377.5,729.5,377.5,729.5,377.5,729.5,377.5,729.5,377.5,729.5,397,729.5,397,729.5,397,729.5,397,729.5,397,729.5,397,729.5,397,729.5,397,729.5,397,729.5,397,729.5,397,729.5,397,729.5,397,729.5,397,729.5,397,729.5,397,698.5,413,698.5,413,698.5,413,698.5,413,698.5,413,698.5,413,698.5,413,698.5,413,698.5,413,698.5,413,698.5,413,698.5,413,698.5,413,698.5,413,698.5,413,698.5,413"></polygon><polygon data-id="26938" data-section="9" data-section_name="9" data-build="2" data-build_name="5" data-floor="12" data-type="flat" class="s3d-svg__build js-s3d-svg__build" points="699.5,392,699,372,673,381.33333333333,672.33333333333,404"></polygon><polygon data-id="26952" data-section="9" data-section_name="9" data-build="2" data-build_name="5" data-floor="12" data-type="flat" class="s3d-svg__build js-s3d-svg__build" points="647,416.5,672.33333333333,404,673,381.33333333333,647,395.5"></polygon><polygon data-id="26994" data-section="9" data-section_name="9" data-build="2" data-build_name="5" data-floor="12" data-type="flat" class="s3d-svg__build js-s3d-svg__build" points="610,410.5,610,410.5,610,410.5,610,410.5,610,410.5,610,410.5,610,410.5,610,410.5,610,410.5,610,410.5,610,410.5,610,410.5,610,410.5,610,410.5,610,410.5,610,410.5,647,395.5,647,395.5,647,395.5,647,395.5,647,395.5,647,395.5,647,395.5,647,395.5,647,395.5,647,395.5,647,395.5,647,395.5,647,395.5,647,395.5,647,395.5,647,395.5,647,416.5,647,416.5,647,416.5,647,416.5,647,416.5,647,416.5,647,416.5,647,416.5,647,416.5,647,416.5,647,416.5,647,416.5,647,416.5,647,416.5,647,416.5,647,416.5,610,433,610,433,610,433,610,433,610,433,610,433,610,433,610,433,610,433,610,433,610,433,610,433,610,433,610,433,610,433,610,433"></polygon><polygon data-id="26939" data-section="9" data-section_name="9" data-build="2" data-build_name="5" data-floor="13" data-type="flat" class="s3d-svg__build js-s3d-svg__build" points="699,372,699.5,350.5,673.33333333333,360,673,381.33333333333"></polygon><polygon data-id="26953" data-section="9" data-section_name="9" data-build="2" data-build_name="5" data-floor="13" data-type="flat" class="s3d-svg__build js-s3d-svg__build" points="647,395.5,673,381.33333333333,673.33333333333,360,646.5,374"></polygon><polygon data-id="26995" data-section="9" data-section_name="9" data-build="2" data-build_name="5" data-floor="13" data-type="flat" class="s3d-svg__build js-s3d-svg__build" points="646.5,374,646.5,374,646.5,374,646.5,374,646.5,374,646.5,374,646.5,374,646.5,374,646.5,374,646.5,374,646.5,374,646.5,374,646.5,374,646.5,374,646.5,374,646.5,374,647,395.5,647,395.5,647,395.5,647,395.5,647,395.5,647,395.5,647,395.5,647,395.5,647,395.5,647,395.5,647,395.5,647,395.5,647,395.5,647,395.5,647,395.5,647,395.5,610,410.5,610,410.5,610,410.5,610,410.5,610,410.5,610,410.5,610,410.5,610,410.5,610,410.5,610,410.5,610,410.5,610,410.5,610,410.5,610,410.5,610,410.5,610,410.5,607,390,607,390,607,390,607,390,607,390,607,390,607,390,607,390,607,390,607,390,607,390,607,390,607,390,607,390,607,390,607,390"></polygon><polygon data-id="27025" data-section="9" data-section_name="9" data-build="2" data-build_name="5" data-floor="13" data-type="flat" class="s3d-svg__build js-s3d-svg__build" points="699.5,350.5,699.5,350.5,699.5,350.5,699.5,350.5,699.5,350.5,699.5,350.5,699.5,350.5,699.5,350.5,699.5,350.5,699.5,350.5,699.5,350.5,699.5,350.5,699.5,350.5,699.5,350.5,699.5,350.5,699.5,350.5,699,372,699,372,699,372,699,372,699,372,699,372,699,372,699,372,699,372,699,372,699,372,699,372,699,372,699,372,699,372,699,372,729.5,354.5,729.5,354.5,729.5,354.5,729.5,354.5,729.5,354.5,729.5,354.5,729.5,354.5,729.5,354.5,729.5,354.5,729.5,354.5,729.5,354.5,729.5,354.5,729.5,354.5,729.5,354.5,729.5,354.5,729.5,354.5,730,336,730,336,730,336,730,336,730,336,730,336,730,336,730,336,730,336,730,336,730,336,730,336,730,336,730,336,730,336,730,336"></polygon><polygon data-id="27024" data-section="9" data-section_name="9" data-build="2" data-build_name="5" data-floor="12" data-type="flat" class="s3d-svg__build js-s3d-svg__build" points="699,372,699,372,699,372,699,372,699,372,699,372,699,372,699,372,699,372,699,372,699,372,699,372,699,372,699,372,699,372,699,372,699.5,392,699.5,392,699.5,392,699.5,392,699.5,392,699.5,392,699.5,392,699.5,392,699.5,392,699.5,392,699.5,392,699.5,392,699.5,392,699.5,392,699.5,392,699.5,392,729.5,377.5,729.5,377.5,729.5,377.5,729.5,377.5,729.5,377.5,729.5,377.5,729.5,377.5,729.5,377.5,729.5,377.5,729.5,377.5,729.5,377.5,729.5,377.5,729.5,377.5,729.5,377.5,729.5,377.5,729.5,377.5,729.5,354.5,729.5,354.5,729.5,354.5,729.5,354.5,729.5,354.5,729.5,354.5,729.5,354.5,729.5,354.5,729.5,354.5,729.5,354.5,729.5,354.5,729.5,354.5,729.5,354.5,729.5,354.5,729.5,354.5,729.5,354.5"></polygon><polygon data-id="26940" data-section="9" data-section_name="9" data-build="2" data-build_name="5" data-floor="14" data-type="flat" class="s3d-svg__build js-s3d-svg__build" points="699.5,350.5,698.5,328.5,673.33333333333,338.33333333333,673.33333333333,360"></polygon><polygon data-id="26954" data-section="9" data-section_name="9" data-build="2" data-build_name="5" data-floor="14" data-type="flat" class="s3d-svg__build js-s3d-svg__build" points="646.5,374,673.33333333333,360,673.33333333333,338.33333333333,646,351.5"></polygon><polygon data-id="26996" data-section="9" data-section_name="9" data-build="2" data-build_name="5" data-floor="14" data-type="flat" class="s3d-svg__build js-s3d-svg__build" points="646,351.5,646,351.5,646,351.5,646,351.5,646,351.5,646,351.5,646,351.5,646,351.5,646,351.5,646,351.5,646,351.5,646,351.5,646,351.5,646,351.5,646,351.5,646,351.5,646.5,374,646.5,374,646.5,374,646.5,374,646.5,374,646.5,374,646.5,374,646.5,374,646.5,374,646.5,374,646.5,374,646.5,374,646.5,374,646.5,374,646.5,374,646.5,374,607,390,607,390,607,390,607,390,607,390,607,390,607,390,607,390,607,390,607,390,607,390,607,390,607,390,607,390,607,390,607,390,606.5,367.5,606.5,367.5,606.5,367.5,606.5,367.5,606.5,367.5,606.5,367.5,606.5,367.5,606.5,367.5,606.5,367.5,606.5,367.5,606.5,367.5,606.5,367.5,606.5,367.5,606.5,367.5,606.5,367.5,606.5,367.5"></polygon><polygon data-id="27026" data-section="9" data-section_name="9" data-build="2" data-build_name="5" data-floor="14" data-type="flat" class="s3d-svg__build js-s3d-svg__build" points="698.5,328.5,698.5,328.5,698.5,328.5,698.5,328.5,698.5,328.5,698.5,328.5,698.5,328.5,698.5,328.5,698.5,328.5,698.5,328.5,698.5,328.5,698.5,328.5,698.5,328.5,698.5,328.5,698.5,328.5,698.5,328.5,730,315,730,315,730,315,730,315,730,315,730,315,730,315,730,315,730,315,730,315,730,315,730,315,730,315,730,315,730,315,730,315,730,336,730,336,730,336,730,336,730,336,730,336,730,336,730,336,730,336,730,336,730,336,730,336,730,336,730,336,730,336,730,336,699.5,350.5,699.5,350.5,699.5,350.5,699.5,350.5,699.5,350.5,699.5,350.5,699.5,350.5,699.5,350.5,699.5,350.5,699.5,350.5,699.5,350.5,699.5,350.5,699.5,350.5,699.5,350.5,699.5,350.5,699.5,350.5"></polygon><polygon data-id="26941" data-section="9" data-section_name="9" data-build="2" data-build_name="5" data-floor="15" data-type="flat" class="s3d-svg__build js-s3d-svg__build" points="698.5,328.5,697,309,672.66666666667,318.33333333333,673.33333333333,338.33333333333"></polygon><polygon data-id="26955" data-section="9" data-section_name="9" data-build="2" data-build_name="5" data-floor="15" data-type="flat" class="s3d-svg__build js-s3d-svg__build" points="646,351.5,673.33333333333,338.33333333333,672.66666666667,318.33333333333,644.5,330"></polygon><polygon data-id="27027" data-section="9" data-section_name="9" data-build="2" data-build_name="5" data-floor="15" data-type="flat" class="s3d-svg__build js-s3d-svg__build" points="697,309,697,309,697,309,697,309,697,309,697,309,697,309,697,309,697,309,697,309,697,309,697,309,697,309,697,309,697,309,697,309,698.5,328.5,698.5,328.5,698.5,328.5,698.5,328.5,698.5,328.5,698.5,328.5,698.5,328.5,698.5,328.5,698.5,328.5,698.5,328.5,698.5,328.5,698.5,328.5,698.5,328.5,698.5,328.5,698.5,328.5,698.5,328.5,730,315,730,315,730,315,730,315,730,315,730,315,730,315,730,315,730,315,730,315,730,315,730,315,730,315,730,315,730,315,730,315,731.5,293,731.5,293,731.5,293,731.5,293,731.5,293,731.5,293,731.5,293,731.5,293,731.5,293,731.5,293,731.5,293,731.5,293,731.5,293,731.5,293,731.5,293,731.5,293"></polygon><polygon data-id="26997" data-section="9" data-section_name="9" data-build="2" data-build_name="5" data-floor="15" data-type="flat" class="s3d-svg__build js-s3d-svg__build" points="644.5,330,644.5,330,644.5,330,644.5,330,644.5,330,644.5,330,644.5,330,644.5,330,644.5,330,644.5,330,644.5,330,644.5,330,644.5,330,644.5,330,644.5,330,644.5,330,646,351.5,646,351.5,646,351.5,646,351.5,646,351.5,646,351.5,646,351.5,646,351.5,646,351.5,646,351.5,646,351.5,646,351.5,646,351.5,646,351.5,646,351.5,646,351.5,606.5,367.5,606.5,367.5,606.5,367.5,606.5,367.5,606.5,367.5,606.5,367.5,606.5,367.5,606.5,367.5,606.5,367.5,606.5,367.5,606.5,367.5,606.5,367.5,606.5,367.5,606.5,367.5,606.5,367.5,606.5,367.5,609,344,609,344,609,344,609,344,609,344,609,344,609,344,609,344,609,344,609,344,609,344,609,344,609,344,609,344,609,344,609,344"></polygon><polygon data-id="27086" data-section="10" data-section_name="10" data-build="2" data-build_name="5" data-floor="2" data-type="flat" class="s3d-svg__build js-s3d-svg__build" points="481.66666666667,674.66666666667,488,677.66666666667,493,674.33333333333,499,673.33333333333,507.33333333333,669,511,663.66666666667,512,657.66666666667,551.33333333333,635.33333333333,551,613.33333333333,510.33333333333,635,510.33333333333,640.66666666667,507,642.66666666667,498,649.33333333333,480.33333333333,652.66666666667"></polygon><polygon data-id="27100" data-section="10" data-section_name="10" data-build="2" data-build_name="5" data-floor="2" data-type="flat" class="s3d-svg__build js-s3d-svg__build" points="441.66666666667,663.66666666667,449.66666666667,660,459.66666666667,664.33333333333,480.33333333333,652.66666666667,481.66666666667,674.66666666667,462,686.33333333333,453,682.33333333333,443,684.66666666667,422,675.33333333333,418,677,395.66666666667,667.33333333333,387,666.33333333333,380,664.66666666667,378,642.66666666667,419.33333333333,656.66666666667"></polygon><polygon data-id="27114" data-section="10" data-section_name="10" data-build="2" data-build_name="5" data-floor="2" data-type="flat" class="s3d-svg__build js-s3d-svg__build" points="321.5,612,324,635,316.66666666667,633,309.66666666667,629.66666666667,307.33333333333,626.33333333333,289.66666666667,617.33333333333,290,613.66666666667,284.66666666667,611.66666666667,284,596"></polygon><polygon data-id="27087" data-section="10" data-section_name="10" data-build="2" data-build_name="5" data-floor="3" data-type="flat" class="s3d-svg__build js-s3d-svg__build" points="479,632.33333333333,479,632.33333333333,485.66666666667,635,496.66666666667,631,504.33333333333,626.66666666667,508.66666666667,621.33333333333,509.33333333333,615.66666666667,550,593.33333333333,551,613.33333333333,510.33333333333,635,510.33333333333,635,510.33333333333,640.66666666667,510.33333333333,640.66666666667,510.33333333333,640.66666666667,510.33333333333,640.66666666667,507,642.66666666667,498,649.33333333333,480.33333333333,652.66666666667"></polygon><polygon data-id="27101" data-section="10" data-section_name="10" data-build="2" data-build_name="5" data-floor="3" data-type="flat" class="s3d-svg__build js-s3d-svg__build" points="439.66666666667,643.33333333333,446.66666666667,638.66666666667,458.33333333333,643.66666666667,479,632.33333333333,480.33333333333,652.66666666667,459.66666666667,664.33333333333,449.66666666667,660,441.66666666667,663.66666666667,419.33333333333,656.66666666667,378,642.66666666667,376.33333333333,621.66666666667,382.66666666667,623.66666666667,392.66666666667,627.33333333333,413,636.66666666667,417.33333333333,635"></polygon><polygon data-id="27115" data-section="10" data-section_name="10" data-build="2" data-build_name="5" data-floor="3" data-type="flat" class="s3d-svg__build js-s3d-svg__build" points="321.5,612,320,592,284,580,284,596"></polygon><polygon data-id="27088" data-section="10" data-section_name="10" data-build="2" data-build_name="5" data-floor="4" data-type="flat" class="s3d-svg__build js-s3d-svg__build" points="478.66666666667,612,478.66666666667,612,484.66666666667,613.33333333333,495.66666666667,609.33333333333,504,606,508.33333333333,601,508,594.66666666667,549,573.66666666667,550,593.33333333333,509.33333333333,615.66666666667,508.66666666667,621.33333333333,504.33333333333,626.66666666667,496.66666666667,631,485.66666666667,635,479,632.33333333333"></polygon><polygon data-id="27102" data-section="10" data-section_name="10" data-build="2" data-build_name="5" data-floor="4" data-type="flat" class="s3d-svg__build js-s3d-svg__build" points="439,622,446.66666666667,619,456.66666666667,622.33333333333,478.66666666667,612,479,632.33333333333,458.33333333333,643.66666666667,446.66666666667,638.66666666667,439.66666666667,643.33333333333,417.33333333333,635,413,636.66666666667,392.66666666667,627.33333333333,382.66666666667,623.66666666667,376.33333333333,621.66666666667,374.66666666667,601.66666666667,382,604,390.66666666667,605.33333333333,412.33333333333,614.66666666667,416.66666666667,614"></polygon><polygon data-id="27116" data-section="10" data-section_name="10" data-build="2" data-build_name="5" data-floor="4" data-type="flat" class="s3d-svg__build js-s3d-svg__build" points="318,571,318,571,318,571,318,571,318,571,318,571,318,571,318,571,318,571,318,571,318,571,318,571,318,571,318,571,318,571,318,571,320,592,320,592,320,592,320,592,320,592,320,592,320,592,320,592,320,592,320,592,320,592,320,592,320,592,320,592,320,592,320,592,284,580,284,580,284,580,284,580,284,580,284,580,284,580,284,580,284,580,284,580,284,580,284,580,284,580,284,580,284,580,284,580,284,561.5,284,561.5,284,561.5,284,561.5,284,561.5,284,561.5,284,561.5,284,561.5,284,561.5,284,561.5,284,561.5,284,561.5,284,561.5,284,561.5,284,561.5,284,561.5"></polygon><polygon data-id="27089" data-section="10" data-section_name="10" data-build="2" data-build_name="5" data-floor="5" data-type="flat" class="s3d-svg__build js-s3d-svg__build" points="477,590,477,590,483,592.66666666667,494.33333333333,589.33333333333,503,584.66666666667,506.66666666667,580.33333333333,508,573.33333333333,548,553.33333333333,549,573.66666666667,508,594.66666666667,508.33333333333,601,504,606,495.66666666667,609.33333333333,484.66666666667,613.33333333333,478.66666666667,612"></polygon><polygon data-id="27103" data-section="10" data-section_name="10" data-build="2" data-build_name="5" data-floor="5" data-type="flat" class="s3d-svg__build js-s3d-svg__build" points="436.66666666667,602,444.66666666667,598,455.66666666667,601,477,590,478.66666666667,612,456.66666666667,622.33333333333,446.66666666667,619,439,622,416.66666666667,614,412.33333333333,614.66666666667,390.66666666667,605.33333333333,382,604,374.66666666667,601.66666666667,372.66666666667,580,379.66666666667,582.33333333333,390,585.66666666667,409.33333333333,594.33333333333,415,593"></polygon><polygon data-id="27117" data-section="10" data-section_name="10" data-build="2" data-build_name="5" data-floor="5" data-type="flat" class="s3d-svg__build js-s3d-svg__build" points="315.5,551,315.5,551,315.5,551,315.5,551,315.5,551,315.5,551,315.5,551,315.5,551,315.5,551,315.5,551,315.5,551,315.5,551,315.5,551,315.5,551,315.5,551,315.5,551,318,571,318,571,318,571,318,571,318,571,318,571,318,571,318,571,318,571,318,571,318,571,318,571,318,571,318,571,318,571,318,571,284,561.5,284,561.5,284,561.5,284,561.5,284,561.5,284,561.5,284,561.5,284,561.5,284,561.5,284,561.5,284,561.5,284,561.5,284,561.5,284,561.5,284,561.5,284,561.5,283.5,540.5,283.5,540.5,283.5,540.5,283.5,540.5,283.5,540.5,283.5,540.5,283.5,540.5,283.5,540.5,283.5,540.5,283.5,540.5,283.5,540.5,283.5,540.5,283.5,540.5,283.5,540.5,283.5,540.5,283.5,540.5"></polygon><polygon data-id="27090" data-section="10" data-section_name="10" data-build="2" data-build_name="5" data-floor="6" data-type="flat" class="s3d-svg__build js-s3d-svg__build" points="476,570,476,570,476,570,476,570,476,570,476,570,476,570,476,570,476,570,476,570,476,570,476,570,476,570,476,570,476,570,476,570,476,570,482,570.66666666667,493.33333333333,567,502.33333333333,562.66666666667,506,553.66666666667,547,532.66666666667,548,553.33333333333,508,573.33333333333,506.66666666667,580.33333333333,503,584.66666666667,494.33333333333,589.33333333333,483,592.66666666667,477,590"></polygon><polygon data-id="27118" data-section="10" data-section_name="10" data-build="2" data-build_name="5" data-floor="6" data-type="flat" class="s3d-svg__build js-s3d-svg__build" points="314.5,531.5,314.5,531.5,314.5,531.5,314.5,531.5,314.5,531.5,314.5,531.5,314.5,531.5,314.5,531.5,314.5,531.5,314.5,531.5,314.5,531.5,314.5,531.5,314.5,531.5,314.5,531.5,314.5,531.5,314.5,531.5,315.5,551,315.5,551,315.5,551,315.5,551,315.5,551,315.5,551,315.5,551,315.5,551,315.5,551,315.5,551,315.5,551,315.5,551,315.5,551,315.5,551,315.5,551,315.5,551,283.5,540.5,283.5,540.5,283.5,540.5,283.5,540.5,283.5,540.5,283.5,540.5,283.5,540.5,283.5,540.5,283.5,540.5,283.5,540.5,283.5,540.5,283.5,540.5,283.5,540.5,283.5,540.5,283.5,540.5,283.5,540.5,281.5,518.5,281.5,518.5,281.5,518.5,281.5,518.5,281.5,518.5,281.5,518.5,281.5,518.5,281.5,518.5,281.5,518.5,281.5,518.5,281.5,518.5,281.5,518.5,281.5,518.5,281.5,518.5,281.5,518.5,281.5,518.5"></polygon><polygon data-id="27104" data-section="10" data-section_name="10" data-build="2" data-build_name="5" data-floor="6" data-type="flat" class="s3d-svg__build js-s3d-svg__build" points="435,579.66666666667,444.33333333333,576.66666666667,454.5,580.5,476,570,477,590,455.66666666667,601,444.66666666667,598,436.66666666667,602,415,593,409.33333333333,594.33333333333,390,585.66666666667,379.66666666667,582.33333333333,372.66666666667,580,372,560,387.33333333333,564,408,573.33333333333,414,571.66666666667"></polygon><polygon data-id="27091" data-section="10" data-section_name="10" data-build="2" data-build_name="5" data-floor="7" data-type="flat" class="s3d-svg__build js-s3d-svg__build" points="473.5,548,479.66666666667,550.33333333333,492,545.66666666667,501.33333333333,543.33333333333,505.33333333333,532.66666666667,545.66666666667,512.33333333333,547,532.66666666667,506,553.66666666667,502.33333333333,562.66666666667,493.33333333333,567,482,570.66666666667,476,570"></polygon><polygon data-id="27105" data-section="10" data-section_name="10" data-build="2" data-build_name="5" data-floor="7" data-type="flat" class="s3d-svg__build js-s3d-svg__build" points="432.5,558.5,441.66666666667,556.33333333333,451.5,558,473.5,548,476,570,454.5,580.5,444.33333333333,576.66666666667,435,579.66666666667,414,571.66666666667,408,573.33333333333,387.33333333333,564,380,563,372,560,369.5,539.5,385.33333333333,544.33333333333,406.33333333333,552,412.33333333333,550.66666666667"></polygon><polygon data-id="27119" data-section="10" data-section_name="10" data-build="2" data-build_name="5" data-floor="7" data-type="flat" class="s3d-svg__build js-s3d-svg__build" points="311.5,510.5,311.5,510.5,311.5,510.5,311.5,510.5,311.5,510.5,311.5,510.5,311.5,510.5,311.5,510.5,311.5,510.5,311.5,510.5,311.5,510.5,311.5,510.5,311.5,510.5,311.5,510.5,311.5,510.5,311.5,510.5,314.5,531.5,314.5,531.5,314.5,531.5,314.5,531.5,314.5,531.5,314.5,531.5,314.5,531.5,314.5,531.5,314.5,531.5,314.5,531.5,314.5,531.5,314.5,531.5,314.5,531.5,314.5,531.5,314.5,531.5,314.5,531.5,281.5,518.5,281.5,518.5,281.5,518.5,281.5,518.5,281.5,518.5,281.5,518.5,281.5,518.5,281.5,518.5,281.5,518.5,281.5,518.5,281.5,518.5,281.5,518.5,281.5,518.5,281.5,518.5,281.5,518.5,281.5,518.5,278.5,499.5,278.5,499.5,278.5,499.5,278.5,499.5,278.5,499.5,278.5,499.5,278.5,499.5,278.5,499.5,278.5,499.5,278.5,499.5,278.5,499.5,278.5,499.5,278.5,499.5,278.5,499.5,278.5,499.5,278.5,499.5"></polygon><polygon data-id="27092" data-section="10" data-section_name="10" data-build="2" data-build_name="5" data-floor="8" data-type="flat" class="s3d-svg__build js-s3d-svg__build" points="473.33333333333,527.33333333333,479.66666666667,529.66666666667,490.33333333333,525.66666666667,498.66666666667,522,504.33333333333,511,545,491,545.66666666667,512.33333333333,505.33333333333,532.66666666667,501.33333333333,543.33333333333,492,545.66666666667,479.66666666667,550.33333333333,473.5,548"></polygon><polygon data-id="27106" data-section="10" data-section_name="10" data-build="2" data-build_name="5" data-floor="8" data-type="flat" class="s3d-svg__build js-s3d-svg__build" points="432.66666666667,537,441.66666666667,533.33333333333,451.33333333333,536.66666666667,473.33333333333,527.33333333333,473.5,548,451.5,558,441.66666666667,556.33333333333,432.5,558.5,412.33333333333,550.66666666667,406.33333333333,552,385.33333333333,544.33333333333,369.5,539.5,367.66666666667,517.33333333333,375,520,384.33333333333,522.66666666667,404.66666666667,530.66666666667,410,529.33333333333"></polygon><polygon data-id="27120" data-section="10" data-section_name="10" data-build="2" data-build_name="5" data-floor="8" data-type="flat" class="s3d-svg__build js-s3d-svg__build" points="309,490,309,490,309,490,309,490,309,490,309,490,309,490,309,490,309,490,309,490,309,490,309,490,309,490,309,490,309,490,309,490,311.5,510.5,311.5,510.5,311.5,510.5,311.5,510.5,311.5,510.5,311.5,510.5,311.5,510.5,311.5,510.5,311.5,510.5,311.5,510.5,311.5,510.5,311.5,510.5,311.5,510.5,311.5,510.5,311.5,510.5,311.5,510.5,278.5,499.5,278.5,499.5,278.5,499.5,278.5,499.5,278.5,499.5,278.5,499.5,278.5,499.5,278.5,499.5,278.5,499.5,278.5,499.5,278.5,499.5,278.5,499.5,278.5,499.5,278.5,499.5,278.5,499.5,278.5,499.5,277.5,480.5,277.5,480.5,277.5,480.5,277.5,480.5,277.5,480.5,277.5,480.5,277.5,480.5,277.5,480.5,277.5,480.5,277.5,480.5,277.5,480.5,277.5,480.5,277.5,480.5,277.5,480.5,277.5,480.5,277.5,480.5"></polygon><polygon data-id="27093" data-section="10" data-section_name="10" data-build="2" data-build_name="5" data-floor="9" data-type="flat" class="s3d-svg__build js-s3d-svg__build" points="472,505,472,505,472,505,478,507,489.33333333333,502.66666666667,498.33333333333,498.66666666667,503,494.66666666667,503,488.66666666667,544.66666666667,470,545,491,504.33333333333,511,498.66666666667,522,490.33333333333,525.66666666667,479.66666666667,529.66666666667,473.33333333333,527.33333333333"></polygon><polygon data-id="27107" data-section="10" data-section_name="10" data-build="2" data-build_name="5" data-floor="9" data-type="flat" class="s3d-svg__build js-s3d-svg__build" points="430.33333333333,515,438.66666666667,511.33333333333,450.33333333333,514.66666666667,472,505,473.33333333333,527.33333333333,451.33333333333,536.66666666667,441.66666666667,533.33333333333,432.66666666667,537,410,529.33333333333,404.66666666667,530.66666666667,384.33333333333,522.66666666667,375,520,367.66666666667,517.33333333333,365.33333333333,495.66666666667,373,498.33333333333,383.33333333333,500.66666666667,402,508.33333333333,408.33333333333,507.66666666667"></polygon><polygon data-id="27121" data-section="10" data-section_name="10" data-build="2" data-build_name="5" data-floor="9" data-type="flat" class="s3d-svg__build js-s3d-svg__build" points="307,468.5,307,468.5,307,468.5,307,468.5,307,468.5,307,468.5,307,468.5,307,468.5,307,468.5,307,468.5,307,468.5,307,468.5,307,468.5,307,468.5,307,468.5,307,468.5,309,490,309,490,309,490,309,490,309,490,309,490,309,490,309,490,309,490,309,490,309,490,309,490,309,490,309,490,309,490,309,490,277.5,480.5,277.5,480.5,277.5,480.5,277.5,480.5,277.5,480.5,277.5,480.5,277.5,480.5,277.5,480.5,277.5,480.5,277.5,480.5,277.5,480.5,277.5,480.5,277.5,480.5,277.5,480.5,277.5,480.5,277.5,480.5,274,458.5,274,458.5,274,458.5,274,458.5,274,458.5,274,458.5,274,458.5,274,458.5,274,458.5,274,458.5,274,458.5,274,458.5,274,458.5,274,458.5,274,458.5,274,458.5"></polygon><polygon data-id="27094" data-section="10" data-section_name="10" data-build="2" data-build_name="5" data-floor="10" data-type="flat" class="s3d-svg__build js-s3d-svg__build" points="470.66666666667,483.33333333333,476.66666666667,484.66666666667,488.33333333333,481.33333333333,497.66666666667,477,501.33333333333,472.33333333333,502,466.66666666667,544,449,544.66666666667,470,503,488.66666666667,503,494.66666666667,498.33333333333,498.66666666667,489.33333333333,502.66666666667,478,507,472,505"></polygon><polygon data-id="27108" data-section="10" data-section_name="10" data-build="2" data-build_name="5" data-floor="10" data-type="flat" class="s3d-svg__build js-s3d-svg__build" points="429.33333333333,492.33333333333,438,489.33333333333,450.33333333333,493,470.66666666667,483.33333333333,472,505,450.33333333333,514.66666666667,438.66666666667,511.33333333333,430.33333333333,515,408.33333333333,507.66666666667,402,508.33333333333,383.33333333333,500.66666666667,373,498.33333333333,365.33333333333,495.66666666667,364,473.66666666667,371,476,380.66666666667,478,400,486.66666666667,407,485.33333333333"></polygon><polygon data-id="27122" data-section="10" data-section_name="10" data-build="2" data-build_name="5" data-floor="10" data-type="flat" class="s3d-svg__build js-s3d-svg__build" points="305,447,305,447,305,447,305,447,305,447,305,447,305,447,305,447,305,447,305,447,305,447,305,447,305,447,305,447,305,447,305,447,307,468.5,307,468.5,307,468.5,307,468.5,307,468.5,307,468.5,307,468.5,307,468.5,307,468.5,307,468.5,307,468.5,307,468.5,307,468.5,307,468.5,307,468.5,307,468.5,274,458.5,274,458.5,274,458.5,274,458.5,274,458.5,274,458.5,274,458.5,274,458.5,274,458.5,274,458.5,274,458.5,274,458.5,274,458.5,274,458.5,274,458.5,274,458.5,271.5,436.5,271.5,436.5,271.5,436.5,271.5,436.5,271.5,436.5,271.5,436.5,271.5,436.5,271.5,436.5,271.5,436.5,271.5,436.5,271.5,436.5,271.5,436.5,271.5,436.5,271.5,436.5,271.5,436.5,271.5,436.5"></polygon><polygon data-id="27095" data-section="10" data-section_name="10" data-build="2" data-build_name="5" data-floor="11" data-type="flat" class="s3d-svg__build js-s3d-svg__build" points="469.33333333333,462,475.66666666667,463,486.66666666667,459.33333333333,495.66666666667,456,500,450,501,444.33333333333,542.66666666667,427.66666666667,544,449,502,466.66666666667,501.33333333333,472.33333333333,497.66666666667,477,488.33333333333,481.33333333333,476.66666666667,484.66666666667,470.66666666667,483.33333333333"></polygon><polygon data-id="27109" data-section="10" data-section_name="10" data-build="2" data-build_name="5" data-floor="11" data-type="flat" class="s3d-svg__build js-s3d-svg__build" points="427.66666666667,470,436.66666666667,467.33333333333,447,471,469.33333333333,462,470.66666666667,483.33333333333,450.33333333333,493,438,489.33333333333,429.33333333333,492.33333333333,407,485.33333333333,400,486.66666666667,380.66666666667,478,371,476,364,473.66666666667,361.66666666667,451.66666666667,369,454,378.33333333333,456.66666666667,399.66666666667,464.33333333333,405,463.33333333333"></polygon><polygon data-id="27123" data-section="10" data-section_name="10" data-build="2" data-build_name="5" data-floor="11" data-type="flat" class="s3d-svg__build js-s3d-svg__build" points="303,424.5,303,424.5,303,424.5,303,424.5,303,424.5,303,424.5,303,424.5,303,424.5,303,424.5,303,424.5,303,424.5,303,424.5,303,424.5,303,424.5,303,424.5,303,424.5,305,447,305,447,305,447,305,447,305,447,305,447,305,447,305,447,305,447,305,447,305,447,305,447,305,447,305,447,305,447,305,447,271.5,436.5,271.5,436.5,271.5,436.5,271.5,436.5,271.5,436.5,271.5,436.5,271.5,436.5,271.5,436.5,271.5,436.5,271.5,436.5,271.5,436.5,271.5,436.5,271.5,436.5,271.5,436.5,271.5,436.5,271.5,436.5,271,416,271,416,271,416,271,416,271,416,271,416,271,416,271,416,271,416,271,416,271,416,271,416,271,416,271,416,271,416,271,416"></polygon><polygon data-id="27096" data-section="10" data-section_name="10" data-build="2" data-build_name="5" data-floor="12" data-type="flat" class="s3d-svg__build js-s3d-svg__build" points="467.66666666667,440.66666666667,474,442.66666666667,486.33333333333,437.66666666667,495,434,499,431.33333333333,501.33333333333,426,541.33333333333,408,542.66666666667,427.66666666667,501,444.33333333333,500,450,495.66666666667,456,486.66666666667,459.33333333333,475.66666666667,463,469.33333333333,462"></polygon><polygon data-id="27110" data-section="10" data-section_name="10" data-build="2" data-build_name="5" data-floor="12" data-type="flat" class="s3d-svg__build js-s3d-svg__build" points="426.33333333333,447.66666666667,435.33333333333,446.66666666667,446.66666666667,449.33333333333,467.66666666667,440.66666666667,469.33333333333,462,447,471,436.66666666667,467.33333333333,427.66666666667,470,405,463.33333333333,399.66666666667,464.33333333333,378.33333333333,456.66666666667,369,454,361.66666666667,451.66666666667,360,429,367.33333333333,431.33333333333,377.33333333333,434.33333333333,397,442,403.66666666667,443"></polygon><polygon data-id="27124" data-section="10" data-section_name="10" data-build="2" data-build_name="5" data-floor="12" data-type="flat" class="s3d-svg__build js-s3d-svg__build" points="301,402,301,402,301,402,301,402,301,402,301,402,301,402,301,402,301,402,301,402,301,402,301,402,301,402,301,402,301,402,301,402,303,424.5,303,424.5,303,424.5,303,424.5,303,424.5,303,424.5,303,424.5,303,424.5,303,424.5,303,424.5,303,424.5,303,424.5,303,424.5,303,424.5,303,424.5,303,424.5,271,416,271,416,271,416,271,416,271,416,271,416,271,416,271,416,271,416,271,416,271,416,271,416,271,416,271,416,271,416,271,416,269,395.5,269,395.5,269,395.5,269,395.5,269,395.5,269,395.5,269,395.5,269,395.5,269,395.5,269,395.5,269,395.5,269,395.5,269,395.5,269,395.5,269,395.5,269,395.5"></polygon><polygon data-id="27097" data-section="10" data-section_name="10" data-build="2" data-build_name="5" data-floor="13" data-type="flat" class="s3d-svg__build js-s3d-svg__build" points="466.66666666667,416.66666666667,466.66666666667,416.66666666667,472.66666666667,418.66666666667,485.33333333333,415.33333333333,493.33333333333,411.33333333333,497.33333333333,406.33333333333,499,401,541,383.33333333333,541.33333333333,408,501.33333333333,426,499,431.33333333333,495,434,486.33333333333,437.66666666667,474,442.66666666667,467.66666666667,440.66666666667"></polygon><polygon data-id="27111" data-section="10" data-section_name="10" data-build="2" data-build_name="5" data-floor="13" data-type="flat" class="s3d-svg__build js-s3d-svg__build" points="424.66666666667,424.66666666667,433.66666666667,421.33333333333,444.66666666667,425,466.66666666667,416.66666666667,467.66666666667,440.66666666667,446.66666666667,449.33333333333,435.33333333333,446.66666666667,426.33333333333,447.66666666667,403.66666666667,443,397,442,377.33333333333,434.33333333333,367.33333333333,431.33333333333,360,429,358,406.66666666667,365,408.66666666667,374.33333333333,410.66666666667,396.33333333333,418.33333333333,402,417.66666666667"></polygon><polygon data-id="27125" data-section="10" data-section_name="10" data-build="2" data-build_name="5" data-floor="13" data-type="flat" class="s3d-svg__build js-s3d-svg__build" points="299.5,382.5,299.5,382.5,299.5,382.5,299.5,382.5,299.5,382.5,299.5,382.5,299.5,382.5,299.5,382.5,299.5,382.5,299.5,382.5,299.5,382.5,299.5,382.5,299.5,382.5,299.5,382.5,299.5,382.5,299.5,382.5,301,402,301,402,301,402,301,402,301,402,301,402,301,402,301,402,301,402,301,402,301,402,301,402,301,402,301,402,301,402,301,402,269,395.5,269,395.5,269,395.5,269,395.5,269,395.5,269,395.5,269,395.5,269,395.5,269,395.5,269,395.5,269,395.5,269,395.5,269,395.5,269,395.5,269,395.5,269,395.5,263.5,372.5,263.5,372.5,263.5,372.5,263.5,372.5,263.5,372.5,263.5,372.5,263.5,372.5,263.5,372.5,263.5,372.5,263.5,372.5,263.5,372.5,263.5,372.5,263.5,372.5,263.5,372.5,263.5,372.5,263.5,372.5"></polygon><polygon data-id="27098" data-section="10" data-section_name="10" data-build="2" data-build_name="5" data-floor="14" data-type="flat" class="s3d-svg__build js-s3d-svg__build" points="465.66666666667,392.33333333333,465.66666666667,392.33333333333,472,394.66666666667,483.66666666667,392.33333333333,491.66666666667,388.66666666667,496,384,498.33333333333,378,540.33333333333,361,541,383.33333333333,499,401,497.33333333333,406.33333333333,493.33333333333,411.33333333333,485.33333333333,415.33333333333,472.66666666667,418.66666666667,466.66666666667,416.66666666667"></polygon><polygon data-id="27112" data-section="10" data-section_name="10" data-build="2" data-build_name="5" data-floor="14" data-type="flat" class="s3d-svg__build js-s3d-svg__build" points="423.33333333333,401,432,397.66666666667,443.33333333333,401,465.66666666667,392.33333333333,466.66666666667,416.66666666667,444.66666666667,425,433.66666666667,421.33333333333,424.66666666667,424.66666666667,402,417.66666666667,396.33333333333,418.33333333333,374.33333333333,410.66666666667,365,408.66666666667,358,406.66666666667,356.33333333333,383.66666666667,363.33333333333,386.33333333333,372.66666666667,388.66666666667,393.66666666667,395.33333333333,400,394"></polygon><polygon data-id="27126" data-section="10" data-section_name="10" data-build="2" data-build_name="5" data-floor="14" data-type="flat" class="s3d-svg__build js-s3d-svg__build" points="297.66536458333,361.83333333333,297.66536458333,361.83333333333,297.66536458333,361.83333333333,297.66536458333,361.83333333333,297.66536458333,361.83333333333,297.66536458333,361.83333333333,297.66536458333,361.83333333333,297.66536458333,361.83333333333,297.66536458333,361.83333333333,297.66536458333,361.83333333333,297.66536458333,361.83333333333,297.66536458333,361.83333333333,297.66536458333,361.83333333333,297.66536458333,361.83333333333,297.66536458333,361.83333333333,297.66536458333,361.83333333333,299.5,382.5,299.5,382.5,299.5,382.5,299.5,382.5,299.5,382.5,299.5,382.5,299.5,382.5,299.5,382.5,299.5,382.5,299.5,382.5,299.5,382.5,299.5,382.5,299.5,382.5,299.5,382.5,299.5,382.5,299.5,382.5,263.5,372.5,263.5,372.5,263.5,372.5,263.5,372.5,263.5,372.5,263.5,372.5,263.5,372.5,263.5,372.5,263.5,372.5,263.5,372.5,263.5,372.5,263.5,372.5,263.5,372.5,263.5,372.5,263.5,372.5,263.5,372.5,263.16536458333,350.16666666667,263.16536458333,350.16666666667,263.16536458333,350.16666666667,263.16536458333,350.16666666667,263.16536458333,350.16666666667,263.16536458333,350.16666666667,263.16536458333,350.16666666667,263.16536458333,350.16666666667,263.16536458333,350.16666666667,263.16536458333,350.16666666667,263.16536458333,350.16666666667,263.16536458333,350.16666666667,263.16536458333,350.16666666667,263.16536458333,350.16666666667,263.16536458333,350.16666666667,263.16536458333,350.16666666667"></polygon><polygon data-id="27099" data-section="10" data-section_name="10" data-build="2" data-build_name="5" data-floor="15" data-type="flat" class="s3d-svg__build js-s3d-svg__build" points="463.33333333333,369.33333333333,469.33333333333,372.33333333333,482.33333333333,369,490.33333333333,366,495.33333333333,358,539.33333333333,341,540.33333333333,361,498.33333333333,378,496,384,491.66666666667,388.66666666667,483.66666666667,392.33333333333,472,394.66666666667,465.66666666667,392.33333333333"></polygon><polygon data-id="27130" data-section="10" data-section_name="10" data-build="2" data-build_name="5" data-floor="16" data-type="flat" class="s3d-svg__build js-s3d-svg__build" points="352.33333333333,341,367.66666666667,343.66666666667,391,350,404.66666666667,345.66666666667,411,347.33333333333,433.33333333333,339.33333333333,460.33333333333,345,463.33333333333,369.33333333333,428.33333333333,383.66666666667,370,365,361.66666666667,363.66666666667,354.33333333333,360.33333333333"></polygon></svg>