<svg  viewBox="0 0 1440 810" id="floor--svg" version="1.0" xmlns="http://www.w3.org/2000/svg" preserveAspectRatio="xMidYMid slice"><polygon data-id="26602" data-section="5" data-section_name="5" data-build="1" data-build_name="4" data-floor="16" data-type="flat" class="s3d-svg__build js-s3d-svg__build" points="823.66666666667,299.77779134115,844.33333333333,306.94445800781,844.33333333333,310.94445800781,868.5,318.94445800781,868.33333333333,321.94445800781,893.33333333333,328.44445800781,898,327.11112467448,929,335.27779134115,939,331.27779134115,948.66666666667,333.61112467448,985.33333333333,317.11112467448,984.66666666667,339.77779134115,945.33333333333,356.44445800781,938.66666666667,353.11112467448,926.5,357.27779134115,893.83333333333,349.27779134115,888,349.77779134115,879,347.11112467448,876,342.94445800781,848.5,335.27779134115,855.83333333333,330.94445800781,824,322.61112467448"></polygon><polygon data-id="26601" data-section="5" data-section_name="5" data-build="1" data-build_name="4" data-floor="15" data-type="flat" class="s3d-svg__build js-s3d-svg__build" points="824,322.61112467448,855.83333333333,330.94445800781,848.5,335.27779134115,876,342.94445800781,879,347.11112467448,888,349.77779134115,893.83333333333,349.27779134115,926.5,357.27779134115,938.66666666667,353.11112467448,945.33333333333,356.44445800781,984.66666666667,339.77779134115,983.16666666667,361.16666666667,944,380.16666666667,937.66666666667,375.66666666667,925.33333333333,381.16666666667,893.33333333333,371.66666666667,887.33333333333,373,877,370.33333333333,875,365.5,847.66666666667,357.5,856,353,823.66666666667,343.83333333333"></polygon><polygon data-id="26268" data-section="7" data-section_name="7" data-build="2" data-build_name="5" data-floor="2" data-type="flat" class="s3d-svg__build js-s3d-svg__build" points="595,558.5,595,558.5,614.33333333333,565.33333333333,614.33333333333,565.33333333333,618,547.33333333333,618,547.33333333333,598.5,540,598.5,540"></polygon><polygon data-id="26271" data-section="7" data-section_name="7" data-build="2" data-build_name="5" data-floor="6" data-type="flat" class="s3d-svg__build js-s3d-svg__build" points="708.5,532.5,708.5,532.5,708.5,532.5,708.5,532.5,717,540.5,717,540.5,717,540.5,717,540.5,726.5,540.5,726.5,540.5,726.5,540.5,726.5,540.5,747.5,550.5,747.5,550.5,747.5,550.5,747.5,550.5,754.5,547.5,754.5,547.5,754.5,547.5,754.5,547.5,776,553.5,776,553.5,776,553.5,776,553.5,776,532.5,776,532.5,776,532.5,776,532.5,758,528,758,528,758,528,758,528,748,530.5,748,530.5,748,530.5,748,530.5,740.5,527.5,740.5,527.5,740.5,527.5,740.5,527.5,727,521.5,727,521.5,727,521.5,727,521.5,709,517.5,709,517.5,709,517.5,709,517.5"></polygon><polygon data-id="26637" data-section="8" data-section_name="8" data-build="2" data-build_name="5" data-floor="2" data-type="flat" class="s3d-svg__build js-s3d-svg__build" points="492,518.5,492,518.5,492,518.5,492,518.5,482,518.5,482,518.5,482,518.5,482,518.5,477.5,515,477.5,515,477.5,515,477.5,515,465.5,508.5,465.5,508.5,465.5,508.5,465.5,508.5,465.5,489.5,465.5,489.5,465.5,489.5,465.5,489.5,475,494.5,475,494.5,475,494.5,475,494.5,485.5,498,485.5,498,485.5,498,485.5,498,491.5,497,491.5,497,491.5,497,491.5,497"></polygon><polygon data-id="26662" data-section="8" data-section_name="8" data-build="2" data-build_name="5" data-floor="2" data-type="flat" class="s3d-svg__build js-s3d-svg__build" points="543,525,543,525,543,525,543,525,544.5,544,544.5,544,544.5,544,544.5,544,552.5,547.5,552.5,547.5,552.5,547.5,552.5,547.5,560,548.5,560,548.5,560,548.5,560,548.5,578,556.5,578,556.5,578,556.5,578,556.5,584,553,584,553,584,553,584,553,595,558.5,595,558.5,595,558.5,595,558.5,598.5,540,598.5,540,598.5,540,598.5,540,586,535,586,535,586,535,586,535,577,538.5,577,538.5,577,538.5,577,538.5"></polygon><polygon data-id="26663" data-section="8" data-section_name="8" data-build="2" data-build_name="5" data-floor="3" data-type="flat" class="s3d-svg__build js-s3d-svg__build" points="578.5,519,578.5,519,578.5,519,578.5,519,585.5,517.5,585.5,517.5,585.5,517.5,585.5,517.5,598,519.5,598,519.5,598,519.5,598,519.5,598.5,540,598.5,540,598.5,540,598.5,540,586,535,586,535,586,535,586,535,577,538.5,577,538.5,577,538.5,577,538.5,543,525,543,525,543,525,543,525,544.5,508,544.5,508,544.5,508,544.5,508"></polygon><polygon data-id="26664" data-section="8" data-section_name="8" data-build="2" data-build_name="5" data-floor="4" data-type="flat" class="s3d-svg__build js-s3d-svg__build" points="577.5,500.5,577.5,500.5,577.5,500.5,577.5,500.5,585.5,498.5,585.5,498.5,585.5,498.5,585.5,498.5,598.5,503.5,598.5,503.5,598.5,503.5,598.5,503.5,598,519.5,598,519.5,598,519.5,598,519.5,585.5,517.5,585.5,517.5,585.5,517.5,585.5,517.5,578.5,519,578.5,519,578.5,519,578.5,519,544.5,508,544.5,508,544.5,508,544.5,508,543,489.5,543,489.5,543,489.5,543,489.5"></polygon><polygon data-id="26665" data-section="8" data-section_name="8" data-build="2" data-build_name="5" data-floor="5" data-type="flat" class="s3d-svg__build js-s3d-svg__build" points="575.5,480.5,575.5,480.5,575.5,480.5,575.5,480.5,584.5,479,584.5,479,584.5,479,584.5,479,596.5,483,596.5,483,596.5,483,596.5,483,598.5,503.5,598.5,503.5,598.5,503.5,598.5,503.5,585.5,498.5,585.5,498.5,585.5,498.5,585.5,498.5,577.5,500.5,577.5,500.5,577.5,500.5,577.5,500.5,543,489.5,543,489.5,543,489.5,543,489.5,542,469,542,469,542,469,542,469"></polygon><polygon data-id="26629" data-section="8" data-section_name="8" data-build="2" data-build_name="5" data-floor="6" data-type="flat" class="s3d-svg__build js-s3d-svg__build" points="464.5,429,464.5,429,464.5,429,464.5,429,455.5,425.5,455.5,425.5,455.5,425.5,455.5,425.5,454.5,409,454.5,409,454.5,409,454.5,409,461.5,410.5,461.5,410.5,461.5,410.5,461.5,410.5"></polygon><polygon data-id="26666" data-section="8" data-section_name="8" data-build="2" data-build_name="5" data-floor="6" data-type="flat" class="s3d-svg__build js-s3d-svg__build" points="575,461.5,575,461.5,575,461.5,575,461.5,583.5,459,583.5,459,583.5,459,583.5,459,596.5,464.5,596.5,464.5,596.5,464.5,596.5,464.5,596.5,483,596.5,483,596.5,483,596.5,483,584.5,479,584.5,479,584.5,479,584.5,479,575.5,480.5,575.5,480.5,575.5,480.5,575.5,480.5,542,469,542,469,542,469,542,469,541,450.5,541,450.5,541,450.5,541,450.5"></polygon><polygon data-id="26638" data-section="8" data-section_name="8" data-build="2" data-build_name="5" data-floor="7" data-type="flat" class="s3d-svg__build js-s3d-svg__build" points="486,409,486,409,486,409,486,409,487.5,424,487.5,424,487.5,424,487.5,424,474.5,422.5,474.5,422.5,474.5,422.5,474.5,422.5,464.5,416.5,464.5,416.5,464.5,416.5,464.5,416.5,465,400.5,465,400.5,465,400.5,465,400.5"></polygon><polygon data-id="26667" data-section="8" data-section_name="8" data-build="2" data-build_name="5" data-floor="7" data-type="flat" class="s3d-svg__build js-s3d-svg__build" points="574,443,574,443,574,443,574,443,582.5,442,582.5,442,582.5,442,582.5,442,596.5,445,596.5,445,596.5,445,596.5,445,596.5,464.5,596.5,464.5,596.5,464.5,596.5,464.5,583.5,459,583.5,459,583.5,459,583.5,459,575,461.5,575,461.5,575,461.5,575,461.5,541,450.5,541,450.5,541,450.5,541,450.5,539,431,539,431,539,431,539,431"></polygon><polygon data-id="26668" data-section="8" data-section_name="8" data-build="2" data-build_name="5" data-floor="8" data-type="flat" class="s3d-svg__build js-s3d-svg__build" points="574,423.5,574,423.5,574,423.5,574,423.5,581.5,419.5,581.5,419.5,581.5,419.5,581.5,419.5,595,423.5,595,423.5,595,423.5,595,423.5,596.5,445,596.5,445,596.5,445,596.5,445,582.5,442,582.5,442,582.5,442,582.5,442,574,443,574,443,574,443,574,443,539,431,539,431,539,431,539,431,539.5,412,539.5,412,539.5,412,539.5,412"></polygon><polygon data-id="26669" data-section="8" data-section_name="8" data-build="2" data-build_name="5" data-floor="9" data-type="flat" class="s3d-svg__build js-s3d-svg__build" points="574.5,403,574.5,403,574.5,403,574.5,403,580,400.5,580,400.5,580,400.5,580,400.5,594.5,403.5,594.5,403.5,594.5,403.5,594.5,403.5,595,423.5,595,423.5,595,423.5,595,423.5,581.5,419.5,581.5,419.5,581.5,419.5,581.5,419.5,574,423.5,574,423.5,574,423.5,574,423.5,539.5,412,539.5,412,539.5,412,539.5,412,537.5,393,537.5,393,537.5,393,537.5,393"></polygon><polygon data-id="26889" data-section="8" data-section_name="8" data-build="2" data-build_name="5" data-floor="9" data-type="flat" class="s3d-svg__build js-s3d-svg__build" points="537.5,393,537.5,393,537.5,393,537.5,393,539.5,412,539.5,412,539.5,412,539.5,412,513,401,513,401,513,401,513,401,512.5,381,512.5,381,512.5,381,512.5,381"></polygon><polygon data-id="26896" data-section="8" data-section_name="8" data-build="2" data-build_name="5" data-floor="9" data-type="flat" class="s3d-svg__build js-s3d-svg__build" points="512.5,381,512.5,381,512.5,381,512.5,381,513,401,513,401,513,401,513,401,487.5,389.5,487.5,389.5,487.5,389.5,487.5,389.5,487,372,487,372,487,372,487,372"></polygon><polygon data-id="26910" data-section="8" data-section_name="8" data-build="2" data-build_name="5" data-floor="9" data-type="flat" class="s3d-svg__build js-s3d-svg__build" points="459,370.5,459,370.5,459,370.5,459,370.5,450.5,369.5,450.5,369.5,450.5,369.5,450.5,369.5,450.5,351,450.5,351,450.5,351,450.5,351,459,355.5,459,355.5,459,355.5,459,355.5"></polygon><polygon data-id="26917" data-section="8" data-section_name="8" data-build="2" data-build_name="5" data-floor="9" data-type="flat" class="s3d-svg__build js-s3d-svg__build" points="487,372,487,372,487,372,487,372,487.5,389.5,487.5,389.5,487.5,389.5,487.5,389.5,473,389,473,389,473,389,473,389,462,382,462,382,462,382,462,382,461,362.5,461,362.5,461,362.5,461,362.5,472,370.5,472,370.5,472,370.5,472,370.5"></polygon><polygon data-id="26670" data-section="8" data-section_name="8" data-build="2" data-build_name="5" data-floor="10" data-type="flat" class="s3d-svg__build js-s3d-svg__build" points="573,383,573,383,573,383,573,383,580,381.5,580,381.5,580,381.5,580,381.5,595,384,595,384,595,384,595,384,594.5,403.5,594.5,403.5,594.5,403.5,594.5,403.5,580,400.5,580,400.5,580,400.5,580,400.5,574.5,403,574.5,403,574.5,403,574.5,403,537.5,393,537.5,393,537.5,393,537.5,393,536.5,372.5,536.5,372.5,536.5,372.5,536.5,372.5"></polygon><polygon data-id="26890" data-section="8" data-section_name="8" data-build="2" data-build_name="5" data-floor="10" data-type="flat" class="s3d-svg__build js-s3d-svg__build" points="535.5,387,535.5,387,535.5,387,535.5,387,512.5,381,512.5,381,512.5,381,512.5,381,511.5,361.5,511.5,361.5,511.5,361.5,511.5,361.5,536.5,372.5,536.5,372.5,536.5,372.5,536.5,372.5"></polygon><polygon data-id="26897" data-section="8" data-section_name="8" data-build="2" data-build_name="5" data-floor="10" data-type="flat" class="s3d-svg__build js-s3d-svg__build" points="512.5,381,512.5,381,512.5,381,512.5,381,487,372,487,372,487,372,487,372,484.5,354,484.5,354,484.5,354,484.5,354,511.5,361.5,511.5,361.5,511.5,361.5,511.5,361.5"></polygon><polygon data-id="26911" data-section="8" data-section_name="8" data-build="2" data-build_name="5" data-floor="10" data-type="flat" class="s3d-svg__build js-s3d-svg__build" points="459,355.5,459,355.5,459,355.5,459,355.5,450.5,351,450.5,351,450.5,351,450.5,351,449,333,449,333,449,333,449,333,457.5,337,457.5,337,457.5,337,457.5,337"></polygon><polygon data-id="26918" data-section="8" data-section_name="8" data-build="2" data-build_name="5" data-floor="10" data-type="flat" class="s3d-svg__build js-s3d-svg__build" points="484.5,354,484.5,354,484.5,354,484.5,354,487,372,487,372,487,372,487,372,472,370.5,472,370.5,472,370.5,472,370.5,461,362.5,461,362.5,461,362.5,461,362.5,461,344.5,461,344.5,461,344.5,461,344.5"></polygon><polygon data-id="26671" data-section="8" data-section_name="8" data-build="2" data-build_name="5" data-floor="11" data-type="flat" class="s3d-svg__build js-s3d-svg__build" points="571,363.5,571,363.5,571,363.5,571,363.5,578.5,361,578.5,361,578.5,361,578.5,361,592.5,363,592.5,363,592.5,363,592.5,363,595,384,595,384,595,384,595,384,580,381.5,580,381.5,580,381.5,580,381.5,573,383,573,383,573,383,573,383,536.5,372.5,536.5,372.5,536.5,372.5,536.5,372.5,537,353.5,537,353.5,537,353.5,537,353.5"></polygon><polygon data-id="26891" data-section="8" data-section_name="8" data-build="2" data-build_name="5" data-floor="11" data-type="flat" class="s3d-svg__build js-s3d-svg__build" points="537,353.5,537,353.5,537,353.5,537,353.5,536.5,372.5,536.5,372.5,536.5,372.5,536.5,372.5,511.5,361.5,511.5,361.5,511.5,361.5,511.5,361.5,509.5,340.5,509.5,340.5,509.5,340.5,509.5,340.5"></polygon><polygon data-id="26898" data-section="8" data-section_name="8" data-build="2" data-build_name="5" data-floor="11" data-type="flat" class="s3d-svg__build js-s3d-svg__build" points="509.5,340.5,509.5,340.5,509.5,340.5,509.5,340.5,511.5,361.5,511.5,361.5,511.5,361.5,511.5,361.5,484.5,354,484.5,354,484.5,354,484.5,354,483,333,483,333,483,333,483,333"></polygon><polygon data-id="26912" data-section="8" data-section_name="8" data-build="2" data-build_name="5" data-floor="11" data-type="flat" class="s3d-svg__build js-s3d-svg__build" points="457.5,320.5,457.5,320.5,457.5,320.5,457.5,320.5,457.5,337,457.5,337,457.5,337,457.5,337,449,333,449,333,449,333,449,333,448.5,314,448.5,314,448.5,314,448.5,314"></polygon><polygon data-id="26919" data-section="8" data-section_name="8" data-build="2" data-build_name="5" data-floor="11" data-type="flat" class="s3d-svg__build js-s3d-svg__build" points="483,333,483,333,483,333,483,333,484.5,354,484.5,354,484.5,354,484.5,354,461,344.5,461,344.5,461,344.5,461,344.5,457.5,320.5,457.5,320.5,457.5,320.5,457.5,320.5"></polygon><polygon data-id="26672" data-section="8" data-section_name="8" data-build="2" data-build_name="5" data-floor="12" data-type="flat" class="s3d-svg__build js-s3d-svg__build" points="572,341,572,341,572,341,572,341,579,341,579,341,579,341,579,341,592.5,343.5,592.5,343.5,592.5,343.5,592.5,343.5,592.5,363,592.5,363,592.5,363,592.5,363,578.5,361,578.5,361,578.5,361,578.5,361,571,363.5,571,363.5,571,363.5,571,363.5,537,353.5,537,353.5,537,353.5,537,353.5,535.5,331.5,535.5,331.5,535.5,331.5,535.5,331.5"></polygon><polygon data-id="26892" data-section="8" data-section_name="8" data-build="2" data-build_name="5" data-floor="12" data-type="flat" class="s3d-svg__build js-s3d-svg__build" points="535.5,331.5,535.5,331.5,535.5,331.5,535.5,331.5,537,353.5,537,353.5,537,353.5,537,353.5,509.5,340.5,509.5,340.5,509.5,340.5,509.5,340.5,509.5,321.5,509.5,321.5,509.5,321.5,509.5,321.5"></polygon><polygon data-id="26899" data-section="8" data-section_name="8" data-build="2" data-build_name="5" data-floor="12" data-type="flat" class="s3d-svg__build js-s3d-svg__build" points="509.5,321.5,509.5,321.5,509.5,321.5,509.5,321.5,509.5,340.5,509.5,340.5,509.5,340.5,509.5,340.5,483,333,483,333,483,333,483,333,481,313.5,481,313.5,481,313.5,481,313.5"></polygon><polygon data-id="26913" data-section="8" data-section_name="8" data-build="2" data-build_name="5" data-floor="12" data-type="flat" class="s3d-svg__build js-s3d-svg__build" points="457.5,320.5,457.5,320.5,457.5,320.5,457.5,320.5,448.5,314,448.5,314,448.5,314,448.5,314,449,296,449,296,449,296,449,296,455.5,298,455.5,298,455.5,298,455.5,298"></polygon><polygon data-id="26920" data-section="8" data-section_name="8" data-build="2" data-build_name="5" data-floor="12" data-type="flat" class="s3d-svg__build js-s3d-svg__build" points="481,313.5,481,313.5,481,313.5,481,313.5,483,333,483,333,483,333,483,333,467.5,326.5,467.5,326.5,467.5,326.5,467.5,326.5,457.5,320.5,457.5,320.5,457.5,320.5,457.5,320.5,457,304.5,457,304.5,457,304.5,457,304.5"></polygon><polygon data-id="26673" data-section="8" data-section_name="8" data-build="2" data-build_name="5" data-floor="13" data-type="flat" class="s3d-svg__build js-s3d-svg__build" points="572.5,321.5,572.5,321.5,572.5,321.5,572.5,321.5,580,321.5,580,321.5,580,321.5,580,321.5,592.5,321.5,592.5,321.5,592.5,321.5,592.5,321.5,592.5,343.5,592.5,343.5,592.5,343.5,592.5,343.5,579,341,579,341,579,341,579,341,572,341,572,341,572,341,572,341,535.5,331.5,535.5,331.5,535.5,331.5,535.5,331.5,536.5,313.5,536.5,313.5,536.5,313.5,536.5,313.5"></polygon><polygon data-id="26893" data-section="8" data-section_name="8" data-build="2" data-build_name="5" data-floor="13" data-type="flat" class="s3d-svg__build js-s3d-svg__build" points="536.5,313.5,536.5,313.5,536.5,313.5,536.5,313.5,535.5,331.5,535.5,331.5,535.5,331.5,535.5,331.5,509.5,321.5,509.5,321.5,509.5,321.5,509.5,321.5,508,300.5,508,300.5,508,300.5,508,300.5"></polygon><polygon data-id="26900" data-section="8" data-section_name="8" data-build="2" data-build_name="5" data-floor="13" data-type="flat" class="s3d-svg__build js-s3d-svg__build" points="508,300.5,508,300.5,508,300.5,508,300.5,509.5,321.5,509.5,321.5,509.5,321.5,509.5,321.5,481,313.5,481,313.5,481,313.5,481,313.5,481,293.5,481,293.5,481,293.5,481,293.5"></polygon><polygon data-id="26921" data-section="8" data-section_name="8" data-build="2" data-build_name="5" data-floor="13" data-type="flat" class="s3d-svg__build js-s3d-svg__build" points="481,293.5,481,293.5,481,293.5,481,293.5,481,313.5,481,313.5,481,313.5,481,313.5,457,304.5,457,304.5,457,304.5,457,304.5,457.5,286,457.5,286,457.5,286,457.5,286"></polygon><polygon data-id="26914" data-section="8" data-section_name="8" data-build="2" data-build_name="5" data-floor="13" data-type="flat" class="s3d-svg__build js-s3d-svg__build" points="455,279.5,455,279.5,455,279.5,455,279.5,455.5,298,455.5,298,455.5,298,455.5,298,449,296,449,296,449,296,449,296,446,276,446,276,446,276,446,276"></polygon><polygon data-id="26894" data-section="8" data-section_name="8" data-build="2" data-build_name="5" data-floor="14" data-type="flat" class="s3d-svg__build js-s3d-svg__build" points="534.5,294,534.5,294,534.5,294,534.5,294,536.5,313.5,536.5,313.5,536.5,313.5,536.5,313.5,508,300.5,508,300.5,508,300.5,508,300.5,505,281,505,281,505,281,505,281"></polygon><polygon data-id="26901" data-section="8" data-section_name="8" data-build="2" data-build_name="5" data-floor="14" data-type="flat" class="s3d-svg__build js-s3d-svg__build" points="505,281,505,281,505,281,505,281,508,300.5,508,300.5,508,300.5,508,300.5,481,293.5,481,293.5,481,293.5,481,293.5,479.5,277,479.5,277,479.5,277,479.5,277"></polygon><polygon data-id="26915" data-section="8" data-section_name="8" data-build="2" data-build_name="5" data-floor="14" data-type="flat" class="s3d-svg__build js-s3d-svg__build" points="453.5,264,453.5,264,453.5,264,453.5,264,455,279.5,455,279.5,455,279.5,455,279.5,446,276,446,276,446,276,446,276,443.5,258.5,443.5,258.5,443.5,258.5,443.5,258.5"></polygon><polygon data-id="26922" data-section="8" data-section_name="8" data-build="2" data-build_name="5" data-floor="14" data-type="flat" class="s3d-svg__build js-s3d-svg__build" points="479.5,277,479.5,277,479.5,277,479.5,277,481,293.5,481,293.5,481,293.5,481,293.5,457.5,286,457.5,286,457.5,286,457.5,286,453.5,264,453.5,264,453.5,264,453.5,264,479.5,277,479.5,277,479.5,277,479.5,277"></polygon><polygon data-id="26674" data-section="8" data-section_name="8" data-build="2" data-build_name="5" data-floor="14" data-type="flat" class="s3d-svg__build js-s3d-svg__build" points="570.5,302,570.5,302,570.5,302,570.5,302,576,300.5,576,300.5,576,300.5,576,300.5,593.5,303.5,593.5,303.5,593.5,303.5,593.5,303.5,592.5,321.5,592.5,321.5,592.5,321.5,592.5,321.5,580,321.5,580,321.5,580,321.5,580,321.5,572.5,321.5,572.5,321.5,572.5,321.5,572.5,321.5,536.5,313.5,536.5,313.5,536.5,313.5,536.5,313.5,534.5,294,534.5,294,534.5,294,534.5,294"></polygon><polygon data-id="26675" data-section="8" data-section_name="8" data-build="2" data-build_name="5" data-floor="15" data-type="flat" class="s3d-svg__build js-s3d-svg__build" points="570.5,280.5,570.5,280.5,570.5,280.5,570.5,280.5,577.5,281.5,577.5,281.5,577.5,281.5,577.5,281.5,588,284,588,284,588,284,588,284,593.5,285.5,593.5,285.5,593.5,285.5,593.5,285.5,593.5,303.5,593.5,303.5,593.5,303.5,593.5,303.5,570.5,302,570.5,302,570.5,302,570.5,302,534.5,294,534.5,294,534.5,294,534.5,294,533.5,274,533.5,274,533.5,274,533.5,274"></polygon><polygon data-id="26895" data-section="8" data-section_name="8" data-build="2" data-build_name="5" data-floor="15" data-type="flat" class="s3d-svg__build js-s3d-svg__build" points="533.5,274,533.5,274,533.5,274,533.5,274,534.5,294,534.5,294,534.5,294,534.5,294,505,281,505,281,505,281,505,281,504.5,262,504.5,262,504.5,262,504.5,262"></polygon><polygon data-id="26902" data-section="8" data-section_name="8" data-build="2" data-build_name="5" data-floor="15" data-type="flat" class="s3d-svg__build js-s3d-svg__build" points="504.5,262,504.5,262,504.5,262,504.5,262,505,281,505,281,505,281,505,281,479.5,277,479.5,277,479.5,277,479.5,277,479.5,254,479.5,254,479.5,254,479.5,254"></polygon><polygon data-id="26916" data-section="8" data-section_name="8" data-build="2" data-build_name="5" data-floor="15" data-type="flat" class="s3d-svg__build js-s3d-svg__build" points="453.5,264,453.5,264,453.5,264,453.5,264,443.5,258.5,443.5,258.5,443.5,258.5,443.5,258.5,443.5,241,443.5,241,443.5,241,443.5,241,453,247,453,247,453,247,453,247"></polygon><polygon data-id="26923" data-section="8" data-section_name="8" data-build="2" data-build_name="5" data-floor="15" data-type="flat" class="s3d-svg__build js-s3d-svg__build" points="479.5,254,479.5,254,479.5,254,479.5,254,479.5,277,479.5,277,479.5,277,479.5,277,453.5,264,453.5,264,453.5,264,453.5,264,453,247,453,247,453,247,453,247"></polygon><polygon data-id="26928" data-section="9" data-section_name="9" data-build="2" data-build_name="5" data-floor="2" data-type="flat" class="s3d-svg__build js-s3d-svg__build" points="400.5,479,400.5,479,400.5,479,400.5,479,400,462,400,462,400,462,400,462,380.5,452,380.5,452,380.5,452,380.5,452,380.5,470,380.5,470,380.5,470,380.5,470"></polygon><polygon data-id="26942" data-section="9" data-section_name="9" data-build="2" data-build_name="5" data-floor="2" data-type="flat" class="s3d-svg__build js-s3d-svg__build" points="380.5,470,380.5,470,380.5,470,380.5,470,359.5,460.5,359.5,460.5,359.5,460.5,359.5,460.5,358,443.5,358,443.5,358,443.5,358,443.5,380.5,452,380.5,452,380.5,452,380.5,452"></polygon><polygon data-id="26984" data-section="9" data-section_name="9" data-build="2" data-build_name="5" data-floor="2" data-type="flat" class="s3d-svg__build js-s3d-svg__build" points="358,443.5,358,443.5,358,443.5,358,443.5,359.5,460.5,359.5,460.5,359.5,460.5,359.5,460.5,338,451.5,338,451.5,338,451.5,338,451.5,336.5,434,336.5,434,336.5,434,336.5,434"></polygon><polygon data-id="27014" data-section="9" data-section_name="9" data-build="2" data-build_name="5" data-floor="2" data-type="flat" class="s3d-svg__build js-s3d-svg__build" points="430,475,430,475,430,475,430,475,437.5,472,437.5,472,437.5,472,437.5,472,450.5,476,450.5,476,450.5,476,450.5,476,450,493.5,450,493.5,450,493.5,450,493.5,440.5,490,440.5,490,440.5,490,440.5,490,434.5,491,434.5,491,434.5,491,434.5,491,417,488.5,417,488.5,417,488.5,417,488.5,400.5,479,400.5,479,400.5,479,400.5,479,400,462,400,462,400,462,400,462"></polygon><polygon data-id="26929" data-section="9" data-section_name="9" data-build="2" data-build_name="5" data-floor="3" data-type="flat" class="s3d-svg__build js-s3d-svg__build" points="400,462,400,462,400,462,400,462,397.5,443.5,397.5,443.5,397.5,443.5,397.5,443.5,379.5,435,379.5,435,379.5,435,379.5,435,380.5,452,380.5,452,380.5,452,380.5,452"></polygon><polygon data-id="26943" data-section="9" data-section_name="9" data-build="2" data-build_name="5" data-floor="3" data-type="flat" class="s3d-svg__build js-s3d-svg__build" points="379.5,435,379.5,435,379.5,435,379.5,435,380.5,452,380.5,452,380.5,452,380.5,452,358,443.5,358,443.5,358,443.5,358,443.5,357,426,357,426,357,426,357,426"></polygon><polygon data-id="26985" data-section="9" data-section_name="9" data-build="2" data-build_name="5" data-floor="3" data-type="flat" class="s3d-svg__build js-s3d-svg__build" points="357,426,357,426,357,426,357,426,358,443.5,358,443.5,358,443.5,358,443.5,336.5,434,336.5,434,336.5,434,336.5,434,336.5,419,336.5,419,336.5,419,336.5,419"></polygon><polygon data-id="27015" data-section="9" data-section_name="9" data-build="2" data-build_name="5" data-floor="3" data-type="flat" class="s3d-svg__build js-s3d-svg__build" points="397.5,443.5,397.5,443.5,397.5,443.5,397.5,443.5,400,462,400,462,400,462,400,462,430,475,430,475,430,475,430,475,437.5,472,437.5,472,437.5,472,437.5,472,450.5,476,450.5,476,450.5,476,450.5,476,452,459,452,459,452,459,452,459,436.5,455,436.5,455,436.5,455,436.5,455,429,456.5,429,456.5,429,456.5,429,456.5"></polygon><polygon data-id="26930" data-section="9" data-section_name="9" data-build="2" data-build_name="5" data-floor="4" data-type="flat" class="s3d-svg__build js-s3d-svg__build" points="397.5,426.5,397.5,426.5,397.5,426.5,397.5,426.5,397.5,443.5,397.5,443.5,397.5,443.5,397.5,443.5,379.5,435,379.5,435,379.5,435,379.5,435,378,419.5,378,419.5,378,419.5,378,419.5"></polygon><polygon data-id="26944" data-section="9" data-section_name="9" data-build="2" data-build_name="5" data-floor="4" data-type="flat" class="s3d-svg__build js-s3d-svg__build" points="378,419.5,378,419.5,378,419.5,378,419.5,379.5,435,379.5,435,379.5,435,379.5,435,357,426,357,426,357,426,357,426,355.5,410.5,355.5,410.5,355.5,410.5,355.5,410.5"></polygon><polygon data-id="26986" data-section="9" data-section_name="9" data-build="2" data-build_name="5" data-floor="4" data-type="flat" class="s3d-svg__build js-s3d-svg__build" points="355.5,410.5,355.5,410.5,355.5,410.5,355.5,410.5,357,426,357,426,357,426,357,426,336.5,419,336.5,419,336.5,419,336.5,419,333.5,400.5,333.5,400.5,333.5,400.5,333.5,400.5"></polygon><polygon data-id="27016" data-section="9" data-section_name="9" data-build="2" data-build_name="5" data-floor="4" data-type="flat" class="s3d-svg__build js-s3d-svg__build" points="397.5,426.5,397.5,426.5,397.5,426.5,397.5,426.5,397.5,443.5,397.5,443.5,397.5,443.5,397.5,443.5,429,456.5,429,456.5,429,456.5,429,456.5,436.5,455,436.5,455,436.5,455,436.5,455,452,459,452,459,452,459,452,459,450,441,450,441,450,441,450,441,427,439,427,439,427,439,427,439,437,438.5,437,438.5,437,438.5,437,438.5"></polygon><polygon data-id="26931" data-section="9" data-section_name="9" data-build="2" data-build_name="5" data-floor="5" data-type="flat" class="s3d-svg__build js-s3d-svg__build" points="397.5,426.5,397.5,426.5,397.5,426.5,397.5,426.5,397.5,407.5,397.5,407.5,397.5,407.5,397.5,407.5,377.5,400.5,377.5,400.5,377.5,400.5,377.5,400.5,378,419.5,378,419.5,378,419.5,378,419.5"></polygon><polygon data-id="26945" data-section="9" data-section_name="9" data-build="2" data-build_name="5" data-floor="5" data-type="flat" class="s3d-svg__build js-s3d-svg__build" points="377.5,400.5,377.5,400.5,377.5,400.5,377.5,400.5,378,419.5,378,419.5,378,419.5,378,419.5,355.5,410.5,355.5,410.5,355.5,410.5,355.5,410.5,353,391,353,391,353,391,353,391"></polygon><polygon data-id="26987" data-section="9" data-section_name="9" data-build="2" data-build_name="5" data-floor="5" data-type="flat" class="s3d-svg__build js-s3d-svg__build" points="353,391,353,391,353,391,353,391,355.5,410.5,355.5,410.5,355.5,410.5,355.5,410.5,333.5,400.5,333.5,400.5,333.5,400.5,333.5,400.5,334,385,334,385,334,385,334,385"></polygon><polygon data-id="27017" data-section="9" data-section_name="9" data-build="2" data-build_name="5" data-floor="5" data-type="flat" class="s3d-svg__build js-s3d-svg__build" points="397.5,407.5,397.5,407.5,397.5,407.5,397.5,407.5,397.5,426.5,397.5,426.5,397.5,426.5,397.5,426.5,427,439,427,439,427,439,427,439,437,438.5,437,438.5,437,438.5,437,438.5,450,441,450,441,450,441,450,441,449.5,423,449.5,423,449.5,423,449.5,423,436,420,436,420,436,420,436,420,427,422.5,427,422.5,427,422.5,427,422.5"></polygon><polygon data-id="26932" data-section="9" data-section_name="9" data-build="2" data-build_name="5" data-floor="6" data-type="flat" class="s3d-svg__build js-s3d-svg__build" points="397.5,407.5,397.5,407.5,397.5,407.5,397.5,407.5,395.5,391.5,395.5,391.5,395.5,391.5,395.5,391.5,376,383.5,376,383.5,376,383.5,376,383.5,377.5,400.5,377.5,400.5,377.5,400.5,377.5,400.5"></polygon><polygon data-id="26946" data-section="9" data-section_name="9" data-build="2" data-build_name="5" data-floor="6" data-type="flat" class="s3d-svg__build js-s3d-svg__build" points="377.5,400.5,377.5,400.5,377.5,400.5,377.5,400.5,353,391,353,391,353,391,353,391,350.5,375,350.5,375,350.5,375,350.5,375,376,383.5,376,383.5,376,383.5,376,383.5"></polygon><polygon data-id="26988" data-section="9" data-section_name="9" data-build="2" data-build_name="5" data-floor="6" data-type="flat" class="s3d-svg__build js-s3d-svg__build" points="350.5,375,350.5,375,350.5,375,350.5,375,353,391,353,391,353,391,353,391,334,385,334,385,334,385,334,385,333,367,333,367,333,367,333,367"></polygon><polygon data-id="27018" data-section="9" data-section_name="9" data-build="2" data-build_name="5" data-floor="6" data-type="flat" class="s3d-svg__build js-s3d-svg__build" points="395.5,391.5,395.5,391.5,395.5,391.5,395.5,391.5,397.5,407.5,397.5,407.5,397.5,407.5,397.5,407.5,427,422.5,427,422.5,427,422.5,427,422.5,436,420,436,420,436,420,436,420,449.5,423,449.5,423,449.5,423,449.5,423,447.5,404.5,447.5,404.5,447.5,404.5,447.5,404.5,432.5,400,432.5,400,432.5,400,432.5,400,423.5,403.5,423.5,403.5,423.5,403.5,423.5,403.5"></polygon><polygon data-id="26933" data-section="9" data-section_name="9" data-build="2" data-build_name="5" data-floor="7" data-type="flat" class="s3d-svg__build js-s3d-svg__build" points="395.5,391.5,395.5,391.5,395.5,391.5,395.5,391.5,395,373,395,373,395,373,395,373,373,365.5,373,365.5,373,365.5,373,365.5,376,383.5,376,383.5,376,383.5,376,383.5"></polygon><polygon data-id="26947" data-section="9" data-section_name="9" data-build="2" data-build_name="5" data-floor="7" data-type="flat" class="s3d-svg__build js-s3d-svg__build" points="373,365.5,373,365.5,373,365.5,373,365.5,376,383.5,376,383.5,376,383.5,376,383.5,350.5,375,350.5,375,350.5,375,350.5,375,349.5,357,349.5,357,349.5,357,349.5,357"></polygon><polygon data-id="26989" data-section="9" data-section_name="9" data-build="2" data-build_name="5" data-floor="7" data-type="flat" class="s3d-svg__build js-s3d-svg__build" points="349.5,357,349.5,357,349.5,357,349.5,357,350.5,375,350.5,375,350.5,375,350.5,375,333,367,333,367,333,367,333,367,331,349,331,349,331,349,331,349"></polygon><polygon data-id="27019" data-section="9" data-section_name="9" data-build="2" data-build_name="5" data-floor="7" data-type="flat" class="s3d-svg__build js-s3d-svg__build" points="395,373,395,373,395,373,395,373,395.5,391.5,395.5,391.5,395.5,391.5,395.5,391.5,423.5,403.5,423.5,403.5,423.5,403.5,423.5,403.5,432.5,400,432.5,400,432.5,400,432.5,400,447.5,404.5,447.5,404.5,447.5,404.5,447.5,404.5,448,388,448,388,448,388,448,388,432.5,381.5,432.5,381.5,432.5,381.5,432.5,381.5,424.5,384.5,424.5,384.5,424.5,384.5,424.5,384.5"></polygon><polygon data-id="26934" data-section="9" data-section_name="9" data-build="2" data-build_name="5" data-floor="8" data-type="flat" class="s3d-svg__build js-s3d-svg__build" points="395,373,395,373,395,373,395,373,392,354.5,392,354.5,392,354.5,392,354.5,371,345.5,371,345.5,371,345.5,371,345.5,373,365.5,373,365.5,373,365.5,373,365.5"></polygon><polygon data-id="26948" data-section="9" data-section_name="9" data-build="2" data-build_name="5" data-floor="8" data-type="flat" class="s3d-svg__build js-s3d-svg__build" points="371,345.5,371,345.5,371,345.5,371,345.5,348,339.5,348,339.5,348,339.5,348,339.5,349.5,357,349.5,357,349.5,357,349.5,357,373,365.5,373,365.5,373,365.5,373,365.5"></polygon><polygon data-id="26991" data-section="9" data-section_name="9" data-build="2" data-build_name="5" data-floor="9" data-type="flat" class="s3d-svg__build js-s3d-svg__build" points="348,339.5,348,339.5,348,339.5,348,339.5,349.5,357,349.5,357,349.5,357,349.5,357,331,349,331,349,331,349,331,349,328.5,330.5,328.5,330.5,328.5,330.5,328.5,330.5"></polygon><polygon data-id="27021" data-section="9" data-section_name="9" data-build="2" data-build_name="5" data-floor="9" data-type="flat" class="s3d-svg__build js-s3d-svg__build" points="392,354.5,392,354.5,392,354.5,392,354.5,395,373,395,373,395,373,395,373,424.5,384.5,424.5,384.5,424.5,384.5,424.5,384.5,432.5,381.5,432.5,381.5,432.5,381.5,432.5,381.5,448,388,448,388,448,388,448,388,450.5,369.5,450.5,369.5,450.5,369.5,450.5,369.5,431.5,364,431.5,364,431.5,364,431.5,364,423.5,368,423.5,368,423.5,368,423.5,368"></polygon><polygon data-id="26936" data-section="9" data-section_name="9" data-build="2" data-build_name="5" data-floor="10" data-type="flat" class="s3d-svg__build js-s3d-svg__build" points="392,354.5,392,354.5,392,354.5,392,354.5,391,338,391,338,391,338,391,338,370,329,370,329,370,329,370,329,371,345.5,371,345.5,371,345.5,371,345.5"></polygon><polygon data-id="26950" data-section="9" data-section_name="9" data-build="2" data-build_name="5" data-floor="10" data-type="flat" class="s3d-svg__build js-s3d-svg__build" points="370,329,370,329,370,329,370,329,371,345.5,371,345.5,371,345.5,371,345.5,348,339.5,348,339.5,348,339.5,348,339.5,347,320.5,347,320.5,347,320.5,347,320.5"></polygon><polygon data-id="26992" data-section="9" data-section_name="9" data-build="2" data-build_name="5" data-floor="10" data-type="flat" class="s3d-svg__build js-s3d-svg__build" points="347,320.5,347,320.5,347,320.5,347,320.5,348,339.5,348,339.5,348,339.5,348,339.5,328.5,330.5,328.5,330.5,328.5,330.5,328.5,330.5,327.5,313,327.5,313,327.5,313,327.5,313"></polygon><polygon data-id="27022" data-section="9" data-section_name="9" data-build="2" data-build_name="5" data-floor="10" data-type="flat" class="s3d-svg__build js-s3d-svg__build" points="391,338,391,338,391,338,391,338,422.5,348,422.5,348,422.5,348,422.5,348,430,346,430,346,430,346,430,346,450.5,351,450.5,351,450.5,351,450.5,351,450.5,369.5,450.5,369.5,450.5,369.5,450.5,369.5,431.5,364,431.5,364,431.5,364,431.5,364,423.5,368,423.5,368,423.5,368,423.5,368,392,354.5,392,354.5,392,354.5,392,354.5"></polygon><polygon data-id="26937" data-section="9" data-section_name="9" data-build="2" data-build_name="5" data-floor="11" data-type="flat" class="s3d-svg__build js-s3d-svg__build" points="391,338,391,338,391,338,391,338,390,318,390,318,390,318,390,318,367.5,309,367.5,309,367.5,309,367.5,309,370,329,370,329,370,329,370,329"></polygon><polygon data-id="26951" data-section="9" data-section_name="9" data-build="2" data-build_name="5" data-floor="11" data-type="flat" class="s3d-svg__build js-s3d-svg__build" points="367.5,309,367.5,309,367.5,309,367.5,309,347,303.5,347,303.5,347,303.5,347,303.5,347,320.5,347,320.5,347,320.5,347,320.5,370,329,370,329,370,329,370,329"></polygon><polygon data-id="26993" data-section="9" data-section_name="9" data-build="2" data-build_name="5" data-floor="11" data-type="flat" class="s3d-svg__build js-s3d-svg__build" points="347,303.5,347,303.5,347,303.5,347,303.5,347,320.5,347,320.5,347,320.5,347,320.5,327.5,313,327.5,313,327.5,313,327.5,313,325,295.5,325,295.5,325,295.5,325,295.5"></polygon><polygon data-id="27023" data-section="9" data-section_name="9" data-build="2" data-build_name="5" data-floor="11" data-type="flat" class="s3d-svg__build js-s3d-svg__build" points="390,318,390,318,390,318,390,318,391,338,391,338,391,338,391,338,422.5,348,422.5,348,422.5,348,422.5,348,430,346,430,346,430,346,430,346,450.5,351,450.5,351,450.5,351,450.5,351,449,333,449,333,449,333,449,333,429,328.5,429,328.5,429,328.5,429,328.5,418,329,418,329,418,329,418,329"></polygon><polygon data-id="26938" data-section="9" data-section_name="9" data-build="2" data-build_name="5" data-floor="12" data-type="flat" class="s3d-svg__build js-s3d-svg__build" points="390,318,390,318,390,318,390,318,389.5,300.5,389.5,300.5,389.5,300.5,389.5,300.5,367,291.5,367,291.5,367,291.5,367,291.5,367.5,309,367.5,309,367.5,309,367.5,309"></polygon><polygon data-id="26952" data-section="9" data-section_name="9" data-build="2" data-build_name="5" data-floor="12" data-type="flat" class="s3d-svg__build js-s3d-svg__build" points="367,291.5,367,291.5,367,291.5,367,291.5,367.5,309,367.5,309,367.5,309,367.5,309,347,303.5,347,303.5,347,303.5,347,303.5,345,284.5,345,284.5,345,284.5,345,284.5"></polygon><polygon data-id="26994" data-section="9" data-section_name="9" data-build="2" data-build_name="5" data-floor="12" data-type="flat" class="s3d-svg__build js-s3d-svg__build" points="347,303.5,347,303.5,347,303.5,347,303.5,325,295.5,325,295.5,325,295.5,325,295.5,324.5,277.5,324.5,277.5,324.5,277.5,324.5,277.5,345,284.5,345,284.5,345,284.5,345,284.5"></polygon><polygon data-id="27024" data-section="9" data-section_name="9" data-build="2" data-build_name="5" data-floor="12" data-type="flat" class="s3d-svg__build js-s3d-svg__build" points="389.5,300.5,389.5,300.5,389.5,300.5,389.5,300.5,390,318,390,318,390,318,390,318,418,329,418,329,418,329,418,329,429,328.5,429,328.5,429,328.5,429,328.5,449,333,449,333,449,333,449,333,448.5,314,448.5,314,448.5,314,448.5,314,428.5,309,428.5,309,428.5,309,428.5,309,419,313.5,419,313.5,419,313.5,419,313.5,419,313.5,419,313.5,419,313.5,419,313.5,419,313.5,419,313.5,419,313.5,419,313.5"></polygon><polygon data-id="26939" data-section="9" data-section_name="9" data-build="2" data-build_name="5" data-floor="13" data-type="flat" class="s3d-svg__build js-s3d-svg__build" points="389.5,300.5,389.5,300.5,389.5,300.5,389.5,300.5,385.5,280.5,385.5,280.5,385.5,280.5,385.5,280.5,366.5,274.5,366.5,274.5,366.5,274.5,366.5,274.5,367,291.5,367,291.5,367,291.5,367,291.5"></polygon><polygon data-id="26953" data-section="9" data-section_name="9" data-build="2" data-build_name="5" data-floor="13" data-type="flat" class="s3d-svg__build js-s3d-svg__build" points="366.5,274.5,366.5,274.5,366.5,274.5,366.5,274.5,367,291.5,367,291.5,367,291.5,367,291.5,345,284.5,345,284.5,345,284.5,345,284.5,343,265.5,343,265.5,343,265.5,343,265.5"></polygon><polygon data-id="26995" data-section="9" data-section_name="9" data-build="2" data-build_name="5" data-floor="13" data-type="flat" class="s3d-svg__build js-s3d-svg__build" points="343,265.5,343,265.5,343,265.5,343,265.5,345,284.5,345,284.5,345,284.5,345,284.5,324.5,277.5,324.5,277.5,324.5,277.5,324.5,277.5,322,259.5,322,259.5,322,259.5,322,259.5"></polygon><polygon data-id="27025" data-section="9" data-section_name="9" data-build="2" data-build_name="5" data-floor="13" data-type="flat" class="s3d-svg__build js-s3d-svg__build" points="385.5,280.5,385.5,280.5,385.5,280.5,385.5,280.5,389.5,300.5,389.5,300.5,389.5,300.5,389.5,300.5,419,313.5,419,313.5,419,313.5,419,313.5,428.5,309,428.5,309,428.5,309,428.5,309,448.5,314,448.5,314,448.5,314,448.5,314,449,296,449,296,449,296,449,296,428.5,288.5,428.5,288.5,428.5,288.5,428.5,288.5,417.5,292,417.5,292,417.5,292,417.5,292"></polygon><polygon data-id="26940" data-section="9" data-section_name="9" data-build="2" data-build_name="5" data-floor="14" data-type="flat" class="s3d-svg__build js-s3d-svg__build" points="385.5,280.5,385.5,280.5,385.5,280.5,385.5,280.5,384,261.5,384,261.5,384,261.5,384,261.5,363.5,254.5,363.5,254.5,363.5,254.5,363.5,254.5,366.5,274.5,366.5,274.5,366.5,274.5,366.5,274.5"></polygon><polygon data-id="26954" data-section="9" data-section_name="9" data-build="2" data-build_name="5" data-floor="14" data-type="flat" class="s3d-svg__build js-s3d-svg__build" points="363.5,254.5,363.5,254.5,363.5,254.5,363.5,254.5,366.5,274.5,366.5,274.5,366.5,274.5,366.5,274.5,343,265.5,343,265.5,343,265.5,343,265.5,341.5,249,341.5,249,341.5,249,341.5,249"></polygon><polygon data-id="26996" data-section="9" data-section_name="9" data-build="2" data-build_name="5" data-floor="14" data-type="flat" class="s3d-svg__build js-s3d-svg__build" points="341.5,249,341.5,249,341.5,249,341.5,249,343,265.5,343,265.5,343,265.5,343,265.5,322,259.5,322,259.5,322,259.5,322,259.5,320,240.5,320,240.5,320,240.5,320,240.5"></polygon><polygon data-id="27026" data-section="9" data-section_name="9" data-build="2" data-build_name="5" data-floor="14" data-type="flat" class="s3d-svg__build js-s3d-svg__build" points="384,261.5,384,261.5,384,261.5,384,261.5,385.5,280.5,385.5,280.5,385.5,280.5,385.5,280.5,417.5,292,417.5,292,417.5,292,417.5,292,428.5,288.5,428.5,288.5,428.5,288.5,428.5,288.5,449,296,449,296,449,296,449,296,446,276,446,276,446,276,446,276,425,269,425,269,425,269,425,269,416,273.5,416,273.5,416,273.5,416,273.5"></polygon><polygon data-id="26941" data-section="9" data-section_name="9" data-build="2" data-build_name="5" data-floor="15" data-type="flat" class="s3d-svg__build js-s3d-svg__build" points="384.5,241.5,384.5,241.5,384.5,241.5,384.5,241.5,384,261.5,384,261.5,384,261.5,384,261.5,363.5,254.5,363.5,254.5,363.5,254.5,363.5,254.5,363.5,236,363.5,236,363.5,236,363.5,236"></polygon><polygon data-id="26955" data-section="9" data-section_name="9" data-build="2" data-build_name="5" data-floor="15" data-type="flat" class="s3d-svg__build js-s3d-svg__build" points="363.5,254.5,363.5,254.5,363.5,254.5,363.5,254.5,341.5,249,341.5,249,341.5,249,341.5,249,341,232,341,232,341,232,341,232,363.5,236,363.5,236,363.5,236,363.5,236"></polygon><polygon data-id="26997" data-section="9" data-section_name="9" data-build="2" data-build_name="5" data-floor="15" data-type="flat" class="s3d-svg__build js-s3d-svg__build" points="341.5,249,341.5,249,341.5,249,341.5,249,320,240.5,320,240.5,320,240.5,320,240.5,317.5,223,317.5,223,317.5,223,317.5,223,341,232,341,232,341,232,341,232"></polygon><polygon data-id="27027" data-section="9" data-section_name="9" data-build="2" data-build_name="5" data-floor="15" data-type="flat" class="s3d-svg__build js-s3d-svg__build" points="384.5,241.5,384.5,241.5,384.5,241.5,384.5,241.5,384,261.5,384,261.5,384,261.5,384,261.5,416,273.5,416,273.5,416,273.5,416,273.5,425,269,425,269,425,269,425,269,446,276,446,276,446,276,446,276,443.5,258.5,443.5,258.5,443.5,258.5,443.5,258.5,425,252,425,252,425,252,425,252,415,254,415,254,415,254,415,254"></polygon><polygon data-id="26272" data-section="7" data-section_name="7" data-build="2" data-build_name="5" data-floor="16" data-type="flat" class="s3d-svg__build js-s3d-svg__build" points="731.66666666667,303.66666666667,731.66666666667,303.66666666667,737.66666666667,300.66666666667,737.66666666667,300.66666666667,784.66666666667,312.33333333333,784.66666666667,312.33333333333,784.33333333333,328.33333333333,784.33333333333,328.33333333333,781.33333333333,330.33333333333,781.33333333333,330.33333333333,781.66666666667,340.33333333333,781.66666666667,340.33333333333,759.33333333333,334,759.33333333333,334,752,337,752,337,731,331.33333333333,731,331.33333333333"></polygon><polygon data-id="26927" data-section="8" data-section_name="8" data-build="2" data-build_name="5" data-floor="16" data-type="flat" class="s3d-svg__build js-s3d-svg__build" points="552,251.33333333333,552,251.33333333333,558.66666666667,248.66666666667,558.66666666667,248.66666666667,595,260.33333333333,595,260.33333333333,593.5,285.5,593.5,285.5,577.5,281.5,577.5,281.5,570.5,280.5,570.5,280.5,551.33333333333,277,551.33333333333,277"></polygon><polygon data-id="26924" data-section="8" data-section_name="8" data-build="2" data-build_name="5" data-floor="16" data-type="flat" class="s3d-svg__build js-s3d-svg__build" points="505.33333333333,239.66666666667,505.33333333333,239.66666666667,534,248,534,248,545.66666666667,245.33333333333,545.66666666667,245.33333333333,558.66666666667,248.66666666667,558.66666666667,248.66666666667,552,251.33333333333,552,251.33333333333,551.33333333333,277,551.33333333333,277,533.5,274,533.5,274,504.5,262,504.5,262"></polygon><polygon data-id="26925" data-section="8" data-section_name="8" data-build="2" data-build_name="5" data-floor="16" data-type="flat" class="s3d-svg__build js-s3d-svg__build" points="505.33333333333,239.66666666667,505.33333333333,239.66666666667,504.5,262,504.5,262,465.66666666667,249.66666666667,465.66666666667,249.66666666667,465.33333333333,226,465.33333333333,226"></polygon><polygon data-id="26926" data-section="8" data-section_name="8" data-build="2" data-build_name="5" data-floor="16" data-type="flat" class="s3d-svg__build js-s3d-svg__build" points="465.33333333333,226,465.33333333333,226,465.66666666667,249.66666666667,465.66666666667,249.66666666667,453,247,453,247,443.5,241,443.5,241,444.33333333333,216.66666666667,444.33333333333,216.66666666667"></polygon><polygon data-id="27029" data-section="9" data-section_name="9" data-build="2" data-build_name="5" data-floor="16" data-type="flat" class="s3d-svg__build js-s3d-svg__build" points="407.33333333333,206.33333333333,400.33333333333,207,401.33333333333,230,415.66666666667,233.66666666667,422.66666666667,231,443.5,241,444.33333333333,216.66666666667"></polygon><polygon data-id="26998" data-section="9" data-section_name="9" data-build="2" data-build_name="5" data-floor="16" data-type="flat" class="s3d-svg__build js-s3d-svg__build" points="400.33333333333,207,401.33333333333,230,390.66666666667,228.33333333333,382.66666666667,225.66666666667,360.66666666667,217.33333333333,361,197.33333333333"></polygon><polygon data-id="26999" data-section="9" data-section_name="9" data-build="2" data-build_name="5" data-floor="16" data-type="flat" class="s3d-svg__build js-s3d-svg__build" points="361,197.33333333333,360.66666666667,217.33333333333,336,210.33333333333,330.66666666667,210.33333333333,325,208.66666666667,325.33333333333,189"></polygon><polygon data-id="27028" data-section="9" data-section_name="9" data-build="2" data-build_name="5" data-floor="16" data-type="flat" class="s3d-svg__build js-s3d-svg__build" points="304.66666666667,175.33333333333,302.66666666667,194.33333333333,308.66666666667,196.66666666667,309,202.33333333333,325,208.66666666667,325.33333333333,189,321,180.66666666667"></polygon><polygon data-id="27086" data-section="10" data-section_name="10" data-build="2" data-build_name="5" data-floor="2" data-type="flat" class="s3d-svg__build js-s3d-svg__build" points="324,416.66666666667,322.66666666667,398.66666666667,297,385.33333333333,298.66666666667,403.66666666667"></polygon><polygon data-id="27087" data-section="10" data-section_name="10" data-build="2" data-build_name="5" data-floor="3" data-type="flat" class="s3d-svg__build js-s3d-svg__build" points="322.66666666667,398.66666666667,321.33333333333,382.66666666667,295.66666666667,369.33333333333,297,385.33333333333"></polygon><polygon data-id="27088" data-section="10" data-section_name="10" data-build="2" data-build_name="5" data-floor="4" data-type="flat" class="s3d-svg__build js-s3d-svg__build" points="321.33333333333,382.66666666667,319,366.33333333333,295,353.33333333333,295.66666666667,369.33333333333"></polygon><polygon data-id="27089" data-section="10" data-section_name="10" data-build="2" data-build_name="5" data-floor="5" data-type="flat" class="s3d-svg__build js-s3d-svg__build" points="319,366.33333333333,317,349.66666666667,293.33333333333,337.66666666667,295,353.33333333333"></polygon><polygon data-id="27090" data-section="10" data-section_name="10" data-build="2" data-build_name="5" data-floor="6" data-type="flat" class="s3d-svg__build js-s3d-svg__build" points="317,349.66666666667,315.66666666667,332.33333333333,291.66666666667,320.66666666667,293.33333333333,337.66666666667"></polygon><polygon data-id="27091" data-section="10" data-section_name="10" data-build="2" data-build_name="5" data-floor="7" data-type="flat" class="s3d-svg__build js-s3d-svg__build" points="315.66666666667,332.33333333333,313.66666666667,316.33333333333,290,304.66666666667,291.66666666667,320.66666666667"></polygon><polygon data-id="27092" data-section="10" data-section_name="10" data-build="2" data-build_name="5" data-floor="8" data-type="flat" class="s3d-svg__build js-s3d-svg__build" points="313.66666666667,316.33333333333,312.66666666667,298.66666666667,288.33333333333,287.66666666667,290,304.66666666667"></polygon><polygon data-id="27093" data-section="10" data-section_name="10" data-build="2" data-build_name="5" data-floor="9" data-type="flat" class="s3d-svg__build js-s3d-svg__build" points="312.66666666667,298.66666666667,310.66666666667,282.33333333333,285.66666666667,271,288.33333333333,287.66666666667"></polygon><polygon data-id="27094" data-section="10" data-section_name="10" data-build="2" data-build_name="5" data-floor="10" data-type="flat" class="s3d-svg__build js-s3d-svg__build" points="310.66666666667,282.33333333333,309,265,285,254,285.66666666667,271"></polygon><polygon data-id="27095" data-section="10" data-section_name="10" data-build="2" data-build_name="5" data-floor="11" data-type="flat" class="s3d-svg__build js-s3d-svg__build" points="309,265,307.33333333333,248,283,236.33333333333,285,254"></polygon><polygon data-id="27096" data-section="10" data-section_name="10" data-build="2" data-build_name="5" data-floor="12" data-type="flat" class="s3d-svg__build js-s3d-svg__build" points="307.33333333333,248,305.66666666667,230.66666666667,281.66666666667,221,283,236.33333333333"></polygon><polygon data-id="27097" data-section="10" data-section_name="10" data-build="2" data-build_name="5" data-floor="13" data-type="flat" class="s3d-svg__build js-s3d-svg__build" points="305.66666666667,230.66666666667,304.66666666667,212.33333333333,279.33333333333,202,281.66666666667,221"></polygon><polygon data-id="27098" data-section="10" data-section_name="10" data-build="2" data-build_name="5" data-floor="14" data-type="flat" class="s3d-svg__build js-s3d-svg__build" points="304.66666666667,212.33333333333,302.66666666667,194.33333333333,278,186,279.33333333333,202"></polygon><polygon data-id="27099" data-section="10" data-section_name="10" data-build="2" data-build_name="5" data-floor="15" data-type="flat" class="s3d-svg__build js-s3d-svg__build" points="302.66666666667,194.33333333333,304.66666666667,175.33333333333,297,174.33333333333,286.66666666667,172.66666666667,276.66666666667,169.33333333333,278,186"></polygon></svg>