<svg width="48" height="58" viewBox="0 0 48 58" fill="none" xmlns="http://www.w3.org/2000/svg">
<path d="M24 56L23.4071 56.8052C23.7597 57.0649 24.2403 57.0649 24.5929 56.8052L24 56ZM24 56C24.5929 56.8052 24.5932 56.805 24.5936 56.8048L24.5947 56.8039L24.5985 56.8012L24.6119 56.7912L24.6622 56.7537C24.7059 56.721 24.7698 56.6729 24.8526 56.6099C25.0181 56.484 25.2591 56.2985 25.5647 56.0573C26.1759 55.5752 27.0461 54.8702 28.0891 53.9742C30.1738 52.1833 32.9559 49.6227 35.7413 46.5462C41.2628 40.4474 47 32.1018 47 23.6C47 17.6001 44.5723 11.8498 40.2569 7.61293C35.9423 3.37669 30.0941 1 24 1C17.9059 1 12.0577 3.37669 7.74306 7.61293C3.42775 11.8498 1 17.6001 1 23.6C1 32.1018 6.73718 40.4474 12.2587 46.5462C15.0441 49.6227 17.8262 52.1833 19.9109 53.9742C20.9539 54.8702 21.8241 55.5752 22.4353 56.0573C22.7409 56.2985 22.9819 56.484 23.1474 56.6099C23.2302 56.6729 23.2941 56.721 23.3378 56.7537L23.3881 56.7912L23.4015 56.8012L23.4053 56.8039L23.4064 56.8048C23.4068 56.805 23.4071 56.8052 24 56Z" fill="#0E0E0E" stroke="url(#paint0_linear_337_2220)" stroke-width="2" stroke-linecap="round" stroke-linejoin="round"/>
<path fill-rule="evenodd" clip-rule="evenodd" d="M33 24C33 28.9706 28.9706 33 24 33C19.0294 33 15 28.9706 15 24C15 19.0294 19.0294 15 24 15C28.9706 15 33 19.0294 33 24ZM34 24C34 29.5228 29.5228 34 24 34C18.4772 34 14 29.5228 14 24C14 18.4772 18.4772 14 24 14C29.5228 14 34 18.4772 34 24ZM21 18.5H20.5V19V25V29H21.5V25.5H25C25.58 25.5 26.4389 25.3301 27.1672 24.8058C27.9209 24.2631 28.5 23.363 28.5 22C28.5 20.637 27.9209 19.7369 27.1672 19.1942C26.4389 18.6699 25.58 18.5 25 18.5H21ZM25 24.5H21.5V19.5H25C25.42 19.5 26.0611 19.6301 26.5828 20.0058C27.0791 20.3631 27.5 20.963 27.5 22C27.5 23.037 27.0791 23.6369 26.5828 23.9942C26.0611 24.3699 25.42 24.5 25 24.5Z" fill="#F6F4EC"/>
<defs>
<linearGradient id="paint0_linear_337_2220" x1="24" y1="2" x2="24" y2="56" gradientUnits="userSpaceOnUse">
<stop stop-color="#F6F4EC"/>
<stop offset="0.90625" stop-color="#F6F4EC" stop-opacity="0"/>
<stop offset="1" stop-color="white"/>
</linearGradient>
</defs>
</svg>
