<svg width="48" height="58" viewBox="0 0 48 58" fill="none" xmlns="http://www.w3.org/2000/svg">
<path d="M24 56L23.4071 56.8052C23.7597 57.0649 24.2403 57.0649 24.5929 56.8052L24 56ZM24 56C24.5929 56.8052 24.5932 56.805 24.5936 56.8048L24.5947 56.8039L24.5985 56.8012L24.6119 56.7912L24.6622 56.7537C24.7059 56.721 24.7698 56.6729 24.8526 56.6099C25.0181 56.484 25.2591 56.2985 25.5647 56.0573C26.1759 55.5752 27.0461 54.8702 28.0891 53.9742C30.1738 52.1833 32.9559 49.6227 35.7413 46.5462C41.2628 40.4474 47 32.1018 47 23.6C47 17.6001 44.5723 11.8498 40.2569 7.61293C35.9423 3.37669 30.0941 1 24 1C17.9059 1 12.0577 3.37669 7.74306 7.61293C3.42775 11.8498 1 17.6001 1 23.6C1 32.1018 6.73718 40.4474 12.2587 46.5462C15.0441 49.6227 17.8262 52.1833 19.9109 53.9742C20.9539 54.8702 21.8241 55.5752 22.4353 56.0573C22.7409 56.2985 22.9819 56.484 23.1474 56.6099C23.2302 56.6729 23.2941 56.721 23.3378 56.7537L23.3881 56.7912L23.4015 56.8012L23.4053 56.8039L23.4064 56.8048C23.4068 56.805 23.4071 56.8052 24 56Z" fill="#0E0E0E" stroke="url(#paint0_linear_337_2218)" stroke-width="2" stroke-linecap="round" stroke-linejoin="round"/>
<path fill-rule="evenodd" clip-rule="evenodd" d="M20.3395 13.6328L19.9953 13.3144L19.6554 13.6375L16.2495 16.8756L16.0941 17.0234V17.238V24.8328L16.0296 25.0522H15.1683C14.8922 25.0522 14.6683 25.2761 14.6683 25.5522C14.6683 25.8284 14.8922 26.0522 15.1683 26.0522H15.7361L15.5069 26.8332H14.4554C14.1793 26.8332 13.9554 27.0571 13.9554 27.3332C13.9554 27.6093 14.1793 27.8332 14.4554 27.8332H15.2133L14.9841 28.6141H13.9999C13.7238 28.6141 13.4999 28.838 13.4999 29.1141C13.4999 29.3903 13.7238 29.6141 13.9999 29.6141H14.6906L14.4376 30.4761H13.4999C13.2238 30.4761 12.9999 30.6999 12.9999 30.9761C12.9999 31.2522 13.2238 31.4761 13.4999 31.4761H14.144L13.8435 32.4999H13C12.7239 32.4999 12.5 32.7237 12.5 32.9999C12.5 33.276 12.7239 33.4999 13 33.4999H14.2178H15.6436H21.6634H23.4999H30.4851H32.8614H35C35.2761 33.4999 35.5 33.276 35.5 32.9999C35.5 32.7237 35.2761 32.4999 35 32.4999H34.7901C34.9351 32.2055 34.9999 31.8652 34.9999 31.5C34.9999 31.0328 34.8371 30.5272 34.4764 30.1332C34.1067 29.7295 33.5591 29.4761 32.8614 29.4761H31.6598L23.9999 20.8808V17.238V17.0194L23.8395 16.8709L20.3395 13.6328ZM16.8837 25.6931L16.9684 25.4046H22.9999V32.4999H22.1634V29.438C22.1634 29.2426 22.1402 28.8944 22.0375 28.5096C21.9355 28.1273 21.7455 27.6736 21.3871 27.3073C20.8239 26.7317 20.228 26.4384 19.6299 26.4977C19.0355 26.5565 18.5981 26.9481 18.3139 27.3838L18.3065 27.3951L18.2998 27.4067L15.3551 32.4999H14.8857L15.2916 31.1169L15.8382 29.255L16.3609 27.474L16.8837 25.6931ZM17.0941 24.4046H22.9999V21.0713V17.738H17.0941V24.4046ZM17.8456 16.738H22.2232L20.0046 14.6853L17.8456 16.738ZM23.9999 32.4999V26.2494L29.3933 32.4999H23.9999ZM32.8614 32.4999H30.7141L23.9999 24.7187V22.3839L31.0624 30.3087L31.2115 30.4761H31.4356H32.8614C33.3022 30.4761 33.5739 30.6284 33.7389 30.8086C33.9128 30.9985 33.9999 31.2549 33.9999 31.5C33.9999 31.9053 33.8872 32.1264 33.746 32.2544C33.5958 32.3904 33.3268 32.4999 32.8614 32.4999ZM21.1634 29.438V32.4999H16.5102L19.1584 27.9196C19.3474 27.6343 19.5488 27.5106 19.7285 27.4928C19.9067 27.4751 20.2216 27.5461 20.6723 28.0067C20.8684 28.207 20.9952 28.4819 21.0714 28.7675C21.1469 29.0506 21.1634 29.3095 21.1634 29.438ZM21 21C21 21.5523 20.5523 22 20 22C19.4477 22 19 21.5523 19 21C19 20.4477 19.4477 20 20 20C20.5523 20 21 20.4477 21 21ZM22 21C22 22.1046 21.1046 23 20 23C18.8954 23 18 22.1046 18 21C18 19.8954 18.8954 19 20 19C21.1046 19 22 19.8954 22 21Z" fill="#F6F4EC"/>
<defs>
<linearGradient id="paint0_linear_337_2218" x1="24" y1="2" x2="24" y2="56" gradientUnits="userSpaceOnUse">
<stop stop-color="#F6F4EC"/>
<stop offset="0.90625" stop-color="#F6F4EC" stop-opacity="0"/>
<stop offset="1" stop-color="white"/>
</linearGradient>
</defs>
</svg>
