<svg width="48" height="58" viewBox="0 0 48 58" fill="none" xmlns="http://www.w3.org/2000/svg">
<path d="M24 56L23.4071 56.8052C23.7597 57.0649 24.2403 57.0649 24.5929 56.8052L24 56ZM24 56C24.5929 56.8052 24.5932 56.805 24.5936 56.8048L24.5947 56.8039L24.5985 56.8012L24.6119 56.7912L24.6622 56.7537C24.7059 56.721 24.7698 56.6729 24.8526 56.6099C25.0181 56.484 25.2591 56.2985 25.5647 56.0573C26.1759 55.5752 27.0461 54.8702 28.0891 53.9742C30.1738 52.1833 32.9559 49.6227 35.7413 46.5462C41.2628 40.4474 47 32.1018 47 23.6C47 17.6001 44.5723 11.8498 40.2569 7.61293C35.9423 3.37669 30.0941 1 24 1C17.9059 1 12.0577 3.37669 7.74306 7.61293C3.42775 11.8498 1 17.6001 1 23.6C1 32.1018 6.73718 40.4474 12.2587 46.5462C15.0441 49.6227 17.8262 52.1833 19.9109 53.9742C20.9539 54.8702 21.8241 55.5752 22.4353 56.0573C22.7409 56.2985 22.9819 56.484 23.1474 56.6099C23.2302 56.6729 23.2941 56.721 23.3378 56.7537L23.3881 56.7912L23.4015 56.8012L23.4053 56.8039L23.4064 56.8048C23.4068 56.805 23.4071 56.8052 24 56Z" fill="#0E0E0E" stroke="url(#paint0_linear_337_2215)" stroke-width="2" stroke-linecap="round" stroke-linejoin="round"/>
<path fill-rule="evenodd" clip-rule="evenodd" d="M19.9704 13.5C19.9704 13.2238 20.1942 13 20.4704 13C21.1665 13 21.6998 13.1571 22.0445 13.5244C22.3863 13.8887 22.4376 14.3508 22.4376 14.696L22.4376 14.7105C22.4377 14.8546 22.4377 15.0331 22.4145 15.2043C22.3899 15.3863 22.3351 15.5981 22.1984 15.7932C21.9059 16.2105 21.3926 16.3535 20.7479 16.3535C20.4094 16.3535 20.3049 16.4187 20.2735 16.4484C20.2489 16.4716 20.1772 16.5606 20.1772 16.8952C20.1772 17.0972 20.2176 17.2178 20.2576 17.2899C20.2967 17.3604 20.3501 17.4113 20.42 17.4521C20.5818 17.5465 20.7973 17.5726 21.0299 17.5932C21.305 17.6175 21.5083 17.8602 21.4839 18.1353C21.4596 18.4104 21.2169 18.6136 20.9418 18.5893C20.935 18.5887 20.928 18.5881 20.9207 18.5875C20.709 18.569 20.2866 18.5321 19.9159 18.3157C19.7132 18.1973 19.5212 18.0239 19.3831 17.7749C19.2459 17.5276 19.1772 17.2334 19.1772 16.8952C19.1772 16.4582 19.2642 16.0263 19.5866 15.7216C19.9022 15.4233 20.333 15.3535 20.7479 15.3535C21.2868 15.3535 21.3726 15.2293 21.3793 15.2196L21.3795 15.2193C21.3914 15.2022 21.411 15.1633 21.4235 15.0703C21.4368 14.9725 21.4376 14.8582 21.4376 14.696C21.4376 14.424 21.3898 14.2881 21.3153 14.2087C21.2436 14.1323 21.0432 14 20.4704 14C20.1942 14 19.9704 13.7761 19.9704 13.5ZM24.3722 13.5C24.3722 13.2238 24.596 13 24.8722 13C25.5683 13 26.1016 13.1571 26.4463 13.5244C26.7882 13.8887 26.8394 14.3508 26.8394 14.696L26.8395 14.7105C26.8395 14.8546 26.8395 15.0331 26.8163 15.2043C26.7917 15.3863 26.7369 15.5981 26.6002 15.7932C26.3077 16.2105 25.7944 16.3535 25.1498 16.3535C24.8113 16.3535 24.7067 16.4187 24.6753 16.4484C24.6507 16.4716 24.5791 16.5606 24.5791 16.8952C24.5791 17.0972 24.6194 17.2178 24.6594 17.2899C24.6986 17.3604 24.752 17.4113 24.8219 17.4521C24.9836 17.5465 25.1992 17.5726 25.4318 17.5932C25.7068 17.6175 25.9101 17.8602 25.8858 18.1353C25.8614 18.4104 25.6187 18.6136 25.3437 18.5893C25.3369 18.5887 25.3298 18.5881 25.3225 18.5875C25.1108 18.569 24.6884 18.5321 24.3177 18.3157C24.115 18.1973 23.923 18.0239 23.7849 17.7749C23.6477 17.5276 23.5791 17.2334 23.5791 16.8952C23.5791 16.4582 23.666 16.0263 23.9884 15.7216C24.304 15.4233 24.7348 15.3535 25.1498 15.3535C25.6886 15.3535 25.7744 15.2293 25.7811 15.2196L25.7813 15.2193C25.7933 15.2022 25.8128 15.1633 25.8254 15.0703C25.8386 14.9725 25.8394 14.8582 25.8394 14.696C25.8394 14.424 25.7916 14.2881 25.7171 14.2087C25.6454 14.1323 25.445 14 24.8722 14C24.596 14 24.3722 13.7761 24.3722 13.5ZM11.9995 20.187H12.4995H32.0103H32.5103V20.687V23.3269C33.0192 23.3511 33.7025 23.436 34.3278 23.7351C34.7725 23.9478 35.1988 24.2733 35.511 24.7662C35.8232 25.2593 36 25.8863 36 26.6673C36 27.9556 35.4533 28.824 34.747 29.3617C34.0631 29.8824 33.2546 30.0765 32.705 30.0991L32.6947 30.0995H32.6844H32.6826H32.6807H32.6788H32.6769H32.675H32.673H32.6711H32.6691H32.6672H32.6652H32.6632H32.6612H32.6592H32.6571H32.6551H32.653H32.651H32.6489H32.6468H32.6447H32.6426H32.6405H32.6383H32.6362H32.634H32.6318H32.6296H32.6274H32.6252H32.623H32.6207H32.6185H32.6162H32.6139H32.6116H32.6093H32.607H32.6047H32.6024H32.6H32.5977H32.5953H32.5929H32.5905H32.5881H32.5857H32.5832H32.5808H32.5783H32.5759H32.5734H32.5709H32.5684H32.5659H32.5633H32.5608H32.5582H32.5557H32.5531H32.5505H32.5479H32.5453H32.5427H32.5401H32.5374H32.5348H32.5321H32.5294H32.5267H32.524H32.5213H32.5186H32.5158H32.5131H32.5103H32.5076H32.5048H32.502H32.4992H32.4964H32.4936H32.4907H32.4879H32.485H32.4821H32.4793H32.4764H32.4735H32.4706H32.4676H32.4647H32.4617H32.4588H32.4558H32.4528H32.4499H32.4468H32.4438H32.4408H32.4378H32.4347H32.4317H32.4286H32.4255H32.4224H32.4193H32.4162H32.4131H32.41H32.4068H32.4037H32.4005H32.3974H32.3942H32.391H32.3878H32.3846H32.3813H32.3781H32.3749H32.3716H32.3683H32.3651H32.3618H32.3585H32.3552H32.3519H32.3485H32.3452H32.3418H32.3385H32.3351H32.3317H32.3284H32.325H32.3215H32.3181H32.3147H32.3113H32.3078H32.3044H32.3009H32.2974H32.2939H32.2904H32.2869H32.2834H32.2799H32.2763H32.2728H32.2692H32.2657H32.2621H32.2585H32.2549H32.2513H32.2477H32.2441H32.2404H32.2368H32.2331H32.2295H32.2258H32.2221H32.2184H32.2147H32.211H32.2073H32.2036H32.1998H32.1961H32.1923H32.1886H32.1848H32.181H32.1772H32.1734H32.1696H32.1658H32.1619H32.1581H32.1543H32.1504H32.1465H32.1427H32.1388H32.1349H32.131H32.1271H32.1231H32.1192H32.1153H32.1113H32.1074H32.1034H32.0994H32.0955H32.0915H32.0875H32.0835H32.0794H32.0754H32.0714H32.0673H32.0633H32.0592H32.0552H32.0511H32.047H32.0429H32.0388H32.0347H32.0306H32.0264H32.0223H32.0182H32.014H32.0098H32.0057H32.0015H31.9973H31.9931H31.9889H31.9847H31.9805H31.9763H31.972H31.9678H31.9635H31.9593H31.955H31.9507H31.9464H31.9421H31.9378H31.9335H31.9292H31.9249H31.9206H31.9162H31.9119H31.9075H31.9032H31.8988H31.8944H31.89H31.8856H31.8812H31.8768H31.8724H31.868H31.8635H31.8591H31.8547H31.8502H31.8457H31.8413H31.8368H31.8323H31.8278H31.8233H31.8188H31.8143H31.8098H31.8052H31.8007H31.7962H31.7916H31.787H31.7825H31.7779H31.7733H31.7687H31.7641H31.7595H31.7549H31.7503H31.7457H31.7411H31.7364H31.7318H31.7271H31.7225H31.7178H31.7131H31.7084H31.7038H31.6991H31.6944H31.6897H31.6849H31.6802H31.6755H31.6708H31.666H31.6613H31.6565H31.6518H31.647H31.6422H31.6374H31.6326H31.6278H31.623H31.6182H31.6134H31.6086H31.6038H31.5989H31.5941H31.5893H31.5844H31.5795H31.5747H31.5698H31.5649H31.56H31.5552H31.5503H31.5454H31.5404H31.5355H31.5306H31.5257H31.5207H31.5158H31.5109H31.5059H31.5009H31.496H31.491H31.486H31.4811H31.4761H31.4711H31.4661H31.4611H31.4561H31.451H31.446H31.441H31.436H31.4309H31.4259H31.4208H31.4158H31.4107H31.4056H31.4005H31.3955H31.3904H31.3853H31.3802H31.3751H31.37H31.3649H31.3598H31.3546H31.3495H31.3444H31.3392H31.3341H31.3289H31.3238H31.3186H31.3134H31.3083H31.3031H31.2979H31.2927H31.2875H31.2823H31.2771H31.2719H31.2667H31.2615H31.2563H31.251H31.2458H31.2406H31.2353H31.2301H31.2248H31.2196H31.2143H31.209H31.2038H31.1985H31.1932H31.1879H31.1826H31.1773H31.172H31.1667H31.1614H31.1561H31.1508H31.1454H31.1401H31.1348H31.1294H31.1241H31.1187H31.1134H31.108H31.1027H31.0973H31.0919H31.0866H31.0812H31.0758H31.0704H31.065H31.0596H31.0542H31.0488H31.0434H31.038H31.0326H31.0272H31.0217H31.0163H31.0109H31.0054H31H30.9946H30.9891H30.9837H30.9782H30.9727H30.9673H30.9618H30.9563H30.9509H30.9454H30.9399H30.9344H30.9289H30.9234H30.9179H30.9124H30.9069H30.9014H30.8959H30.8904H30.8848H30.8793H30.8738H30.8683H30.8627H30.8572H30.8516H30.8461H30.8405H30.835H30.8294H30.8239H30.8183H30.8127H30.812C29.7179 32.0721 27.9844 33.9328 25.3311 34.9654L25.2436 34.9994H25.1498H25.1364H25.123H25.1096H25.0962H25.0828H25.0694H25.056H25.0426H25.0292H25.0158H25.0024H24.989H24.9755H24.9621H24.9487H24.9353H24.9218H24.9084H24.895H24.8816H24.8681H24.8547H24.8413H24.8278H24.8144H24.8009H24.7875H24.7741H24.7606H24.7472H24.7337H24.7203H24.7068H24.6934H24.6799H24.6665H24.653H24.6396H24.6261H24.6127H24.5992H24.5858H24.5723H24.5589H24.5454H24.532H24.5185H24.5051H24.4916H24.4782H24.4647H24.4513H24.4378H24.4244H24.4109H24.3975H24.384H24.3706H24.3571H24.3437H24.3303H24.3168H24.3034H24.2899H24.2765H24.2631H24.2496H24.2362H24.2228H24.2094H24.1959H24.1825H24.1691H24.1557H24.1423H24.1288H24.1154H24.102H24.0886H24.0752H24.0618H24.0484H24.035H24.0216H24.0082H23.9949H23.9815H23.9681H23.9547H23.9413H23.928H23.9146H23.9012H23.8879H23.8745H23.8612H23.8478H23.8345H23.8212H23.8078H23.7945H23.7812H23.7678H23.7545H23.7412H23.7279H23.7146H23.7013H23.688H23.6747H23.6614H23.6481H23.6349H23.6216H23.6083H23.5951H23.5818H23.5686H23.5553H23.5421H23.5288H23.5156H23.5024H23.4892H23.476H23.4628H23.4496H23.4364H23.4232H23.41H23.3968H23.3837H23.3705H23.3574H23.3442H23.3311H23.3179H23.3048H23.2917H23.2786H23.2655H23.2524H23.2393H23.2262H23.2131H23.2001H23.187H23.1739H23.1609H23.1479H23.1348H23.1218H23.1088H23.0958H23.0828H23.0698H23.0568H23.0438H23.0309H23.0179H23.005H22.992H22.9791H22.9662H22.9533H22.9404H22.9275H22.9146H22.9017H22.8888H22.876H22.8631H22.8503H22.8375H22.8246H22.8118H22.799H22.7862H22.7735H22.7607H22.7479H22.7352H22.7224H22.7097H22.697H22.6843H22.6716H22.6589H22.6462H22.6335H22.6209H22.6082H22.5956H22.583H22.5703H22.5577H22.5451H22.5326H22.52H22.5074H22.4949H22.4824H22.4698H22.4573H22.4448H22.4323H22.4199H22.4074H22.3949H22.3825H22.3701H22.3577H22.3452H22.3329H22.3205H22.3081H22.2958H22.2834H22.2711H22.2588H22.2465H22.2342H22.2219H22.2096H22.1974H22.1852H22.1729H22.1607H22.1485H22.1363H22.1242H22.112H22.0999H22.0878H22.0756H22.0635H22.0515H22.0394H22.0273H22.0153H22.0033H21.9912H21.9792H21.9673H21.9553H21.9433H21.9314H21.9195H21.9076H21.8957H21.8838H21.8719H21.8601H21.8482H21.8364H21.8246H21.8128H21.801H21.7893H21.7775H21.7658H21.7541H21.7424H21.7307H21.7191H21.7074H21.6958H21.6842H21.6726H21.661H21.6495H21.6379H21.6264H21.6149H21.6034H21.5919H21.5804H21.569H21.5576H21.5461H21.5348H21.5234H21.512H21.5007H21.4894H21.478H21.4668H21.4555H21.4442H21.433H21.4218H21.4106H21.3994H21.3882H21.3771H21.366H21.3549H21.3438H21.3327H21.3217H21.3106H21.2996H21.2886H21.2777H21.2667H21.2558H21.2448H21.2339H21.2231H21.2122H21.2014H21.1905H21.1797H21.169H21.1582H21.1475H21.1367H21.126H21.1154H21.1047H21.0941H21.0834H21.0728H21.0623H21.0517H21.0412H21.0306H21.0201H21.0097H20.9992H20.9888H20.9784H20.968H20.9576H20.9472H20.9369H20.9266H20.9163H20.9061H20.8958H20.8856H20.8754H20.8652H20.8551H20.8449H20.8348H20.8247H20.8147H20.8046H20.7946H20.7846H20.7746H20.7647H20.7547H20.7448H20.7349H20.7251H20.7152H20.7054H20.6956H20.6858H20.6761H20.6664H20.6567H20.647H20.6373H20.6277H20.6181H20.6085H20.5989H20.5894H20.5799H20.5704H20.5609H20.5515H20.5421H20.5327H20.5233H20.514H20.5047H20.4954H20.4861H20.4768H20.4676H20.4584H20.4493H20.4401H20.431H20.4219H20.4128H20.4038H20.3948H20.3858H20.3768H20.3679H20.359H20.3501H20.3412H20.3324H20.3235H20.3148H20.306H20.2973H20.2886H20.2799H20.2712H20.2626H20.254H20.2454H20.2369H20.2283H20.2199H20.2114H20.2029H20.1945H20.1861H20.1778H20.1694H20.1611H20.1529H20.1446H20.1364H20.1282H20.12H20.1119H20.1038H20.0957H20.0876H20.0796H20.0716H20.0637H20.0557H20.0478H20.0399H20.0321H20.0242H20.0164H20.0087H20.0009H19.9932H19.9855H19.9779H19.9702H19.9626H19.9551H19.9475H19.94H19.9325H19.9251H19.9177H19.9103H19.9029H19.8956H19.8883H19.881H19.8738H19.8666H19.8594H19.8522H19.8451H19.838H19.831H19.824H19.817H19.81H19.8031H19.7962H19.7893H19.7824H19.7756H19.7688H19.7621H19.7554H19.7487H19.742H19.7354H19.7288H19.7223H19.7157H19.7092H19.7028H19.6963H19.6899H19.6836H19.6772H19.6709H19.6647H19.6584H19.6522H19.646H19.6399H19.6338H19.6277H19.6217H19.6157H19.6097H19.6037H19.5978H19.592H19.5861H19.5803H19.5745H19.5688H19.5631H19.5574H19.5518H19.5461H19.5406H19.535H19.5295H19.524H19.5186H19.4337L19.3536 34.9714C17.0488 34.1655 13.3191 31.3435 12.2768 26.3843C12.0986 25.5361 11.9995 24.6273 11.9995 23.6579V23.6494V23.6409V23.6324V23.6239V23.6155V23.607V23.5985V23.5901V23.5817V23.5732V23.5648V23.5564V23.548V23.5396V23.5312V23.5228V23.5144V23.5061V23.4977V23.4893V23.481V23.4726V23.4643V23.456V23.4477V23.4394V23.4311V23.4228V23.4145V23.4062V23.3979V23.3897V23.3814V23.3732V23.3649V23.3567V23.3485V23.3403V23.3321V23.3239V23.3157V23.3075V23.2993V23.2911V23.283V23.2748V23.2667V23.2586V23.2504V23.2423V23.2342V23.2261V23.218V23.2099V23.2018V23.1938V23.1857V23.1777V23.1696V23.1616V23.1536V23.1455V23.1375V23.1295V23.1215V23.1136V23.1056V23.0976V23.0897V23.0817V23.0738V23.0658V23.0579V23.05V23.0421V23.0342V23.0263V23.0184V23.0105V23.0027V22.9948V22.987V22.9791V22.9713V22.9635V22.9557V22.9479V22.9401V22.9323V22.9245V22.9168V22.909V22.9013V22.8935V22.8858V22.8781V22.8704V22.8627V22.855V22.8473V22.8396V22.8319V22.8243V22.8166V22.809V22.8014V22.7937V22.7861V22.7785V22.7709V22.7634V22.7558V22.7482V22.7407V22.7331V22.7256V22.7181V22.7106V22.703V22.6955V22.6881V22.6806V22.6731V22.6657V22.6582V22.6508V22.6433V22.6359V22.6285V22.6211V22.6137V22.6063V22.599V22.5916V22.5843V22.5769V22.5696V22.5623V22.5549V22.5476V22.5404V22.5331V22.5258V22.5185V22.5113V22.504V22.4968V22.4896V22.4824V22.4752V22.468V22.4608V22.4536V22.4465V22.4393V22.4322V22.425V22.4179V22.4108V22.4037V22.3966V22.3896V22.3825V22.3754V22.3684V22.3613V22.3543V22.3473V22.3403V22.3333V22.3263V22.3193V22.3124V22.3054V22.2985V22.2915V22.2846V22.2777V22.2708V22.2639V22.257V22.2502V22.2433V22.2365V22.2296V22.2228V22.216V22.2092V22.2024V22.1956V22.1889V22.1821V22.1754V22.1686V22.1619V22.1552V22.1485V22.1418V22.1351V22.1284V22.1218V22.1151V22.1085V22.1018V22.0952V22.0886V22.082V22.0755V22.0689V22.0623V22.0558V22.0492V22.0427V22.0362V22.0297V22.0232V22.0167V22.0103V22.0038V21.9974V21.9909V21.9845V21.9781V21.9717V21.9653V21.9589V21.9526V21.9462V21.9399V21.9335V21.9272V21.9209V21.9146V21.9083V21.9021V21.8958V21.8896V21.8833V21.8771V21.8709V21.8647V21.8585V21.8523V21.8462V21.84V21.8339V21.8277V21.8216V21.8155V21.8094V21.8033V21.7973V21.7912V21.7852V21.7791V21.7731V21.7671V21.7611V21.7551V21.7492V21.7432V21.7373V21.7313V21.7254V21.7195V21.7136V21.7077V21.7019V21.696V21.6901V21.6843V21.6785V21.6727V21.6669V21.6611V21.6553V21.6496V21.6438V21.6381V21.6324V21.6267V21.621V21.6153V21.6096V21.6039V21.5983V21.5927V21.587V21.5814V21.5758V21.5703V21.5647V21.5591V21.5536V21.5481V21.5425V21.537V21.5316V21.5261V21.5206V21.5152V21.5097V21.5043V21.4989V21.4935V21.4881V21.4827V21.4774V21.472V21.4667V21.4614V21.4561V21.4508V21.4455V21.4402V21.435V21.4297V21.4245V21.4193V21.4141V21.4089V21.4037V21.3986V21.3934V21.3883V21.3832V21.378V21.373V21.3679V21.3628V21.3578V21.3527V21.3477V21.3427V21.3377V21.3327V21.3277V21.3228V21.3178V21.3129V21.308V21.3031V21.2982V21.2933V21.2885V21.2836V21.2788V21.274V21.2692V21.2644V21.2596V21.2548V21.2501V21.2454V21.2406V21.2359V21.2313V21.2266V21.2219V21.2173V21.2126V21.208V21.2034V21.1988V21.1942V21.1897V21.1851V21.1806V21.1761V21.1716V21.1671V21.1626V21.1581V21.1537V21.1492V21.1448V21.1404V21.136V21.1317V21.1273V21.123V21.1186V21.1143V21.11V21.1057V21.1014V21.0972V21.0929V21.0887V21.0845V21.0803V21.0761V21.0719V21.0678V21.0636V21.0595V21.0554V21.0513V21.0472V21.0432V21.0391V21.0351V21.0311V21.0271V21.0231V21.0191V21.0151V21.0112V21.0072V21.0033V20.9994V20.9955V20.9917V20.9878V20.984V20.9802V20.9764V20.9726V20.9688V20.965V20.9613V20.9575V20.9538V20.9501V20.9464V20.9428V20.9391V20.9355V20.9318V20.9282V20.9246V20.9211V20.9175V20.914V20.9104V20.9069V20.9034V20.8999V20.8965V20.893V20.8896V20.8862V20.8828V20.8794V20.876V20.8726V20.8693V20.866V20.8627V20.8594V20.8561V20.8528V20.8496V20.8464V20.8431V20.8399V20.8368V20.8336V20.8304V20.8273V20.8242V20.8211V20.818V20.8149V20.8119V20.8088V20.8058V20.8028V20.7998V20.7969V20.7939V20.791V20.788V20.7851V20.7823V20.7794V20.7765V20.7737V20.7709V20.7681V20.7653V20.7625V20.7597V20.757V20.7543V20.7516V20.7489V20.7462V20.7435V20.7409V20.7383V20.7357V20.7331V20.7305V20.7279V20.7254V20.7229V20.7204V20.7179V20.7154V20.7129V20.7105V20.7081V20.7057V20.7033V20.7009V20.6986V20.6962V20.6939V20.6916V20.6893V20.687V20.187ZM31.3106 29.0995H31.3134H31.3186H31.3238H31.3289H31.3341H31.3392H31.3444H31.3495H31.3546H31.3598H31.3649H31.37H31.3751H31.3802H31.3853H31.3904H31.3955H31.4005H31.4056H31.4107H31.4158H31.4208H31.4259H31.4309H31.436H31.441H31.446H31.451H31.4561H31.4611H31.4661H31.4711H31.4761H31.4811H31.486H31.491H31.496H31.5009H31.5059H31.5109H31.5158H31.5207H31.5257H31.5306H31.5355H31.5404H31.5454H31.5503H31.5552H31.56H31.5649H31.5698H31.5747H31.5795H31.5844H31.5893H31.5941H31.5989H31.6038H31.6086H31.6134H31.6182H31.623H31.6278H31.6326H31.6374H31.6422H31.647H31.6518H31.6565H31.6613H31.666H31.6708H31.6755H31.6802H31.6849H31.6897H31.6944H31.6991H31.7038H31.7084H31.7131H31.7178H31.7225H31.7271H31.7318H31.7364H31.7411H31.7457H31.7503H31.7549H31.7595H31.7641H31.7687H31.7733H31.7779H31.7825H31.787H31.7916H31.7962H31.8007H31.8052H31.8098H31.8143H31.8188H31.8233H31.8278H31.8323H31.8368H31.8413H31.8457H31.8502H31.8547H31.8591H31.8635H31.868H31.8724H31.8768H31.8812H31.8856H31.89H31.8944H31.8988H31.9032H31.9075H31.9119H31.9162H31.9206H31.9249H31.9292H31.9335H31.9378H31.9421H31.9464H31.9507H31.955H31.9593H31.9635H31.9678H31.972H31.9763H31.9805H31.9847H31.9889H31.9931H31.9973H32.0015H32.0057H32.0098H32.014H32.0182H32.0223H32.0264H32.0306H32.0347H32.0388H32.0429H32.047H32.0511H32.0552H32.0592H32.0633H32.0673H32.0714H32.0754H32.0794H32.0835H32.0875H32.0915H32.0955H32.0994H32.1034H32.1074H32.1113H32.1153H32.1192H32.1231H32.1271H32.131H32.1349H32.1388H32.1427H32.1465H32.1504H32.1543H32.1581H32.1619H32.1658H32.1696H32.1734H32.1772H32.181H32.1848H32.1886H32.1923H32.1961H32.1998H32.2036H32.2073H32.211H32.2147H32.2184H32.2221H32.2258H32.2295H32.2331H32.2368H32.2404H32.2441H32.2477H32.2513H32.2549H32.2585H32.2621H32.2657H32.2692H32.2728H32.2763H32.2799H32.2834H32.2869H32.2904H32.2939H32.2974H32.3009H32.3044H32.3078H32.3113H32.3147H32.3181H32.3215H32.325H32.3284H32.3317H32.3351H32.3385H32.3418H32.3452H32.3485H32.3519H32.3552H32.3585H32.3618H32.3651H32.3683H32.3716H32.3749H32.3781H32.3813H32.3846H32.3878H32.391H32.3942H32.3974H32.4005H32.4037H32.4068H32.41H32.4131H32.4162H32.4193H32.4224H32.4255H32.4286H32.4317H32.4347H32.4378H32.4408H32.4438H32.4468H32.4499H32.4528H32.4558H32.4588H32.4617H32.4647H32.4676H32.4706H32.4735H32.4764H32.4793H32.4821H32.485H32.4879H32.4907H32.4936H32.4964H32.4992H32.502H32.5048H32.5076H32.5103H32.5131H32.5158H32.5186H32.5213H32.524H32.5267H32.5294H32.5321H32.5348H32.5374H32.5401H32.5427H32.5453H32.5479H32.5505H32.5531H32.5557H32.5582H32.5608H32.5633H32.5659H32.5684H32.5709H32.5734H32.5759H32.5783H32.5808H32.5832H32.5857H32.5881H32.5905H32.5929H32.5953H32.5977H32.6H32.6024H32.6047H32.607H32.6093H32.6116H32.6139H32.6162H32.6185H32.6207H32.623H32.6252H32.6274H32.6296H32.6318H32.634H32.6362H32.6383H32.6405H32.6426H32.6447H32.6468H32.6489H32.651H32.653H32.6551H32.6571H32.6592H32.6612H32.6632H32.6652H32.6672H32.6691H32.6711H32.673H32.6735C33.0626 29.0815 33.6561 28.9355 34.1413 28.566C34.6082 28.2106 35 27.6321 35 26.6673C35 26.04 34.8595 25.6066 34.6661 25.3013C34.4727 24.9959 34.2051 24.7849 33.8963 24.6372C33.4431 24.4204 32.9264 24.3503 32.4925 24.3278C32.4564 24.9374 32.3645 25.6395 32.1992 26.3891C32.0101 27.2473 31.7235 28.1737 31.3106 29.0995ZM12.9995 21.187V21.1897V21.1942V21.1988V21.2034V21.208V21.2126V21.2173V21.2219V21.2266V21.2313V21.2359V21.2406V21.2454V21.2501V21.2548V21.2596V21.2644V21.2692V21.274V21.2788V21.2836V21.2885V21.2933V21.2982V21.3031V21.308V21.3129V21.3178V21.3228V21.3277V21.3327V21.3377V21.3427V21.3477V21.3527V21.3578V21.3628V21.3679V21.373V21.378V21.3832V21.3883V21.3934V21.3986V21.4037V21.4089V21.4141V21.4193V21.4245V21.4297V21.435V21.4402V21.4455V21.4508V21.4561V21.4614V21.4667V21.472V21.4774V21.4827V21.4881V21.4935V21.4989V21.5043V21.5097V21.5152V21.5206V21.5261V21.5316V21.537V21.5425V21.5481V21.5536V21.5591V21.5647V21.5703V21.5758V21.5814V21.587V21.5927V21.5983V21.6039V21.6096V21.6153V21.621V21.6267V21.6324V21.6381V21.6438V21.6496V21.6553V21.6611V21.6669V21.6727V21.6785V21.6843V21.6901V21.696V21.7019V21.7077V21.7136V21.7195V21.7254V21.7313V21.7373V21.7432V21.7492V21.7551V21.7611V21.7671V21.7731V21.7791V21.7852V21.7912V21.7973V21.8033V21.8094V21.8155V21.8216V21.8277V21.8339V21.84V21.8462V21.8523V21.8585V21.8647V21.8709V21.8771V21.8833V21.8896V21.8958V21.9021V21.9083V21.9146V21.9209V21.9272V21.9335V21.9399V21.9462V21.9526V21.9589V21.9653V21.9717V21.9781V21.9845V21.9909V21.9974V22.0038V22.0103V22.0167V22.0232V22.0297V22.0362V22.0427V22.0492V22.0558V22.0623V22.0689V22.0755V22.082V22.0886V22.0952V22.1018V22.1085V22.1151V22.1218V22.1284V22.1351V22.1418V22.1485V22.1552V22.1619V22.1686V22.1754V22.1821V22.1889V22.1956V22.2024V22.2092V22.216V22.2228V22.2296V22.2365V22.2433V22.2502V22.257V22.2639V22.2708V22.2777V22.2846V22.2915V22.2985V22.3054V22.3124V22.3193V22.3263V22.3333V22.3403V22.3473V22.3543V22.3613V22.3684V22.3754V22.3825V22.3896V22.3966V22.4037V22.4108V22.4179V22.425V22.4322V22.4393V22.4465V22.4536V22.4608V22.468V22.4752V22.4824V22.4896V22.4968V22.504V22.5113V22.5185V22.5258V22.5331V22.5404V22.5476V22.5549V22.5623V22.5696V22.5769V22.5843V22.5916V22.599V22.6063V22.6137V22.6211V22.6285V22.6359V22.6433V22.6508V22.6582V22.6657V22.6731V22.6806V22.6881V22.6955V22.703V22.7106V22.7181V22.7256V22.7331V22.7407V22.7482V22.7558V22.7634V22.7709V22.7785V22.7861V22.7937V22.8014V22.809V22.8166V22.8243V22.8319V22.8396V22.8473V22.855V22.8627V22.8704V22.8781V22.8858V22.8935V22.9013V22.909V22.9168V22.9245V22.9323V22.9401V22.9479V22.9557V22.9635V22.9713V22.9791V22.987V22.9948V23.0027V23.0105V23.0184V23.0263V23.0342V23.0421V23.05V23.0579V23.0658V23.0738V23.0817V23.0897V23.0976V23.1056V23.1136V23.1215V23.1295V23.1375V23.1455V23.1536V23.1616V23.1696V23.1777V23.1857V23.1938V23.2018V23.2099V23.218V23.2261V23.2342V23.2423V23.2504V23.2586V23.2667V23.2748V23.283V23.2911V23.2993V23.3075V23.3157V23.3239V23.3321V23.3403V23.3485V23.3567V23.3649V23.3732V23.3814V23.3897V23.3979V23.4062V23.4145V23.4228V23.4311V23.4394V23.4477V23.456V23.4643V23.4726V23.481V23.4893V23.4977V23.5061V23.5144V23.5228V23.5312V23.5396V23.548V23.5564V23.5648V23.5732V23.5817V23.5901V23.5985V23.607V23.6155V23.6239V23.6324V23.6409V23.6494V23.6579C12.9995 24.4078 13.0632 25.1154 13.1792 25.7814H31.303C31.4443 25.0342 31.5051 24.3583 31.5103 23.8127C31.5108 23.7614 31.5108 23.7115 31.5103 23.6627L31.5103 23.6579V21.187H12.9995ZM31.0739 26.7814H13.3993C14.5055 30.913 17.6593 33.2858 19.6054 33.9994H19.6097H19.6157H19.6217H19.6277H19.6338H19.6399H19.646H19.6522H19.6584H19.6647H19.6709H19.6772H19.6836H19.6899H19.6963H19.7028H19.7092H19.7157H19.7223H19.7288H19.7354H19.742H19.7487H19.7554H19.7621H19.7688H19.7756H19.7824H19.7893H19.7962H19.8031H19.81H19.817H19.824H19.831H19.838H19.8451H19.8522H19.8594H19.8666H19.8738H19.881H19.8883H19.8956H19.9029H19.9103H19.9177H19.9251H19.9325H19.94H19.9475H19.9551H19.9626H19.9702H19.9779H19.9855H19.9932H20.0009H20.0087H20.0164H20.0242H20.0321H20.0399H20.0478H20.0557H20.0637H20.0716H20.0796H20.0876H20.0957H20.1038H20.1119H20.12H20.1282H20.1364H20.1446H20.1529H20.1611H20.1694H20.1778H20.1861H20.1945H20.2029H20.2114H20.2199H20.2283H20.2369H20.2454H20.254H20.2626H20.2712H20.2799H20.2886H20.2973H20.306H20.3148H20.3235H20.3324H20.3412H20.3501H20.359H20.3679H20.3768H20.3858H20.3948H20.4038H20.4128H20.4219H20.431H20.4401H20.4493H20.4584H20.4676H20.4768H20.4861H20.4954H20.5047H20.514H20.5233H20.5327H20.5421H20.5515H20.5609H20.5704H20.5799H20.5894H20.5989H20.6085H20.6181H20.6277H20.6373H20.647H20.6567H20.6664H20.6761H20.6858H20.6956H20.7054H20.7152H20.7251H20.7349H20.7448H20.7547H20.7647H20.7746H20.7846H20.7946H20.8046H20.8147H20.8247H20.8348H20.8449H20.8551H20.8652H20.8754H20.8856H20.8958H20.9061H20.9163H20.9266H20.9369H20.9472H20.9576H20.968H20.9784H20.9888H20.9992H21.0097H21.0201H21.0306H21.0412H21.0517H21.0623H21.0728H21.0834H21.0941H21.1047H21.1154H21.126H21.1367H21.1475H21.1582H21.169H21.1797H21.1905H21.2014H21.2122H21.2231H21.2339H21.2448H21.2558H21.2667H21.2777H21.2886H21.2996H21.3106H21.3217H21.3327H21.3438H21.3549H21.366H21.3771H21.3882H21.3994H21.4106H21.4218H21.433H21.4442H21.4555H21.4668H21.478H21.4894H21.5007H21.512H21.5234H21.5348H21.5461H21.5576H21.569H21.5804H21.5919H21.6034H21.6149H21.6264H21.6379H21.6495H21.661H21.6726H21.6842H21.6958H21.7074H21.7191H21.7307H21.7424H21.7541H21.7658H21.7775H21.7893H21.801H21.8128H21.8246H21.8364H21.8482H21.8601H21.8719H21.8838H21.8957H21.9076H21.9195H21.9314H21.9433H21.9553H21.9673H21.9792H21.9912H22.0033H22.0153H22.0273H22.0394H22.0515H22.0635H22.0756H22.0878H22.0999H22.112H22.1242H22.1363H22.1485H22.1607H22.1729H22.1852H22.1974H22.2096H22.2219H22.2342H22.2465H22.2588H22.2711H22.2834H22.2958H22.3081H22.3205H22.3329H22.3452H22.3577H22.3701H22.3825H22.3949H22.4074H22.4199H22.4323H22.4448H22.4573H22.4698H22.4824H22.4949H22.5074H22.52H22.5326H22.5451H22.5577H22.5703H22.583H22.5956H22.6082H22.6209H22.6335H22.6462H22.6589H22.6716H22.6843H22.697H22.7097H22.7224H22.7352H22.7479H22.7607H22.7735H22.7862H22.799H22.8118H22.8246H22.8375H22.8503H22.8631H22.876H22.8888H22.9017H22.9146H22.9275H22.9404H22.9533H22.9662H22.9791H22.992H23.005H23.0179H23.0309H23.0438H23.0568H23.0698H23.0828H23.0958H23.1088H23.1218H23.1348H23.1479H23.1609H23.1739H23.187H23.2001H23.2131H23.2262H23.2393H23.2524H23.2655H23.2786H23.2917H23.3048H23.3179H23.3311H23.3442H23.3574H23.3705H23.3837H23.3968H23.41H23.4232H23.4364H23.4496H23.4628H23.476H23.4892H23.5024H23.5156H23.5288H23.5421H23.5553H23.5686H23.5818H23.5951H23.6083H23.6216H23.6349H23.6481H23.6614H23.6747H23.688H23.7013H23.7146H23.7279H23.7412H23.7545H23.7678H23.7812H23.7945H23.8078H23.8212H23.8345H23.8478H23.8612H23.8745H23.8879H23.9012H23.9146H23.928H23.9413H23.9547H23.9681H23.9815H23.9949H24.0082H24.0216H24.035H24.0484H24.0618H24.0752H24.0886H24.102H24.1154H24.1288H24.1423H24.1557H24.1691H24.1825H24.1959H24.2094H24.2228H24.2362H24.2496H24.2631H24.2765H24.2899H24.3034H24.3168H24.3303H24.3437H24.3571H24.3706H24.384H24.3975H24.4109H24.4244H24.4378H24.4513H24.4647H24.4782H24.4916H24.5051H24.5185H24.532H24.5454H24.5589H24.5723H24.5858H24.5992H24.6127H24.6261H24.6396H24.653H24.6665H24.6799H24.6934H24.7068H24.7203H24.7337H24.7472H24.7606H24.7741H24.7875H24.8009H24.8144H24.8278H24.8413H24.8547H24.8681H24.8816H24.895H24.9084H24.9218H24.9353H24.9487H24.9621H24.9755H24.989H25.0024H25.0158H25.0292H25.0426H25.0547C27.5073 33.0185 29.0852 31.2504 30.0705 29.3677C30.5218 28.5053 30.8476 27.6206 31.0739 26.7814Z" fill="#F6F4EC"/>
<defs>
<linearGradient id="paint0_linear_337_2215" x1="24" y1="2" x2="24" y2="56" gradientUnits="userSpaceOnUse">
<stop stop-color="#F6F4EC"/>
<stop offset="0.90625" stop-color="#F6F4EC" stop-opacity="0"/>
<stop offset="1" stop-color="white"/>
</linearGradient>
</defs>
</svg>
