<svg width="48" height="58" viewBox="0 0 48 58" fill="none" xmlns="http://www.w3.org/2000/svg">
<path d="M24 56L23.4071 56.8052C23.7597 57.0649 24.2403 57.0649 24.5929 56.8052L24 56ZM24 56C24.5929 56.8052 24.5932 56.805 24.5936 56.8048L24.5947 56.8039L24.5985 56.8012L24.6119 56.7912L24.6622 56.7537C24.7059 56.721 24.7698 56.6729 24.8526 56.6099C25.0181 56.484 25.2591 56.2985 25.5647 56.0573C26.1759 55.5752 27.0461 54.8702 28.0891 53.9742C30.1738 52.1833 32.9559 49.6227 35.7413 46.5462C41.2628 40.4474 47 32.1018 47 23.6C47 17.6001 44.5723 11.8498 40.2569 7.61293C35.9423 3.37669 30.0941 1 24 1C17.9059 1 12.0577 3.37669 7.74306 7.61293C3.42775 11.8498 1 17.6001 1 23.6C1 32.1018 6.73718 40.4474 12.2587 46.5462C15.0441 49.6227 17.8262 52.1833 19.9109 53.9742C20.9539 54.8702 21.8241 55.5752 22.4353 56.0573C22.7409 56.2985 22.9819 56.484 23.1474 56.6099C23.2302 56.6729 23.2941 56.721 23.3378 56.7537L23.3881 56.7912L23.4015 56.8012L23.4053 56.8039L23.4064 56.8048C23.4068 56.805 23.4071 56.8052 24 56Z" fill="#0E0E0E" stroke="url(#paint0_linear_410_2206)" stroke-width="2" stroke-linecap="round" stroke-linejoin="round"/>
<path d="M24.8829 33.0549L25.2698 33.6756C24.115 34.4156 22.8101 35.1954 21.3974 35.9996H27.8254C29.1452 35.0118 30.3419 34.0242 31.4908 33.0028C32.3458 32.2291 33.0686 31.4891 33.7015 30.7368C34.3254 29.9968 35.0364 29.0915 35.5312 27.9448C35.8042 27.3149 35.9482 26.746 35.99 26.1619C36.026 25.6513 35.984 24.8838 35.582 24.0917C35.2672 23.4403 34.7213 22.8044 34.0614 22.2935C33.5155 21.8624 32.8707 21.4893 32.0967 21.1529C30.747 20.581 29.5232 20.2813 28.3743 20.0275C27.6634 19.8745 26.9765 19.7432 26.3168 19.6177C25.894 19.5382 25.4921 19.4556 25.096 19.376C23.9111 19.1559 23.0292 18.9449 22.4145 18.7246C22.0277 18.6083 21.7547 18.4769 21.6257 18.4095L21.5178 18.3515C21.4458 18.3086 21.3828 18.2719 21.2868 18.1985C21.1068 18.0243 21.0497 17.7888 21.1158 17.4891C21.1818 17.1956 21.4159 16.8683 21.5958 16.6482C22.0128 16.1497 22.6576 15.5961 23.5245 14.997C24.6373 14.2233 25.8551 13.5047 27.1478 12.7523C27.5648 12.5047 27.9877 12.2538 28.4105 12H27.1328L25.7259 12.7033L25.6119 12.4465L26.5718 12H25.129C24.0521 12.4373 22.8135 12.9571 21.5927 13.5565C20.6689 14.0184 19.6849 14.5444 18.7461 15.2965C18.3802 15.6024 17.9062 16.0365 17.5554 16.6054C17.3035 17.0152 17.0305 17.6575 17.1535 18.367C17.2255 18.9877 17.6123 19.6696 18.1584 20.1652C18.6233 20.6025 19.1782 20.9756 19.9011 21.3365C21.0259 21.9084 22.0877 22.2569 23.1136 22.6025L23.2845 22.6605C23.6655 22.7768 24.0314 22.9022 24.3974 23.0123C25.0633 23.2232 25.7021 23.4282 26.29 23.6422C27.8736 24.1987 28.4558 24.425 28.6717 24.7614C29.5385 26.1375 26.893 28.0366 25.3063 29.1772C24.4244 29.8195 23.3985 30.4494 20.4861 31.9692C18.6294 32.9417 16.6767 33.856 15.177 34.5503L12.0002 36H19.913C21.7638 34.9787 23.4405 33.9816 24.8832 33.055L24.8829 33.0549ZM23.6562 13.3764L23.8062 13.6823L21.9406 14.7495L21.7336 14.3977L23.6562 13.3764ZM18.614 17.5567C18.6921 17.1315 18.8929 16.7676 19.13 16.4588C19.3671 16.1529 19.6399 15.8869 19.9188 15.6484L20.2188 16.0001C19.709 16.4679 19.2229 17.0247 19.13 17.6454L18.614 17.5567ZM21.6615 20.6667C20.9716 20.4191 20.2758 20.1315 19.6458 19.6789L19.9818 19.1895C20.5427 19.5688 21.2026 19.8256 21.8625 20.0458L21.6615 20.6667ZM27.0187 22.1437C26.4009 21.9816 25.777 21.8227 25.1531 21.6697C24.7871 21.581 24.4212 21.4955 24.0643 21.4005L23.7404 21.3118L23.9203 20.6177L24.2442 20.6911C24.5951 20.7858 24.961 20.8745 25.3211 20.9603C25.9511 21.1132 26.5837 21.2753 27.2018 21.4342L27.0187 22.1437ZM29.5234 22.1653C31.2242 22.8076 32.2289 23.5475 32.6788 24.4833C32.9007 24.9298 32.9788 25.4191 32.9158 25.9389L32.2049 25.8442C32.2469 25.4711 32.1988 25.1348 32.04 24.8045C31.6741 24.0584 30.7712 23.4161 29.2715 22.8536L29.5234 22.1653ZM31.41 27.6207L31.9829 28.0518C31.245 29.0823 30.0392 30.2444 28.3955 31.4951L27.9665 30.9111C29.5533 29.7033 30.7083 28.5932 31.41 27.6207L31.41 27.6207Z" fill="#F6F4EC"/>
<defs>
<linearGradient id="paint0_linear_410_2206" x1="24" y1="2" x2="24" y2="56" gradientUnits="userSpaceOnUse">
<stop stop-color="#F6F4EC"/>
<stop offset="0.90625" stop-color="#F6F4EC" stop-opacity="0"/>
<stop offset="1" stop-color="white"/>
</linearGradient>
</defs>
</svg>
