<svg width="48" height="58" viewBox="0 0 48 58" fill="none" xmlns="http://www.w3.org/2000/svg">
<path d="M24 56L23.4071 56.8052C23.7597 57.0649 24.2403 57.0649 24.5929 56.8052L24 56ZM24 56C24.5929 56.8052 24.5932 56.805 24.5936 56.8048L24.5947 56.8039L24.5985 56.8012L24.6119 56.7912L24.6622 56.7537C24.7059 56.721 24.7698 56.6729 24.8526 56.6099C25.0181 56.484 25.2591 56.2985 25.5647 56.0573C26.1759 55.5752 27.0461 54.8702 28.0891 53.9742C30.1738 52.1833 32.9559 49.6227 35.7413 46.5462C41.2628 40.4474 47 32.1018 47 23.6C47 17.6001 44.5723 11.8498 40.2569 7.61293C35.9423 3.37669 30.0941 1 24 1C17.9059 1 12.0577 3.37669 7.74306 7.61293C3.42775 11.8498 1 17.6001 1 23.6C1 32.1018 6.73718 40.4474 12.2587 46.5462C15.0441 49.6227 17.8262 52.1833 19.9109 53.9742C20.9539 54.8702 21.8241 55.5752 22.4353 56.0573C22.7409 56.2985 22.9819 56.484 23.1474 56.6099C23.2302 56.6729 23.2941 56.721 23.3378 56.7537L23.3881 56.7912L23.4015 56.8012L23.4053 56.8039L23.4064 56.8048C23.4068 56.805 23.4071 56.8052 24 56Z" fill="#0E0E0E" stroke="url(#paint0_linear_337_2219)" stroke-width="2" stroke-linecap="round" stroke-linejoin="round"/>
<path fill-rule="evenodd" clip-rule="evenodd" d="M18.7146 12.5H19.2146H27.7862H28.2862V13V16.2583H33.0591H35.0007H35.5007V16.7583V36.0007V36.5007H35.0007H33.0591H15.7339H12H11.5V36.0007V28.9417V28.9227L11.5015 28.9036C11.5313 28.513 11.6707 27.9346 12.0088 27.4387C12.1162 27.2811 12.2449 27.1309 12.3962 26.9983V16.7583V16.2583H12.8962H14.8378H18.7146V13V12.5ZM18.7146 17.2583H15.3378V18.2126H18.7146V17.2583ZM18.7146 19.2126H15.3378V20.0166H18.7146V19.2126ZM19.7146 20.0166H27.2862V18.7126V16.7583V13.5H19.7146V16.7583V18.7126V20.0166ZM28.2862 20.0166H32.5591V19.2126H28.2862V20.0166ZM28.2862 18.2126H32.5591V17.2583H28.2862V18.2126ZM33.5591 17.2583V18.7126V20.5166V22.4709V24.2748V26.0788V27.8828V35.5007H34.5007V17.2583H33.5591ZM32.5591 35.5007V27.8828V26.0788V24.2748V22.4709V21.0166H27.7862H19.2146H15.3378V22.4709V24.2748V26.0788V27.0674C15.436 27.1551 15.525 27.2491 15.605 27.3466C15.8541 27.6498 16.02 27.9891 16.1213 28.2914H29.8901H30.3901V28.7914V30.7457V31.2457H29.8901H16.2339V35.5007H32.5591ZM15.2339 35.5007V31.2457H14.8378C14.6077 31.2457 14.2744 31.1804 13.9843 30.9702C13.6689 30.7416 13.4416 30.3661 13.4416 29.8437C13.4416 29.3263 13.6628 28.9443 13.9448 28.6927C14.2119 28.4543 14.5269 28.3366 14.7551 28.2983L14.7961 28.2914H14.8378H15.037C14.9809 28.1854 14.913 28.0795 14.8322 27.9813C14.8044 27.9473 14.7752 27.9144 14.7444 27.8828H14.3378V27.5961C14.182 27.5276 14.0018 27.4874 13.7923 27.4874C13.3322 27.4874 13.0389 27.7029 12.8351 28.0019C12.6229 28.3132 12.523 28.7013 12.5 28.9622V35.5007H15.2339ZM14.3378 26.5474V26.0788V24.2748V22.4709V20.5166V18.7126V17.2583H13.3962V26.5207C13.521 26.499 13.653 26.4874 13.7923 26.4874C13.987 26.4874 14.1687 26.5087 14.3378 26.5474ZM21.6562 14.4543H22.1562H24.0978C24.2461 14.4543 24.7144 14.4648 25.1566 14.7402C25.6397 15.041 26.0001 15.5984 26.0001 16.5C26.0001 16.8853 25.919 17.2108 25.7656 17.477C25.6116 17.7444 25.4012 17.9235 25.1878 18.0399C24.7867 18.2587 24.3682 18.2584 24.2534 18.2583L24.2472 18.2583H22.6562V19.5H21.6562V17.7583V14.9543V14.4543ZM22.6562 17.2583H24.2472C24.3413 17.2583 24.5409 17.2537 24.7089 17.162C24.7839 17.1212 24.8493 17.0643 24.8991 16.9779C24.9496 16.8902 25.0001 16.7438 25.0001 16.5C25.0001 15.9016 24.7838 15.6861 24.628 15.5891C24.4313 15.4666 24.1984 15.4543 24.0978 15.4543H22.6562V17.2583ZM14.8883 29.2914C14.8141 29.3103 14.7023 29.357 14.6106 29.4388C14.5191 29.5204 14.4416 29.6396 14.4416 29.8437C14.4416 29.9533 14.4638 30.0204 14.4846 30.061C14.5056 30.102 14.5344 30.1339 14.5711 30.1605C14.6544 30.2208 14.7691 30.2457 14.8378 30.2457H15.7339H29.3901V29.2914H15.7339H14.8883Z" fill="#F6F4EC"/>
<defs>
<linearGradient id="paint0_linear_337_2219" x1="24" y1="2" x2="24" y2="56" gradientUnits="userSpaceOnUse">
<stop stop-color="#F6F4EC"/>
<stop offset="0.90625" stop-color="#F6F4EC" stop-opacity="0"/>
<stop offset="1" stop-color="white"/>
</linearGradient>
</defs>
</svg>
