<svg width="48" height="58" viewBox="0 0 48 58" fill="none" xmlns="http://www.w3.org/2000/svg">
<path d="M24 56L23.4071 56.8052C23.7597 57.0649 24.2403 57.0649 24.5929 56.8052L24 56ZM24 56C24.5929 56.8052 24.5932 56.805 24.5936 56.8048L24.5947 56.8039L24.5985 56.8012L24.6119 56.7912L24.6622 56.7537C24.7059 56.721 24.7698 56.6729 24.8526 56.6099C25.0181 56.484 25.2591 56.2985 25.5647 56.0573C26.1759 55.5752 27.0461 54.8702 28.0891 53.9742C30.1738 52.1833 32.9559 49.6227 35.7413 46.5462C41.2628 40.4474 47 32.1018 47 23.6C47 17.6001 44.5723 11.8498 40.2569 7.61293C35.9423 3.37669 30.0941 1 24 1C17.9059 1 12.0577 3.37669 7.74306 7.61293C3.42775 11.8498 1 17.6001 1 23.6C1 32.1018 6.73718 40.4474 12.2587 46.5462C15.0441 49.6227 17.8262 52.1833 19.9109 53.9742C20.9539 54.8702 21.8241 55.5752 22.4353 56.0573C22.7409 56.2985 22.9819 56.484 23.1474 56.6099C23.2302 56.6729 23.2941 56.721 23.3378 56.7537L23.3881 56.7912L23.4015 56.8012L23.4053 56.8039L23.4064 56.8048C23.4068 56.805 23.4071 56.8052 24 56Z" fill="#0E0E0E" stroke="url(#paint0_linear_337_2214)" stroke-width="2" stroke-linecap="round" stroke-linejoin="round"/>
<path fill-rule="evenodd" clip-rule="evenodd" d="M21.0399 14.6133C21.0399 15.5464 20.327 16.2266 19.5396 16.2266C18.7521 16.2266 18.0392 15.5464 18.0392 14.6133C18.0392 13.6802 18.7521 13 19.5396 13C20.327 13 21.0399 13.6802 21.0399 14.6133ZM22.0399 14.6133C22.0399 16.0566 20.9205 17.2266 19.5396 17.2266C18.1587 17.2266 17.0392 16.0566 17.0392 14.6133C17.0392 13.17 18.1587 12 19.5396 12C20.9205 12 22.0399 13.17 22.0399 14.6133ZM18.425 23.5024C18.425 24.4847 18.6904 25.0816 19.0997 25.6459C19.1374 25.6979 19.1763 25.7496 19.2164 25.8013L19.2397 25.8315C19.7408 26.4776 21.2688 28.448 20.9573 31.0122C20.9032 31.4576 20.863 31.8672 20.8263 32.2402L20.8263 32.2403C20.6486 34.0489 20.5555 34.9969 19.3746 34.9969C17.9502 34.9969 18.1085 33.6176 18.425 33.0046C18.6226 32.622 18.8201 31.4036 18.7099 30.3182C18.6435 29.6645 18.4654 29.0589 18.1085 28.7133C18.0962 28.7609 18.0819 28.8178 18.0657 28.883C17.9901 29.1856 17.87 29.6662 17.6907 30.2239C17.4117 31.091 16.9893 32.1443 16.3675 33.0046C15.2596 34.5372 14.31 35.4567 13.3604 34.6904C12.473 33.9743 13.6587 32.8567 14.0762 32.4632L14.0767 32.4627C14.1058 32.4354 14.1311 32.4115 14.1517 32.3915C14.4683 32.085 15.2596 30.8589 15.7344 28.7133C16.0232 27.4081 15.7264 26.67 15.4496 25.9816C15.2713 25.5383 15.1013 25.1155 15.1013 24.5752C15.1013 24.4025 15.0989 24.2322 15.0964 24.0622C15.0791 22.8744 15.062 21.7011 15.8927 19.8241C16.2092 18.9046 17.1588 18.1383 18.1085 18.2915C19.0581 18.4448 19.5329 19.5176 18.8998 21.3568C19.2164 22.1231 19.8494 23.1959 21.1156 24.1155C21.4916 24.3886 21.8537 24.5941 22.1604 24.7681L22.1604 24.7681L22.1604 24.7681C22.8863 25.1801 23.3016 25.4159 22.8566 25.9546C22.3501 26.5676 20.9573 25.8013 20.3242 25.3415C20.2014 25.2523 20.0322 25.1216 19.8414 24.963C19.3766 24.5764 18.7841 24.024 18.425 23.5024ZM21.95 31.1328C22.1546 29.4491 21.6837 27.9969 21.1423 26.9326C21.1967 26.954 21.2515 26.9745 21.3063 26.9938C21.6096 27.1004 21.9839 27.1946 22.3702 27.1815C22.7746 27.1678 23.2663 27.0287 23.6275 26.5915C23.8657 26.3032 24.1497 25.8218 23.999 25.2274C23.992 25.1997 23.9842 25.1727 23.9757 25.1463C24.5238 25.4532 25.0782 25.853 25.5798 26.3123C26.2127 26.8918 27.102 27.6436 27.9823 28.2335C28.2966 28.4441 28.6164 28.6386 28.9283 28.7982L28.8696 28.7901C27.7848 28.6394 26.8908 28.6118 26.1114 28.7642C26.0643 28.7551 26.0214 28.7451 25.9825 28.7346C26.0436 28.4919 26.0341 28.2409 25.9703 28.0239C25.8321 27.5533 25.3826 27.0502 24.6873 27.0502C24.2101 27.0502 23.8097 27.2728 23.5453 27.5299C23.2826 27.7852 23.0402 28.1868 23.0402 28.6794C23.0402 29.3177 23.4695 30.3331 24.5838 31.0026L24.3409 33.128C24.2599 33.8369 24.2362 34.426 24.3413 34.8686C24.3975 35.1054 24.5149 35.4093 24.7843 35.6485C25.0749 35.9065 25.4078 35.972 25.658 35.972C26.0688 35.972 26.3723 35.7752 26.5445 35.6294C26.7236 35.4777 26.8604 35.2981 26.9599 35.146C27.161 34.8388 27.3148 34.4814 27.4129 34.1951C27.4647 34.0442 27.5897 33.7449 27.7308 33.4193C28.0619 33.5742 28.4549 33.731 28.9091 33.8782C29.6804 34.1282 30.2941 34.1868 30.8177 34.0814C30.9093 34.2882 31.0047 34.4992 31.0785 34.6427C31.0973 34.6794 31.1041 34.6952 31.115 34.7205L31.115 34.7205C31.1275 34.7498 31.1455 34.7918 31.194 34.8934C31.2531 35.0175 31.3477 35.2022 31.4902 35.3803C31.6374 35.5643 31.8586 35.7705 32.1777 35.8931C32.5049 36.0189 32.8474 36.0233 33.1747 35.9437C33.6066 35.8387 33.8767 35.5412 34.0161 35.255C34.1401 35.0003 34.1731 34.7388 34.1825 34.5494C34.2015 34.1646 34.1346 33.7298 34.0607 33.3601C33.9833 32.9734 33.8803 32.574 33.7915 32.2384L33.7446 32.062C33.6916 31.8625 33.6491 31.7026 33.6196 31.579C33.6529 31.2576 33.8608 30.9636 34.1011 30.7962C34.1154 30.7925 34.1422 30.7861 34.1853 30.7788C34.2369 30.7701 34.29 30.763 34.3644 30.7531L34.392 30.7494C34.4719 30.7387 34.5783 30.7243 34.6866 30.7032C34.8814 30.6654 35.2357 30.5808 35.54 30.3153C35.8972 30.0036 36.0418 29.5776 36.0418 29.1514C36.0418 28.8286 35.9761 28.4276 35.6848 28.0877C35.4092 27.7661 35.0558 27.6511 34.8645 27.5979C34.6959 27.5511 34.5685 27.5243 34.457 27.501C34.2555 27.4587 34.1064 27.4274 33.8611 27.3081L33.8524 27.3038L33.8566 27.2938L35.5632 25.6343H33.1003C32.605 25.6343 32.1629 25.7583 31.7937 26.0184C31.4367 26.27 31.2288 26.5927 31.0987 26.8456C31.0339 26.9716 30.9821 27.0932 30.9427 27.1882L30.9086 27.2709C30.8842 27.3304 30.8666 27.373 30.8467 27.4171L30.8358 27.4405C30.5349 27.6695 30.3633 27.9636 30.2612 28.2198C30.1206 28.2044 29.9304 28.1538 29.6872 28.0506C29.3431 27.9046 28.9508 27.6787 28.539 27.4028C27.7166 26.8516 26.8685 26.1364 26.2551 25.5748C25.6001 24.9751 24.8598 24.4621 24.1308 24.0969C23.4095 23.7354 22.6619 23.5 22 23.5V23.5093C21.9016 23.4457 21.8026 23.3785 21.7032 23.3063C20.7869 22.6409 20.2659 21.8904 19.9682 21.292C20.2181 20.4138 20.2666 19.5945 20.0539 18.8994C19.7907 18.0393 19.1408 17.4452 18.2678 17.3043C17.4723 17.1759 16.734 17.4408 16.1755 17.8464C15.6307 18.2421 15.1936 18.8136 14.9623 19.4555C14.0568 21.5177 14.0777 22.8742 14.0962 24.0802L14.0962 24.0807V24.0808V24.0809C14.0988 24.2481 14.1013 24.4124 14.1013 24.5752C14.1013 25.3328 14.3685 25.9869 14.552 26.436C14.5923 26.5345 14.6285 26.6232 14.657 26.701C14.8242 27.1572 14.9455 27.6499 14.758 28.4972C14.5371 29.4954 14.2459 30.2645 13.9836 30.8064C13.8523 31.0776 13.7302 31.288 13.6305 31.4393C13.5808 31.5149 13.5386 31.5728 13.5058 31.6144C13.4752 31.6532 13.4584 31.6707 13.4562 31.673L13.4562 31.673L13.4561 31.6731C13.456 31.6732 13.4559 31.6733 13.456 31.6732C13.444 31.6848 13.4264 31.7013 13.404 31.7221C13.2268 31.8876 12.7531 32.3297 12.4346 32.8364C12.2531 33.1252 12.0497 33.5419 12.0391 34.0293C12.0271 34.582 12.266 35.0923 12.7324 35.4686C13.1177 35.7795 13.5745 35.9709 14.085 35.9658C14.5771 35.9608 15.0057 35.7745 15.3545 35.5448C16.0188 35.1073 16.6264 34.3534 17.1779 33.5904C17.1983 33.5623 17.2184 33.534 17.2383 33.5055C17.1961 33.8099 17.1979 34.1375 17.2734 34.4591C17.3639 34.8446 17.5712 35.2568 17.971 35.5644C18.3683 35.8701 18.8575 35.9969 19.3746 35.9969C19.8968 35.9969 20.4189 35.8665 20.8444 35.4866C21.2457 35.1283 21.4372 34.6553 21.5479 34.2382C21.6592 33.8194 21.7196 33.3321 21.7713 32.8381C21.789 32.6697 21.8058 32.499 21.823 32.3232C21.8591 31.956 21.8973 31.5671 21.95 31.1328ZM25.658 30.4099L25.6243 30.7053L25.3345 33.2415C25.2962 33.5768 25.276 33.8503 25.2718 34.0725L25.2716 34.0879C25.2606 34.7914 25.4129 34.972 25.658 34.972C25.8771 34.972 26.0963 34.6835 26.2651 34.3506L26.2769 34.3272C26.3524 34.1754 26.4173 34.0157 26.467 33.8708C26.5339 33.6756 26.6902 33.3037 26.8554 32.9248C27.0097 32.5709 27.1717 32.2109 27.2759 31.983C27.3773 32.0816 27.6563 32.2788 28.1369 32.5053C28.4236 32.6404 28.7821 32.7858 29.2174 32.9269C29.9715 33.1714 30.4219 33.1626 30.7258 33.0755C30.9156 33.0211 31.0483 32.9361 31.1621 32.8632C31.2072 32.8343 31.2493 32.8074 31.2908 32.7849C31.3008 32.7796 31.3107 32.7744 31.3206 32.7696C31.344 32.815 31.3707 32.8702 31.3998 32.9324C31.4716 33.0858 31.5579 33.2817 31.6442 33.4775C31.6748 33.5469 31.7053 33.6162 31.7353 33.6837C31.8241 33.8841 31.9073 34.0678 31.9678 34.1854C31.9911 34.2308 32.0144 34.2827 32.0392 34.3379L32.0392 34.3379C32.1863 34.6652 32.3847 35.1066 32.9385 34.972C33.451 34.8474 33.0503 33.3414 32.781 32.3295C32.7102 32.0637 32.6486 31.832 32.6149 31.6684C32.6149 30.8818 33.1003 30.2526 33.5857 29.9379C33.7607 29.8245 33.9988 29.7929 34.2318 29.7619C34.6449 29.707 35.0418 29.6543 35.0418 29.1514C35.0418 28.6528 34.7817 28.5967 34.3441 28.5022C34.0913 28.4476 33.7793 28.3803 33.4239 28.2075C33.1436 28.0712 32.9848 27.8957 32.9044 27.711C32.7064 27.2561 32.9852 26.7462 33.1003 26.6343C32.2681 26.6343 32.0379 27.1546 31.8505 27.6098L31.8392 27.6372C31.7398 27.8792 31.6494 28.0992 31.4824 28.2075C31.2103 28.3839 31.1416 28.7087 31.0767 29.0155C31.0259 29.2558 30.9774 29.4851 30.8353 29.6233C30.5117 29.9379 29.8645 29.9379 28.732 29.7806C27.8618 29.6597 27.1826 29.6318 26.6211 29.6966C26.4518 29.7162 26.2933 29.7442 26.1434 29.7806C26.0587 29.7703 25.9781 29.7573 25.9016 29.742C25.6775 29.6971 25.4883 29.632 25.3318 29.5557L25.3309 29.5553C25.3051 29.5427 25.2802 29.5298 25.2561 29.5167C24.9942 29.3732 24.8365 29.1983 24.7697 29.0433C24.6989 28.8789 24.7307 28.737 24.8491 28.6794C25.1727 28.5221 25.0109 28.0502 24.6873 28.0502C24.6418 28.0502 24.5964 28.0564 24.5518 28.0679C24.3118 28.1301 24.0977 28.3472 24.05 28.5829C24.0436 28.6148 24.0402 28.6471 24.0402 28.6794C24.0402 28.9941 24.3637 29.9379 25.658 30.4099ZM30.8098 27.4896C30.8098 27.4895 30.8108 27.4879 30.8128 27.4849C30.8109 27.4882 30.8099 27.4897 30.8098 27.4896Z" fill="#F6F4EC"/>
<defs>
<linearGradient id="paint0_linear_337_2214" x1="24" y1="2" x2="24" y2="56" gradientUnits="userSpaceOnUse">
<stop stop-color="#F6F4EC"/>
<stop offset="0.90625" stop-color="#F6F4EC" stop-opacity="0"/>
<stop offset="1" stop-color="white"/>
</linearGradient>
</defs>
</svg>
