<svg  viewBox="0 0 1920 1080" id="floor--svg" version="1.0" xmlns="http://www.w3.org/2000/svg" preserveAspectRatio="xMidYMid slice"><polygon data-id="26241" data-section="1" data-section_name="1" data-build="1" data-build_name="4" data-floor="2" data-type="flat" class="s3d-svg__build js-s3d-svg__build" points="752.33333333333,903,764.33333333333,897.66666666667,788.33333333333,909.66666666667,789,934.66666666667,766.33333333333,928,753,933.33333333333,746.66666666667,929.33333333333,739.33333333333,929.33333333333,728.66666666667,922.66666666667,728,917.33333333333,713,908.66666666667,713.33333333333,878.66666666667,727.33333333333,890.33333333333,737,896,746.66666666667,901.66666666667"></polygon><polygon data-id="26235" data-section="1" data-section_name="1" data-build="1" data-build_name="4" data-floor="4" data-type="flat" class="s3d-svg__build js-s3d-svg__build" points="943.33333333333,516.33333333333,959,511.66666666667,968.33333333333,509,978,505.66666666667,981.66666666667,497.33333333333,991.66666666667,493.33333333333,991,514.33333333333,981,517.66666666667,978,526.66666666667,970.33333333333,528.33333333333,962,531.33333333333,944,537.66666666667"></polygon><polygon data-id="26242" data-section="1" data-section_name="1" data-build="1" data-build_name="4" data-floor="4" data-type="flat" class="s3d-svg__build js-s3d-svg__build" points="750,847.33333333333,762.33333333333,842.33333333333,786,854.33333333333,788,882.66666666667,763.66666666667,870,751.66666666667,874,746,868.66666666667,736.66666666667,869,726.33333333333,863,713,853.33333333333,711.66666666667,826.33333333333,726.66666666667,837.33333333333,734.33333333333,841.33333333333,745.33333333333,841.66666666667"></polygon><polygon data-id="26243" data-section="1" data-section_name="1" data-build="1" data-build_name="4" data-floor="5" data-type="flat" class="s3d-svg__build js-s3d-svg__build" points="749,820.33333333333,761.66666666667,815.66666666667,786,826.66666666667,786,854.33333333333,762.33333333333,842.33333333333,750,847.33333333333,750,847.33333333333,750,847.33333333333,745.33333333333,841.66666666667,734.33333333333,841.33333333333,726.66666666667,837.33333333333,711.66666666667,826.33333333333,710.66666666667,798.33333333333,724.66666666667,810,734,815,743.33333333333,815.33333333333"></polygon><polygon data-id="26244" data-section="1" data-section_name="1" data-build="1" data-build_name="4" data-floor="6" data-type="flat" class="s3d-svg__build js-s3d-svg__build" points="748,792.33333333333,760.66666666667,788,784.33333333333,799.33333333333,786,826.66666666667,761.66666666667,815.66666666667,749,820.33333333333,749,820.33333333333,743.33333333333,815.33333333333,734,815,724.66666666667,810,710.66666666667,798.33333333333,709,771.66666666667,723,781.66666666667,732.66666666667,787.33333333333,743.33333333333,788"></polygon><polygon data-id="26245" data-section="1" data-section_name="1" data-build="1" data-build_name="4" data-floor="7" data-type="flat" class="s3d-svg__build js-s3d-svg__build" points="747,764.33333333333,759.33333333333,759,783.33333333333,770.66666666667,784.33333333333,799.33333333333,760.66666666667,788,748,792.33333333333,743.33333333333,788,732.66666666667,787.33333333333,723,781.66666666667,709,771.66666666667,708.66666666667,743,722.33333333333,753.66666666667,731.66666666667,759.33333333333,741.33333333333,758.66666666667"></polygon><polygon data-id="26237" data-section="1" data-section_name="1" data-build="1" data-build_name="4" data-floor="8" data-type="flat" class="s3d-svg__build js-s3d-svg__build" points="942,428.66666666667,961,424,969.66666666667,421.66666666667,979.66666666667,418.33333333333,982,410.66666666667,991.66666666667,407.66666666667,991.66666666667,428,981.33333333333,431.66666666667,980.33333333333,439,970,443,962.66666666667,444.33333333333,942.66666666667,450.66666666667"></polygon><polygon data-id="26246" data-section="1" data-section_name="1" data-build="1" data-build_name="4" data-floor="8" data-type="flat" class="s3d-svg__build js-s3d-svg__build" points="745.33333333333,736.33333333333,757.66666666667,730.66666666667,782.66666666667,742.66666666667,783.33333333333,770.66666666667,759.33333333333,759,747,764.33333333333,741.33333333333,758.66666666667,731.66666666667,759.33333333333,722.33333333333,753.66666666667,708.66666666667,743,706.33333333333,715.33333333333,722,727.33333333333,731,731,739.33333333333,731.66666666667"></polygon><polygon data-id="26238" data-section="1" data-section_name="1" data-build="1" data-build_name="4" data-floor="9" data-type="flat" class="s3d-svg__build js-s3d-svg__build" points="941.66666666667,406.66666666667,961.66666666667,400.66666666667,969,399.66666666667,978.66666666667,397,982.33333333333,388.33333333333,991.66666666667,385,991.66666666667,407.66666666667,982,410.66666666667,979.66666666667,418.33333333333,969.66666666667,421.66666666667,961,424,942,428.66666666667"></polygon><polygon data-id="26247" data-section="1" data-section_name="1" data-build="1" data-build_name="4" data-floor="9" data-type="flat" class="s3d-svg__build js-s3d-svg__build" points="744.33333333333,707.33333333333,756.66666666667,701.66666666667,782,714,782.66666666667,742.66666666667,757.66666666667,730.66666666667,745.33333333333,736.33333333333,745.33333333333,736.33333333333,739.33333333333,731.66666666667,731,731,722,727.33333333333,706.33333333333,715.33333333333,705.33333333333,686.33333333333,719.66666666667,697.66666666667,729.66666666667,702,739.66666666667,702.33333333333"></polygon><polygon data-id="26239" data-section="1" data-section_name="1" data-build="1" data-build_name="4" data-floor="10" data-type="flat" class="s3d-svg__build js-s3d-svg__build" points="941.33333333333,384,962.33333333333,378.33333333333,969.66666666667,376,980,371.66666666667,982.33333333333,366,992,363.33333333333,991.66666666667,385,982.33333333333,388.33333333333,978.66666666667,397,969,399.66666666667,961.66666666667,400.66666666667,941.66666666667,406.66666666667"></polygon><polygon data-id="26248" data-section="1" data-section_name="1" data-build="1" data-build_name="4" data-floor="10" data-type="flat" class="s3d-svg__build js-s3d-svg__build" points="743.66666666667,677.66666666667,756,673.66666666667,780.66666666667,684,782,714,756.66666666667,701.66666666667,744.33333333333,707.33333333333,744.33333333333,707.33333333333,739.66666666667,702.33333333333,729.66666666667,702,719.66666666667,697.66666666667,705.33333333333,686.33333333333,703.66666666667,657.66666666667,719,668,728,672.33333333333,738.33333333333,674"></polygon><polygon data-id="26249" data-section="1" data-section_name="1" data-build="1" data-build_name="4" data-floor="11" data-type="flat" class="s3d-svg__build js-s3d-svg__build" points="742.33333333333,648.33333333333,754,644.33333333333,779.66666666667,654.66666666667,780.66666666667,684,756,673.66666666667,743.66666666667,677.66666666667,743.66666666667,677.66666666667,738.33333333333,674,728,672.33333333333,719,668,703.66666666667,657.66666666667,702.33333333333,628.66666666667,717.66666666667,639,725.66666666667,642,736.33333333333,642.66666666667"></polygon><polygon data-id="26240" data-section="1" data-section_name="1" data-build="1" data-build_name="4" data-floor="12" data-type="flat" class="s3d-svg__build js-s3d-svg__build" points="941.33333333333,338.33333333333,961.66666666667,333.66666666667,969.66666666667,332,979.33333333333,328,982.66666666667,321.33333333333,994,320,993,341,982.33333333333,344,978.33333333333,351.33333333333,970.33333333333,354,962,356,942.66666666667,361"></polygon><polygon data-id="26250" data-section="1" data-section_name="1" data-build="1" data-build_name="4" data-floor="14" data-type="flat" class="s3d-svg__build js-s3d-svg__build" points="738.33333333333,557,751.66666666667,553.33333333333,777,563.66666666667,778,594.66666666667,752.33333333333,584.33333333333,740.66666666667,588.66666666667,724.66666666667,587.33333333333,714.66666666667,583.66666666667,712,576,699,570,698.33333333333,540,713.66666666667,549.66666666667,722.33333333333,553"></polygon><polygon data-id="26236" data-section="1" data-section_name="1" data-build="1" data-build_name="4" data-floor="6" data-type="flat" class="s3d-svg__build js-s3d-svg__build" points="942.33333333333,473,962.33333333333,466.33333333333,968.33333333333,465.66666666667,979.33333333333,460.66666666667,981.33333333333,453.66666666667,991.66666666667,450.33333333333,992,471.66666666667,981.66666666667,475,980.66666666667,481.33333333333,970,486.33333333333,963.66666666667,486.66666666667,942.66666666667,494.66666666667"></polygon></svg>