<svg  viewBox="0 0 1920 1080" id="floor--svg" version="1.0" xmlns="http://www.w3.org/2000/svg" preserveAspectRatio="xMidYMid slice"><polygon data-id="26241" data-section="1" data-section_name="1" data-build="1" data-build_name="4" data-floor="2" data-type="flat" class="s3d-svg__build js-s3d-svg__build" points="513,607,513,607,512,582.5,512,582.5,489.5,588.5,489.5,588.5,492,614,492,614"></polygon><polygon data-id="26235" data-section="1" data-section_name="1" data-build="1" data-build_name="4" data-floor="4" data-type="flat" class="s3d-svg__build js-s3d-svg__build" points="702,496.5,702,496.5,701.5,475,701.5,475,692,479.5,692,479.5,692.5,500,692.5,500"></polygon><polygon data-id="26242" data-section="1" data-section_name="1" data-build="1" data-build_name="4" data-floor="4" data-type="flat" class="s3d-svg__build js-s3d-svg__build" points="487.5,566,487.5,566,485,542.5,485,542.5,508,536,508,536,509,559,509,559"></polygon><polygon data-id="26243" data-section="1" data-section_name="1" data-build="1" data-build_name="4" data-floor="5" data-type="flat" class="s3d-svg__build js-s3d-svg__build" points="508,536,508,536,485,542.5,485,542.5,482,520.5,482,520.5,505,513,505,513"></polygon><polygon data-id="26236" data-section="1" data-section_name="1" data-build="1" data-build_name="4" data-floor="6" data-type="flat" class="s3d-svg__build js-s3d-svg__build" points="699.5,452,699.5,452,700,431.5,700,431.5,688,435,688,435,689,457.5,689,457.5"></polygon><polygon data-id="26244" data-section="1" data-section_name="1" data-build="1" data-build_name="4" data-floor="6" data-type="flat" class="s3d-svg__build js-s3d-svg__build" points="505,513,505,513,503.5,489,503.5,489,479,495,479,495,482,520.5,482,520.5"></polygon><polygon data-id="26245" data-section="1" data-section_name="1" data-build="1" data-build_name="4" data-floor="7" data-type="flat" class="s3d-svg__build js-s3d-svg__build" points="503.5,489,503.5,489,502,466.5,502,466.5,478,472,478,472,479,495,479,495"></polygon><polygon data-id="26237" data-section="1" data-section_name="1" data-build="1" data-build_name="4" data-floor="8" data-type="flat" class="s3d-svg__build js-s3d-svg__build" points="699.5,406.5,699.5,406.5,697.5,385.5,697.5,385.5,685,386.5,685,386.5,685,413,685,413"></polygon><polygon data-id="26246" data-section="1" data-section_name="1" data-build="1" data-build_name="4" data-floor="8" data-type="flat" class="s3d-svg__build js-s3d-svg__build" points="502,466.5,502,466.5,499.5,442,499.5,442,477.5,447,477.5,447,478,472,478,472"></polygon><polygon data-id="26238" data-section="1" data-section_name="1" data-build="1" data-build_name="4" data-floor="9" data-type="flat" class="s3d-svg__build js-s3d-svg__build" points="685,386.5,685,386.5,697.5,385.5,697.5,385.5,698,363.5,698,363.5,684.5,367.5,684.5,367.5"></polygon><polygon data-id="26247" data-section="1" data-section_name="1" data-build="1" data-build_name="4" data-floor="9" data-type="flat" class="s3d-svg__build js-s3d-svg__build" points="499.5,442,499.5,442,477.5,447,477.5,447,473.5,423.5,473.5,423.5,497.5,418,497.5,418"></polygon><polygon data-id="26239" data-section="1" data-section_name="1" data-build="1" data-build_name="4" data-floor="10" data-type="flat" class="s3d-svg__build js-s3d-svg__build" points="698,363.5,698,363.5,697,339.5,697,339.5,683.5,343,683.5,343,684.5,367.5,684.5,367.5"></polygon><polygon data-id="26248" data-section="1" data-section_name="1" data-build="1" data-build_name="4" data-floor="10" data-type="flat" class="s3d-svg__build js-s3d-svg__build" points="497.5,418,497.5,418,494,394,494,394,471.5,397.5,471.5,397.5,473.5,423.5,473.5,423.5"></polygon><polygon data-id="26249" data-section="1" data-section_name="1" data-build="1" data-build_name="4" data-floor="11" data-type="flat" class="s3d-svg__build js-s3d-svg__build" points="494,394,494,394,493,368.5,493,368.5,470.5,374,470.5,374,471.5,397.5,471.5,397.5"></polygon><polygon data-id="26240" data-section="1" data-section_name="1" data-build="1" data-build_name="4" data-floor="12" data-type="flat" class="s3d-svg__build js-s3d-svg__build" points="694.5,315.5,694.5,315.5,692.5,298,692.5,298,681.5,301,681.5,301,681.5,320,681.5,320"></polygon><polygon data-id="26250" data-section="1" data-section_name="1" data-build="1" data-build_name="4" data-floor="14" data-type="flat" class="s3d-svg__build js-s3d-svg__build" points="488.5,317.5,488.5,317.5,484.5,294.5,484.5,294.5,465.5,298,465.5,298,467,324.5,467,324.5"></polygon><polygon data-id="26234" data-section="2" data-section_name="2" data-build="1" data-build_name="4" data-floor="2" data-type="flat" class="s3d-svg__build js-s3d-svg__build" points="715.5,537.5,753,523.5,752.5,504.5,715,515"></polygon></svg>