<svg  viewBox="0 0 1920 1080" id="floor--svg" version="1.0" xmlns="http://www.w3.org/2000/svg" preserveAspectRatio="xMidYMid slice">


<polygon class="s3d-svg__build js-s3d-svg__build" data-type="flyby"  data-flyby="1" data-side="outside" 
points="530.703125,227,569.703125,193,623.703125,167,677.703125,161,699.703125,165,709.703125,169,714.703125,167,710.703125,156,697.703125,133,697.703125,122,699.703125,116,709.703125,116,751.703125,111,1268.703125,32,1280.703125,43,1288.703125,47,1295.703125,55,1297.703125,49,1311.703125,49,1324.703125,74,1338.703125,86,1363.703125,94,1378.703125,106,1445.703125,181,1130.703125,239,1042.703125,252,893.703125,278,781.703125,284,760.703125,300,603.703125,328,585.703125,250,570.703125,239,547.703125,229" ></polygon>
<polygon class="s3d-svg__build js-s3d-svg__build" data-type="flyby"  data-flyby="1" data-side="inside" 
points="0,700,150,700,150,901,0,901" ></polygon>
<polygon data-type="infrastructure" data-id="parking_2" class="s3d-svg__build js-s3d-svg__build" points="1444.5,719.5,1476.5,747,911.3125,1063,883.3125,1028"></polygon>
<polygon data-type="infrastructure" data-id="parking_3" class="s3d-svg__build js-s3d-svg__build" points="312,128,404,216,498,168,448,8,317,5"></polygon>
<polygon data-type="floor" data-build="1" data-section="1" data-section_name="1" data-floor="4" class="s3d-svg__build js-s3d-svg__build" points="674,328,680,408,736,448,759,445,776,452,1268,335,1272,256,1200,229"/>
<polygon transform="translate(0, 350)" data-type="floor" data-build="1" data-section="2" data-section_name="1" data-floor="4" class="s3d-svg__build js-s3d-svg__build" points="674,328,680,408,736,448,759,445,776,452,1268,335,1272,256,1200,229"/>
<polygon data-id="26219" data-section="1" data-section_name="1" data-build="1" data-build_name="4" data-floor="4" data-type="flat" class="s3d-svg__build js-s3d-svg__build" points="1343.5,699,1343.5,699,1341,725,1341,725,1377.5,708.5,1377.5,708.5,1381,682.5,1381,682.5"></polygon>
<polygon data-id="26244" data-section="1" data-section_name="1" data-build="1" data-build_name="4" data-floor="6" data-type="flat" class="s3d-svg__build js-s3d-svg__build" points="1452.5,601,1452.5,601,1450.5,625.5,1450.5,625.5,1486,615.5,1486,615.5,1487.5,586.5,1487.5,586.5"></polygon>
<polygon data-id="26245" data-section="1" data-section_name="1" data-build="1" data-build_name="4" data-floor="7" data-type="flat" class="s3d-svg__build js-s3d-svg__build" points="1455.5,576.5,1455.5,576.5,1452.5,601,1452.5,601,1487.5,586.5,1487.5,586.5,1489,563.5,1489,563.5"></polygon>
<polygon data-id="26242" data-section="1" data-section_name="1" data-build="1" data-build_name="4" data-floor="4" data-type="flat" class="s3d-svg__build js-s3d-svg__build" points="1448,651,1448,651,1447.5,672.5,1447.5,672.5,1481,663.5,1481,663.5,1483.5,638.5,1483.5,638.5"></polygon>
<polygon data-id="26243" data-section="1" data-section_name="1" data-build="1" data-build_name="4" data-floor="5" data-type="flat" class="s3d-svg__build js-s3d-svg__build" points="1450.5,625.5,1450.5,625.5,1448,651,1448,651,1483.5,638.5,1483.5,638.5,1486,615.5,1486,615.5"></polygon>
<polygon data-id="26236" data-section="1" data-section_name="1" data-build="1" data-build_name="4" data-floor="6" data-type="flat" class="s3d-svg__build js-s3d-svg__build" points="1348,647,1348,647,1384.5,632.5,1384.5,632.5,1383,657,1383,657,1345,675.5,1345,675.5"></polygon>
<polygon data-id="26237" data-section="1" data-section_name="1" data-build="1" data-build_name="4" data-floor="8" data-type="flat" class="s3d-svg__build js-s3d-svg__build" points="1352.5,596,1352.5,596,1350.5,621,1350.5,621,1389,607,1389,607,1390.5,581,1390.5,581"></polygon>
<polygon data-id="26246" data-section="1" data-section_name="1" data-build="1" data-build_name="4" data-floor="8" data-type="flat" class="s3d-svg__build js-s3d-svg__build" points="1456.5,551.5,1456.5,551.5,1455.5,576.5,1455.5,576.5,1489,563.5,1489,563.5,1492.5,536.5,1492.5,536.5"></polygon>
<polygon data-id="26238" data-section="1" data-section_name="1" data-build="1" data-build_name="4" data-floor="9" data-type="flat" class="s3d-svg__build js-s3d-svg__build" points="1352.5,596,1352.5,596,1390.5,581,1390.5,581,1392.5,554.5,1392.5,554.5,1354,566.5,1354,566.5"></polygon>
<polygon data-id="26247" data-section="1" data-section_name="1" data-build="1" data-build_name="4" data-floor="9" data-type="flat" class="s3d-svg__build js-s3d-svg__build" points="1461,524,1461,524,1456.5,551.5,1456.5,551.5,1492.5,536.5,1492.5,536.5,1495,514.5,1495,514.5"></polygon>
<polygon data-id="26239" data-section="1" data-section_name="1" data-build="1" data-build_name="4" data-floor="10" data-type="flat" class="s3d-svg__build js-s3d-svg__build" points="1354,544,1354,544,1354,566.5,1354,566.5,1392.5,554.5,1392.5,554.5,1394,528,1394,528"></polygon>
<polygon data-id="26248" data-section="1" data-section_name="1" data-build="1" data-build_name="4" data-floor="10" data-type="flat" class="s3d-svg__build js-s3d-svg__build" points="1462.5,499.5,1462.5,499.5,1496,489,1496,489,1495,514.5,1495,514.5,1461,524,1461,524"></polygon>
<polygon data-id="26249" data-section="1" data-section_name="1" data-build="1" data-build_name="4" data-floor="11" data-type="flat" class="s3d-svg__build js-s3d-svg__build" points="1464.5,471.5,1464.5,471.5,1462.5,499.5,1462.5,499.5,1496,489,1496,489,1500,463.5,1500,463.5"></polygon>
<polygon data-id="26240" data-section="1" data-section_name="1" data-build="1" data-build_name="4" data-floor="12" data-type="flat" class="s3d-svg__build js-s3d-svg__build" points="500,0,800,0,800,200,500,200"></polygon>
<polygon data-id="26250" data-section="1" data-section_name="1" data-build="1" data-build_name="4" data-floor="14" data-type="flat" class="s3d-svg__build js-s3d-svg__build" points="1466.5,445.5,1466.5,445.5,1464.5,471.5,1464.5,471.5,1500,463.5,1500,463.5,1502,434,1502,434"></polygon>
<polygon data-id="26228" data-section="2" data-section_name="2" data-build="1" data-build_name="4" data-floor="2" data-type="flat" class="s3d-svg__build js-s3d-svg__build" points="1228,846,1228,822,1151,853,1151,881"></polygon>
<polygon data-id="26234" data-section="2" data-section_name="2" data-build="1" data-build_name="4" data-floor="2" data-type="flat" class="s3d-svg__build js-s3d-svg__build" points="1300,798,1311,793,1311,770,1303,773"></polygon>
<polygon data-id="26223" data-section="3" data-section_name="3" data-build="1" data-build_name="4" data-floor="2" data-type="flat" class="s3d-svg__build js-s3d-svg__build" points="784,753,784,731,777,728,776,753"></polygon>
<polygon data-id="26224" data-section="3" data-section_name="3" data-build="1" data-build_name="4" data-floor="8" data-type="flat" class="s3d-svg__build js-s3d-svg__build" points="781,607,781,581,771,576,770,600"></polygon>
<polygon data-id="26225" data-section="3" data-section_name="3" data-build="1" data-build_name="4" data-floor="9" data-type="flat" class="s3d-svg__build js-s3d-svg__build" points="781,581,780,554,769,548,771,576"></polygon>
<polygon data-id="26226" data-section="3" data-section_name="3" data-build="1" data-build_name="4" data-floor="10" data-type="flat" class="s3d-svg__build js-s3d-svg__build" points="780,554,779,527,771,524,769,548"></polygon>
<polygon data-id="26227" data-section="3" data-section_name="3" data-build="1" data-build_name="4" data-floor="13" data-type="flat" class="s3d-svg__build js-s3d-svg__build" points="778,472,776,447,769,444,768,471"></polygon>
<polygon data-id="26219" data-section="4" data-section_name="4" data-build="1" data-build_name="4" data-floor="10" data-type="flat" class="s3d-svg__build js-s3d-svg__build" points="601.5,467.5,595,465.5,595,442,599.5,442.5,601.5,444.5"></polygon>
<polygon data-id="26220" data-section="4" data-section_name="4" data-build="1" data-build_name="4" data-floor="12" data-type="flat" class="s3d-svg__build js-s3d-svg__build" points="599.5,420,592,416.5,591.5,392,597.5,394"></polygon>
<polygon data-id="26221" data-section="4" data-section_name="4" data-build="1" data-build_name="4" data-floor="13" data-type="flat" class="s3d-svg__build js-s3d-svg__build" points="597.5,394,591.5,392,589,366,596.5,367.5"></polygon>
<polygon data-id="26222" data-section="4" data-section_name="4" data-build="1" data-build_name="4" data-floor="14" data-type="flat" class="s3d-svg__build js-s3d-svg__build" points="589,366,596.5,367.5,596,343.5,587.5,339.5"></polygon></svg>