<svg  viewBox="0 0 1920 1080" id="floor--svg" version="1.0" xmlns="http://www.w3.org/2000/svg" preserveAspectRatio="xMidYMid slice"><polygon data-id="26219" data-section="4" data-section_name="4" data-build="1" data-build_name="4" data-floor="10" data-type="flat" class="s3d-svg__build js-s3d-svg__build" points="891.66666666667,647,891.66666666667,618.33333333333,867.33333333333,629.66666666667,867.66666666667,659.33333333333"></polygon><polygon data-id="26220" data-section="4" data-section_name="4" data-build="1" data-build_name="4" data-floor="12" data-type="flat" class="s3d-svg__build js-s3d-svg__build" points="890.66666666667,588.66666666667,866.66666666667,600.66666666667,865.33333333333,573.33333333333,891,562.33333333333"></polygon><polygon data-id="26221" data-section="4" data-section_name="4" data-build="1" data-build_name="4" data-floor="13" data-type="flat" class="s3d-svg__build js-s3d-svg__build" points="865.33333333333,573.33333333333,865,541.66666666667,890,531.66666666667,891,562.33333333333"></polygon><polygon data-id="26222" data-section="4" data-section_name="4" data-build="1" data-build_name="4" data-floor="14" data-type="flat" class="s3d-svg__build js-s3d-svg__build" points="865,541.66666666667,865.66666666667,511.33333333333,888.33333333333,502.66666666667,890,531.66666666667"></polygon><polygon data-id="26223" data-section="3" data-section_name="3" data-build="1" data-build_name="4" data-floor="2" data-type="flat" class="s3d-svg__build js-s3d-svg__build" points="1074.6666666667,730.66666666667,1074,756.33333333333,1090,747.66666666667,1090.3333333333,722"></polygon><polygon data-id="26224" data-section="3" data-section_name="3" data-build="1" data-build_name="4" data-floor="8" data-type="flat" class="s3d-svg__build js-s3d-svg__build" points="1094.3333333333,597,1077,605.66666666667,1077.3333333333,579.33333333333,1092.6666666667,571.66666666667"></polygon><polygon data-id="26225" data-section="3" data-section_name="3" data-build="1" data-build_name="4" data-floor="9" data-type="flat" class="s3d-svg__build js-s3d-svg__build" points="1077.3333333333,579.33333333333,1077.3333333333,554,1093.3333333333,546.33333333333,1092.6666666667,571.66666666667"></polygon><polygon data-id="26226" data-section="3" data-section_name="3" data-build="1" data-build_name="4" data-floor="10" data-type="flat" class="s3d-svg__build js-s3d-svg__build" points="1077.3333333333,554,1078,528,1093.3333333333,520,1093.3333333333,546.33333333333"></polygon><polygon data-id="26227" data-section="3" data-section_name="3" data-build="1" data-build_name="4" data-floor="13" data-type="flat" class="s3d-svg__build js-s3d-svg__build" points="1096.3333333333,468.33333333333,1097,439.66666666667,1081,446,1081.6666666667,475.33333333333"></polygon><polygon data-id="26228" data-section="2" data-section_name="2" data-build="1" data-build_name="4" data-floor="2" data-type="flat" class="s3d-svg__build js-s3d-svg__build" points="1254,606,1264,599.66666666667,1264.3333333333,576,1255.3333333333,580.33333333333"></polygon><polygon data-id="26229" data-section="2" data-section_name="2" data-build="1" data-build_name="4" data-floor="4" data-type="flat" class="s3d-svg__build js-s3d-svg__build" points="1241.6666666667,574.33333333333,1246.6666666667,573.66666666667,1253.3333333333,570.33333333333,1255.6666666667,564.66666666667,1255.6666666667,547.33333333333,1249,549,1243.6666666667,549"></polygon><polygon data-id="26230" data-section="2" data-section_name="2" data-build="1" data-build_name="4" data-floor="6" data-type="flat" class="s3d-svg__build js-s3d-svg__build" points="1243.3333333333,528.33333333333,1250,528.66666666667,1256.3333333333,526.66666666667,1258.3333333333,519.33333333333,1258.3333333333,498,1252,500.33333333333,1245.6666666667,501.33333333333"></polygon><polygon data-id="26231" data-section="2" data-section_name="2" data-build="1" data-build_name="4" data-floor="7" data-type="flat" class="s3d-svg__build js-s3d-svg__build" points="1245.6666666667,501.33333333333,1245.6666666667,480.66666666667,1251.6666666667,480,1258,477.66666666667,1260,473,1258.3333333333,498,1252,500.33333333333"></polygon><polygon data-id="26232" data-section="2" data-section_name="2" data-build="1" data-build_name="4" data-floor="8" data-type="flat" class="s3d-svg__build js-s3d-svg__build" points="1245.6666666667,480.66666666667,1247,457.33333333333,1252.6666666667,456.66666666667,1258.6666666667,455,1261.6666666667,451.33333333333,1260,473,1258,477.66666666667,1251.6666666667,480"></polygon><polygon data-id="26233" data-section="2" data-section_name="2" data-build="1" data-build_name="4" data-floor="13" data-type="flat" class="s3d-svg__build js-s3d-svg__build" points="1252.3333333333,364,1257.3333333333,363.66666666667,1265,360.33333333333,1267.6666666667,358,1268.6666666667,352.33333333333,1267,334.33333333333,1260.3333333333,337,1253.6666666667,338.33333333333"></polygon></svg>