<svg xmlns="http://www.w3.org/2000/svg" xmlns:xlink="http://www.w3.org/1999/xlink" width="0" height="0" style="position:absolute">
	
		<symbol id="icon-3D" viewBox="0 0 24 24">
			<path clip-rule="evenodd" d="M4 5.75v12.5l7.25 4.305L12 23l.75-.445L20 18.25V5.75l-.735-.436L12 1 4.735 5.314 4 5.75zm1.5 1.763v9.883l5.75 3.414v-9.883L5.5 7.513zm7.25 3.414v9.883l5.75-3.414V7.513l-5.75 3.414zm5.046-4.74L12 2.743 6.204 6.186 12 9.628l5.796-3.442z"></path>
		</symbol>
	
		<symbol id="icon-Analytic" viewBox="0 0 24 24">
			<path clip-rule="evenodd" d="M17.29 4.001a.75.75 0 0 1 .545.28l2 2.5a.75.75 0 0 1-1.172.937l-.825-1.031c-.256 2.586-.619 4.577-1.056 6.07-.528 1.8-1.203 3.02-2.067 3.61-.457.314-.962.446-1.477.387-.5-.058-.947-.287-1.328-.588-.75-.591-1.378-1.56-1.846-2.612-.603-1.357-1.171-1.828-1.527-1.937-.268-.083-.652-.015-1.154.573-.498.582-.974 1.543-1.325 2.791C5.71 16.218 5.5 17.69 5.5 19.25a.75.75 0 0 1-1.5 0c0-1.69.227-3.297.614-4.673.383-1.365.938-2.553 1.628-3.36.685-.803 1.645-1.368 2.736-1.033 1.004.309 1.81 1.306 2.457 2.762.421.947.925 1.666 1.404 2.043.233.184.425.259.57.276.13.015.277-.01.458-.134.414-.283.968-1.064 1.475-2.795.393-1.341.735-3.172.984-5.6l-.013.012-.008.008-.008.008-.008.007-.007.008-.008.008-.008.007-.007.008-.008.007-.03.03-.007.007-.007.008-.007.007-.007.007-.015.014-.014.015-.028.028-.007.006-.006.007-.007.007-.007.007-.013.013-.007.007-.007.007-.013.013-.006.006-.007.007-.006.006-.007.007-.006.006-.006.006-.013.013-.006.006-.006.006-.007.006-.006.007-.012.012-.047.047-.006.006-.006.005-.005.006-.006.006-.011.01-.006.006-.005.006-.022.022-.01.01-.006.006-.005.005-.08.08-.072.072-.017.016-.008.009-.004.004-.004.004-.031.031-.03.03-.028.028-.003.003-.004.003-.006.007-.013.013-.025.024c-.014.015-.008.01-.003.003l-.003.003-.005.006-.006.006-.006.006-.01.01-.006.006-.003.003-.002.002-.01.01-.01.01-.01.01-.005.004-.004.005-.005.004-.004.005-.002.002-.002.002-.005.004-.015.016-.015.015-.007.007-.007.007-.024.023-.02.02-.001.002-.002.001v.001l-.005.004-.003.004-.004.004-.007.006-.001.002-.002.001-.002.003-.016.016-.008.007-.001.002a.75.75 0 1 1-1.061-1.06l.002-.002.007-.008.016-.016.012-.012.016-.016.02-.02.011-.01.002-.002.001-.002.002-.001.001-.002.006-.006.062-.062.192-.192.031-.03.034-.034.008-.009.009-.008.004-.005.005-.004.008-.009.019-.018.018-.019.005-.005.005-.005.005-.004.005-.005.02-.02.004-.005.005-.005.005-.005.005-.005.01-.01.006-.006.005-.005.043-.043.045-.045.012-.011.012-.012.011-.012.007-.006.006-.006.024-.024.025-.025.013-.013.012-.013.027-.026.026-.027.028-.027.056-.057.007-.007.008-.007.007-.007.007-.008.03-.03.007-.007.008-.007.015-.016.015-.015.016-.016.032-.031.016-.016.008-.008.008-.008.066-.067.009-.008.008-.009.009-.008.008-.009.035-.035.035-.035.018-.018.01-.01.009-.008.037-.037.009-.01.01-.009.018-.019.01-.009.009-.01.02-.019.038-.039.02-.02.02-.02.01-.01.01-.01.01-.01.01-.01.083-.082.02-.021.011-.011.011-.01.043-.044.044-.044.023-.022.01-.011.012-.012.046-.045.023-.023.011-.012.012-.011.094-.095.025-.024.012-.012.012-.012.05-.05.423-.423A.75.75 0 0 1 17.29 4z"></path>
		</symbol>
	
		<symbol id="icon-Arrow left" viewBox="0 0 24 24">
			<path clip-rule="evenodd" d="M8.51 12.756l4.37 4.373-1.06 1.06-5.65-5.653-.53-.53.53-.53 5.65-5.653 1.06 1.06-4.37 4.373H18v1.5H8.51z"></path>
		</symbol>
	
		<symbol id="icon-Arrow right" viewBox="0 0 24 24">
			<path clip-rule="evenodd" d="M16.086 12.677l-4.793 4.794.707.707 5.647-5.647.354-.354-.354-.353L12 6.177l-.707.707 4.793 4.793H6v1h10.086z"></path>
		</symbol>
	
		<symbol id="icon-Arrow up" viewBox="0 0 24 24">
			<path clip-rule="evenodd" d="M14.028 8.99l5.474 5.132 2.052-2.188-8-7.5-1.026-.962-1.026.962-8 7.5 2.052 2.188 5.474-5.132v11.538h3V8.99z"></path>
		</symbol>
	
		<symbol id="icon-Back" viewBox="0 0 24 24">
			<path d="M9.111 14.416l-4.738-3.818a1 1 0 0 1 0-1.557L9.11 5.223a1 1 0 0 1 1.628.779v1.787c.257-.062 1.505-.074 4.438.369 3.666.554 4.824 3.138 4.824 4.984s-1.35 3.508-2.315 4.43c-.965.924-1.351.186-1.158-.553.579-2.769.386-3.323-.965-4.43-1.08-.886-3.666-.862-4.824-.739v1.787a1 1 0 0 1-1.628.779z"></path>
		</symbol>
	
		<symbol id="icon-Big arrow left" viewBox="0 0 24 24">
			<path clip-rule="evenodd" d="M6.731 12.75l6.316 6.737-1.094 1.026-7.5-8L3.972 12l.48-.513 7.5-8 1.095 1.026-6.316 6.737H20v1.5H6.731z"></path>
		</symbol>
	
		<symbol id="icon-Big arrow right" viewBox="0 0 24 24">
			<path clip-rule="evenodd" d="M17.269 12.75l-6.316 6.737 1.094 1.026 7.5-8 .481-.513-.48-.513-7.5-8-1.095 1.026 6.316 6.737H4v1.5h13.269z"></path>
		</symbol>
	
		<symbol id="icon-Cancel full screen" viewBox="0 0 24 24">
			<path fill-rule="evenodd" clip-rule="evenodd" d="M9 4.5a.5.5 0 0 1 .5.5v3A1.5 1.5 0 0 1 8 9.5H5a.5.5 0 0 1 0-1h3a.5.5 0 0 0 .5-.5V5a.5.5 0 0 1 .5-.5zm6 0a.5.5 0 0 1 .5.5v3a.5.5 0 0 0 .5.5h3a.5.5 0 0 1 0 1h-3A1.5 1.5 0 0 1 14.5 8V5a.5.5 0 0 1 .5-.5zM4.5 15a.5.5 0 0 1 .5-.5h3A1.5 1.5 0 0 1 9.5 16v3a.5.5 0 0 1-1 0v-3a.5.5 0 0 0-.5-.5H5a.5.5 0 0 1-.5-.5zm11.5.5a.5.5 0 0 0-.5.5v3a.5.5 0 0 1-1 0v-3a1.5 1.5 0 0 1 1.5-1.5h3a.5.5 0 0 1 0 1h-3z" fill="#000"></path>
		</symbol>
	
		<symbol id="icon-Card" viewBox="0 0 24 24">
			<path d="M5 4.5a.5.5 0 0 0-.5.5v5a.5.5 0 0 0 .5.5h5a.5.5 0 0 0 .5-.5V5a.5.5 0 0 0-.5-.5H5zm.5 5v-4h4v4h-4zm-.5 4a.5.5 0 0 0-.5.5v5a.5.5 0 0 0 .5.5h5a.5.5 0 0 0 .5-.5v-5a.5.5 0 0 0-.5-.5H5zm.5 5v-4h4v4h-4zm8-13.5a.5.5 0 0 1 .5-.5h5a.5.5 0 0 1 .5.5v5a.5.5 0 0 1-.5.5h-5a.5.5 0 0 1-.5-.5V5zm1 .5v4h4v-4h-4zm-.5 8a.5.5 0 0 0-.5.5v5a.5.5 0 0 0 .5.5h5a.5.5 0 0 0 .5-.5v-5a.5.5 0 0 0-.5-.5h-5zm.5 5v-4h4v4h-4z"></path>
		</symbol>
	
		<symbol id="icon-Check" viewBox="0 0 16 16">
			<path clip-rule="evenodd" d="M13.293 5.116l-.704.71L7.257 11.2a1 1 0 0 1-1.42 0L3.413 8.757l-.704-.71L4.13 6.64l.704.71 1.714 1.727 4.622-4.659.704-.71 1.42 1.409z"></path>
		</symbol>
	
		<symbol id="icon-Chevron down" viewBox="0 0 16 16">
			<path d="M10.853 6.146a.5.5 0 0 1 0 .708l-2.93 2.93a.6.6 0 0 1-.847 0l-2.93-2.93a.5.5 0 0 1 .707-.708L7.5 8.793l2.646-2.647a.5.5 0 0 1 .707 0z"></path>
		</symbol>
	
		<symbol id="icon-Chevron left" viewBox="0 0 16 16">
			<path clip-rule="evenodd" d="M11.386 2.68a1 1 0 0 1-.044 1.413L7.185 8l4.157 3.908a1 1 0 1 1-1.37 1.457L5.119 8.802a1.1 1.1 0 0 1 0-1.603l4.855-4.563a1 1 0 0 1 1.413.043z"></path>
		</symbol>
	
		<symbol id="icon-Chevron right" viewBox="0 0 16 16">
			<path d="M6.146 5.147a.5.5 0 0 1 .708 0l2.93 2.93a.6.6 0 0 1 0 .847l-2.93 2.93a.5.5 0 0 1-.708-.707L8.793 8.5 6.146 5.854a.5.5 0 0 1 0-.707z"></path>
		</symbol>
	
		<symbol id="icon-Chevron up" viewBox="0 0 16 16">
			<path clip-rule="evenodd" d="M3.019 11.025a.5.5 0 0 0 .707-.022l4.271-4.545 4.272 4.545a.5.5 0 0 0 .729-.685L8.435 5.463a.6.6 0 0 0-.875 0l-4.563 4.855a.5.5 0 0 0 .022.707z"></path>
		</symbol>
	
		<symbol id="icon-Coins" viewBox="0 0 24 24">
			<path clip-rule="evenodd" d="M6.5 9.75a3.25 3.25 0 1 1 6.5 0 3.25 3.25 0 0 1-6.5 0zM9.75 5a4.75 4.75 0 1 0 0 9.5 4.75 4.75 0 0 0 0-9.5zm6.988 5.627a.75.75 0 0 0-.524 1.406 3.25 3.25 0 1 1-4.198 4.133.75.75 0 0 0-1.413.502 4.75 4.75 0 1 0 6.135-6.04zm-8.405-2.21a.75.75 0 0 1 .75-.75h.667a.75.75 0 0 1 .75.75v2.666a.75.75 0 0 1-1.5 0v-1.92a.75.75 0 0 1-.667-.746zm7.758 4.726a.75.75 0 0 0-1.122.993l-1.356 1.357a.75.75 0 0 0 1.06 1.06l1.88-1.88a.75.75 0 0 0 .004-1.056l-.466-.474z"></path>
		</symbol>
	
		<symbol id="icon-Compare" viewBox="0 0 24 24">
			<path clip-rule="evenodd" d="M12.08 4.25a.5.5 0 0 1 .5.5v.748c.726.445 1.598.883 2.468 1.219.973.375 1.902.606 2.609.606h1.593a.5.5 0 0 1 0 1h-1.593c-.887 0-1.95-.28-2.969-.674a16.708 16.708 0 0 1-2.108-.993v11.935h3.085a.5.5 0 1 1 0 1h-7.17a.5.5 0 1 1 0-1h3.085V6.656c-.655.367-1.381.713-2.108.994-1.019.392-2.082.673-2.969.673H4.91a.5.5 0 0 1 0-1h1.593c.707 0 1.636-.231 2.609-.606.87-.336 1.742-.774 2.468-1.219V4.75a.5.5 0 0 1 .5-.5zm4.78 4.098a.5.5 0 0 1 .468.324l2.39 6.374a.5.5 0 0 1-.168.575 4.484 4.484 0 0 1-5.38 0 .5.5 0 0 1-.168-.575l2.39-6.374a.5.5 0 0 1 .468-.324zm0 1.924l-1.783 4.755a3.484 3.484 0 0 0 3.566 0l-1.783-4.755zM7.3 8.348a.5.5 0 0 1 .468.324l2.39 6.374a.5.5 0 0 1-.168.575 4.484 4.484 0 0 1-5.38 0 .5.5 0 0 1-.168-.575l2.39-6.374a.5.5 0 0 1 .468-.324zm0 1.924l-1.783 4.755a3.483 3.483 0 0 0 3.566 0L7.3 10.272z"></path>
		</symbol>
	
		<symbol id="icon-Compass" viewBox="0 0 80 80">
			<circle cx="40" cy="40" r="40" fill="#1A1E21"></circle><path d="M45.057 39.747l4.552-9.61-9.356 9.61h4.804zM35.195 40.253l-4.551 9.61L40 40.252h-4.805zM35.195 39.747l-4.551-9.61L40 39.748h-4.805z" fill="#005450" stroke="#005450"></path><path d="M40 18v22l-3.034-3.035L40 18zM62 40H40l3.035-3.035L62 40zM40 62V40l3.034 3.035L40 62zM18 40h22l-3.035 3.035L18 40z" fill="#005450" stroke="#005450"></path><path d="M45.057 40.253l4.552 9.61-9.356-9.61h4.804z" stroke="#005450"></path><path d="M40.253 35.448l9.356-5.31-9.356 9.356v-4.046zM40 44.552l-9.356 5.31L40 40.506v4.046zM40 35.448l-9.356-5.31L40 39.494v-4.046z" fill="#FAFBFE" stroke="#005450"></path><path d="M45.057 40.253l4.552 9.61-9.356-9.61h4.804z" fill="#005450" stroke="#005450"></path><path d="M40 18v22l3.034-3.035L40 18zM62 40H40l3.035 3.035L62 40zM40 62V40l-3.034 3.035L40 62zM18 40h22l-3.035-3.035L18 40zM40.253 44.552l9.356 5.31-9.356-9.356v4.046z" fill="#FAFBFE" stroke="#005450"></path><path d="M36.217 13.5V4.042h1.561l3.612 5.72c.11.177.26.429.45.755.191.325.382.655.572.99-.013-.343-.023-.69-.032-1.041-.004-.356-.006-.62-.006-.794v-5.63h1.416V13.5h-1.575l-3.23-5.11a67.326 67.326 0 0 1-.572-.927c-.245-.414-.525-.89-.838-1.428.021.555.034 1.033.038 1.435.009.398.013.702.013.914V13.5h-1.41zM40.063 75.652c-1.134 0-2.029-.285-2.685-.857-.651-.575-.977-1.362-.977-2.36h1.41c.003.621.202 1.108.596 1.459.398.351.95.527 1.657.527.643 0 1.157-.136 1.542-.406.39-.275.584-.644.584-1.105 0-.364-.14-.658-.419-.882-.275-.229-.74-.421-1.397-.578l-1.034-.247c-.957-.229-1.655-.546-2.095-.953-.436-.41-.654-.943-.654-1.6 0-.553.14-1.038.42-1.453.279-.414.67-.736 1.174-.965.507-.228 1.1-.342 1.777-.342 1.02 0 1.83.266 2.431.8.605.533.923 1.26.952 2.183h-1.364c-.034-.546-.233-.973-.597-1.282-.364-.313-.844-.47-1.441-.47-.571 0-1.039.138-1.403.413-.364.27-.546.62-.546 1.047 0 .343.14.622.42.838.278.212.742.396 1.39.552l1.021.241c.948.225 1.646.548 2.095.972.453.423.68.973.68 1.65 0 .567-.147 1.062-.439 1.485-.292.424-.702.751-1.231.984-.53.233-1.151.35-1.867.35zM7.895 44.5L5.33 35.042h1.466l1.39 5.503c.102.407.197.815.286 1.225.089.407.176.815.26 1.226.085-.41.174-.82.267-1.226.093-.41.193-.818.298-1.225l1.435-5.503h1.542l1.422 5.503c.203.804.392 1.61.565 2.419.085-.402.172-.804.26-1.206.094-.406.189-.81.286-1.213l1.39-5.503h1.473L15.093 44.5H13.48l-1.555-5.783a39.72 39.72 0 0 1-.222-.895 227.13 227.13 0 0 0-.21-.946c-.067.322-.135.637-.203.946-.067.305-.141.603-.222.895L9.526 44.5H7.895zM67.863 44.5v-9.458h6.36v1.238h-4.95v2.786h4.583v1.225h-4.584v2.971h4.952V44.5h-6.36z" fill="#FAFBFE"></path>
		</symbol>
	
		<symbol id="icon-Construction" viewBox="0 0 16 16">
			<path fill-rule="evenodd" clip-rule="evenodd" d="M2.5.5h3v1h-1v1h11v1h-3v1h2v4h-5v-4h2v-1h-7v11h2v1h-5v-1h2v-11h-3v-1h3v-1h-1v-1zm8 5v2h3v-2h-3z" fill="#AEBECC"></path>
		</symbol>
	
		<symbol id="icon-Copy" viewBox="0 0 24 24">
			<path fill-rule="evenodd" clip-rule="evenodd" d="M5.51 5.51a.885.885 0 0 1 .625-.26h6.23a.885.885 0 0 1 .885.885v.692a.5.5 0 0 0 1 0v-.692a1.885 1.885 0 0 0-1.885-1.885h-6.23A1.885 1.885 0 0 0 4.25 6.135v6.23a1.885 1.885 0 0 0 1.885 1.885h.692a.5.5 0 0 0 0-1h-.692a.885.885 0 0 1-.885-.885v-6.23c0-.235.093-.46.26-.626zm4.74 5.625c0-.489.396-.885.885-.885h6.23c.489 0 .885.396.885.885v6.23a.885.885 0 0 1-.885.885h-6.23a.885.885 0 0 1-.885-.885v-6.23zm.885-1.885c-1.041 0-1.885.844-1.885 1.885v6.23c0 1.041.844 1.885 1.885 1.885h6.23c1.041 0 1.885-.844 1.885-1.885v-6.23c0-1.041-.844-1.885-1.885-1.885h-6.23z" fill="#1A1E21"></path>
		</symbol>
	
		<symbol id="icon-Download" viewBox="0 0 24 24">
			<path clip-rule="evenodd" d="M7.874 2.5h5.131c.29.003.518.014.75.068l.003.001c.252.062.496.162.72.3.255.156.468.37.777.68l.036.036 3.125 3.124.04.04c.308.308.52.52.675.772v.001c.138.225.238.467.3.72l.001.006c.053.229.065.455.068.747V17.826c0 .54 0 .976-.029 1.33-.03.363-.093.683-.244.979-.24.47-.622.853-1.093 1.092-.296.151-.615.214-.98.244-.352.029-.789.029-1.33.029H8.198c-.558 0-1.01-.006-1.375-.04-.362-.032-.684-.093-.957-.233a2.5 2.5 0 0 1-1.093-1.092c-.159-.313-.216-.725-.244-1.138-.028-.425-.028-.934-.028-1.483V6.179c0-.542 0-.98.029-1.333.03-.365.093-.685.243-.981.24-.47.623-.853 1.093-1.093l.227.446-.227-.446c.536-.273 1.02-.273 2.01-.272zM8 3.5c-1.164 0-1.384.012-1.681.164a1.499 1.499 0 0 0-.655.655c-.068.132-.114.306-.138.608C5.5 5.236 5.5 5.632 5.5 6.2v11.3c0 .566 0 1.042.026 1.43.027.404.079.635.138.751a1.5 1.5 0 0 0 .655.655c.103.053.275.1.592.129.314.028.726.035 1.286.035h7.606c.567 0 .963 0 1.27-.026.302-.024.476-.07.607-.137.283-.145.512-.374.657-.656.067-.132.113-.306.137-.607.026-.308.026-.703.026-1.27V9.5h-2.324c-.541 0-.978 0-1.331-.029-.364-.03-.684-.093-.98-.244a2.5 2.5 0 0 1-1.092-1.092c-.151-.296-.214-.616-.244-.98C12.5 6.8 12.5 6.362 12.5 5.82V3.5H8zm5.5.036l.022.005c.155.038.3.099.433.18.14.086.267.208.628.57l3.126 3.126c.363.362.484.487.57.627a1.532 1.532 0 0 1 .185.456h-2.267c-.567 0-.963 0-1.27-.026-.303-.024-.476-.07-.608-.137a1.5 1.5 0 0 1-.655-.656M13.5 3.536V5.8c0 .568 0 .964.026 1.273.024.302.07.476.138.608M12 11.5a.5.5 0 0 1 .5.5v5.066l2.223-1.482a.5.5 0 0 1 .554.832l-3 2a.5.5 0 0 1-.554 0l-3-2a.5.5 0 0 1 .554-.832l2.223 1.482V12a.5.5 0 0 1 .5-.5z"></path>
		</symbol>
	
		<symbol id="icon-Filter" viewBox="0 0 25 24">
			<path clip-rule="evenodd" d="M14 5.5a2 2 0 1 1 4 0 2 2 0 0 1-4 0zm-.959.5H2.5V5h10.541a3 3 0 0 1 5.918 0H22.5v1h-3.541a3 3 0 0 1-5.918 0zM14 17.5a2 2 0 1 1 4 0 2 2 0 0 1-4 0zm2-3a3 3 0 0 0-2.959 2.5H2.5v1h10.541a3 3 0 0 0 5.918 0H22.5v-1h-3.541A3 3 0 0 0 16 14.5zm-7-5a2 2 0 1 1 0 4 2 2 0 0 1 0-4zm2.959 1.5a3 3 0 0 0-5.918 0H2.5v1h3.541a3 3 0 0 0 5.918 0H22.5v-1H11.959z"></path>
		</symbol>
	
		<symbol id="icon-Filter list down" viewBox="0 0 16 16">
			<path clip-rule="evenodd" d="M8.06 14.365l.546-.581 3-3.193.514-.546-1.093-1.027-.514.546-1.703 1.813V1.75h-1.5v9.626L5.607 9.564l-.514-.546L4 10.045l.514.546 3 3.193.546.581z"></path>
		</symbol>
	
		<symbol id="icon-Filter list up" viewBox="0 0 16 16">
			<path clip-rule="evenodd" d="M8.06 1.636l.546.581 3 3.193.514.546-1.093 1.027-.514-.546L8.81 4.624v9.626h-1.5V4.624L5.607 6.437l-.514.546L4 5.956l.514-.546 3-3.193.546-.581z"></path>
		</symbol>
	
		<symbol id="icon-Flag 1" viewBox="0 0 24 24">
			<g clip-path="url(#a)"><path d="M0 12h24v7.448a.414.414 0 0 1-.414.414H.414A.414.414 0 0 1 0 19.448V12z" fill="#FFE15A"></path><path d="M24 12H0V4.552c0-.229.186-.414.414-.414h23.172c.229 0 .414.185.414.414V12z" fill="#4173CD"></path></g><defs><clipPath id="a"><path fill="#fff" d="M0 0h24v24H0z"></path></clipPath></defs>
		</symbol>
	
		<symbol id="icon-Full screen" viewBox="0 0 24 24">
			<path fill-rule="evenodd" clip-rule="evenodd" d="M6 5.5a.5.5 0 0 0-.5.5v3a.5.5 0 0 1-1 0V6A1.5 1.5 0 0 1 6 4.5h3a.5.5 0 0 1 0 1H6zm8.5-.5a.5.5 0 0 1 .5-.5h3A1.5 1.5 0 0 1 19.5 6v3a.5.5 0 0 1-1 0V6a.5.5 0 0 0-.5-.5h-3a.5.5 0 0 1-.5-.5zM5 14.5a.5.5 0 0 1 .5.5v3a.5.5 0 0 0 .5.5h3a.5.5 0 0 1 0 1H6A1.5 1.5 0 0 1 4.5 18v-3a.5.5 0 0 1 .5-.5zm14 0a.5.5 0 0 1 .5.5v3a1.5 1.5 0 0 1-1.5 1.5h-3a.5.5 0 0 1 0-1h3a.5.5 0 0 0 .5-.5v-3a.5.5 0 0 1 .5-.5z" fill="var(--s3d2-color-icon-gray-900)"></path>
		</symbol>
	
		<symbol id="icon-Grab" viewBox="0 0 24 24">
			<path clip-rule="evenodd" d="M9.805 3.805a2.75 2.75 0 0 1 4.386.68 2.75 2.75 0 0 1 4.275 1.833A2.75 2.75 0 0 1 22.5 8.75v3a8.75 8.75 0 0 1-8.75 8.75h-4A8.75 8.75 0 0 1 1 11.75 2.75 2.75 0 0 1 5 9.3V6.75a2.75 2.75 0 0 1 4.309-2.266 2.75 2.75 0 0 1 .496-.679zM2.5 11.75A7.25 7.25 0 0 0 9.75 19h4A7.25 7.25 0 0 0 21 11.75v-3a1.25 1.25 0 0 0-2.5 0v.5a.75.75 0 0 1-1.5 0v-2.5a1.25 1.25 0 0 0-2.5 0v1.4a.75.75 0 0 1-1.5 0v-2.4a1.25 1.25 0 0 0-2.5 0v2a.75.75 0 0 1-1.5 0v-1a1.25 1.25 0 0 0-2.5 0v5a.75.75 0 0 1-1.5 0 1.25 1.25 0 0 0-2.5 0z"></path>
		</symbol>
	
		<symbol id="icon-Hand" viewBox="0 0 24 24">
			<path clip-rule="evenodd" d="M12.106 1A2.75 2.75 0 0 0 9.39 3.318 2.75 2.75 0 0 0 5.356 5.75v6.327a2.75 2.75 0 0 0-3.37 4.263l3.6 3.6.001.002C7.215 21.56 9.104 22.5 12.106 22.5h2a8.75 8.75 0 0 0 8.75-8.75v-6a2.75 2.75 0 0 0-4.035-2.432 2.75 2.75 0 0 0-4-2A2.75 2.75 0 0 0 12.107 1zm5.25 6.755v2.995a.75.75 0 0 0 1.5 0V7.743a1.25 1.25 0 0 1 2.5.007v6a7.25 7.25 0 0 1-7.25 7.25h-2c-2.598 0-4.11-.779-5.461-2.121v-.001L3.06 15.295a1.25 1.25 0 0 1 1.768-1.76l1.746 1.745a.75.75 0 0 0 1.06-1.06l-.78-.78V5.75a1.25 1.25 0 0 1 2.5 0v4.5a.75.75 0 0 0 1.5 0v-6.5a1.25 1.25 0 0 1 2.5 0v6a.75.75 0 0 0 1.5 0v-4a1.25 1.25 0 0 1 2.5 0v2.005z"></path>
		</symbol>
	
		<symbol id="icon-Info" viewBox="0 0 17 16">
			<path fill-rule="evenodd" clip-rule="evenodd" d="M8.2 15a7 7 0 1 0 0-14 7 7 0 0 0 0 14zm1.184-3.227l.11-.48a1.81 1.81 0 0 1-.276.099 1.233 1.233 0 0 1-.342.056c-.215 0-.366-.037-.453-.112-.087-.075-.13-.215-.13-.421 0-.082.013-.203.04-.363.026-.16.056-.302.09-.427l.412-1.552c.04-.142.068-.298.083-.47.015-.17.023-.289.023-.356 0-.328-.108-.593-.324-.798-.217-.204-.524-.306-.923-.306-.221 0-.456.041-.704.125-.248.083-.508.184-.78.301l-.11.48c.08-.032.177-.066.289-.101.112-.036.222-.053.33-.053.217 0 .365.039.442.117.077.078.115.217.115.416 0 .11-.012.232-.037.365a7.899 7.899 0 0 1-.093.424l-.413 1.558c-.037.163-.063.31-.08.44s-.025.257-.025.38c0 .32.111.585.334.793.223.208.536.312.938.312.262 0 .491-.036.689-.11.198-.072.463-.178.795-.317zM9.31 5.472c.192-.19.289-.42.289-.69a.943.943 0 0 0-.29-.694.95.95 0 0 0-.696-.288.96.96 0 0 0-.699.288.94.94 0 0 0-.292.693c0 .27.098.5.292.691.195.19.427.285.699.285a.955.955 0 0 0 .697-.285z" fill="#FAFBFE"></path>
		</symbol>
	
		<symbol id="icon-List" viewBox="0 0 24 24">
			<path clip-rule="evenodd" d="M5.003 6.003h13.995v1.5H5.003v-1.5zm0 5.248h13.995v1.5H5.003v-1.5zm.75 5.248h-.75V18h13.995v-1.5H5.753z"></path>
		</symbol>
	
		<symbol id="icon-Lock" viewBox="0 0 24 24">
			<path clip-rule="evenodd" d="M10.002 6.316a2.848 2.848 0 0 1 2-.816c.752 0 1.47.295 2 .816a2.75 2.75 0 0 1 .823 1.958v2.82H9.179v-2.82c0-.732.295-1.437.823-1.958zM7.68 11.094v-2.82a4.25 4.25 0 0 1 1.27-3.026A4.348 4.348 0 0 1 12.002 4c1.143 0 2.241.448 3.053 1.248a4.25 4.25 0 0 1 1.27 3.026v2.82h.54c.767 0 1.39.664 1.39 1.483v5.19c0 .82-.623 1.484-1.39 1.484H7.139c-.767 0-1.39-.664-1.39-1.483v-5.19c0-.82.623-1.484 1.39-1.484h.54z"></path>
		</symbol>
	
		<symbol id="icon-Menu" viewBox="0 0 24 24">
			<path clip-rule="evenodd" d="M4.252 6.247h9.283v1H4.252v-1zm0 5.253h15.495v1H4.252v-1zm0 5.253h15.495v1H4.252v-1z"></path>
		</symbol>
	
		<symbol id="icon-Minus" viewBox="0 0 24 24">
			<path clip-rule="evenodd" d="M6 11h12v2H6v-2z"></path>
		</symbol>
	
		<symbol id="icon-Moon" viewBox="0 0 24 24">
			<path clip-rule="evenodd" d="M8.869 4.945a8.8 8.8 0 0 1 .86-.449c.441-.2.807.338.565.758a8.218 8.218 0 0 0 .043 8.256 7.977 7.977 0 0 0 7.15 3.92c.483-.017.792.555.413.854a8.031 8.031 0 0 1-.802.559c-3.784 2.309-8.684 1.05-10.958-2.772C3.866 12.23 5.106 7.254 8.869 4.945z"></path>
		</symbol>
	
		<symbol id="icon-Next" viewBox="0 0 16 16">
			<path d="M5 13V3l8 5-8 5z"></path>
		</symbol>
	
		<symbol id="icon-PDF" viewBox="0 0 24 24">
			<path clip-rule="evenodd" d="M10.762 2.514c-.005-.002-.056-.028-.204-.004-.197.033-.338.134-.445.456-.12.365-.15.916-.075 1.614.075.7.243 1.467.448 2.195.252-.932.468-1.99.51-2.87.03-.64-.039-1.063-.149-1.28-.046-.09-.08-.108-.085-.11zM9.714 9.181C9.258 8.024 8.71 6.28 8.546 4.738c-.082-.774-.077-1.577.143-2.244.235-.709.744-1.316 1.622-1.463.388-.065.778-.033 1.13.146.352.178.59.464.745.77.292.578.34 1.33.308 2.028-.068 1.435-.516 3.17-.898 4.32-.08.252-.17.525-.27.818 1.038 2.187 2.425 3.762 3.845 4.857 1.947-.358 3.215-.362 4.222-.362 1.413 0 2.588.346 3.197 1.044.33.38.496.878.365 1.405-.123.495-.477.885-.906 1.172-.309.207-.696.305-1.073.347-.39.043-.837.032-1.316-.03-.958-.124-2.103-.46-3.291-1.057a12.942 12.942 0 0 1-1.551-.92c-1.506.314-3.418.845-5.915 1.74a31.61 31.61 0 0 0-1.505.619c-.96 1.65-2.031 3.15-3.167 4.168-.638.633-1.434 1.02-2.163.87a1.299 1.299 0 0 1-.94-.732c-.175-.383-.152-.807-.031-1.19.236-.752.913-1.586 2.043-2.433.791-.592 1.839-1.218 3.197-1.848.383-.682.752-1.397 1.104-2.125a55.763 55.763 0 0 0 2.273-5.457zm-1.2 6.674c.094-.188.187-.376.278-.564a56.324 56.324 0 0 0 1.844-4.278 14.622 14.622 0 0 0 2.69 3.36c-1.329.33-2.908.804-4.812 1.482zm-3.857 3.527c-.226.146-.431.29-.617.43-.997.747-1.39 1.333-1.503 1.655a.93.93 0 0 0 .067-.026c.154-.065.356-.194.58-.42l.016-.015.016-.015c.485-.432.967-.98 1.44-1.61zM17.146 15.2c1.012.495 1.956.761 2.707.858.39.05.713.054.959.027.26-.029.376-.085.403-.103.232-.154.278-.266.284-.286a.286.286 0 0 0-.04-.059c-.175-.2-.793-.529-2.066-.529h-.03c-.594 0-1.296 0-2.217.092z"></path>
		</symbol>
	
		<symbol id="icon-Phone" viewBox="0 0 24 24">
			<path clip-rule="evenodd" d="M6.89 4.536L5.07 6.262c-.43.409-.617.907-.56 1.538.06.66.39 1.481 1.056 2.473 1.074 1.601 2.69 3.136 3.401 3.81.61.579 2.418 2.29 4.314 3.397 1.203.7 2.203 1.02 2.99 1.02.63 0 1.145-.204 1.562-.6l1.64-1.555.344.363-.344-.363a.075.075 0 0 0 .027-.057.073.073 0 0 0-.026-.055l-3.281-3.112.328-.346-.328.346a.14.14 0 0 0-.099-.036.14.14 0 0 0-.098.036l-1.946 1.845-.291.277-.333-.225a22.668 22.668 0 0 1-2.902-2.337 22.4 22.4 0 0 1-2.177-2.378l-.282-.358.33-.314 1.973-1.87a.077.077 0 0 0 .027-.057.077.077 0 0 0-.028-.057l-3.28-3.11a.142.142 0 0 0-.099-.037.142.142 0 0 0-.098.036zm.885-.725a1.15 1.15 0 0 0-1.573 0l-1.82 1.725c-.663.629-.952 1.432-.868 2.355.082.895.511 1.88 1.221 2.939 1.141 1.7 2.828 3.3 3.536 3.971l.008.008.003.003c.607.575 2.489 2.361 4.496 3.531 1.275.744 2.456 1.157 3.493 1.157.87 0 1.636-.292 2.25-.874l1.64-1.555a1.074 1.074 0 0 0 0-1.565l-3.28-3.111a1.139 1.139 0 0 0-.787-.31 1.14 1.14 0 0 0-.786.31l-1.652 1.567a21.828 21.828 0 0 1-2.444-2.007 21.65 21.65 0 0 1-1.793-1.916l1.637-1.552a1.073 1.073 0 0 0 0-1.565L7.775 3.81z"></path>
		</symbol>
	
		<symbol id="icon-Pin 360°" viewBox="0 0 25 24">
			<path fill-rule="evenodd" clip-rule="evenodd" d="M3.857 7.857c.367.161.785.242 1.254.242.471 0 .891-.09 1.26-.27.37-.18.661-.426.874-.739.216-.315.323-.67.323-1.065 0-.462-.129-.849-.387-1.162-.258-.314-.616-.51-1.076-.585V4.22c.367-.112.657-.312.87-.6.216-.29.324-.638.324-1.048 0-.343-.087-.663-.26-.959A1.924 1.924 0 0 0 6.297.9C5.975.718 5.59.627 5.14.627c-.419 0-.803.08-1.154.241-.348.161-.63.386-.845.675-.215.287-.33.62-.344 1.002h.852c.012-.242.088-.448.227-.618.14-.173.32-.305.54-.395.223-.092.46-.138.71-.138.268 0 .5.05.696.153.2.102.353.244.462.426.109.182.163.396.163.643a1.18 1.18 0 0 1-.703 1.108 1.743 1.743 0 0 1-.76.156h-.582v.781h.582c.37 0 .682.058.938.174.255.116.45.277.582.483.133.204.199.44.199.707 0 .255-.069.48-.206.674a1.364 1.364 0 0 1-.568.455 2.002 2.002 0 0 1-.831.163 2.03 2.03 0 0 1-.764-.138 1.395 1.395 0 0 1-.557-.39 1.057 1.057 0 0 1-.242-.608H2.64c.02.381.135.716.348 1.005.216.286.506.51.87.671zm6.284.071c.298.109.596.166.895.17.49.005.916-.101 1.278-.32.365-.22.647-.515.849-.887.2-.374.302-.786.302-1.236 0-.468-.105-.884-.313-1.246a2.31 2.31 0 0 0-.83-.856 2.173 2.173 0 0 0-1.144-.312 2.117 2.117 0 0 0-1.79.966H9.33c.002-.886.165-1.574.487-2.064.324-.49.768-.735 1.331-.735.384 0 .692.108.924.323.232.216.388.487.468.814h.867a2.36 2.36 0 0 0-.39-.998 2.072 2.072 0 0 0-.782-.675 2.34 2.34 0 0 0-1.087-.245c-.41 0-.777.089-1.104.266a2.37 2.37 0 0 0-.831.782c-.23.34-.405.76-.526 1.26a7.288 7.288 0 0 0-.18 1.712c0 .672.074 1.23.223 1.676.149.443.347.794.593 1.055.246.258.518.441.817.55zm1.697-.834c-.237.149-.504.223-.802.223a1.47 1.47 0 0 1-.814-.23A1.666 1.666 0 0 1 9.46 5.67c0-.218.041-.425.124-.622a1.75 1.75 0 0 1 .341-.529c.147-.154.317-.275.511-.362.195-.09.404-.135.629-.135.298 0 .563.073.795.22.235.147.418.344.55.593.136.246.203.52.203.82 0 .308-.07.587-.21.838a1.6 1.6 0 0 1-.564.6zm3.628.568c.376.291.832.437 1.367.437s.991-.146 1.367-.437c.377-.294.665-.719.863-1.275.2-.559.299-1.234.299-2.024 0-.786-.101-1.457-.302-2.014-.2-.558-.488-.985-.867-1.278-.376-.296-.83-.444-1.36-.444-.53 0-.985.148-1.363.444-.377.293-.666.72-.867 1.278-.199.557-.298 1.228-.298 2.014 0 .79.1 1.465.298 2.024.199.556.487.981.863 1.275zm2.603-1.112c-.294.512-.706.767-1.236.767-.352 0-.654-.115-.905-.344-.249-.23-.44-.565-.572-1.005-.133-.44-.199-.976-.199-1.605 0-.945.148-1.675.444-2.191.296-.519.707-.778 1.232-.778.35 0 .65.116.899.348.25.232.442.57.575 1.012.135.443.202.979.202 1.609 0 .947-.146 1.676-.44 2.187zm2.938-2.834c.249.147.523.22.824.22.3 0 .574-.073.82-.22.249-.146.447-.343.593-.59a1.59 1.59 0 0 0 .22-.823c0-.3-.073-.574-.22-.82a1.656 1.656 0 0 0-.593-.593 1.571 1.571 0 0 0-.82-.22c-.3 0-.575.073-.824.22a1.665 1.665 0 0 0-.59.593c-.146.246-.22.52-.22.82 0 .3.074.575.22.824.147.246.344.443.59.59zm1.29-.614a.894.894 0 0 1-.466.124.895.895 0 0 1-.465-.124.94.94 0 0 1-.334-.334.895.895 0 0 1-.124-.465c0-.17.041-.325.124-.465a.94.94 0 0 1 .334-.334.895.895 0 0 1 .465-.124c.17 0 .326.041.465.124.14.083.251.194.334.334.083.14.124.295.124.465 0 .17-.041.326-.124.465a.939.939 0 0 1-.334.334zM2 13.463c0-.221.2-.563.882-.973.646-.387 1.576-.742 2.669-1.042 2.179-.599 4.884-.949 6.949-.949 2.064 0 4.77.35 6.949.95 1.092.3 2.022.654 2.668 1.041.683.41.882.752.882.973 0 .704-.546 1.246-1.511 1.64-.94.385-2.09.543-2.862.565a.5.5 0 0 0-.486.5V17.213c-1.482-.495-3.144-.786-5.64-.786-2.497 0-4.159.291-5.64.786V16.168a.5.5 0 0 0-.486-.5c-.773-.022-1.923-.18-2.863-.564C2.546 14.709 2 14.167 2 13.464zm19.867 2.566a4.72 4.72 0 0 0 1.132-.641v4.909c0 .703-.546 1.245-1.511 1.64-.748.306-1.63.468-2.348.533V16.641c.808-.066 1.833-.246 2.727-.612zm2.132 4.268v-6.834c0-.799-.648-1.4-1.368-1.83-.758-.455-1.787-.838-2.917-1.15-2.266-.622-5.06-.984-7.214-.984-2.154 0-4.948.362-7.215.985-1.13.31-2.159.694-2.916 1.148C1.649 12.063 1 12.664 1 13.463v6.834c0 1.345 1.073 2.132 2.133 2.566 1.085.444 2.364.613 3.211.638a.5.5 0 0 0 .515-.5v-4.73c1.45-.522 3.057-.844 5.64-.844 2.585 0 4.19.322 5.641.844v4.73a.5.5 0 0 0 .515.5c.847-.025 2.126-.194 3.212-.638 1.059-.434 2.132-1.22 2.132-2.566zM2 20.297v-4.91c.342.27.738.481 1.133.642.894.366 1.919.546 2.726.611V22.47c-.718-.065-1.6-.227-2.348-.533C2.546 21.542 2 21 2 20.297z" fill="#FAFBFE"></path>
		</symbol>
	
		<symbol id="icon-Play" viewBox="0 0 24 24">
			<path d="M21.409 9.353a2.998 2.998 0 0 1 0 5.294L8.597 21.614C6.534 22.736 4 21.276 4 18.968V5.033c0-2.31 2.534-3.769 4.597-2.648l12.812 6.968z"></path>
		</symbol>
	
		<symbol id="icon-Plus" viewBox="0 0 24 24">
			<path clip-rule="evenodd" d="M13 11.002V6h-2v5.002H6v2h5V18h2v-4.998h5v-2h-5z"></path>
		</symbol>
	
		<symbol id="icon-Small arrow" viewBox="0 0 16 16">
			<path clip-rule="evenodd" d="M10.781 6.278a.75.75 0 0 0-1.06-1.06L5.218 9.72a.75.75 0 0 0 1.06 1.06l4.503-4.502zM8 11l3-3v3H8z"></path>
		</symbol>
	
		<symbol id="icon-Sun" viewBox="0 0 24 24">
			<path clip-rule="evenodd" d="M11.25 2v3.81h1.5V2h-1.5zM3.34 5.389l2.87 2.857 1.058-1.063-2.87-2.857L3.34 5.389zm16.261-1.063l-2.87 2.857 1.059 1.063 2.87-2.857L19.6 4.326zM1 12.75h3.826v-1.5H1v1.5zm22-1.5h-3.826v1.5H23v-1.5zM4.399 19.674l2.87-2.857-1.059-1.063-2.87 2.857L4.4 19.674zm16.26-1.063l-2.869-2.857-1.058 1.063 2.87 2.857 1.058-1.063zM12.75 22v-3.81h-1.5V22h1.5zM12 7.714c-2.367 0-4.304 1.92-4.304 4.286 0 2.367 1.937 4.286 4.304 4.286s4.304-1.92 4.304-4.286c0-2.367-1.937-4.286-4.304-4.286z"></path>
		</symbol>
	
		<symbol id="icon-Tiny chevron down" viewBox="0 0 16 16">
			<path clip-rule="evenodd" d="M4.47 6.47a.75.75 0 0 1 1.06 0L8 8.94l2.47-2.47a.75.75 0 1 1 1.06 1.06l-3 3-.53.53-.53-.53-3-3a.75.75 0 0 1 0-1.06z"></path>
		</symbol>
	
		<symbol id="icon-Tiny chevron left" viewBox="0 0 16 16">
			<path clip-rule="evenodd" d="M9.53 5.47a.75.75 0 0 1 0 1.06L8.06 8l1.47 1.47a.75.75 0 1 1-1.06 1.06L6.61 8.672a.95.95 0 0 1 0-1.344L8.47 5.47a.75.75 0 0 1 1.06 0z"></path>
		</symbol>
	
		<symbol id="icon-Tiny chevron right" viewBox="0 0 16 16">
			<path d="M6.146 5.147a.5.5 0 0 1 .708 0l2.93 2.93a.6.6 0 0 1 0 .847l-2.93 2.93a.5.5 0 0 1-.708-.707L8.793 8.5 6.146 5.854a.5.5 0 0 1 0-.707z"></path>
		</symbol>
	
		<symbol id="icon-Tiny-chevron-right" viewBox="0 0 16 16">
			<path d="M6.146 5.147a.5.5 0 0 1 .708 0l2.93 2.93a.6.6 0 0 1 0 .847l-2.93 2.93a.5.5 0 0 1-.708-.707L8.793 8.5 6.146 5.854a.5.5 0 0 1 0-.707z"></path>
		</symbol>
	
		<symbol id="icon-Trash" viewBox="0 0 24 24">
			<path clip-rule="evenodd" d="M9.746 6.893c0-.188.098-.416.286-.606.188-.191.41-.287.59-.287h2.751c.18 0 .402.096.59.287.188.19.286.418.286.606v.894H9.746v-.894zm-1 .894v-.894c0-.508.246-.977.574-1.309.328-.332.793-.584 1.302-.584h2.751c.509 0 .974.252 1.302.584.327.332.574.8.574 1.31v.893H17.5a.5.5 0 0 1 0 1h-.417v8.44c0 .487-.244.928-.56 1.237-.318.309-.765.54-1.25.54h-6.55c-.487 0-.934-.231-1.25-.54-.317-.309-.561-.75-.561-1.236V8.786h-.417a.5.5 0 1 1 0-1H8.746zm.501 1H7.911v8.44c0 .153.083.35.258.52.175.17.383.258.552.258h6.55c.17 0 .378-.087.552-.257.175-.171.259-.368.259-.52V8.786H9.248zm1.271 1.682a.5.5 0 0 1 .5.5v4.645a.5.5 0 1 1-1 0v-4.645a.5.5 0 0 1 .5-.5zm3.5.5a.5.5 0 1 0-1 0v4.645a.5.5 0 1 0 1 0v-4.645z"></path>
		</symbol>
	
		<symbol id="icon-Tutorial" viewBox="0 0 24 24">
			<path d="M12.236 5.722c.798 0 1.488.146 2.071.437a3.209 3.209 0 0 1 1.387 1.197c.33.507.494 1.096.494 1.767 0 .722-.146 1.33-.437 1.824-.291.481-.71.868-1.254 1.159-.545.279-1.203.5-1.976.665v2.242h-.969v-2.755c.937-.215 1.666-.45 2.185-.703.532-.253.906-.564 1.121-.931.228-.367.342-.823.342-1.368 0-.532-.12-.994-.36-1.387a2.231 2.231 0 0 0-1.027-.931c-.443-.228-.994-.342-1.653-.342-.963 0-1.723.253-2.28.76-.557.494-.893 1.178-1.007 2.052l-.836-.456c.127-.659.367-1.229.722-1.71a3.46 3.46 0 0 1 1.425-1.121c.583-.266 1.267-.4 2.052-.4zm-.209 11.172c.253 0 .456.082.608.247.152.152.228.355.228.608a.888.888 0 0 1-.228.627c-.152.152-.355.228-.608.228-.266 0-.475-.076-.627-.228a.888.888 0 0 1-.228-.627c0-.253.076-.456.228-.608.152-.165.361-.247.627-.247z"></path>
		</symbol>
	
		<symbol id="icon-Warning" viewBox="0 0 24 24">
			<path fill-rule="evenodd" clip-rule="evenodd" d="M11.567 2.659C9.772 4.225 7.16 5.5 5 5.5a.5.5 0 0 0-.5.5v7c0 2.368.823 4.118 2.129 5.456 1.32 1.351 3.155 2.304 5.204 3.011l.012.004a.5.5 0 0 0 .333.006c2.043-.712 3.876-1.667 5.194-3.02C18.677 17.118 19.5 15.367 19.5 13V6a.5.5 0 0 0-.5-.5c-2.16 0-4.761-1.264-6.567-2.841a.67.67 0 0 0-.866 0zm-.652-.76a1.67 1.67 0 0 1 2.17 0l.004.005C14.784 3.385 17.161 4.5 19 4.5A1.5 1.5 0 0 1 20.5 6v7c0 2.632-.927 4.632-2.412 6.155-1.471 1.51-3.468 2.53-5.583 3.267l-.005.002a1.5 1.5 0 0 1-.998-.013c-2.12-.733-4.117-1.75-5.589-3.257C4.428 17.632 3.5 15.632 3.5 13V6A1.5 1.5 0 0 1 5 4.5c1.838 0 4.226-1.124 5.911-2.597l.004-.003zM12 7.5a.5.5 0 0 1 .5.5v4a.5.5 0 0 1-1 0V8a.5.5 0 0 1 .5-.5zm-.5 8.5a.5.5 0 0 1 .5-.5h.01a.5.5 0 1 1 0 1H12a.5.5 0 0 1-.5-.5z" fill="#1A1E21"></path>
		</symbol>
	
		<symbol id="icon-arrow" viewBox="0 0 16 16">
			<path d="M0 8h14.142m0 0L7.072.929M14.141 8l-7.07 7.071"></path>
		</symbol>
	
		<symbol id="icon-arrow-right" viewBox="0 0 24 24">
			<path clip-rule="evenodd" d="M16.086 12.677l-4.793 4.794.707.707 5.647-5.647.354-.354-.354-.353L12 6.177l-.707.707 4.793 4.793H6v1h10.086z"></path>
		</symbol>
	
		<symbol id="icon-close" viewBox="0 0 24 24">
			<path fill-rule="evenodd" clip-rule="evenodd" d="M8 7.293l.354.353 4.146 4.147 4.146-4.147.354-.353.707.707-.354.354-4.146 4.146 4.146 4.146.354.354-.707.707-.354-.354-4.146-4.146-4.146 4.146-.354.354L7.293 17l.353-.354 4.147-4.146-4.147-4.146L7.293 8 8 7.293z" fill="#1A1E21"></path>
		</symbol>
	
		<symbol id="icon-favourites" viewBox="0 0 24 24">
			<path d="M11.753 19.773L12 20l.246-.227a158.7 158.7 0 0 0 1.49-1.395c.415-.392.86-.812 1.321-1.243 2.56-2.392 3.378-3.215 4.259-4.45.94-1.318 1.619-2.27 1.676-3.684a4.785 4.785 0 0 0-1.161-3.393 4.81 4.81 0 0 0-2.683-1.533 5.01 5.01 0 0 0-2.996.401c-.84.377-1.578.94-2.152 1.644a5.885 5.885 0 0 0-2.152-1.644 5.014 5.014 0 0 0-2.996-.401A4.81 4.81 0 0 0 4.17 5.608 4.785 4.785 0 0 0 3.007 9c.058 1.414.737 2.366 1.677 3.684.88 1.235 1.699 2.058 4.259 4.45.461.431.906.851 1.321 1.243.563.532 1.07 1.011 1.49 1.395z"></path>
		</symbol>
	
		<symbol id="icon-gallery" viewBox="0 0 24 24">
			<path d="M2.5 5A2.5 2.5 0 0 1 5 2.5h14A2.5 2.5 0 0 1 21.5 5v14a2.5 2.5 0 0 1-2.5 2.5H5A2.5 2.5 0 0 1 2.5 19V5zM19 20.5a1.5 1.5 0 0 0 1.5-1.5v-3.793l-2.94-2.94a1.5 1.5 0 0 0-2.01-.099l-.11.1L7.207 20.5H19zM3.5 19A1.5 1.5 0 0 0 5 20.5h.793l8.94-8.94a2.501 2.501 0 0 1 3.535 0l2.232 2.233V5A1.5 1.5 0 0 0 19 3.5H5A1.5 1.5 0 0 0 3.5 5v14zm3-10a2.5 2.5 0 1 1 5 0 2.5 2.5 0 0 1-5 0zm1 0a1.5 1.5 0 1 0 3 0 1.5 1.5 0 0 0-3 0z" fill="#1A1E21"></path>
		</symbol>
	
		<symbol id="icon-pl-cards" viewBox="0 0 24 24">
			<path clip-rule="evenodd" d="M5 4.5a.5.5 0 0 0-.5.5v5a.5.5 0 0 0 .5.5h5a.5.5 0 0 0 .5-.5V5a.5.5 0 0 0-.5-.5H5zm.5 5v-4h4v4h-4zm-.5 4a.5.5 0 0 0-.5.5v5a.5.5 0 0 0 .5.5h5a.5.5 0 0 0 .5-.5v-5a.5.5 0 0 0-.5-.5H5zm.5 5v-4h4v4h-4zm8-13.5a.5.5 0 0 1 .5-.5h5a.5.5 0 0 1 .5.5v5a.5.5 0 0 1-.5.5h-5a.5.5 0 0 1-.5-.5V5zm1 .5v4h4v-4h-4zm-.5 8a.5.5 0 0 0-.5.5v5a.5.5 0 0 0 .5.5h5a.5.5 0 0 0 .5-.5v-5a.5.5 0 0 0-.5-.5h-5zm.5 5v-4h4v4h-4z"></path>
		</symbol>
	
		<symbol id="icon-pl-list" viewBox="0 0 24 24">
			<path clip-rule="evenodd" d="M5.253 6.253h13.495v1H5.253v-1zm0 5.248h13.495v1H5.253v-1zm.5 5.248h-.5v1h13.495v-1H5.753z"></path>
		</symbol>
	
		<symbol id="icon-repeat" viewBox="0 0 16 16">
			<g clip-path="url(#a)" fill="#000"><path d="M.381 6.112A4.864 4.864 0 0 1 2.137 3.98 4.832 4.832 0 0 1 4.85 3.15H6.23l-.319-.757a.255.255 0 0 1 .353-.323L9.669 3.87a.253.253 0 1 1 0 .449l-3.404 1.8a.254.254 0 0 1-.353-.324l.32-.758H4.848A2.954 2.954 0 0 0 2.39 6.344 2.944 2.944 0 0 0 1.885 8a2.952 2.952 0 0 0 1.308 2.457c.474.32 1.039.505 1.656.506v1.886A4.843 4.843 0 0 1 0 8c0-.667.136-1.307.381-1.888zM6.33 11.681l3.405-1.8a.254.254 0 0 1 .353.324l-.32.758h1.383a2.953 2.953 0 0 0 2.458-1.307c.32-.474.505-1.039.505-1.656a2.95 2.95 0 0 0-1.307-2.457 2.946 2.946 0 0 0-1.656-.506V3.151A4.843 4.843 0 0 1 16 8.001a4.84 4.84 0 0 1-2.137 4.02 4.832 4.832 0 0 1-2.712.828H9.77l.319.757a.254.254 0 0 1-.353.324l-3.404-1.8a.253.253 0 0 1-.135-.224c0-.094.051-.181.135-.225z"></path></g><defs><clipPath id="a"><path fill="#fff" transform="matrix(-1 0 0 1 16 0)" d="M0 0h16v16H0z"></path></clipPath></defs>
		</symbol>
	
		<symbol id="icon-reset" viewBox="0 0 13 15">
			<path clip-rule="evenodd" d="M.977 3.318a.5.5 0 0 1 .5-.5H3.728v-.894c0-.508.246-.977.574-1.309.328-.332.793-.584 1.302-.584h2.75c.51 0 .975.252 1.302.584.328.332.575.8.575 1.31v.893h2.251a.5.5 0 1 1 0 1h-.417v8.44c0 .487-.245.928-.56 1.237-.318.309-.765.54-1.25.54H3.704c-.486 0-.933-.231-1.25-.54-.316-.309-.56-.75-.56-1.237v-8.44h-.417a.5.5 0 0 1-.5-.5zm8.755.5H2.894v8.44c0 .153.083.35.258.52.174.17.383.258.552.258h6.55c.17 0 .378-.088.552-.258.175-.17.259-.367.259-.52v-8.44H9.732zm-5.004-1h4.503v-.894c0-.188-.098-.416-.286-.606-.189-.191-.411-.287-.59-.287H5.604c-.18 0-.402.096-.59.287-.188.19-.286.418-.286.606v.894zM5.5 5.5A.5.5 0 0 1 6 6v4.645a.5.5 0 0 1-1 0V6a.5.5 0 0 1 .5-.5zM9 6a.5.5 0 0 0-1 0v4.645a.5.5 0 0 0 1 0V6z"></path>
		</symbol>
	
		<symbol id="icon-volume-max" viewBox="0 0 24 24">
			<path d="M3.003 11.716c.04-1.843.059-2.764.697-3.552.117-.144.288-.315.432-.431.785-.636 1.822-.636 3.897-.636.741 0 1.112 0 1.465-.092.073-.02.146-.042.218-.067.345-.121.654-.33 1.273-.746 2.442-1.645 3.662-2.467 4.687-2.11.196.069.387.168.556.29.886.635.953 2.115 1.088 5.073.05 1.096.084 2.034.084 2.555 0 .521-.034 1.46-.084 2.555-.134 2.958-.202 4.438-1.088 5.073-.17.122-.36.221-.556.29-1.025.357-2.245-.465-4.687-2.11-.619-.416-.928-.625-1.273-.746a2.815 2.815 0 0 0-.218-.067c-.353-.092-.724-.092-1.465-.092-2.075 0-3.112 0-3.897-.636a3.21 3.21 0 0 1-.432-.43c-.638-.79-.658-1.71-.697-3.553a13.443 13.443 0 0 1 0-.569z"></path><path clip-rule="evenodd" d="M19.45 8.416a.712.712 0 0 1 .98.286l-.63.357.63-.357v.002l.002.003.004.007.01.018a1.975 1.975 0 0 1 .098.224c.056.144.126.349.193.619.136.54.263 1.337.263 2.425 0 1.089-.127 1.886-.263 2.426-.067.27-.137.475-.193.619a2.921 2.921 0 0 1-.099.223l-.009.018-.004.007-.001.003v.002s-.002.001-.631-.356l.63.357a.712.712 0 0 1-.98.286.744.744 0 0 1-.284-.991l.005-.01c.006-.014.019-.043.035-.085.034-.086.084-.23.137-.438.104-.416.217-1.09.217-2.06 0-.971-.113-1.645-.217-2.06a3.657 3.657 0 0 0-.172-.524l-.005-.01a.744.744 0 0 1 .284-.991z"></path>
		</symbol>
	
		<symbol id="icon-volume-xmark" viewBox="0 0 24 24">
			<path d="M16 9.5l5 5m0-5l-5 5M4.6 9h.901c.551 0 .827 0 1.082-.069a2 2 0 0 0 .631-.295c.216-.152.393-.364.746-.787l2.625-3.151c.436-.523.654-.785.844-.812a.5.5 0 0 1 .442.16C12 4.19 12 4.53 12 5.21v13.58c0 .681 0 1.021-.129 1.164a.5.5 0 0 1-.442.16c-.19-.027-.408-.289-.844-.811L7.96 16.15c-.353-.423-.53-.634-.746-.787a1.999 1.999 0 0 0-.631-.295C6.328 15 6.053 15 5.5 15H4.6c-.56 0-.84 0-1.054-.109a1 1 0 0 1-.437-.437C3 14.24 3 13.96 3 13.4v-2.8c0-.56 0-.84.109-1.054a1 1 0 0 1 .437-.437C3.76 9 4.04 9 4.6 9z" stroke="#000" stroke-width="2" stroke-linecap="round" stroke-linejoin="round"></path>
		</symbol>
	
</svg>
