<svg width="24" height="24" viewBox="0 0 24 24" fill="none" xmlns="http://www.w3.org/2000/svg">
<path fill-rule="evenodd" clip-rule="evenodd" d="M17.2906 4.00115C17.5036 4.01295 17.7015 4.11489 17.8348 4.28148L19.8347 6.78127C20.0934 7.10471 20.041 7.57668 19.7175 7.83544C19.3941 8.0942 18.9221 8.04177 18.6634 7.71832L17.8379 6.68655C17.5821 9.27323 17.219 11.2638 16.7815 12.7571C16.2539 14.5576 15.5786 15.7764 14.7148 16.3679C14.2576 16.681 13.7531 16.8132 13.2379 16.7539C12.7385 16.6965 12.2915 16.4667 11.9102 16.1663C11.1596 15.5747 10.5319 14.6062 10.0642 13.5539C9.46125 12.1972 8.8928 11.7261 8.53712 11.6168C8.26882 11.5343 7.88484 11.6016 7.3827 12.1896C6.88524 12.7721 6.40872 13.7331 6.05793 14.9814C5.71037 16.2182 5.5 17.6886 5.5 19.2488C5.5 19.663 5.16421 19.9988 4.75 19.9988C4.33579 19.9988 4 19.663 4 19.2488C4 17.5593 4.2271 15.9518 4.61387 14.5756C4.9974 13.2108 5.55206 12.0235 6.24202 11.2155C6.9273 10.413 7.88698 9.84756 8.97796 10.183C9.98156 10.4916 10.788 11.4891 11.435 12.9447C11.8561 13.8922 12.3602 14.6111 12.8387 14.9882C13.072 15.1721 13.2638 15.247 13.4094 15.2638C13.5391 15.2787 13.6856 15.2547 13.8673 15.1303C14.2811 14.8469 14.8349 14.0659 15.342 12.3353C15.7352 10.9936 16.0771 9.16339 16.3256 6.73423L16.3127 6.74711L16.3049 6.7549L16.2971 6.76265L16.2894 6.77036L16.2818 6.77804L16.2741 6.78568L16.2665 6.79327L16.259 6.80083L16.2514 6.80835L16.2217 6.83805L16.2144 6.84538L16.2071 6.85267L16.1999 6.85992L16.1927 6.86714L16.1783 6.88145L16.1642 6.89562L16.1363 6.92351L16.1294 6.93039L16.1226 6.93723L16.1158 6.94404L16.109 6.95081L16.0956 6.96424L16.0889 6.9709L16.0823 6.97752L16.0691 6.99066L16.0626 6.99718L16.0561 7.00366L16.0497 7.0101L16.0433 7.01651L16.0369 7.02288L16.0306 7.02922L16.018 7.04179L16.0118 7.04802L16.0056 7.05422L15.9994 7.06038L15.9933 7.06651L15.9811 7.07866L15.9339 7.12589L15.9282 7.13164L15.9224 7.13735L15.9167 7.14304L15.9111 7.14869L15.8999 7.15989L15.8944 7.16544L15.8888 7.17095L15.8671 7.19269L15.8564 7.20337L15.8511 7.20865L15.8459 7.21391L15.7661 7.29369L15.6941 7.36564L15.6773 7.38245L15.6691 7.39069L15.665 7.39476L15.661 7.3988L15.6296 7.43016L15.6 7.45975L15.5721 7.48764L15.5688 7.49101L15.5654 7.49435L15.5588 7.50096L15.5459 7.51387L15.5213 7.5385C15.5071 7.55267 15.5127 7.54707 15.5183 7.54147L15.5154 7.54441L15.5096 7.55022L15.5038 7.55594L15.4982 7.56157L15.4872 7.57253L15.4819 7.57788L15.4793 7.58052L15.4767 7.58313L15.4664 7.59336L15.4565 7.60324L15.447 7.61276L15.4424 7.61739L15.4378 7.62194L15.4334 7.6264L15.429 7.63078L15.4268 7.63294L15.4247 7.63507L15.4205 7.63929L15.4045 7.65533L15.3897 7.67012L15.3827 7.67706L15.3761 7.6837L15.3523 7.70746L15.3328 7.72701L15.3306 7.72918L15.3295 7.73024L15.3285 7.73128L15.3244 7.73533L15.3206 7.73915L15.317 7.74275L15.3105 7.74932L15.3089 7.75083L15.3075 7.7523L15.3047 7.75508L15.2886 7.77115L15.2814 7.77842L15.28 7.77977L15.28 7.77982L15.2799 7.77986L15.2799 7.7799L15.2798 7.77994L15.2797 7.78005L15.2797 7.78011L15.2796 7.78013C14.9868 8.07302 14.5119 8.07302 14.219 7.78012C13.9261 7.48723 13.9261 7.01235 14.219 6.71945L14.219 6.71944L14.2191 6.71938L14.2194 6.7191L14.2207 6.71775L14.228 6.71048L14.244 6.69441L14.2564 6.68208L14.2721 6.66634L14.2917 6.64679L14.303 6.63546L14.3045 6.63397L14.306 6.63246L14.3075 6.63094L14.3091 6.62939L14.3154 6.62303L14.3772 6.56127L14.569 6.36949L14.6003 6.33814L14.6335 6.30498L14.6421 6.2964L14.6508 6.2877L14.6552 6.28331L14.6596 6.27889L14.6685 6.26996L14.6867 6.25173L14.7054 6.23303L14.7102 6.22827L14.715 6.22349L14.7198 6.21868L14.7246 6.21383L14.7443 6.19414L14.7493 6.18914L14.7544 6.18411L14.7594 6.17904L14.7645 6.17394L14.7748 6.16366L14.78 6.15847L14.7852 6.15324L14.8282 6.11029L14.8732 6.06522L14.8849 6.05362L14.8966 6.04188L14.9085 6.03L14.9145 6.02401L14.9205 6.01799L14.9449 5.99355L14.9699 5.96855L14.9826 5.95584L14.9955 5.94299L15.0216 5.91685L15.0483 5.89014L15.0756 5.86284L15.132 5.80647L15.1392 5.79925L15.1465 5.792L15.1538 5.78471L15.1611 5.77738L15.1908 5.74768L15.1983 5.74016L15.2059 5.73261L15.2211 5.71737L15.2365 5.70198L15.252 5.68644L15.2836 5.65487L15.2996 5.63886L15.3077 5.63079L15.3158 5.62268L15.3821 5.55635L15.3906 5.54788L15.3991 5.53937L15.4077 5.53081L15.4163 5.52221L15.4511 5.48742L15.4865 5.45195L15.5045 5.43397L15.5136 5.42491L15.5227 5.41581L15.5595 5.379L15.5688 5.36969L15.5781 5.36033L15.597 5.3415L15.6065 5.33202L15.616 5.32249L15.6352 5.30331L15.6741 5.26442L15.6938 5.24471L15.7137 5.22483L15.7237 5.21482L15.7337 5.20476L15.7438 5.19467L15.754 5.18452L15.8367 5.10176L15.8579 5.08062L15.8685 5.06998L15.8792 5.05929L15.9224 5.01609L15.9663 4.97214L15.9886 4.94989L15.9998 4.93869L16.011 4.92744L16.0565 4.88199L16.0795 4.85899L16.0911 4.84741L16.1027 4.83578L16.1974 4.74106L16.2216 4.71689L16.2338 4.70474L16.246 4.69253L16.2953 4.64322L16.7188 4.21967C16.8697 4.06882 17.0776 3.98935 17.2906 4.00115Z" />
</svg>
