<svg width="24" height="24" viewBox="0 0 24 24" fill="none" xmlns="http://www.w3.org/2000/svg">
<path d="M9.1114 14.4158L4.37264 10.5982C3.87579 10.198 3.87579 9.44104 4.37264 9.04076L9.1114 5.22315C9.76561 4.69611 10.7388 5.16179 10.7388 6.00188V7.78884C10.9961 7.7273 12.2439 7.715 15.177 8.15805C18.8434 8.71186 20.0012 11.2963 20.0012 13.1424C20.0012 14.9884 18.6504 16.6499 17.6856 17.5729C16.7207 18.4959 16.3348 17.7575 16.5278 17.0191C17.1067 14.25 16.9137 13.6962 15.5629 12.5886C14.4823 11.7025 11.8966 11.7271 10.7388 11.8501V13.6371C10.7388 14.4772 9.76561 14.9429 9.1114 14.4158Z" />
</svg>
