<svg width="24" height="24" viewBox="0 0 24 24" fill="none" xmlns="http://www.w3.org/2000/svg">
<path fill-rule="evenodd" clip-rule="evenodd" d="M9 4.5C9.27614 4.5 9.5 4.72386 9.5 5V8C9.5 8.82843 8.82843 9.5 8 9.5H5C4.72386 9.5 4.5 9.27614 4.5 9C4.5 8.72386 4.72386 8.5 5 8.5H8C8.27614 8.5 8.5 8.27614 8.5 8V5C8.5 4.72386 8.72386 4.5 9 4.5ZM15 4.5C15.2761 4.5 15.5 4.72386 15.5 5V8C15.5 8.27614 15.7239 8.5 16 8.5H19C19.2761 8.5 19.5 8.72386 19.5 9C19.5 9.27614 19.2761 9.5 19 9.5H16C15.1716 9.5 14.5 8.82843 14.5 8V5C14.5 4.72386 14.7239 4.5 15 4.5ZM4.5 15C4.5 14.7239 4.72386 14.5 5 14.5H8C8.82843 14.5 9.5 15.1716 9.5 16V19C9.5 19.2761 9.27614 19.5 9 19.5C8.72386 19.5 8.5 19.2761 8.5 19V16C8.5 15.7239 8.27614 15.5 8 15.5H5C4.72386 15.5 4.5 15.2761 4.5 15ZM16 15.5C15.7239 15.5 15.5 15.7239 15.5 16V19C15.5 19.2761 15.2761 19.5 15 19.5C14.7239 19.5 14.5 19.2761 14.5 19V16C14.5 15.1716 15.1716 14.5 16 14.5H19C19.2761 14.5 19.5 14.7239 19.5 15C19.5 15.2761 19.2761 15.5 19 15.5H16Z" fill="#000000"/>
</svg>
