<svg width="24" height="24" viewBox="0 0 24 24" fill="none" xmlns="http://www.w3.org/2000/svg">
<path d="M5.00003 4.5C4.72389 4.5 4.50003 4.72386 4.50003 5V10C4.50003 10.2761 4.72389 10.5 5.00003 10.5H10C10.2762 10.5 10.5 10.2761 10.5 10V5C10.5 4.72386 10.2762 4.5 10 4.5H5.00003ZM5.50003 9.5V5.5H9.50003V9.5H5.50003ZM5.00003 13.5C4.72389 13.5 4.50003 13.7239 4.50003 14V19C4.50003 19.2761 4.72389 19.5 5.00003 19.5H10C10.2762 19.5 10.5 19.2761 10.5 19V14C10.5 13.7239 10.2762 13.5 10 13.5H5.00003ZM5.50003 18.5V14.5H9.50003V18.5H5.50003ZM13.5 5C13.5 4.72386 13.7239 4.5 14 4.5H19C19.2762 4.5 19.5 4.72386 19.5 5V10C19.5 10.2761 19.2762 10.5 19 10.5H14C13.7239 10.5 13.5 10.2761 13.5 10V5ZM14.5 5.5V9.5H18.5V5.5H14.5ZM14 13.5C13.7239 13.5 13.5 13.7239 13.5 14V19C13.5 19.2761 13.7239 19.5 14 19.5H19C19.2762 19.5 19.5 19.2761 19.5 19V14C19.5 13.7239 19.2762 13.5 19 13.5H14ZM14.5 18.5V14.5H18.5V18.5H14.5Z"/>
</svg>
