<svg width="24" height="24" viewBox="0 0 24 24" fill="none" xmlns="http://www.w3.org/2000/svg">
<path fill-rule="evenodd" clip-rule="evenodd" d="M6.5 9.75C6.5 7.95507 7.95507 6.5 9.75 6.5C11.5449 6.5 13 7.95507 13 9.75C13 11.5449 11.5449 13 9.75 13C7.95507 13 6.5 11.5449 6.5 9.75ZM9.75 5C7.12665 5 5 7.12665 5 9.75C5 12.3734 7.12665 14.5 9.75 14.5C12.3734 14.5 14.5 12.3734 14.5 9.75C14.5 7.12665 12.3734 5 9.75 5ZM16.7382 10.6273C16.3501 10.4826 15.9182 10.68 15.7735 11.0681C15.6288 11.4562 15.8261 11.8881 16.2142 12.0328C16.7263 12.2237 17.1819 12.5407 17.539 12.9543C17.8961 13.368 18.1432 13.865 18.2573 14.3994C18.3714 14.9338 18.3489 15.4884 18.1919 16.0118C18.0349 16.5353 17.7484 17.0106 17.359 17.394C16.9696 17.7774 16.4898 18.0564 15.964 18.2052C15.4382 18.3541 14.8833 18.3679 14.3507 18.2455C13.8182 18.123 13.3251 17.8683 12.917 17.5047C12.509 17.1412 12.1992 16.6807 12.0163 16.1657C11.8777 15.7754 11.4489 15.5714 11.0586 15.71C10.6682 15.8486 10.4642 16.2774 10.6028 16.6677C10.8701 17.4204 11.3229 18.0935 11.9192 18.6247C12.5156 19.156 13.2363 19.5284 14.0147 19.7073C14.793 19.8863 15.604 19.8661 16.3725 19.6485C17.141 19.431 17.8422 19.0233 18.4114 18.4629C18.9805 17.9026 19.3992 17.2078 19.6286 16.4428C19.8581 15.6778 19.891 14.8673 19.7242 14.0862C19.5574 13.3051 19.1964 12.5787 18.6745 11.9741C18.1525 11.3695 17.4866 10.9063 16.7382 10.6273ZM8.33301 8.41669C8.33301 8.00247 8.66879 7.66669 9.08301 7.66669H9.74967C10.1639 7.66669 10.4997 8.00247 10.4997 8.41669V11.0834C10.4997 11.4976 10.1639 11.8334 9.74967 11.8334C9.33546 11.8334 8.99967 11.4976 8.99967 11.0834V9.16211C8.62468 9.12066 8.33301 8.80273 8.33301 8.41669ZM16.0906 13.1434C15.7998 12.8484 15.3249 12.845 15.03 13.1358C14.7543 13.4077 14.7333 13.8403 14.9693 14.1365L13.6129 15.4929C13.32 15.7858 13.32 16.2607 13.6129 16.5536C13.9058 16.8465 14.3806 16.8465 14.6735 16.5536L16.5535 14.6736C16.8449 14.3822 16.8466 13.9102 16.5573 13.6167L16.0906 13.1434Z" />
</svg>
