<svg xmlns="http://www.w3.org/2000/svg" width="24" height="24" viewBox="0 0 24 24" fill="none">
<path fill-rule="evenodd" clip-rule="evenodd" d="M12.0801 4.24998C12.3562 4.24998 12.5801 4.47383 12.5801 4.74998V5.49803C13.3064 5.94323 14.1779 6.38074 15.0483 6.71651C16.0214 7.09187 16.9502 7.32323 17.6567 7.32323H19.25C19.5261 7.32323 19.75 7.54708 19.75 7.82323C19.75 8.09937 19.5261 8.32323 19.25 8.32323H17.6567C16.7699 8.32323 15.707 8.04241 14.6884 7.6495C13.9614 7.36906 13.2351 7.02292 12.5801 6.65649V18.5909H15.665C15.9412 18.5909 16.165 18.8148 16.165 19.0909C16.165 19.3671 15.9412 19.5909 15.665 19.5909H12.0873L12.0801 19.591L12.0728 19.5909H8.49511C8.21897 19.5909 7.99511 19.3671 7.99511 19.0909C7.99511 18.8148 8.21897 18.5909 8.49511 18.5909H11.5801V6.65649C10.9251 7.02291 10.1987 7.36906 9.47172 7.6495C8.45315 8.04241 7.39025 8.32323 6.50347 8.32323H4.91015C4.63401 8.32323 4.41015 8.09937 4.41015 7.82323C4.41015 7.54708 4.63401 7.32323 4.91015 7.32323H6.50347C7.21 7.32323 8.13875 7.09187 9.11182 6.71651C9.98226 6.38074 10.8537 5.94323 11.5801 5.49803V4.74998C11.5801 4.47383 11.8039 4.24998 12.0801 4.24998ZM16.8595 8.34763C17.0679 8.34762 17.2545 8.4769 17.3277 8.67206L19.7181 15.0459C19.7961 15.2538 19.7276 15.4883 19.5499 15.6215C18.7738 16.2035 17.83 16.5181 16.8599 16.5181C15.8899 16.5181 14.9461 16.2035 14.17 15.6215C13.9923 15.4883 13.9238 15.2539 14.0018 15.046L16.3914 8.67211C16.4645 8.47695 16.6511 8.34764 16.8595 8.34763ZM16.8596 10.2718L15.0768 15.0271C15.6142 15.3473 16.23 15.5181 16.8599 15.5181C17.4899 15.5181 18.1057 15.3473 18.643 15.0272L16.8596 10.2718ZM7.2997 8.34763C7.50813 8.34762 7.6947 8.4769 7.76789 8.67206L10.1583 15.0459C10.2362 15.2538 10.1677 15.4883 9.99008 15.6215C9.21399 16.2035 8.27014 16.5181 7.30013 16.5181C6.33011 16.5181 5.38626 16.2035 4.61017 15.6215C4.43253 15.4883 4.36403 15.2539 4.44197 15.046L6.83155 8.67211C6.90472 8.47695 7.09127 8.34764 7.2997 8.34763ZM7.29981 10.2718L5.517 15.0271C6.05435 15.3473 6.67014 15.5181 7.30013 15.5181C7.9301 15.5181 8.54588 15.3473 9.08322 15.0272L7.29981 10.2718Z" fill="none"/>
</svg>
