<svg width="80" height="80" viewBox="0 0 80 80" fill="none" xmlns="http://www.w3.org/2000/svg">
  <circle cx="40" cy="40" r="40" fill="#1A1E21"/>
  <path d="M45.0575 39.7471L49.6093 30.1379L40.2529 39.7471H45.0575Z" fill="#005450" stroke="#005450"/>
  <path d="M35.1954 40.2529L30.6437 49.8621L40 40.2529H35.1954Z" fill="#005450" stroke="#005450"/>
  <path d="M35.1954 39.7471L30.6437 30.1379L40 39.7471H35.1954Z" fill="#005450" stroke="#005450"/>
  <path d="M40.0001 18V40L36.9656 36.9655L40.0001 18Z" fill="#005450" stroke="#005450"/>
  <path d="M62 40L40 40L43.0345 36.9655L62 40Z" fill="#005450" stroke="#005450"/>
  <path d="M39.9999 62V40L43.0344 43.0345L39.9999 62Z" fill="#005450" stroke="#005450"/>
  <path d="M18 40L40 40L36.9655 43.0345L18 40Z" fill="#005450" stroke="#005450"/>
  <path d="M45.0575 40.2529L49.6093 49.8621L40.2529 40.2529H45.0575Z" stroke="#005450"/>
  <path d="M40.2529 35.4483L49.6093 30.1379L40.2529 39.4942V35.4483Z" fill="#FAFBFE" stroke="#005450"/>
  <path d="M40 44.5517L30.6437 49.8621L40 40.5058V44.5517Z" fill="#FAFBFE" stroke="#005450"/>
  <path d="M40 35.4483L30.6437 30.1379L40 39.4942V35.4483Z" fill="#FAFBFE" stroke="#005450"/>
  <path d="M45.0575 40.2529L49.6093 49.8621L40.2529 40.2529H45.0575Z" fill="#005450" stroke="#005450"/>
  <path d="M39.9999 18V40L43.0344 36.9655L39.9999 18Z" fill="#FAFBFE" stroke="#005450"/>
  <path d="M62 40L40 40L43.0345 43.0345L62 40Z" fill="#FAFBFE" stroke="#005450"/>
  <path d="M40.0001 62V40L36.9656 43.0345L40.0001 62Z" fill="#FAFBFE" stroke="#005450"/>
  <path d="M18 40L40 40L36.9655 36.9655L18 40Z" fill="#FAFBFE" stroke="#005450"/>
  <path d="M40.2529 44.5517L49.6093 49.8621L40.2529 40.5058V44.5517Z" fill="#FAFBFE" stroke="#005450"/>
  <path d="M36.2168 13.5L36.2168 4.04199L37.7783 4.04199L41.3901 9.76123C41.5002 9.93896 41.6504 10.1908 41.8408 10.5166C42.0312 10.8424 42.2217 11.1725 42.4121 11.5068C42.3994 11.1641 42.3888 10.8171 42.3804 10.4658C42.3761 10.1104 42.374 9.84587 42.374 9.67236L42.374 4.04199L43.7896 4.04199L43.7896 13.5L42.2153 13.5L38.9844 8.39014C38.8532 8.18278 38.6628 7.87386 38.4131 7.46338C38.1676 7.04867 37.8883 6.57259 37.5752 6.03516C37.5964 6.58952 37.609 7.06771 37.6133 7.46973C37.6217 7.86751 37.626 8.1722 37.626 8.38379L37.626 13.5L36.2168 13.5Z" fill="#FAFBFE"/>
  <path d="M40.0635 75.6523C38.9294 75.6523 38.0343 75.3667 37.3784 74.7954C36.7267 74.2199 36.4009 73.4328 36.4009 72.4341L37.8101 72.4341C37.8143 73.0562 38.0132 73.5428 38.4067 73.894C38.8045 74.2453 39.3568 74.4209 40.0635 74.4209C40.7067 74.4209 41.2209 74.2855 41.606 74.0146C41.9953 73.7396 42.1899 73.3714 42.1899 72.9102C42.1899 72.5462 42.0503 72.2521 41.771 72.0278C41.4959 71.7993 41.0304 71.6068 40.3745 71.4502L39.3398 71.2026C38.3835 70.9741 37.6852 70.6567 37.2451 70.2505C36.8092 69.84 36.5913 69.3068 36.5913 68.6509C36.5913 68.0965 36.731 67.612 37.0103 67.1973C37.2896 66.7826 37.681 66.4609 38.1846 66.2324C38.6924 66.0039 39.2848 65.8896 39.9619 65.8896C40.9818 65.8896 41.7922 66.1563 42.3931 66.6895C42.9982 67.2227 43.3156 67.9505 43.3452 68.873L41.9805 68.873C41.9466 68.3271 41.7477 67.8997 41.3838 67.5908C41.0199 67.2777 40.5396 67.1211 39.9429 67.1211C39.3716 67.1211 38.904 67.2586 38.54 67.5337C38.1761 67.8045 37.9941 68.1536 37.9941 68.5811C37.9941 68.9238 38.1338 69.2031 38.4131 69.4189C38.6924 69.6305 39.1558 69.8146 39.8032 69.9712L40.8252 70.2124C41.7731 70.4367 42.4714 70.7604 42.9199 71.1836C43.3727 71.6068 43.5991 72.1569 43.5991 72.834C43.5991 73.401 43.4531 73.8962 43.1611 74.3193C42.8691 74.7425 42.4587 75.0705 41.9297 75.3032C41.4007 75.536 40.7786 75.6523 40.0635 75.6523Z" fill="#FAFBFE"/>
  <path d="M7.89453 44.5L5.33008 35.042L6.79639 35.042L8.18652 40.5454C8.28809 40.9517 8.3833 41.36 8.47217 41.7705C8.56103 42.1768 8.64779 42.5851 8.73242 42.9956C8.81706 42.5851 8.90592 42.1768 8.99902 41.7705C9.09212 41.36 9.19157 40.9517 9.29736 40.5454L10.7319 35.042L12.2744 35.042L13.6963 40.5454C13.8994 41.3494 14.0877 42.1556 14.2612 42.9639C14.3459 42.5618 14.4326 42.1598 14.5215 41.7578C14.6146 41.3516 14.7098 40.9474 14.8071 40.5454L16.1973 35.042L17.6699 35.042L15.0928 44.5L13.4805 44.5L11.9253 38.7173C11.8491 38.4253 11.7751 38.127 11.7031 37.8223C11.6354 37.5133 11.5656 37.1981 11.4937 36.8765C11.4259 37.1981 11.3582 37.5133 11.2905 37.8223C11.2228 38.127 11.1488 38.4253 11.0684 38.7173L9.52588 44.5L7.89453 44.5Z" fill="#FAFBFE"/>
  <path d="M67.8633 44.5L67.8633 35.042L74.2236 35.042L74.2236 36.2798L69.2725 36.2798L69.2725 39.0664L73.8555 39.0664L73.8555 40.2915L69.2725 40.2915L69.2725 43.2622L74.2236 43.2622L74.2236 44.5L67.8633 44.5Z" fill="#FAFBFE"/>
</svg>
