<svg xmlns="http://www.w3.org/2000/svg" width="24" height="24" viewBox="0 0 24 24" fill="none">
<path fill-rule="evenodd" clip-rule="evenodd" d="M5.5091 5.5091C5.675 5.3432 5.9 5.25 6.13462 5.25H12.3654C12.6 5.25 12.825 5.3432 12.9909 5.5091C13.1568 5.675 13.25 5.9 13.25 6.13462V6.82692C13.25 7.10307 13.4739 7.32692 13.75 7.32692C14.0261 7.32692 14.25 7.10307 14.25 6.82692V6.13462C14.25 5.63478 14.0514 5.15542 13.698 4.80199C13.3446 4.44856 12.8652 4.25 12.3654 4.25H6.13462C5.63478 4.25 5.15543 4.44856 4.80199 4.80199C4.44856 5.15543 4.25 5.63478 4.25 6.13462V12.3654C4.25 12.8652 4.44856 13.3446 4.80199 13.698C5.15542 14.0514 5.63478 14.25 6.13462 14.25H6.82692C7.10307 14.25 7.32692 14.0261 7.32692 13.75C7.32692 13.4739 7.10307 13.25 6.82692 13.25H6.13462C5.9 13.25 5.675 13.1568 5.5091 12.9909C5.3432 12.825 5.25 12.6 5.25 12.3654V6.13462C5.25 5.9 5.3432 5.675 5.5091 5.5091ZM10.25 11.1346C10.25 10.6461 10.6461 10.25 11.1346 10.25H17.3654C17.8539 10.25 18.25 10.6461 18.25 11.1346V17.3654C18.25 17.8539 17.8539 18.25 17.3654 18.25H11.1346C10.6461 18.25 10.25 17.8539 10.25 17.3654V11.1346ZM11.1346 9.25C10.0938 9.25 9.25 10.0938 9.25 11.1346V17.3654C9.25 18.4062 10.0938 19.25 11.1346 19.25H17.3654C18.4062 19.25 19.25 18.4062 19.25 17.3654V11.1346C19.25 10.0938 18.4062 9.25 17.3654 9.25H11.1346Z" fill="#1A1E21"/>
</svg>
