<svg width="24" height="24" viewBox="0 0 24 24" fill="none" xmlns="http://www.w3.org/2000/svg">
<path fill-rule="evenodd" clip-rule="evenodd" d="M7.8742 2.49994C7.91525 2.49996 7.95717 2.49998 8 2.49998H13H13.0052L13.0052 2.50001C13.2956 2.50305 13.5233 2.51372 13.7543 2.56846L13.758 2.56934L13.758 2.56936C14.0102 2.63117 14.2536 2.73064 14.4786 2.86886C14.7331 3.02509 14.9462 3.23897 15.2553 3.54908C15.2671 3.56086 15.2789 3.57277 15.291 3.58483C15.291 3.58486 15.291 3.5849 15.2911 3.58494L18.4165 6.70937L18.4166 6.70943C18.4301 6.72298 18.4435 6.73634 18.4567 6.74952C18.7642 7.05684 18.9758 7.26833 19.1311 7.5214L19.1316 7.52226C19.269 7.74703 19.3686 7.98896 19.4306 8.24196L19.4322 8.24834L19.4321 8.24835C19.485 8.47678 19.4969 8.70291 19.5 8.99472L19.5 8.99998H19.5V17.804V17.8255C19.5 18.3662 19.5 18.8023 19.4711 19.1555C19.4413 19.5194 19.3783 19.8389 19.2275 20.1349L19.2273 20.1354C18.9874 20.6052 18.605 20.9876 18.1339 21.2275C17.8382 21.3784 17.5186 21.4413 17.1549 21.4711C16.8016 21.5 16.3653 21.5 15.8245 21.5H15.803H8.197C7.63945 21.5 7.18629 21.4937 6.82157 21.4609C6.4601 21.4284 6.13803 21.3666 5.865 21.2275C5.39462 20.9878 5.01218 20.6054 4.7725 20.135L4.77246 20.1349C4.61336 19.8225 4.55594 19.4102 4.52836 18.9968C4.5 18.5716 4.5 18.0629 4.5 17.5137V17.5V6.19998L4.5 6.17858C4.5 5.63674 4.49999 5.1997 4.52891 4.84576C4.55869 4.48133 4.6216 4.16124 4.77246 3.86505C5.0121 3.39457 5.39459 3.01208 5.86507 2.77245L6.092 3.21798L5.86507 2.77245C6.40139 2.49927 6.88446 2.49949 7.8742 2.49994ZM8 3.49998C6.83556 3.49998 6.61637 3.51202 6.31893 3.66352L6.31893 3.66352C6.03671 3.80726 5.80728 4.0367 5.66354 4.31891L5.66354 4.31891C5.5964 4.45072 5.55031 4.62464 5.52559 4.9272C5.50039 5.23562 5.5 5.63173 5.5 6.19998V17.5C5.5 18.0656 5.50024 18.5419 5.52614 18.9302C5.55306 19.3338 5.60464 19.5654 5.66354 19.681C5.80735 19.9632 6.03679 20.1927 6.319 20.3365C6.42228 20.3891 6.59371 20.4363 6.91116 20.4649C7.22536 20.4932 7.63655 20.5 8.197 20.5H15.803C16.3703 20.5 16.7656 20.4996 17.0733 20.4744C17.3752 20.4497 17.5485 20.4036 17.6796 20.3367L17.6801 20.3364C17.9629 20.1924 18.1924 19.9629 18.3365 19.6809C18.4037 19.549 18.4497 19.3755 18.4744 19.0739C18.4996 18.7663 18.5 18.3713 18.5 17.804V9.49998H16.197H16.1756C15.6348 9.49999 15.1982 9.49999 14.8446 9.47107C14.4806 9.44129 14.1605 9.37837 13.8646 9.2273C13.3944 8.98761 13.0121 8.60525 12.7725 8.13498L12.7725 8.13491C12.6216 7.83872 12.5587 7.51864 12.5289 7.1542C12.5 6.80026 12.5 6.36322 12.5 5.82137V5.79998V3.49998H8ZM13.5 3.53617C13.5074 3.53775 13.5147 3.53938 13.5219 3.54108C13.6769 3.57927 13.8228 3.63959 13.9552 3.72097L13.9554 3.7211C14.0952 3.80692 14.2216 3.92862 14.5829 4.29102L14.5835 4.29159L17.7094 7.41654C18.0719 7.77896 18.1927 7.90433 18.2787 8.04429C18.3606 8.1784 18.4206 8.32317 18.4586 8.47674C18.4603 8.4844 18.462 8.49213 18.4636 8.49998H16.197C15.6297 8.49998 15.2342 8.49959 14.9261 8.4744C14.6239 8.44967 14.4505 8.4036 14.3194 8.33666L14.319 8.33648C14.0368 8.19269 13.8073 7.96325 13.6635 7.68105M13.5 3.53617V5.79998C13.5 6.36823 13.5004 6.76435 13.5256 7.07276C13.5503 7.37527 13.5964 7.54918 13.6635 7.68098M12 11.5C12.2761 11.5 12.5 11.7238 12.5 12V17.0657L14.7226 15.584C14.9524 15.4308 15.2628 15.4929 15.416 15.7226C15.5692 15.9524 15.5071 16.2628 15.2774 16.416L12.2774 18.416C12.1094 18.528 11.8906 18.528 11.7227 18.416L8.72265 16.416C8.49289 16.2628 8.4308 15.9524 8.58397 15.7226C8.73715 15.4929 9.04759 15.4308 9.27735 15.584L11.5 17.0657V12C11.5 11.7238 11.7239 11.5 12 11.5Z"/>
</svg>
