<svg viewBox="0 0 24 24" fill="none" xmlns="http://www.w3.org/2000/svg">
    <path d="M11.7534 19.7735L11.9999 20L12.2464 19.7735C12.6651 19.3891 13.1731 18.9096 13.7358 18.3784C14.1507 17.9864 14.5957 17.5664 15.0571 17.1351C17.6169 14.7428 18.4354 13.9196 19.316 12.6849C20.2557 11.3673 20.9346 10.4153 20.9924 9.0005C21.0618 7.76811 20.6469 6.55595 19.831 5.60772C19.1387 4.82072 18.1939 4.28106 17.1477 4.07491C16.1304 3.89716 15.0811 4.03764 14.1517 4.476C13.3113 4.85314 12.5742 5.41629 11.9999 6.12001C11.4255 5.41629 10.6884 4.85314 9.84804 4.476C8.91862 4.03787 7.86937 3.8974 6.85205 4.07491C5.80583 4.28106 4.8611 4.82072 4.16873 5.60772C3.35287 6.55595 2.93794 7.76811 3.00737 9.0005C3.06515 10.4153 3.74403 11.3673 4.68376 12.6849C5.56431 13.9196 6.38288 14.7428 8.94263 17.1351C9.40409 17.5664 9.84909 17.9864 10.264 18.3784C10.8266 18.9096 11.3346 19.3891 11.7534 19.7735Z"/>
</svg>
