<svg width="25" height="24" viewBox="0 0 25 24" fill="none" xmlns="http://www.w3.org/2000/svg">
  <path fill-rule="evenodd" clip-rule="evenodd" d="M14 5.5C14 4.39543 14.8954 3.5 16 3.5C17.1046 3.5 18 4.39543 18 5.5C18 6.60457 17.1046 7.5 16 7.5C14.8954 7.5 14 6.60457 14 5.5ZM13.0415 6H2.5V5H13.0415C13.2795 3.58114 14.5135 2.5 16 2.5C17.4865 2.5 18.7205 3.58114 18.9585 5H22.5V6H18.9585C18.7205 7.41886 17.4865 8.5 16 8.5C14.5135 8.5 13.2795 7.41886 13.0415 6ZM14 17.5C14 16.3954 14.8954 15.5 16 15.5C17.1046 15.5 18 16.3954 18 17.5C18 18.6046 17.1046 19.5 16 19.5C14.8954 19.5 14 18.6046 14 17.5ZM16 14.5C14.5135 14.5 13.2795 15.5811 13.0415 17H2.5V18H13.0415C13.2795 19.4189 14.5135 20.5 16 20.5C17.4865 20.5 18.7205 19.4189 18.9585 18H22.5V17H18.9585C18.7205 15.5811 17.4865 14.5 16 14.5ZM9 9.5C10.1046 9.5 11 10.3954 11 11.5C11 12.6046 10.1046 13.5 9 13.5C7.89543 13.5 7 12.6046 7 11.5C7 10.3954 7.89543 9.5 9 9.5ZM11.9585 11C11.7205 9.58114 10.4865 8.5 9 8.5C7.5135 8.5 6.27952 9.58114 6.04148 11H2.5V12H6.04148C6.27952 13.4189 7.5135 14.5 9 14.5C10.4865 14.5 11.7205 13.4189 11.9585 12H22.5V11H11.9585Z"/>
</svg>