<svg xmlns="http://www.w3.org/2000/svg" width="24" height="24" viewBox="0 0 24 24" fill="none">
  <path fill-rule="evenodd" clip-rule="evenodd" d="M6 5.5C5.72386 5.5 5.5 5.72386 5.5 6V9C5.5 9.27614 5.27614 9.5 5 9.5C4.72386 9.5 4.5 9.27614 4.5 9V6C4.5 5.17157 5.17157 4.5 6 4.5H9C9.27614 4.5 9.5 4.72386 9.5 5C9.5 5.27614 9.27614 5.5 9 5.5H6ZM14.5 5C14.5 4.72386 14.7239 4.5 15 4.5H18C18.8284 4.5 19.5 5.17157 19.5 6V9C19.5 9.27614 19.2761 9.5 19 9.5C18.7239 9.5 18.5 9.27614 18.5 9V6C18.5 5.72386 18.2761 5.5 18 5.5H15C14.7239 5.5 14.5 5.27614 14.5 5ZM5 14.5C5.27614 14.5 5.5 14.7239 5.5 15V18C5.5 18.2761 5.72386 18.5 6 18.5H9C9.27614 18.5 9.5 18.7239 9.5 19C9.5 19.2761 9.27614 19.5 9 19.5H6C5.17157 19.5 4.5 18.8284 4.5 18V15C4.5 14.7239 4.72386 14.5 5 14.5ZM19 14.5C19.2761 14.5 19.5 14.7239 19.5 15V18C19.5 18.8284 18.8284 19.5 18 19.5H15C14.7239 19.5 14.5 19.2761 14.5 19C14.5 18.7239 14.7239 18.5 15 18.5H18C18.2761 18.5 18.5 18.2761 18.5 18V15C18.5 14.7239 18.7239 14.5 19 14.5Z" fill="var(--s3d2-color-icon-gray-900)"/>
</svg>
