<svg width="24" height="24" viewBox="0 0 24 24" fill="none" xmlns="http://www.w3.org/2000/svg">
<path d="M2.5 5C2.5 3.61929 3.61929 2.5 5 2.5L19 2.5C20.3807 2.5 21.5 3.61929 21.5 5L21.5 19C21.5 20.3807 20.3807 21.5 19 21.5L5 21.5C3.61929 21.5 2.5 20.3807 2.5 19L2.5 5ZM19 20.5C19.8284 20.5 20.5 19.8284 20.5 19L20.5 15.207L17.5605 12.2676C17.2793 11.9864 16.8977 11.8281 16.5 11.8281C16.1521 11.8281 15.8167 11.9494 15.5498 12.168L15.4395 12.2676L7.20703 20.5L19 20.5ZM3.5 19C3.5 19.8284 4.17157 20.5 5 20.5L5.79297 20.5L14.7324 11.5605C15.2012 11.0919 15.8371 10.8281 16.5 10.8281C17.1629 10.8281 17.7988 11.0919 18.2676 11.5605L20.5 13.793L20.5 5C20.5 4.17157 19.8284 3.5 19 3.5L5 3.5C4.17157 3.5 3.5 4.17157 3.5 5L3.5 19ZM6.5 9C6.5 7.61929 7.61929 6.5 9 6.5C10.3807 6.5 11.5 7.61929 11.5 9C11.5 10.3807 10.3807 11.5 9 11.5C7.61929 11.5 6.5 10.3807 6.5 9ZM7.5 9C7.5 9.82843 8.17157 10.5 9 10.5C9.82843 10.5 10.5 9.82843 10.5 9C10.5 8.17157 9.82843 7.5 9 7.5C8.17157 7.5 7.5 8.17157 7.5 9Z" fill="#1A1E21"/>
</svg>
