<svg width="24" height="24" viewBox="0 0 24 24" fill="none" xmlns="http://www.w3.org/2000/svg">
<path fill-rule="evenodd" clip-rule="evenodd" d="M9.80546 3.80546C10.3212 3.28973 11.0207 3 11.75 3C12.4793 3 13.1788 3.28973 13.6945 3.80546C13.8959 4.00679 14.0628 4.23612 14.1914 4.4843C14.6468 4.17108 15.1896 4 15.75 4C16.4793 4 17.1788 4.28973 17.6945 4.80546C18.1074 5.21828 18.3754 5.74884 18.4659 6.31821C18.8581 6.11112 19.2983 6 19.75 6C20.4793 6 21.1788 6.28973 21.6945 6.80546C22.2103 7.32118 22.5 8.02065 22.5 8.75V11.75C22.5 14.0706 21.5781 16.2962 19.9372 17.9372C18.2962 19.5781 16.0706 20.5 13.75 20.5H9.75C7.42936 20.5 5.20376 19.5781 3.56282 17.9372C1.92187 16.2962 1 14.0706 1 11.75C1 11.0207 1.28973 10.3212 1.80546 9.80546C2.32118 9.28973 3.02065 9 3.75 9C4.18863 9 4.61645 9.10479 5 9.30051V6.75C5 6.02065 5.28973 5.32118 5.80546 4.80546C6.32118 4.28973 7.02065 4 7.75 4C8.31044 4 8.85323 4.17108 9.30858 4.4843C9.43724 4.23612 9.60413 4.00679 9.80546 3.80546ZM2.5 11.75C2.5 13.6728 3.26384 15.5169 4.62348 16.8765C5.98311 18.2362 7.82718 19 9.75 19H13.75C15.6728 19 17.5169 18.2362 18.8765 16.8765C20.2362 15.5169 21 13.6728 21 11.75V8.75C21 8.41848 20.8683 8.10054 20.6339 7.86612C20.3995 7.6317 20.0815 7.5 19.75 7.5C19.4185 7.5 19.1005 7.6317 18.8661 7.86612C18.6317 8.10054 18.5 8.41848 18.5 8.75V9.25C18.5 9.66421 18.1642 10 17.75 10C17.3358 10 17 9.66421 17 9.25V8.75V6.75C17 6.41848 16.8683 6.10054 16.6339 5.86612C16.3995 5.6317 16.0815 5.5 15.75 5.5C15.4185 5.5 15.1005 5.6317 14.8661 5.86612C14.6317 6.10054 14.5 6.41848 14.5 6.75V7.75V8.15C14.5 8.56421 14.1642 8.9 13.75 8.9C13.3358 8.9 13 8.56421 13 8.15V7.75V6.75V5.75C13 5.41848 12.8683 5.10054 12.6339 4.86612C12.3995 4.6317 12.0815 4.5 11.75 4.5C11.4185 4.5 11.1005 4.6317 10.8661 4.86612C10.6317 5.10054 10.5 5.41848 10.5 5.75V6.75V7.65V7.75C10.5 8.16421 10.1642 8.5 9.75 8.5C9.33579 8.5 9 8.16421 9 7.75V7.65V6.75C9 6.41848 8.8683 6.10054 8.63388 5.86612C8.39946 5.6317 8.08152 5.5 7.75 5.5C7.41848 5.5 7.10054 5.6317 6.86612 5.86612C6.6317 6.10054 6.5 6.41848 6.5 6.75V11.75C6.5 12.1642 6.16421 12.5 5.75 12.5C5.33579 12.5 5 12.1642 5 11.75C5 11.4185 4.8683 11.1005 4.63388 10.8661C4.39946 10.6317 4.08152 10.5 3.75 10.5C3.41848 10.5 3.10054 10.6317 2.86612 10.8661C2.83681 10.8954 2.80912 10.926 2.78308 10.9578C2.60083 11.1802 2.5 11.4599 2.5 11.75Z" />
</svg>
