<svg width="24" height="24" viewBox="0 0 24 24" fill="none" xmlns="http://www.w3.org/2000/svg">
<path fill-rule="evenodd" clip-rule="evenodd" d="M12.1056 1C11.3762 1 10.6768 1.28973 10.161 1.80546C9.74823 2.21828 9.48021 2.74884 9.38969 3.31821C8.99748 3.11112 8.55726 3 8.10559 3C7.37625 3 6.67677 3.28973 6.16105 3.80546C5.64532 4.32118 5.35559 5.02065 5.35559 5.75V12.077C4.92689 11.8341 4.43729 11.709 3.93722 11.7204C3.23148 11.7365 2.55895 12.0234 2.0589 12.5217C1.55885 13.02 1.26957 13.6915 1.25096 14.3972C1.23234 15.1029 1.48582 15.7887 1.95891 16.3126C1.96745 16.3221 1.97623 16.3313 1.98524 16.3403L5.58524 19.9403L5.58703 19.9421C7.21498 21.5591 9.10396 22.5 12.1056 22.5H14.1056C16.4262 22.5 18.6518 21.5781 20.2928 19.9372C21.9337 18.2962 22.8556 16.0706 22.8556 13.75V7.75C22.8556 7.02065 22.5658 6.32118 22.0501 5.80546C21.5344 5.28973 20.8349 5 20.1056 5C19.6539 5 19.2137 5.11111 18.8215 5.3182C18.731 4.74883 18.463 4.21828 18.0501 3.80546C17.5344 3.28973 16.8349 3 16.1056 3C15.6539 3 15.2137 3.11112 14.8215 3.31821C14.731 2.74884 14.463 2.21828 14.0501 1.80546C13.5344 1.28973 12.8349 1 12.1056 1ZM17.3556 7.75541V10.75C17.3556 11.1642 17.6914 11.5 18.1056 11.5C18.5198 11.5 18.8556 11.1642 18.8556 10.75V7.74309C18.8574 7.41406 18.9889 7.09891 19.2217 6.86612C19.4561 6.6317 19.7741 6.5 20.1056 6.5C20.4371 6.5 20.755 6.6317 20.9895 6.86612C21.2239 7.10054 21.3556 7.41848 21.3556 7.75V13.75C21.3556 15.6728 20.5917 17.5169 19.2321 18.8765C17.8725 20.2362 16.0284 21 14.1056 21H12.1056C9.50767 21 7.99674 20.2212 6.64488 18.8787L6.64411 18.8779L3.061 15.2948C2.85319 15.0583 2.74212 14.7519 2.75044 14.4367C2.7589 14.1159 2.89039 13.8107 3.11768 13.5842C3.34498 13.3577 3.65067 13.2273 3.97147 13.22C4.28702 13.2128 4.59341 13.3252 4.82929 13.5344L6.57524 15.2803C6.86814 15.5732 7.34301 15.5732 7.6359 15.2803C7.9288 14.9874 7.9288 14.5126 7.6359 14.2197L6.85559 13.4394V5.75C6.85559 5.41848 6.98729 5.10054 7.22171 4.86612C7.45613 4.6317 7.77407 4.5 8.10559 4.5C8.43711 4.5 8.75505 4.6317 8.98947 4.86612C9.2239 5.10054 9.35559 5.41848 9.35559 5.75V10.25C9.35559 10.6642 9.69138 11 10.1056 11C10.5198 11 10.8556 10.6642 10.8556 10.25V5.75V3.75C10.8556 3.41848 10.9873 3.10054 11.2217 2.86612C11.4561 2.6317 11.7741 2.5 12.1056 2.5C12.4371 2.5 12.7551 2.6317 12.9895 2.86612C13.2239 3.10054 13.3556 3.41848 13.3556 3.75V5.75V9.75C13.3556 10.1642 13.6914 10.5 14.1056 10.5C14.5198 10.5 14.8556 10.1642 14.8556 9.75V5.75C14.8556 5.41848 14.9873 5.10054 15.2217 4.86612C15.4561 4.6317 15.7741 4.5 16.1056 4.5C16.4371 4.5 16.7551 4.6317 16.9895 4.86612C17.2239 5.10054 17.3556 5.41848 17.3556 5.75V7.73975C17.3556 7.74317 17.3556 7.74658 17.3556 7.75C17.3556 7.7518 17.3556 7.75361 17.3556 7.75541Z" />
</svg>
