<svg width="17" height="16" viewBox="0 0 17 16" fill="none" xmlns="http://www.w3.org/2000/svg">
<path fill-rule="evenodd" clip-rule="evenodd" d="M8.19995 15C12.0659 15 15.2 11.866 15.2 8C15.2 4.13404 12.0659 1 8.19995 1C4.33399 1 1.19995 4.13404 1.19995 8C1.19995 11.866 4.33399 15 8.19995 15ZM9.38352 11.7733L9.49415 11.2933L9.49412 11.2933C9.43711 11.3218 9.34485 11.3547 9.21753 11.3919C9.09012 11.4292 8.97613 11.4479 8.87557 11.4479C8.66104 11.4479 8.5101 11.4106 8.42298 11.3359C8.33576 11.2613 8.2922 11.1208 8.2922 10.9146C8.2922 10.8328 8.30563 10.7119 8.3325 10.552C8.35927 10.3919 8.38949 10.2497 8.42298 10.1253L8.83529 8.57322C8.87559 8.43105 8.90324 8.27465 8.91826 8.10388C8.93337 7.93323 8.94098 7.81412 8.94098 7.74665C8.94098 7.41948 8.83282 7.15371 8.61659 6.94932C8.40036 6.74481 8.09277 6.64256 7.69382 6.64256C7.47255 6.64256 7.23785 6.68436 6.98982 6.76796C6.74171 6.85144 6.4819 6.95191 6.21037 7.06925L6.09974 7.54926C6.18016 7.5172 6.27656 7.48347 6.38887 7.44795C6.50118 7.41233 6.61102 7.39463 6.71829 7.39463C6.93619 7.39463 7.08367 7.4337 7.16081 7.51196C7.23786 7.59011 7.27648 7.72883 7.27648 7.92787C7.27648 8.03819 7.26384 8.15992 7.23875 8.29329C7.21356 8.42655 7.18254 8.56799 7.1457 8.71727L6.73329 10.2746C6.69645 10.4382 6.66968 10.5849 6.65289 10.7146C6.6361 10.8444 6.6277 10.9715 6.6277 11.0959C6.6277 11.4159 6.73923 11.6799 6.96217 11.8879C7.1851 12.096 7.49775 12.2 7.89997 12.2C8.16154 12.2 8.39109 12.1635 8.58894 12.0906C8.78669 12.0177 9.05162 11.912 9.38352 11.7733ZM9.31051 5.47201C9.50333 5.28175 9.59974 5.05148 9.59974 4.78131C9.59974 4.5111 9.50332 4.28001 9.31051 4.08798C9.11779 3.89595 8.88566 3.79999 8.61402 3.79999C8.34246 3.79999 8.10955 3.89594 7.91506 4.08798C7.72067 4.28003 7.62337 4.51113 7.62337 4.78131C7.62337 5.05148 7.72067 5.28176 7.91506 5.47201C8.10957 5.66226 8.34249 5.75728 8.61402 5.75728C8.88566 5.75728 9.11779 5.66226 9.31051 5.47201Z" fill="#FAFBFE"/>
</svg>
