<svg width="24" height="24" viewBox="0 0 24 24" fill="none" xmlns="http://www.w3.org/2000/svg">
<path fill-rule="evenodd" clip-rule="evenodd" d="M10.0022 6.31622C10.5309 5.79476 11.25 5.5 12.0019 5.5C12.7538 5.5 13.4729 5.79476 14.0015 6.31622C14.5298 6.83734 14.8247 7.54195 14.8247 8.27445V11.094C14.8247 11.094 14.8247 11.094 14.8247 11.094H9.17908C9.17908 11.094 9.17908 11.094 9.17908 11.094V8.27445C9.17908 7.54195 9.47396 6.83734 10.0022 6.31622ZM7.67908 11.094C7.67908 11.094 7.67908 11.094 7.67908 11.094V8.27445C7.67908 7.13747 8.13703 6.04916 8.94883 5.24836C9.76027 4.44789 10.8587 4 12.0019 4C13.1451 4 14.2435 4.44789 15.055 5.24836C15.8668 6.04916 16.3247 7.13747 16.3247 8.27445V11.094C16.3247 11.094 16.3247 11.094 16.3247 11.094H16.8649C17.6323 11.094 18.2544 11.758 18.2544 12.5771V17.7676C18.2544 18.5867 17.6323 19.2506 16.8649 19.2506H7.13894C6.37158 19.2506 5.74951 18.5867 5.74951 17.7676V12.5771C5.74951 11.758 6.37158 11.094 7.13894 11.094H7.67908Z" />
</svg>
