<svg width="24" height="24" viewBox="0 0 24 24" fill="none" xmlns="http://www.w3.org/2000/svg">
<path fill-rule="evenodd" clip-rule="evenodd" d="M10.7619 2.51438C10.7568 2.51178 10.7056 2.48572 10.5581 2.5104C10.3611 2.54335 10.22 2.64408 10.1133 2.96597C9.99246 3.33091 9.96371 3.88208 10.038 4.57954C10.1125 5.27957 10.2813 6.04664 10.4863 6.77505C10.7382 5.84292 10.9536 4.7849 10.9954 3.90415C11.0256 3.26574 10.957 2.84213 10.8471 2.62476C10.8014 2.53435 10.7673 2.51712 10.7622 2.51451L10.7621 2.51444L10.7619 2.51438ZM9.71401 9.1813C9.25766 8.0239 8.71041 6.27854 8.54641 4.73837C8.46391 3.96359 8.46875 3.16053 8.68941 2.49434C8.92432 1.78511 9.43265 1.17781 10.3106 1.03095C10.6994 0.965924 11.089 0.998243 11.441 1.17687C11.7926 1.35535 12.0306 1.64134 12.1856 1.94771C12.4778 2.52547 12.5268 3.27627 12.4937 3.97524C12.4256 5.40963 11.9777 7.14457 11.5957 8.29572C11.5161 8.54675 11.426 8.82027 11.3262 9.11275C12.3642 11.3004 13.7507 12.8753 15.1713 13.97C17.1181 13.6117 18.386 13.6081 19.3928 13.6081C20.8065 13.6081 21.981 13.9539 22.5896 14.6519C22.9203 15.0312 23.0862 15.5296 22.955 16.0565C22.8316 16.5518 22.4778 16.9424 22.0494 17.2291C21.7403 17.4359 21.3534 17.5344 20.9761 17.576C20.5855 17.619 20.1391 17.6081 19.6603 17.5461C18.7016 17.4219 17.557 17.0855 16.3687 16.4891C15.8575 16.2326 15.3367 15.9271 14.8176 15.5684C13.3122 15.8835 11.3999 16.4145 8.90324 17.3091C8.36102 17.5166 7.86028 17.7233 7.39844 17.9279C6.4388 19.5777 5.36674 21.0777 4.23104 22.096C3.59321 22.7294 2.79709 23.1159 2.06782 22.9668C1.67097 22.8857 1.31424 22.6397 1.12855 22.2345C0.952631 21.8506 0.976442 21.4268 1.09671 21.0446C1.33337 20.2925 2.00998 19.4584 3.13997 18.6115C3.93105 18.0186 4.97877 17.3934 6.33654 16.7626C6.71956 16.0807 7.08937 15.3656 7.44133 14.6382C8.37986 12.6983 9.16512 10.727 9.71401 9.1813ZM8.5141 15.8553C8.6082 15.6674 8.70072 15.4793 8.79159 15.2915C9.50376 13.8195 10.1295 12.3319 10.6359 11.013C11.4303 12.3665 12.354 13.476 13.3253 14.3725C11.997 14.7031 10.4178 15.1768 8.5141 15.8553ZM4.65664 19.3816C4.43123 19.5285 4.22596 19.6721 4.03956 19.8118C3.04321 20.5586 2.64941 21.145 2.53675 21.4671C2.55757 21.4601 2.5801 21.4515 2.6043 21.4412C2.75795 21.3756 2.95991 21.2467 3.18445 21.0213L3.20001 21.0057L3.21646 20.991C3.70069 20.559 4.18312 20.0119 4.65664 19.3816ZM17.146 15.2002C18.1579 15.6946 19.1018 15.9612 19.853 16.0585C20.2421 16.1089 20.5656 16.1121 20.8118 16.085C21.0714 16.0564 21.1884 16.0004 21.2153 15.9824C21.4468 15.8275 21.4926 15.7157 21.4988 15.6962C21.4977 15.6936 21.4959 15.6896 21.4929 15.6841C21.4871 15.6738 21.4767 15.658 21.4589 15.6376C21.2836 15.4365 20.6665 15.1081 19.3928 15.1081H19.3636C18.7691 15.108 18.0669 15.108 17.146 15.2002Z" />
</svg>
