<svg width="24" height="24" viewBox="0 0 24 24" fill="none" xmlns="http://www.w3.org/2000/svg">
<path fill-rule="evenodd" clip-rule="evenodd" d="M6.88978 4.53637C6.88976 4.53639 6.88974 4.53641 6.88972 4.53643L5.0702 6.26192C5.0702 6.26192 5.07019 6.26192 5.07019 6.26192C4.63931 6.67055 4.45268 7.1685 4.51028 7.8001C4.57038 8.45912 4.90032 9.28113 5.56562 10.2726L5.56564 10.2727C6.64022 11.8743 8.25549 13.4085 8.96717 14.0834L8.96725 14.0835C9.5765 14.6615 11.3846 16.3734 13.2814 17.4795C14.4837 18.1804 15.4843 18.5 16.2706 18.5C16.9001 18.5 17.4162 18.296 17.8329 17.9008L19.4733 16.3451L19.8174 16.7079L19.4733 16.3451C19.4939 16.3256 19.5 16.3067 19.5 16.2884C19.5 16.2689 19.4936 16.2508 19.4745 16.2327L19.4739 16.2321L16.1928 13.1206L16.5209 12.7747L16.1928 13.1206C16.1712 13.1002 16.1385 13.0847 16.0945 13.0847C16.0509 13.0847 16.0181 13.0999 15.9959 13.1209C15.9958 13.1209 15.9958 13.121 15.9957 13.121L14.0498 14.9664L13.7586 15.2425L13.426 15.0181C12.4184 14.3379 11.4421 13.5514 10.5239 12.6806L10.5239 12.6806C9.72806 11.9259 8.99577 11.1262 8.34712 10.303L8.06476 9.94467L8.39579 9.63075L10.3675 7.76093L10.3675 7.76093C10.3886 7.74096 10.3945 7.72083 10.3945 7.7043C10.3945 7.68776 10.3886 7.66748 10.3673 7.64733C10.3673 7.64732 10.3673 7.64731 10.3673 7.6473L7.08659 4.53625L7.08658 4.53624C7.06415 4.51497 7.02993 4.49998 6.98835 4.49998C6.9468 4.49998 6.91243 4.51495 6.88978 4.53637ZM7.77469 3.81063C7.33781 3.39634 6.63887 3.3966 6.202 3.81046L6.20181 3.81064L4.38208 5.53631L4.38208 5.53632C3.71918 6.16498 3.43027 6.96822 3.51441 7.89092C3.59606 8.7862 4.02517 9.7716 4.73524 10.8298C5.87622 12.5304 7.56334 14.1303 8.27078 14.8012L8.27899 14.809L8.27907 14.809L8.28183 14.8117C8.88857 15.3873 10.7708 17.173 12.7776 18.3433L12.7777 18.3434C14.0532 19.0869 15.2336 19.5 16.2706 19.5C17.1404 19.5 17.9074 19.2083 18.521 18.6264L20.1614 17.0708C20.3763 16.867 20.5 16.5878 20.5 16.2884C20.5 15.9899 20.3775 15.7104 20.1616 15.5062C20.1615 15.5061 20.1614 15.506 20.1614 15.506L16.8809 12.395C16.667 12.1922 16.3854 12.0847 16.0945 12.0847C15.8034 12.0847 15.5222 12.1924 15.3084 12.3947L15.308 12.395L13.6558 13.9619C12.8117 13.3675 11.9909 12.6937 11.212 11.955C10.565 11.3414 9.96336 10.6983 9.41876 10.0388L11.0556 8.48654C11.5075 8.05798 11.5072 7.35062 11.0558 6.92206L11.0556 6.92187L7.7747 3.81064C7.77469 3.81064 7.77469 3.81063 7.77469 3.81063Z"/>
</svg>
