<svg xmlns="http://www.w3.org/2000/svg" width="25" height="24" viewBox="0 0 25 24" fill="none">
<path fill-rule="evenodd" clip-rule="evenodd" d="M3.85746 7.85707C4.22441 8.01805 4.64226 8.09854 5.11101 8.09854C5.58213 8.09854 6.00234 8.00858 6.37166 7.82866C6.74098 7.64873 7.03217 7.40252 7.24524 7.09002C7.46068 6.77515 7.5684 6.42004 7.5684 6.02468C7.5684 5.56303 7.43937 5.17596 7.18132 4.86346C6.92327 4.54859 6.56461 4.35328 6.10533 4.27752V4.2207C6.47228 4.10943 6.76229 3.90939 6.97536 3.62056C7.19079 3.33174 7.29851 2.98254 7.29851 2.57298C7.29851 2.2297 7.2121 1.9101 7.03928 1.61417C6.86645 1.31824 6.61906 1.08031 6.29709 0.90039C5.97512 0.718099 5.58923 0.626953 5.13942 0.626953C4.72038 0.626953 4.33568 0.707445 3.9853 0.86843C3.63729 1.02941 3.35556 1.25432 3.14013 1.54315C2.92469 1.8296 2.80987 2.16341 2.79567 2.54457H3.64794C3.65978 2.30309 3.73554 2.09712 3.87521 1.92667C4.01489 1.75385 4.19482 1.62245 4.41499 1.53249C4.63752 1.44016 4.87427 1.394 5.12521 1.394C5.39273 1.394 5.62474 1.4449 5.82124 1.5467C6.0201 1.6485 6.17398 1.79054 6.28288 1.97283C6.39179 2.15513 6.44624 2.36938 6.44624 2.61559C6.44624 2.87127 6.3835 3.09381 6.25803 3.2832C6.13492 3.4726 5.96328 3.61938 5.74311 3.72354C5.52531 3.82771 5.27199 3.87979 4.98317 3.87979H4.40078V4.66104H4.98317C5.35249 4.66104 5.66499 4.71905 5.92067 4.83505C6.17635 4.95105 6.37048 5.11204 6.50305 5.318C6.63563 5.5216 6.70192 5.75716 6.70192 6.02468C6.70192 6.28036 6.63326 6.50527 6.49595 6.6994C6.35864 6.89353 6.16925 7.04504 5.92777 7.15394C5.68629 7.26284 5.4093 7.31729 5.0968 7.31729C4.81745 7.31729 4.56295 7.27113 4.33331 7.1788C4.10367 7.08647 3.91783 6.95626 3.77578 6.78817C3.63374 6.61772 3.55324 6.41531 3.5343 6.18093H2.63942C2.65836 6.56209 2.77436 6.89708 2.98743 7.1859C3.20287 7.47236 3.49287 7.69608 3.85746 7.85707ZM10.1407 7.92809C10.439 8.03699 10.7373 8.09381 11.0356 8.09854C11.5256 8.10328 11.9518 7.99674 12.314 7.77894C12.6786 7.55877 12.9615 7.26284 13.1627 6.89116C13.3639 6.5171 13.4646 6.10517 13.4646 5.65536C13.4646 5.18661 13.3604 4.77113 13.1521 4.40891C12.9437 4.04433 12.6667 3.75906 12.3211 3.55309C11.9755 3.34476 11.5943 3.24059 11.1776 3.24059C10.929 3.24059 10.6935 3.27965 10.471 3.35778C10.2484 3.4359 10.0448 3.54717 9.86016 3.69158C9.67787 3.83363 9.52043 4.00527 9.38786 4.2065H9.33104C9.3334 3.32108 9.49557 2.63335 9.81754 2.14329C10.1419 1.65323 10.5858 1.4082 11.1492 1.4082C11.5327 1.4082 11.8405 1.51592 12.0725 1.73136C12.3045 1.94679 12.4608 2.21786 12.5413 2.54457H13.4077C13.3486 2.16815 13.2183 1.83552 13.0171 1.5467C12.8159 1.25787 12.5555 1.03297 12.2359 0.871982C11.9186 0.708629 11.5564 0.626953 11.1492 0.626953C10.7397 0.626953 10.3715 0.715731 10.0448 0.893288C9.72048 1.07084 9.44349 1.33126 9.21385 1.67454C8.98421 2.01545 8.80902 2.43566 8.68828 2.93519C8.56754 3.43235 8.50717 4.0029 8.50717 4.64684C8.50717 5.31919 8.58175 5.8779 8.7309 6.32298C8.88004 6.76568 9.07772 7.11725 9.32393 7.37766C9.57015 7.63571 9.8424 7.81919 10.1407 7.92809ZM11.8381 7.09357C11.6014 7.24272 11.3339 7.31729 11.0356 7.31729C10.7326 7.31729 10.4615 7.24035 10.2224 7.08647C9.98563 6.93259 9.7986 6.73017 9.66129 6.47923C9.52635 6.22828 9.45888 5.95839 9.45888 5.66957C9.45888 5.45176 9.50031 5.24461 9.58317 5.04812C9.66603 4.84925 9.77966 4.67288 9.92408 4.519C10.0709 4.36512 10.2413 4.24438 10.4354 4.15678C10.6296 4.06682 10.8391 4.02184 11.064 4.02184C11.3623 4.02184 11.6274 4.09523 11.8594 4.24201C12.0938 4.38879 12.2773 4.58647 12.4099 4.83505C12.5448 5.08126 12.6123 5.3547 12.6123 5.65536C12.6123 5.96313 12.5424 6.24248 12.4028 6.49343C12.2655 6.74438 12.0772 6.94442 11.8381 7.09357ZM15.466 7.66175C15.8424 7.95295 16.2982 8.09854 16.8332 8.09854C17.3682 8.09854 17.824 7.95295 18.2004 7.66175C18.5768 7.36819 18.8645 6.94324 19.0633 6.3869C19.2622 5.82818 19.3616 5.15347 19.3616 4.36275C19.3616 3.57676 19.261 2.9056 19.0598 2.34925C18.8609 1.79054 18.5721 1.36441 18.1933 1.07084C17.8169 0.774917 17.3635 0.626953 16.8332 0.626953C16.3029 0.626953 15.8484 0.774917 15.4696 1.07084C15.0931 1.36441 14.8043 1.79054 14.6031 2.34925C14.4042 2.9056 14.3048 3.57676 14.3048 4.36275C14.3048 5.15347 14.4042 5.82818 14.6031 6.3869C14.802 6.94324 15.0896 7.36819 15.466 7.66175ZM18.069 6.55025C17.7754 7.06161 17.3635 7.31729 16.8332 7.31729C16.4805 7.31729 16.1786 7.20247 15.9277 6.97283C15.6791 6.74319 15.4885 6.4082 15.3559 5.96786C15.2234 5.52752 15.1571 4.99248 15.1571 4.36275C15.1571 3.41815 15.305 2.6878 15.601 2.1717C15.8969 1.65323 16.3076 1.394 16.8332 1.394C17.1836 1.394 17.4831 1.51 17.7316 1.74201C17.9826 1.97402 18.1743 2.31138 18.3069 2.75408C18.4419 3.19679 18.5093 3.73301 18.5093 4.36275C18.5093 5.30972 18.3626 6.03888 18.069 6.55025ZM21.0071 3.71644C21.2556 3.86322 21.5303 3.93661 21.8309 3.93661C22.1316 3.93661 22.405 3.86322 22.6512 3.71644C22.8998 3.56966 23.0975 3.37317 23.2443 3.12695C23.3911 2.87837 23.4645 2.60375 23.4645 2.30309C23.4645 2.00243 23.3911 1.72899 23.2443 1.48278C23.0975 1.2342 22.8998 1.03652 22.6512 0.889737C22.405 0.742957 22.1316 0.669567 21.8309 0.669567C21.5303 0.669567 21.2556 0.742957 21.0071 0.889737C20.7609 1.03652 20.5644 1.2342 20.4176 1.48278C20.2708 1.72899 20.1974 2.00243 20.1974 2.30309C20.1974 2.60375 20.2708 2.87837 20.4176 3.12695C20.5644 3.37317 20.7609 3.56966 21.0071 3.71644ZM22.2961 3.10209C22.1565 3.18495 22.0014 3.22638 21.8309 3.22638C21.6605 3.22638 21.5054 3.18495 21.3657 3.10209C21.2261 3.01924 21.1148 2.90797 21.0319 2.76829C20.9491 2.62861 20.9076 2.47354 20.9076 2.30309C20.9076 2.13263 20.9491 1.97757 21.0319 1.83789C21.1148 1.69821 21.2261 1.58694 21.3657 1.50408C21.5054 1.42122 21.6605 1.37979 21.8309 1.37979C22.0014 1.37979 22.1565 1.42122 22.2961 1.50408C22.4358 1.58694 22.5471 1.69821 22.6299 1.83789C22.7128 1.97757 22.7542 2.13263 22.7542 2.30309C22.7542 2.47354 22.7128 2.62861 22.6299 2.76829C22.5471 2.90797 22.4358 3.01924 22.2961 3.10209ZM2 13.4632C2 13.2418 2.19905 12.8995 2.88248 12.49C3.52821 12.1031 4.45833 11.7483 5.55051 11.4481C7.72972 10.8491 10.4351 10.4991 12.4997 10.4991C14.5644 10.4991 17.2697 10.8491 19.4489 11.4481C20.5411 11.7483 21.4712 12.1031 22.117 12.49C22.8004 12.8995 22.9994 13.2418 22.9994 13.4632C22.9994 14.1671 22.4532 14.709 21.488 15.1038C20.5488 15.4879 19.3981 15.6456 18.6257 15.6683C18.3554 15.6762 18.1403 15.8976 18.1403 16.168V16.1695V16.171V16.1725V16.1741V16.1756V16.1771V16.1787V16.1802V16.1818V16.1834V16.185V16.1866V16.1882V16.1898V16.1914V16.1931V16.1947V16.1964V16.1981V16.1998V16.2014V16.2031V16.2049V16.2066V16.2083V16.2101V16.2118V16.2136V16.2153V16.2171V16.2189V16.2207V16.2225V16.2243V16.2262V16.228V16.2299V16.2317V16.2336V16.2355V16.2374V16.2393V16.2412V16.2431V16.245V16.247V16.2489V16.2509V16.2528V16.2548V16.2568V16.2588V16.2608V16.2628V16.2648V16.2669V16.2689V16.2709V16.273V16.2751V16.2772V16.2792V16.2813V16.2835V16.2856V16.2877V16.2898V16.292V16.2941V16.2963V16.2985V16.3007V16.3028V16.305V16.3073V16.3095V16.3117V16.3139V16.3162V16.3184V16.3207V16.323V16.3253V16.3275V16.3298V16.3322V16.3345V16.3368V16.3391V16.3415V16.3438V16.3462V16.3486V16.351V16.3533V16.3557V16.3581V16.3606V16.363V16.3654V16.3679V16.3703V16.3728V16.3752V16.3777V16.3802V16.3827V16.3852V16.3877V16.3902V16.3928V16.3953V16.3978V16.4004V16.403V16.4055V16.4081V16.4107V16.4133V16.4159V16.4185V16.4211V16.4238V16.4264V16.4291V16.4317V16.4344V16.437V16.4397V16.4424V16.4451V16.4478V16.4505V16.4533V16.456V16.4587V16.4615V16.4642V16.467V16.4698V16.4725V16.4753V16.4781V16.4809V16.4837V16.4865V16.4894V16.4922V16.4951V16.4979V16.5008V16.5036V16.5065V16.5094V16.5123V16.5152V16.5181V16.521V16.5239V16.5268V16.5298V16.5327V16.5357V16.5386V16.5416V16.5446V16.5476V16.5506V16.5536V16.5566V16.5596V16.5626V16.5656V16.5687V16.5717V16.5748V16.5778V16.5809V16.584V16.587V16.5901V16.5932V16.5963V16.5994V16.6026V16.6057V16.6088V16.612V16.6151V16.6183V16.6214V16.6246V16.6278V16.631V16.6342V16.6374V16.6406V16.6438V16.647V16.6502V16.6535V16.6567V16.6599V16.6632V16.6665V16.6697V16.673V16.6763V16.6796V16.6829V16.6862V16.6895V16.6928V16.6961V16.6995V16.7028V16.7062V16.7095V16.7129V16.7163V16.7196V16.723V16.7264V16.7298V16.7332V16.7366V16.74V16.7434V16.7469V16.7503V16.7537V16.7572V16.7606V16.7641V16.7676V16.771V16.7745V16.778V16.7815V16.785V16.7885V16.792V16.7955V16.7991V16.8026V16.8061V16.8097V16.8132V16.8168V16.8204V16.8239V16.8275V16.8311V16.8347V16.8383V16.8419V16.8455V16.8491V16.8527V16.8564V16.86V16.8636V16.8673V16.8709V16.8746V16.8782V16.8819V16.8856V16.8893V16.893V16.8967V16.9004V16.9041V16.9078V16.9115V16.9152V16.9189V16.9227V16.9264V16.9302V16.9339V16.9377V16.9414V16.9452V16.949V16.9528V16.9566V16.9604V16.9642V16.968V16.9718V16.9756V16.9794V16.9832V16.9871V16.9909V16.9948V16.9986V17.0025V17.0063V17.0102V17.0141V17.0179V17.0218V17.0257V17.0296V17.0335V17.0374V17.0413V17.0452V17.0491V17.0531V17.057V17.0609V17.0649V17.0688V17.0728V17.0767V17.0807V17.0847V17.0886V17.0926V17.0966V17.1006V17.1046V17.1086V17.1126V17.1166V17.1206V17.1246V17.1287V17.1327V17.1367V17.1408V17.1448V17.1489V17.1529V17.157V17.161V17.1651V17.1692V17.1733V17.1773V17.1814V17.1855V17.1896V17.1937V17.1978V17.2019V17.2061V17.2102V17.2126C16.6585 16.7184 14.9964 16.4273 12.4997 16.4273C10.0031 16.4273 8.34097 16.7184 6.8591 17.2126V17.2102V17.2061V17.2019V17.1978V17.1937V17.1896V17.1855V17.1814V17.1773V17.1733V17.1692V17.1651V17.161V17.157V17.1529V17.1489V17.1448V17.1408V17.1367V17.1327V17.1287V17.1246V17.1206V17.1166V17.1126V17.1086V17.1046V17.1006V17.0966V17.0926V17.0886V17.0847V17.0807V17.0767V17.0728V17.0688V17.0649V17.0609V17.057V17.0531V17.0491V17.0452V17.0413V17.0374V17.0335V17.0296V17.0257V17.0218V17.0179V17.0141V17.0102V17.0063V17.0025V16.9986V16.9948V16.9909V16.9871V16.9832V16.9794V16.9756V16.9718V16.968V16.9642V16.9604V16.9566V16.9528V16.949V16.9452V16.9414V16.9377V16.9339V16.9302V16.9264V16.9227V16.9189V16.9152V16.9115V16.9078V16.9041V16.9004V16.8967V16.893V16.8893V16.8856V16.8819V16.8782V16.8746V16.8709V16.8673V16.8636V16.86V16.8564V16.8527V16.8491V16.8455V16.8419V16.8383V16.8347V16.8311V16.8275V16.8239V16.8204V16.8168V16.8132V16.8097V16.8061V16.8026V16.7991V16.7955V16.792V16.7885V16.785V16.7815V16.778V16.7745V16.771V16.7676V16.7641V16.7606V16.7572V16.7537V16.7503V16.7469V16.7434V16.74V16.7366V16.7332V16.7298V16.7264V16.723V16.7196V16.7163V16.7129V16.7095V16.7062V16.7028V16.6995V16.6961V16.6928V16.6895V16.6862V16.6829V16.6796V16.6763V16.673V16.6697V16.6665V16.6632V16.6599V16.6567V16.6535V16.6502V16.647V16.6438V16.6406V16.6374V16.6342V16.631V16.6278V16.6246V16.6214V16.6183V16.6151V16.612V16.6088V16.6057V16.6026V16.5994V16.5963V16.5932V16.5901V16.587V16.584V16.5809V16.5778V16.5748V16.5717V16.5687V16.5656V16.5626V16.5596V16.5566V16.5536V16.5506V16.5476V16.5446V16.5416V16.5386V16.5357V16.5327V16.5298V16.5268V16.5239V16.521V16.5181V16.5152V16.5123V16.5094V16.5065V16.5036V16.5008V16.4979V16.4951V16.4922V16.4894V16.4865V16.4837V16.4809V16.4781V16.4753V16.4725V16.4698V16.467V16.4642V16.4615V16.4587V16.456V16.4533V16.4505V16.4478V16.4451V16.4424V16.4397V16.437V16.4344V16.4317V16.4291V16.4264V16.4238V16.4211V16.4185V16.4159V16.4133V16.4107V16.4081V16.4055V16.403V16.4004V16.3978V16.3953V16.3928V16.3902V16.3877V16.3852V16.3827V16.3802V16.3777V16.3752V16.3728V16.3703V16.3679V16.3654V16.363V16.3606V16.3581V16.3557V16.3533V16.351V16.3486V16.3462V16.3438V16.3415V16.3391V16.3368V16.3345V16.3322V16.3298V16.3275V16.3253V16.323V16.3207V16.3184V16.3162V16.3139V16.3117V16.3095V16.3073V16.305V16.3028V16.3007V16.2985V16.2963V16.2941V16.292V16.2898V16.2877V16.2856V16.2835V16.2813V16.2792V16.2772V16.2751V16.273V16.2709V16.2689V16.2669V16.2648V16.2628V16.2608V16.2588V16.2568V16.2548V16.2528V16.2509V16.2489V16.247V16.245V16.2431V16.2412V16.2393V16.2374V16.2355V16.2336V16.2317V16.2299V16.228V16.2262V16.2243V16.2225V16.2207V16.2189V16.2171V16.2153V16.2136V16.2118V16.2101V16.2083V16.2066V16.2049V16.2031V16.2014V16.1998V16.1981V16.1964V16.1947V16.1931V16.1914V16.1898V16.1882V16.1866V16.185V16.1834V16.1818V16.1802V16.1787V16.1771V16.1756V16.1741V16.1725V16.171V16.1695V16.168C6.8591 15.8976 6.64407 15.6762 6.37374 15.6683C5.60131 15.6456 4.45061 15.4879 3.51144 15.1038C2.54629 14.709 2 14.1671 2 13.4632ZM21.8666 16.0294C22.261 15.8681 22.6573 15.6578 22.9994 15.3879V20.2965C22.9994 21.0004 22.4532 21.5423 21.488 21.9371C20.7403 22.2429 19.8586 22.4052 19.1403 22.4701V17.9238V17.9191V17.9145V17.9098V17.9052V17.9005V17.8958V17.8912V17.8865V17.8819V17.8772V17.8726V17.8679V17.8633V17.8586V17.854V17.8494V17.8447V17.8401V17.8355V17.8308V17.8262V17.8216V17.817V17.8124V17.8077V17.8031V17.7985V17.7939V17.7893V17.7847V17.7801V17.7755V17.7709V17.7663V17.7617V17.7571V17.7526V17.748V17.7434V17.7388V17.7342V17.7297V17.7251V17.7205V17.716V17.7114V17.7069V17.7023V17.6978V17.6932V17.6887V17.6841V17.6796V17.6751V17.6705V17.666V17.6615V17.6569V17.6524V17.6479V17.6434V17.6389V17.6344V17.6299V17.6254V17.6209V17.6164V17.6119V17.6074V17.6029V17.5984V17.5939V17.5895V17.585V17.5805V17.5761V17.5716V17.5671V17.5627V17.5582V17.5538V17.5493V17.5449V17.5404V17.536V17.5316V17.5271V17.5227V17.5183V17.5139V17.5095V17.505V17.5006V17.4962V17.4918V17.4874V17.483V17.4787V17.4743V17.4699V17.4655V17.4611V17.4568V17.4524V17.448V17.4437V17.4393V17.435V17.4306V17.4263V17.4219V17.4176V17.4133V17.4089V17.4046V17.4003V17.396V17.3917V17.3873V17.383V17.3787V17.3744V17.3701V17.3659V17.3616V17.3573V17.353V17.3487V17.3445V17.3402V17.336V17.3317V17.3274V17.3232V17.319V17.3147V17.3105V17.3063V17.302V17.2978V17.2936V17.2894V17.2852V17.281V17.2768V17.2726V17.2684V17.2642V17.26V17.2558V17.2517V17.2475V17.2433V17.2392V17.235V17.2309V17.2267V17.2226V17.2184V17.2143V17.2102V17.2061V17.2019V17.1978V17.1937V17.1896V17.1855V17.1814V17.1773V17.1733V17.1692V17.1651V17.161V17.157V17.1529V17.1489V17.1448V17.1408V17.1367V17.1327V17.1287V17.1246V17.1206V17.1166V17.1126V17.1086V17.1046V17.1006V17.0966V17.0926V17.0886V17.0847V17.0807V17.0767V17.0728V17.0688V17.0649V17.0609V17.057V17.0531V17.0491V17.0452V17.0413V17.0374V17.0335V17.0296V17.0257V17.0218V17.0179V17.0141V17.0102V17.0063V17.0025V16.9986V16.9948V16.9909V16.9871V16.9832V16.9794V16.9756V16.9718V16.968V16.9642V16.9604V16.9566V16.9528V16.949V16.9452V16.9414V16.9377V16.9339V16.9302V16.9264V16.9227V16.9189V16.9152V16.9115V16.9078V16.9041V16.9004V16.8967V16.893V16.8893V16.8856V16.8819V16.8782V16.8746V16.8709V16.8673V16.8636V16.86V16.8564V16.8527V16.8491V16.8455V16.8419V16.8383V16.8347V16.8311V16.8275V16.8239V16.8204V16.8168V16.8132V16.8097V16.8061V16.8026V16.7991V16.7955V16.792V16.7885V16.785V16.7815V16.778V16.7745V16.771V16.7676V16.7641V16.7606V16.7572V16.7537V16.7503V16.7469V16.7434V16.74V16.7366V16.7332V16.7298V16.7264V16.723V16.7196V16.7163V16.7129V16.7095V16.7062V16.7028V16.6995V16.6961V16.6928V16.6895V16.6862V16.6829V16.6796V16.6763V16.673V16.6697V16.6665V16.6632V16.6599V16.6567V16.6535V16.6502V16.647V16.6438V16.6406V16.6404C19.9475 16.5746 20.9726 16.395 21.8666 16.0294ZM23.9994 20.2965V13.4632C23.9994 12.6644 23.3508 12.0635 22.6309 11.6322C21.8733 11.1783 20.8444 10.7946 19.714 10.4839C17.4479 9.86096 14.6534 9.49911 12.4997 9.49911C10.346 9.49911 7.55153 9.86096 5.28546 10.4839C4.155 10.7946 3.12612 11.1783 2.36852 11.6322C1.64863 12.0635 1 12.6644 1 13.4632V20.2965C1 21.6425 2.07341 22.4293 3.13288 22.8626C4.21834 23.3066 5.49719 23.4763 6.34446 23.5011C6.47955 23.5051 6.61049 23.4542 6.70744 23.36C6.80439 23.2659 6.8591 23.1365 6.8591 23.0013V18.271C8.30971 17.7486 9.91553 17.4273 12.4997 17.4273C15.0839 17.4273 16.6897 17.7486 18.1403 18.271V23.0013C18.1403 23.1365 18.1951 23.2659 18.292 23.36C18.389 23.4542 18.5199 23.5051 18.655 23.5011C19.5023 23.4763 20.7811 23.3066 21.8666 22.8626C22.926 22.4293 23.9994 21.6425 23.9994 20.2965ZM2 20.2965V15.3879C2.34217 15.6578 2.73849 15.8681 3.13288 16.0294C4.02682 16.395 5.05193 16.5746 5.8591 16.6404V16.6406V16.6438V16.647V16.6502V16.6535V16.6567V16.6599V16.6632V16.6665V16.6697V16.673V16.6763V16.6796V16.6829V16.6862V16.6895V16.6928V16.6961V16.6995V16.7028V16.7062V16.7095V16.7129V16.7163V16.7196V16.723V16.7264V16.7298V16.7332V16.7366V16.74V16.7434V16.7469V16.7503V16.7537V16.7572V16.7606V16.7641V16.7676V16.771V16.7745V16.778V16.7815V16.785V16.7885V16.792V16.7955V16.7991V16.8026V16.8061V16.8097V16.8132V16.8168V16.8204V16.8239V16.8275V16.8311V16.8347V16.8383V16.8419V16.8455V16.8491V16.8527V16.8564V16.86V16.8636V16.8673V16.8709V16.8746V16.8782V16.8819V16.8856V16.8893V16.893V16.8967V16.9004V16.9041V16.9078V16.9115V16.9152V16.9189V16.9227V16.9264V16.9302V16.9339V16.9377V16.9414V16.9452V16.949V16.9528V16.9566V16.9604V16.9642V16.968V16.9718V16.9756V16.9794V16.9832V16.9871V16.9909V16.9948V16.9986V17.0025V17.0063V17.0102V17.0141V17.0179V17.0218V17.0257V17.0296V17.0335V17.0374V17.0413V17.0452V17.0491V17.0531V17.057V17.0609V17.0649V17.0688V17.0728V17.0767V17.0807V17.0847V17.0886V17.0926V17.0966V17.1006V17.1046V17.1086V17.1126V17.1166V17.1206V17.1246V17.1287V17.1327V17.1367V17.1408V17.1448V17.1489V17.1529V17.157V17.161V17.1651V17.1692V17.1733V17.1773V17.1814V17.1855V17.1896V17.1937V17.1978V17.2019V17.2061V17.2102V17.2143V17.2184V17.2226V17.2267V17.2309V17.235V17.2392V17.2433V17.2475V17.2517V17.2558V17.26V17.2642V17.2684V17.2726V17.2768V17.281V17.2852V17.2894V17.2936V17.2978V17.302V17.3063V17.3105V17.3147V17.319V17.3232V17.3274V17.3317V17.336V17.3402V17.3445V17.3487V17.353V17.3573V17.3616V17.3659V17.3701V17.3744V17.3787V17.383V17.3873V17.3917V17.396V17.4003V17.4046V17.4089V17.4133V17.4176V17.4219V17.4263V17.4306V17.435V17.4393V17.4437V17.448V17.4524V17.4568V17.4611V17.4655V17.4699V17.4743V17.4787V17.483V17.4874V17.4918V17.4962V17.5006V17.505V17.5095V17.5139V17.5183V17.5227V17.5271V17.5316V17.536V17.5404V17.5449V17.5493V17.5538V17.5582V17.5627V17.5671V17.5716V17.5761V17.5805V17.585V17.5895V17.5939V17.5984V17.6029V17.6074V17.6119V17.6164V17.6209V17.6254V17.6299V17.6344V17.6389V17.6434V17.6479V17.6524V17.6569V17.6615V17.666V17.6705V17.6751V17.6796V17.6841V17.6887V17.6932V17.6978V17.7023V17.7069V17.7114V17.716V17.7205V17.7251V17.7297V17.7342V17.7388V17.7434V17.748V17.7526V17.7571V17.7617V17.7663V17.7709V17.7755V17.7801V17.7847V17.7893V17.7939V17.7985V17.8031V17.8077V17.8124V17.817V17.8216V17.8262V17.8308V17.8355V17.8401V17.8447V17.8494V17.854V17.8586V17.8633V17.8679V17.8726V17.8772V17.8819V17.8865V17.8912V17.8958V17.9005V17.9052V17.9098V17.9145V17.9191V17.9238V22.4701C5.14088 22.4052 4.25913 22.2429 3.51144 21.9371C2.54629 21.5423 2 21.0004 2 20.2965Z" fill="#FAFBFE"/>
</svg>