<svg width="16" height="16" viewBox="0 0 16 16" fill="none" xmlns="http://www.w3.org/2000/svg">
<g clip-path="url(#clip0_4392_5)">
<path d="M0.381411 6.11239C0.750286 5.24101 1.36385 4.50255 2.13722 3.97989C2.90963 3.45726 3.84782 3.15095 4.84888 3.1512H6.23082L5.91222 2.39389C5.87051 2.29464 5.89563 2.18033 5.97454 2.1077C6.05394 2.03533 6.17001 2.02026 6.26501 2.07051L9.66913 3.86983C9.75257 3.91355 9.80482 4.00023 9.80432 4.0942C9.80432 4.18842 9.75257 4.27536 9.66913 4.31886L6.26501 6.11839C6.17054 6.16864 6.05444 6.15358 5.97504 6.08148C5.89563 6.00886 5.87054 5.89427 5.91222 5.7953L6.23132 5.03698H4.84888C4.43679 5.03723 4.04985 5.11992 3.69557 5.26942C3.16488 5.49355 2.71063 5.87067 2.39101 6.34408C2.07138 6.8182 1.88597 7.38308 1.88547 8.00014C1.88597 8.4117 1.96838 8.79917 2.11813 9.15295C2.34226 9.68364 2.71913 10.1379 3.19254 10.4575C3.66691 10.7771 4.23176 10.9625 4.84888 10.963V12.8488C4.18201 12.8488 3.54179 12.7131 2.96088 12.4674C2.08997 12.0985 1.35125 11.4849 0.828661 10.7118C0.306005 9.93892 -0.000525749 9.00092 -2.57492e-05 8.00014C5.50079e-06 7.3333 0.135692 6.69308 0.381411 6.11239Z" fill="black"/>
<path d="M6.33084 11.6812L9.73497 9.88162C9.82944 9.83137 9.94553 9.84643 10.0249 9.91856C10.1043 9.99118 10.1294 10.106 10.0877 10.2047L9.76862 10.963H11.1511C11.5632 10.9628 11.9501 10.8801 12.3044 10.7306C12.8351 10.5065 13.2893 10.1294 13.6089 9.65596C13.9286 9.18209 14.114 8.617 14.1145 8.00015C14.114 7.58834 14.0316 7.2009 13.8818 6.84712C13.6577 6.31643 13.2808 5.86215 12.8074 5.54253C12.3331 5.22293 11.7682 5.03753 11.1511 5.037V3.15125C11.8179 3.15125 12.4582 3.28693 13.0391 3.53265C13.91 3.90153 14.6487 4.51512 15.1713 5.2885C15.694 6.06115 16.0005 6.99912 16 8.00015C16 8.66703 15.8643 9.30696 15.6186 9.88765C15.2497 10.7591 14.6362 11.4975 13.8627 12.0202C13.0904 12.5428 12.1521 12.8491 11.1511 12.8488H9.76916L10.0877 13.6062C10.1295 13.7054 10.1043 13.82 10.0254 13.8923C9.94603 13.9647 9.82994 13.9798 9.73497 13.9295L6.33084 12.1305C6.24744 12.0865 6.19515 11.9998 6.19565 11.9058C6.19565 11.8116 6.24744 11.7247 6.33084 11.6812Z" fill="black"/>
</g>
<defs>
<clipPath id="clip0_4392_5">
<rect width="16" height="16" fill="white" transform="matrix(-1 0 0 1 16 0)"/>
</clipPath>
</defs>
</svg>
