<svg width="13" height="15" viewBox="0 0 13 15" fill="none" xmlns="http://www.w3.org/2000/svg">
  <path fill-rule="evenodd" clip-rule="evenodd" d="M0.976806 3.31758C0.976806 3.04144 1.20066 2.81758 1.47681 2.81758L2.39352 2.81758L2.39381 2.81758L2.39409 2.81758L3.72805 2.81758L3.72805 1.92421C3.72805 1.4155 3.97429 0.947052 4.30212 0.614987C4.62956 0.283322 5.09488 0.0308388 5.60368 0.0308388L8.35494 0.0308386C8.86374 0.0308386 9.32905 0.283322 9.65649 0.614987C9.98433 0.947052 10.2306 1.4155 10.2306 1.92421L10.2306 2.81758L11.5637 2.81758L11.5647 2.81758L11.5656 2.81758L12.4818 2.81758C12.758 2.81758 12.9818 3.04144 12.9818 3.31758C12.9818 3.59372 12.758 3.81758 12.4818 3.81758L12.0647 3.81758L12.0647 12.2584C12.0647 12.7449 11.8205 13.1862 11.5043 13.4945C11.1872 13.8036 10.7402 14.0356 10.2545 14.0356L3.70393 14.0356C3.21822 14.0356 2.77124 13.8036 2.45419 13.4945C2.13793 13.1862 1.89381 12.7449 1.89381 12.2584L1.89381 3.81758L1.47681 3.81758C1.20066 3.81758 0.976806 3.59372 0.976806 3.31758ZM9.73163 3.81758L9.73056 3.81758L9.7295 3.81758L4.22895 3.81758L4.22805 3.81758L4.22715 3.81758L2.89381 3.81758L2.89381 12.2584C2.89381 12.4105 2.97721 12.6078 3.15225 12.7785C3.3265 12.9484 3.53458 13.0356 3.70393 13.0356L10.2545 13.0356C10.4239 13.0356 10.632 12.9484 10.8062 12.7785C10.9813 12.6078 11.0647 12.4105 11.0647 12.2584L11.0647 3.81758L9.73163 3.81758ZM4.72805 2.81758L9.23056 2.81758L9.23056 1.92421C9.23056 1.73623 9.13289 1.508 8.94487 1.31755C8.75645 1.1267 8.53395 1.03084 8.35493 1.03084L5.60368 1.03084C5.42467 1.03084 5.20217 1.1267 5.01375 1.31755C4.82572 1.508 4.72805 1.73623 4.72805 1.92421L4.72805 2.81758ZM5.5 5.5C5.77614 5.5 6 5.72386 6 6L6 10.6446C6 10.9207 5.77614 11.1446 5.5 11.1446C5.22386 11.1446 5 10.9207 5 10.6446L5 6C5 5.72386 5.22386 5.5 5.5 5.5ZM9 6C9 5.72386 8.77614 5.5 8.5 5.5C8.22386 5.5 8 5.72386 8 6L8 10.6446C8 10.9207 8.22386 11.1446 8.5 11.1446C8.77614 11.1446 9 10.9207 9 10.6446L9 6Z"/>
</svg>
