<svg width="24" height="24" viewBox="0 0 24 24" fill="none" xmlns="http://www.w3.org/2000/svg">
<path fill-rule="evenodd" clip-rule="evenodd" d="M11.25 2V5.80952H12.75V2H11.25ZM3.34039 5.38862L6.20995 8.24576L7.26831 7.18281L4.39874 4.32566L3.34039 5.38862ZM19.6013 4.32566L16.7317 7.18281L17.79 8.24576L20.6596 5.38862L19.6013 4.32566ZM1 12.75H4.82609V11.25H1V12.75ZM23 11.25H19.1739V12.75H23V11.25ZM4.39874 19.6743L7.26831 16.8172L6.20995 15.7542L3.34039 18.6114L4.39874 19.6743ZM20.6596 18.6114L17.79 15.7542L16.7317 16.8172L19.6013 19.6743L20.6596 18.6114ZM12.75 22V18.1905H11.25V22H12.75ZM12 7.71429C9.63309 7.71429 7.69568 9.63307 7.69568 12C7.69568 14.3669 9.63309 16.2857 12 16.2857C14.367 16.2857 16.3044 14.3669 16.3044 12C16.3044 9.63307 14.367 7.71429 12 7.71429Z" />
</svg>
