<svg width="24" height="24" viewBox="0 0 24 24" fill="none" xmlns="http://www.w3.org/2000/svg">
<path fill-rule="evenodd" clip-rule="evenodd" d="M9.7462 6.89336C9.7462 6.70538 9.84387 6.47714 10.0319 6.28669C10.2203 6.09584 10.4428 5.99998 10.6218 5.99998H13.3731C13.5521 5.99998 13.7746 6.09584 13.963 6.28669C14.151 6.47714 14.2487 6.70538 14.2487 6.89336V7.78673H9.7462V6.89336ZM8.7462 7.78673V6.89336C8.7462 6.38465 8.99243 5.9162 9.32027 5.58413C9.64771 5.25247 10.113 4.99998 10.6218 4.99998H13.3731C13.8819 4.99998 14.3472 5.25247 14.6746 5.58413C15.0025 5.9162 15.2487 6.38465 15.2487 6.89336V7.78673H16.5828H17.5C17.7761 7.78673 18 8.01059 18 8.28673C18 8.56287 17.7761 8.78673 17.5 8.78673H17.0828V17.2275C17.0828 17.714 16.8387 18.1553 16.5224 18.4637C16.2054 18.7728 15.7584 19.0048 15.2727 19.0048H8.72209C8.23638 19.0048 7.7894 18.7728 7.47235 18.4637C7.15609 18.1553 6.91197 17.714 6.91197 17.2275V8.78673H6.49498C6.21883 8.78673 5.99498 8.56287 5.99498 8.28673C5.99498 8.01059 6.21883 7.78673 6.49498 7.78673H7.41197H8.7462ZM9.2473 8.78673L9.2462 8.78673L9.24509 8.78673H7.91197V17.2275C7.91197 17.3797 7.99537 17.577 8.17042 17.7476C8.34466 17.9175 8.55274 18.0048 8.72209 18.0048H15.2727C15.4421 18.0048 15.6501 17.9175 15.8244 17.7476C15.9994 17.577 16.0828 17.3797 16.0828 17.2275V8.78673H14.7498L14.7487 8.78673L14.7476 8.78673H9.2473ZM10.5182 10.4692C10.7943 10.4692 11.0182 10.693 11.0182 10.9692V15.6137C11.0182 15.8899 10.7943 16.1137 10.5182 16.1137C10.242 16.1137 10.0182 15.8899 10.0182 15.6137V10.9692C10.0182 10.693 10.242 10.4692 10.5182 10.4692ZM14.0182 10.9692C14.0182 10.693 13.7943 10.4692 13.5182 10.4692C13.242 10.4692 13.0182 10.693 13.0182 10.9692V15.6137C13.0182 15.8899 13.242 16.1137 13.5182 16.1137C13.7943 16.1137 14.0182 15.8899 14.0182 15.6137V10.9692Z"/>
</svg>
