<svg width="24" height="24" viewBox="0 0 24 24" fill="none" xmlns="http://www.w3.org/2000/svg">
<path d="M12.2361 5.72192C13.0341 5.72192 13.7244 5.86759 14.3071 6.15892C14.9024 6.43759 15.3648 6.83659 15.6941 7.35592C16.0234 7.86259 16.1881 8.45159 16.1881 9.12292C16.1881 9.84492 16.0424 10.4529 15.7511 10.9469C15.4598 11.4283 15.0418 11.8146 14.4971 12.1059C13.9524 12.3846 13.2938 12.6063 12.5211 12.7709V15.0129H11.5521V12.2579C12.4894 12.0426 13.2178 11.8083 13.7371 11.5549C14.2691 11.3016 14.6428 10.9913 14.8581 10.6239C15.0861 10.2566 15.2001 9.80059 15.2001 9.25592C15.2001 8.72392 15.0798 8.26159 14.8391 7.86892C14.6111 7.46359 14.2691 7.15326 13.8131 6.93792C13.3698 6.70992 12.8188 6.59592 12.1601 6.59592C11.1974 6.59592 10.4374 6.84926 9.88011 7.35592C9.32278 7.84992 8.98711 8.53392 8.87311 9.40792L8.03711 8.95192C8.16378 8.29326 8.40444 7.72326 8.75911 7.24192C9.12644 6.74792 9.60144 6.37426 10.1841 6.12092C10.7668 5.85492 11.4508 5.72192 12.2361 5.72192ZM12.0271 16.8939C12.2804 16.8939 12.4831 16.9763 12.6351 17.1409C12.7871 17.2929 12.8631 17.4956 12.8631 17.7489C12.8631 18.0023 12.7871 18.2113 12.6351 18.3759C12.4831 18.5279 12.2804 18.6039 12.0271 18.6039C11.7611 18.6039 11.5521 18.5279 11.4001 18.3759C11.2481 18.2113 11.1721 18.0023 11.1721 17.7489C11.1721 17.4956 11.2481 17.2929 11.4001 17.1409C11.5521 16.9763 11.7611 16.8939 12.0271 16.8939Z" />
</svg>
