<svg xmlns="http://www.w3.org/2000/svg" width="24" height="24" viewBox="0 0 24 24" fill="none">
<path fill-rule="evenodd" clip-rule="evenodd" d="M11.5666 2.6586C9.77188 4.22548 7.16085 5.49996 5 5.49996C4.86739 5.49996 4.74022 5.55264 4.64645 5.64641C4.55268 5.74018 4.5 5.86735 4.5 5.99996V13C4.5 15.3679 5.3229 17.118 6.629 18.4557C7.94872 19.8073 9.78437 20.7598 11.8332 21.4673L11.8446 21.4713L11.8445 21.4714C11.9517 21.5113 12.0694 21.5133 12.1778 21.477C14.2211 20.7645 16.0537 19.8097 17.3719 18.4572C18.6771 17.1181 19.5 15.3679 19.5 13V5.99996C19.5 5.86735 19.4473 5.74018 19.3536 5.64641C19.2598 5.55264 19.1326 5.49996 19 5.49996C16.8395 5.49996 14.2385 4.23583 12.4334 2.65855C12.3123 2.55589 12.1588 2.49951 12 2.49951C11.8412 2.49951 11.6876 2.55591 11.5666 2.6586ZM10.9152 1.89981C11.2176 1.64146 11.6023 1.49951 12 1.49951C12.3977 1.49951 12.7824 1.64146 13.0848 1.89981L13.0891 1.90352L13.0891 1.90354C14.7839 3.38524 17.1614 4.49996 19 4.49996C19.3978 4.49996 19.7794 4.658 20.0607 4.9393C20.342 5.22061 20.5 5.60214 20.5 5.99996V13C20.5 15.632 19.5729 17.6318 18.0881 19.1552C16.6168 20.6647 14.6203 21.6846 12.5046 22.4221L12.5005 22.4235L12.5005 22.4235C12.1758 22.5335 11.8233 22.529 11.5017 22.4108C9.38241 21.6784 7.38509 20.6614 5.9135 19.1543C4.4271 17.6319 3.5 15.632 3.5 13V5.99996C3.5 5.60214 3.65804 5.22061 3.93934 4.9393C4.22064 4.658 4.60217 4.49996 5 4.49996C6.83819 4.49996 9.22581 3.37558 10.9111 1.9034L10.9152 1.89979L10.9152 1.89981ZM12 7.49996C12.2761 7.49996 12.5 7.72382 12.5 7.99996V12C12.5 12.2761 12.2761 12.5 12 12.5C11.7239 12.5 11.5 12.2761 11.5 12V7.99996C11.5 7.72382 11.7239 7.49996 12 7.49996ZM11.5 16C11.5 15.7238 11.7239 15.5 12 15.5H12.01C12.2861 15.5 12.51 15.7238 12.51 16C12.51 16.2761 12.2861 16.5 12.01 16.5H12C11.7239 16.5 11.5 16.2761 11.5 16Z" fill="#1A1E21"/>
</svg>